<svg width="80" height="80" viewBox="0 0 80 80" fill="none" xmlns="http://www.w3.org/2000/svg">
<path d="M63.847 7.07449C68.6572 6.37512 71.4883 11.4229 68.5414 15.1377L51.6643 31.9821L51.6126 68.1844C50.986 74.1619 42.6602 74.3223 41.7068 68.5094L41.6985 29.6289C41.7089 28.5285 42.2404 27.5206 42.9414 26.6998L61.4771 8.26546C62.1326 7.71831 62.9888 7.19996 63.847 7.07449ZM64.4633 10.308C64.1613 10.3656 63.8118 10.6207 63.5699 10.812L45.5781 28.7074L44.997 29.6721L44.9557 67.7483C45.0239 69.9102 47.8013 70.1735 48.2231 68.0548L48.2893 31.0955L48.7588 30.174L66.128 12.8936C66.9532 11.6368 66.006 10.0098 64.4653 10.3101L64.4633 10.308Z" fill="#4F4F4F"/>
<path d="M14.2146 7.07448C15.8566 6.83588 17.1574 7.16088 18.4416 8.18935L37.0558 26.6998L38.094 28.4441C38.5531 41.7567 38.1643 55.1639 38.2904 68.5094C37.2709 74.3635 29.0753 74.1043 28.3846 68.1844L28.3329 31.9821L11.4558 15.1377C8.96802 12.4925 10.5811 7.60312 14.2146 7.07448ZM32.136 69.0051C33.0997 70.0871 35.0229 69.3486 35.0354 67.8964L35.0002 29.6721L34.4956 28.7856L16.4273 10.8099C14.8825 9.38033 12.7442 11.102 13.8713 12.8915L31.2405 30.172L31.71 31.0935L31.77 67.9026C31.7741 68.2482 31.9106 68.7501 32.136 69.0051Z" fill="#4F4F4F"/>
<path d="M5.99419 16.9478C7.61344 16.7133 9.06933 17.0754 10.2915 18.147C14.2187 22.7546 20.1663 26.9981 23.8639 31.6447C27.5615 36.2914 21.889 42.3882 16.9919 38.7885L3.24166 25.1592C0.726951 22.409 2.22626 17.4929 5.99212 16.9499L5.99419 16.9478ZM21.3327 36.1392C22.0089 35.4522 21.8683 34.3126 21.2251 33.6503C16.8368 29.8264 12.8641 24.5832 8.43651 20.9157C7.72098 20.3233 7.22672 19.9057 6.24855 20.2924C5.0429 20.7676 4.97879 22.3227 5.87631 23.1537C10.2584 26.8994 14.2497 32.3235 18.6649 35.8882C19.4859 36.5506 20.431 37.0566 21.3306 36.1412L21.3327 36.1392Z" fill="#4F4F4F"/>
<path d="M72.0632 16.9458C76.8486 16.1971 79.7004 21.2037 76.8858 24.9823L63.0032 38.7885C58.1661 42.3306 52.3902 36.6267 55.9989 31.8216C60.6312 27.7263 64.9058 22.0984 69.6188 18.217C70.2909 17.6637 71.1843 17.0815 72.0611 16.9437L72.0632 16.9458ZM58.6625 36.1392C59.5621 37.0545 60.5071 36.5485 61.3281 35.8862C65.7434 32.3215 69.7346 26.8973 74.1168 23.1516C75.0143 22.3206 74.9502 20.7655 73.7445 20.2904C72.7663 19.9057 72.2721 20.3212 71.5565 20.9136C67.1289 24.5812 63.1583 29.8264 58.7679 33.6482C58.1248 34.3106 57.9842 35.4501 58.6604 36.1371L58.6625 36.1392Z" fill="#4F4F4F"/>
</svg>
