<svg width="24" height="24" viewBox="0 0 24 24" fill="none" xmlns="http://www.w3.org/2000/svg">
<path d="M11.0352 0.945312C11.274 0.932023 11.4819 1.02817 11.6211 1.13281C11.6741 1.17287 11.7144 1.22267 11.7559 1.26758C11.7758 1.25526 11.7928 1.23773 11.8145 1.22656C12.0113 1.12503 12.2296 1.10218 12.4355 1.15625L12.6348 1.23242L12.7871 1.30273L12.8223 1.31445V1.32031C12.8649 1.2769 12.8985 1.21841 12.9512 1.17969C13.0949 1.07442 13.3281 0.961074 13.6191 0.998047L13.8945 1.08008C14.1293 1.19921 14.2541 1.40648 14.3047 1.50781C14.309 1.51647 14.3065 1.52837 14.3105 1.53711L14.4219 1.55469L14.5332 1.60156C14.6427 1.58031 14.7691 1.56975 14.9082 1.60742C15.002 1.63303 15.0797 1.67843 15.1484 1.72461C15.2409 1.70167 15.3442 1.67724 15.459 1.68945L15.6875 1.74219C15.8503 1.80685 15.9629 1.92637 16.0508 2.04102C16.0921 2.05045 16.1369 2.05294 16.1797 2.07031C16.39 2.15672 16.5138 2.30646 16.5898 2.44531C16.6963 2.47699 16.7849 2.52984 16.8652 2.58594C16.9601 2.57931 17.0651 2.58126 17.1758 2.61523C17.3883 2.68122 17.5258 2.81142 17.6152 2.94336C17.7627 2.9414 17.933 2.96182 18.0957 3.06641C18.2712 3.09592 18.4447 3.17664 18.582 3.32422C18.682 3.33087 18.7978 3.35315 18.916 3.41211C18.9984 3.4533 19.0714 3.50394 19.1328 3.56445L19.2852 3.76367L19.3438 3.95117C19.477 3.97404 19.6215 4.00879 19.7539 4.09766L19.9531 4.27344L20.1406 4.58398L20.2285 4.90039L20.2227 4.92383C20.2958 4.9654 20.37 5.01328 20.4336 5.08203L20.5684 5.27539L20.6797 5.57422C20.683 5.58926 20.6769 5.60609 20.6797 5.62109C20.7183 5.63484 20.7583 5.64786 20.7969 5.66211L21.002 5.77344C21.072 5.82329 21.1417 5.88873 21.2012 5.97266C21.3224 6.1442 21.3568 6.33023 21.3535 6.48242C21.3521 6.54799 21.3257 6.60591 21.3125 6.66406C21.3586 6.70333 21.4171 6.72958 21.459 6.77539L21.6113 6.99805V7.00977C21.7044 7.03475 21.8218 7.07924 21.9336 7.16797C22.0352 7.24925 22.1157 7.35354 22.168 7.4668L22.2441 7.82422C22.2431 7.87517 22.2444 7.92178 22.25 7.95898L22.2559 8.19922C22.24 8.32768 22.1829 8.4303 22.1387 8.51562L22.3379 8.59766L22.5898 8.82617C22.6685 8.92778 22.7333 9.05833 22.7598 9.21875C22.7834 9.36188 22.7612 9.48927 22.7305 9.59961C22.74 9.62911 22.7588 9.65598 22.7656 9.6875C22.7862 9.7843 22.7906 9.88032 22.7832 9.96875L22.7305 10.2207C22.7131 10.2703 22.6912 10.3181 22.6719 10.3672C22.685 10.429 22.7028 10.4925 22.7012 10.5605C22.6979 10.6889 22.6542 10.7975 22.6133 10.8887C22.7677 11.0127 22.9999 11.2511 22.9531 11.6445C22.9257 11.8723 22.8095 12.0332 22.7246 12.125C22.7105 12.1402 22.6862 12.1465 22.6719 12.1602C22.6674 12.1783 22.66 12.195 22.6543 12.2129C22.7363 12.3151 22.8271 12.4336 22.8711 12.5879L22.9062 12.8516L22.877 13.0801C22.8444 13.2021 22.7762 13.2956 22.7129 13.3789L22.748 13.5371L22.707 13.8418C22.7737 14.02 22.8204 14.2499 22.7129 14.498C22.6171 14.719 22.4485 14.8435 22.3203 14.9199C22.3714 15.0036 22.4207 15.1025 22.4492 15.2188C22.4921 15.3939 22.4877 15.5922 22.4082 15.7812L22.3086 15.9629L22.2324 16.0801C22.1784 16.1834 22.1006 16.2681 22.0273 16.3555C21.993 16.4938 21.9378 16.628 21.834 16.7363C21.7946 16.7773 21.7461 16.8009 21.7051 16.8301C21.7193 16.9787 21.7171 17.1694 21.5938 17.3574C21.487 17.5197 21.3431 17.5995 21.2246 17.6504C21.2263 17.666 21.2355 17.681 21.2363 17.6973C21.2423 17.8218 21.2224 17.9932 21.1191 18.1602C21.0129 18.3308 20.8622 18.4312 20.7324 18.4824C20.6267 18.5239 20.525 18.5326 20.4395 18.5352L20.3867 18.7344C20.3651 18.8235 20.3385 18.9127 20.2988 18.998L20.1465 19.2441C20.0798 19.3307 20.0009 19.3888 19.9238 19.4375C19.9184 19.465 19.9268 19.497 19.918 19.5254C19.8657 19.6918 19.753 19.8557 19.5723 19.9648C19.5279 19.9916 19.4803 20.0016 19.4375 20.0176C19.4199 20.1683 19.3688 20.3492 19.2207 20.5098C19.038 20.7069 18.8021 20.7694 18.623 20.7734C18.4861 20.7762 18.3722 20.7375 18.2891 20.709C18.2397 20.8164 18.163 20.9314 18.0312 21.0254C17.949 21.0838 17.8649 21.1202 17.7852 21.1426C17.7693 21.2386 17.7515 21.3565 17.6855 21.4707L17.5332 21.6641C17.2324 21.9506 16.8645 21.92 16.6543 21.8516C16.6463 21.8489 16.6387 21.8426 16.6309 21.8398C16.5046 21.8977 16.3862 21.9241 16.2734 21.9219C16.231 21.9468 16.194 21.985 16.1445 22.0039C16.0968 22.0221 16.0445 22.0178 15.998 22.0273C15.8682 22.1494 15.6902 22.2543 15.4414 22.2559C15.3107 22.2566 15.1986 22.2198 15.1016 22.1797L15.0898 22.2324C15.0242 22.3697 14.8604 22.6291 14.5273 22.7305C14.3263 22.7911 14.1495 22.7612 14.0059 22.7129C13.9546 22.7216 13.9038 22.7438 13.8477 22.7422C13.7353 22.7389 13.6368 22.7113 13.5547 22.6777C13.4651 22.7431 13.3584 22.8044 13.2207 22.8301C13.0462 22.8624 12.8993 22.8256 12.7754 22.7773C12.6971 22.8158 12.6095 22.8524 12.5059 22.8652C12.4351 22.8738 12.3658 22.8673 12.3008 22.8594V22.8652C12.1647 22.9627 11.9607 23.0469 11.7148 23.0176C11.7065 23.0166 11.6995 23.0071 11.6914 23.0059C11.5978 23.0443 11.4933 23.0818 11.3691 23.082C11.1805 23.0822 11.0257 23.0225 10.9062 22.9473C10.8286 22.9414 10.7475 22.927 10.666 22.8945C10.5894 22.8639 10.5334 22.8135 10.4785 22.7715C10.3736 22.8161 10.2541 22.8612 10.1094 22.8535C9.63809 22.8282 9.42585 22.4545 9.36523 22.3262C9.35128 22.3237 9.33768 22.3234 9.32422 22.3203C9.30978 22.3309 9.29772 22.3449 9.2832 22.3555C9.17242 22.4365 8.88258 22.6214 8.50977 22.5254C8.40627 22.4985 8.31947 22.4525 8.24609 22.4023C8.21142 22.4056 8.17688 22.4144 8.14062 22.4141L7.88867 22.3848C7.48013 22.2744 7.33541 21.9315 7.28516 21.7578C7.1532 21.7685 6.99962 21.7574 6.83984 21.6816C6.5258 21.5318 6.40361 21.2524 6.35938 21.084C6.35691 21.0746 6.35582 21.0641 6.35352 21.0547C6.2227 21.0178 6.11354 20.9596 6.01953 20.8848L6.01367 20.8906C5.80144 20.8806 5.55395 20.7824 5.38672 20.5508C5.36606 20.522 5.36139 20.4858 5.3457 20.457C5.23456 20.4617 5.10145 20.4677 4.96484 20.4102L4.71875 20.252C4.58429 20.1273 4.50279 19.9808 4.44922 19.8359C4.39611 19.8209 4.33663 19.8029 4.2793 19.7715C4.11938 19.6833 3.99574 19.5466 3.92773 19.3848C3.83865 19.1723 3.8671 18.9752 3.89258 18.8633C3.88219 18.8586 3.86783 18.8625 3.85742 18.8574C3.68379 18.7718 3.5669 18.627 3.48242 18.4648C3.38422 18.3867 3.30367 18.2941 3.24805 18.1836C3.12842 18.1322 2.9982 18.0405 2.89648 17.8848C2.87395 17.8501 2.85958 17.8137 2.84375 17.7793C2.65947 17.7352 2.32799 17.6107 2.19922 17.2227C2.12696 17.0031 2.16292 16.8045 2.21094 16.6602C2.08941 16.5687 1.97803 16.4461 1.90625 16.2852L1.82422 15.9863C1.82222 15.965 1.83126 15.9431 1.83008 15.9219C1.70485 15.7954 1.59391 15.615 1.58984 15.3594C1.58933 15.3226 1.60359 15.2882 1.60742 15.2539C1.55623 15.1638 1.50797 15.0619 1.49609 14.9375C1.48763 14.8484 1.51038 14.77 1.52539 14.6973C1.51211 14.6689 1.48322 14.647 1.47266 14.6152C1.4217 14.4606 1.43041 14.321 1.45508 14.1992C1.39426 14.1349 1.32176 14.0628 1.2793 13.959C1.1879 13.7339 1.23249 13.5341 1.29102 13.3789C1.23309 13.2891 1.17907 13.1775 1.16211 13.0391C1.14895 12.9304 1.1637 12.8329 1.18555 12.7461C1.16454 12.6927 1.13089 12.6409 1.12109 12.5762C1.07943 12.2979 1.18426 12.0739 1.28516 11.9434C1.30993 11.9114 1.34702 11.8932 1.37305 11.8672C1.37912 11.8334 1.36873 11.7956 1.37891 11.7617C1.39122 11.7208 1.41523 11.6867 1.43164 11.6504C1.37769 11.5283 1.34904 11.3902 1.36133 11.2285C1.26549 11.0843 1.15366 10.847 1.24414 10.5488C1.3272 10.2762 1.52317 10.1347 1.625 10.0742C1.65536 9.91015 1.72186 9.76876 1.80664 9.64062C1.81261 9.58712 1.81077 9.53394 1.82422 9.48242L1.8125 9.47656C1.74927 9.42328 1.64003 9.32856 1.56055 9.18945C1.476 9.04089 1.36139 8.71133 1.56641 8.36914C1.6111 8.29475 1.65905 8.23027 1.71289 8.18164C1.71684 8.02854 1.73964 7.8615 1.8418 7.70703C1.92336 7.58431 2.02553 7.4993 2.12305 7.4375C2.16845 7.33707 2.22742 7.24239 2.29883 7.15625L2.32812 7.12109L2.46289 6.91602V6.91016C2.41452 6.75646 2.36618 6.46563 2.5332 6.17188C2.65338 5.96084 2.83112 5.8568 2.98438 5.79688C3.10693 5.65848 3.26025 5.58638 3.39453 5.54492C3.40038 5.48655 3.39607 5.42331 3.41211 5.36328L3.52344 5.10547C3.57484 5.02242 3.64126 4.94447 3.72266 4.87695C3.83037 4.78766 3.94771 4.73562 4.05664 4.70117C4.08112 4.67114 4.10793 4.64301 4.13281 4.61328C4.19302 4.54136 4.25637 4.47094 4.32031 4.40234L4.70703 4.10352L4.8125 4.0625C4.80417 3.93559 4.80928 3.77292 4.87109 3.60547L4.98242 3.38867C5.11774 3.18394 5.32514 3.02785 5.5918 2.9668L5.97266 2.96094C6.07688 2.98007 6.16403 3.01135 6.22461 3.03711C6.31087 2.86674 6.45671 2.69874 6.6875 2.60938C6.74934 2.46497 6.85606 2.30258 7.05664 2.19336C7.12718 2.15504 7.20025 2.13905 7.26758 2.12305C7.34718 2.01554 7.44931 1.91009 7.5957 1.83594L7.7832 1.73633L8.09375 1.58398L8.38672 1.51953C8.55432 1.51436 8.68951 1.58425 8.79688 1.63672C8.91928 1.45918 9.17659 1.25084 9.54102 1.28516C9.64608 1.29511 9.72885 1.34334 9.80469 1.37891C9.86288 1.36085 9.92116 1.33707 9.98633 1.33203C10.1077 1.32299 10.2161 1.34988 10.3086 1.37891C10.4148 1.23192 10.5663 1.07926 10.7891 0.998047L11.0352 0.945312ZM11.1582 22.9121C11.226 22.9041 11.2856 22.8879 11.334 22.8652V22.8594C11.2812 22.8856 11.2214 22.8966 11.1582 22.9121ZM12.4238 22.543L12.4414 22.5488C12.4205 22.5272 12.3948 22.5162 12.3828 22.502L12.4238 22.543ZM12.2656 21.6992C12.2363 21.6709 12.1831 21.6352 12.1133 21.5996C12.1684 21.6359 12.226 21.661 12.2656 21.6992ZM12.2832 2.87305C12.125 3.00605 11.8768 3.12828 11.5742 3.08398C11.3217 3.04664 11.1464 2.9088 11.041 2.80273C10.9551 2.85059 10.8643 2.90308 10.7539 2.91992L10.5371 2.92578C10.4713 2.91931 10.4042 2.91073 10.3379 2.9082V2.90234C10.1407 3.07219 9.87631 3.14529 9.61133 3.07812C9.60506 3.07653 9.59989 3.06812 9.59375 3.06641C9.56542 3.10994 9.54733 3.16472 9.50586 3.20703C9.2913 3.42442 8.99328 3.48763 8.73242 3.42383C8.57981 3.38625 8.46229 3.31305 8.38672 3.25391C8.31242 3.37563 8.20622 3.50558 8.0293 3.58789C7.98129 3.6102 7.92911 3.61074 7.88281 3.62305C7.80396 3.7325 7.70498 3.83654 7.55469 3.9043C7.51401 4.03792 7.44843 4.19097 7.30273 4.31445C7.21534 4.38849 7.12141 4.43049 7.0332 4.46094C6.87465 4.64613 6.65449 4.74231 6.44141 4.74805C6.41927 4.74861 6.39803 4.73741 6.37695 4.73633C6.34845 4.85303 6.3031 4.99681 6.18359 5.12305C6.10249 5.20846 6.01109 5.27006 5.91992 5.31055L5.65039 5.38086C5.58578 5.38703 5.52413 5.39758 5.46875 5.41016C5.4395 5.41697 5.4197 5.42267 5.41016 5.42773C5.36609 5.47519 5.32284 5.52453 5.28125 5.57422C5.23482 5.62971 5.19121 5.68742 5.14648 5.74414C5.08101 5.82721 5.00113 5.88885 4.92383 5.94336C4.9345 6.04097 4.94876 6.14755 4.92969 6.25977L4.85938 6.5C4.70889 6.83709 4.40582 6.96004 4.20898 6.99805C4.18058 7.00348 4.14899 6.98915 4.12109 6.99219C4.15317 7.13304 4.15919 7.30746 4.08594 7.49609C3.96548 7.80605 3.71932 7.92433 3.53516 7.98242C3.51818 8.00711 3.50654 8.03484 3.48828 8.05859C3.43815 8.24928 3.3397 8.38919 3.22461 8.49805C3.22678 8.56061 3.22878 8.62102 3.21875 8.67969C3.23643 8.69736 3.26094 8.70803 3.27734 8.72656C3.33571 8.79283 3.44062 8.92779 3.48828 9.11914C3.53266 9.29916 3.52034 9.50163 3.42969 9.68164L3.3125 9.85156C3.29223 9.87448 3.27097 9.89908 3.25391 9.92188C3.23511 10.0724 3.18671 10.2027 3.11328 10.3262C3.14182 10.4569 3.15625 10.6017 3.10742 10.7539C3.07274 10.862 3.0167 10.9473 2.96094 11.0176C2.967 11.1123 2.95684 11.2096 2.92578 11.3105L2.93164 11.3164L3.01367 11.627C3.02216 11.7372 3.00763 11.8534 2.97266 11.9668C2.9465 12.0508 2.9018 12.119 2.86133 12.1836C2.85704 12.2785 2.83514 12.3676 2.80273 12.4531C2.8207 12.5088 2.85576 12.5627 2.86133 12.6289C2.86457 12.6678 2.84568 12.7041 2.84375 12.7402C2.90359 12.8171 2.97294 12.9023 3.00781 13.0156L3.04297 13.2441L3.00781 13.4199C3.04443 13.4664 3.084 13.5162 3.11328 13.5781C3.15976 13.6767 3.1889 13.7769 3.19531 13.877L3.16016 14.1641C3.14956 14.2007 3.12127 14.2294 3.10742 14.2637C3.13626 14.333 3.18096 14.4009 3.18945 14.4863C3.19804 14.5745 3.17464 14.6541 3.16016 14.7266C3.17873 14.7685 3.21205 14.8063 3.22461 14.8555C3.25978 14.9932 3.24613 15.1181 3.22461 15.2246C3.27908 15.3331 3.30409 15.4401 3.3125 15.5527C3.33352 15.5634 3.35636 15.5711 3.37695 15.582L3.62305 15.7695C3.70113 15.8521 3.77092 15.9542 3.81641 16.0801C3.85323 16.1821 3.85567 16.2814 3.85742 16.373C4.02299 16.4302 4.25027 16.5508 4.36133 16.8301C4.36859 16.8484 4.36734 16.8706 4.37305 16.8887C4.57852 17.0367 4.69654 17.2609 4.71289 17.4922C4.71356 17.5019 4.7067 17.5119 4.70703 17.5215C4.78174 17.5471 4.86611 17.5673 4.94141 17.6211C5.05629 17.7033 5.13155 17.8059 5.1875 17.9082C5.24283 17.9461 5.29553 17.9956 5.3457 18.0547C5.47325 18.2049 5.50688 18.3693 5.52148 18.5C5.55227 18.5251 5.59231 18.5446 5.62109 18.5762C5.67052 18.6307 5.69636 18.695 5.72656 18.752C5.82331 18.7324 5.97924 18.7206 6.1543 18.7695C6.2551 18.7978 6.35139 18.8458 6.43555 18.9102L6.64648 19.1504L6.75781 19.4492C6.76006 19.4608 6.756 19.4731 6.75781 19.4844C6.79233 19.5072 6.82744 19.5279 6.85742 19.5547C7.05569 19.5338 7.31217 19.5574 7.53711 19.7832C7.63645 19.8832 7.69259 19.9945 7.73047 20.0996C7.73823 20.0992 7.74607 20.0999 7.75391 20.0996L8.17578 20.1699L8.42188 20.3223C8.6223 20.4999 8.68779 20.7337 8.70898 20.832C8.7106 20.8395 8.70752 20.8479 8.70898 20.8555C8.72996 20.8616 8.75208 20.8651 8.77344 20.873C8.89931 20.7874 9.10911 20.677 9.38281 20.7031C9.45708 20.7104 9.52588 20.728 9.58789 20.75C9.71101 20.7223 9.85159 20.7129 10.0098 20.7617C10.1399 20.8022 10.2398 20.8705 10.3203 20.9434C10.3557 20.9263 10.3904 20.9033 10.4316 20.8906C10.7529 20.7918 11.0464 20.9097 11.2285 21.084C11.369 21.2185 11.4335 21.3735 11.4629 21.4531V21.4648H11.4746C11.5455 21.3783 11.6705 21.2561 11.8613 21.1895C12.0857 21.1116 12.2974 21.1552 12.4707 21.2363C12.575 21.1962 12.6798 21.1643 12.793 21.166C12.8671 21.066 12.9872 20.931 13.1855 20.8613C13.4529 20.7679 13.7012 20.8336 13.8594 20.9199C13.9029 20.9438 13.9299 20.9868 13.9648 21.0137C13.9814 20.9831 13.9915 20.9441 14.0117 20.9141C14.1032 20.7789 14.2594 20.6163 14.5039 20.5391L14.8145 20.4863L15.1074 20.5039L15.3945 20.6152C15.4533 20.5939 15.507 20.5708 15.5645 20.5625C15.6565 20.4935 15.7694 20.4404 15.8984 20.4102C15.9076 20.408 15.9187 20.4061 15.9277 20.4043C16.0214 20.3129 16.133 20.2549 16.2559 20.2168C16.2834 20.0319 16.3806 19.6712 16.7891 19.5195L17 19.4668C17.0404 19.4625 17.0797 19.4659 17.1172 19.4668C17.1644 19.4216 17.2071 19.3763 17.2637 19.3438C17.3339 19.2239 17.4369 19.1138 17.5801 19.0391C17.6732 18.9906 17.7626 18.962 17.8438 18.9512C17.8682 18.8899 17.8911 18.8201 17.9375 18.7578C18.0539 18.602 18.2099 18.5274 18.3535 18.4824C18.4035 18.3686 18.4747 18.2498 18.5938 18.1602C18.7444 18.0471 18.9041 18.0113 19.0156 18.002C19.0254 18.0011 19.0353 18.0024 19.0449 18.002C19.0594 17.9604 19.075 17.9195 19.0918 17.8789C19.0699 17.7359 19.0655 17.5165 19.209 17.2988C19.394 17.0188 19.6753 16.951 19.8125 16.9355L19.8359 16.8887C19.865 16.7692 19.9247 16.6672 19.9941 16.5781C19.9634 16.4612 19.9418 16.3046 19.9941 16.127C20.0698 15.8709 20.2472 15.7118 20.4043 15.6289C20.5406 15.5572 20.6826 15.5325 20.8027 15.5234C20.8232 15.4967 20.8324 15.4606 20.8555 15.4355L20.7266 15.1484C20.6748 14.9844 20.6558 14.7778 20.7266 14.5625C20.7953 14.3546 20.9272 14.2047 21.0547 14.1055C21.1011 14.0241 21.1482 13.9491 21.207 13.8887C21.2071 13.8388 21.2165 13.7884 21.2246 13.7363C21.0898 13.5742 20.9182 13.3005 21.0488 12.9277C21.0744 12.855 21.1117 12.7945 21.1484 12.7402C21.0369 12.5706 20.9409 12.3338 21.0137 12.0488C21.0517 11.9014 21.1205 11.7809 21.1953 11.6914C21.2021 11.6586 21.209 11.6272 21.2188 11.5977L21.207 11.5859C21.1136 11.5123 20.9883 11.3831 20.9199 11.1875C20.8466 10.9767 20.864 10.7695 20.9316 10.6016C20.9867 10.4658 21.0665 10.3533 21.1484 10.2734C21.1585 10.156 21.1827 10.0402 21.2305 9.93359V9.92188C21.218 9.88678 21.2211 9.84798 21.2129 9.81055C21.1445 9.79627 21.0695 9.79373 21.002 9.76953C20.8782 9.72501 20.6723 9.63086 20.5215 9.42383C20.4374 9.30819 20.3686 9.17927 20.3164 9.04297C20.2077 8.75831 20.2876 8.51397 20.3633 8.35742C20.2577 8.28613 20.1463 8.18171 20.0762 8.02344C20.0003 7.85141 19.9904 7.68481 20.0117 7.56055L20.0059 7.55469C19.7413 7.33918 19.6796 7.04383 19.6953 6.81641L19.4434 6.58203C19.3695 6.48649 19.3212 6.38478 19.2852 6.2832C19.1631 6.25163 19.0181 6.19564 18.8926 6.06641C18.716 5.88349 18.6635 5.66596 18.6582 5.50977C18.6279 5.51095 18.597 5.52956 18.5645 5.52734C18.357 5.5128 18.0861 5.40956 17.9199 5.14062C17.8592 5.04164 17.8305 4.94186 17.8145 4.85352L17.5215 4.63672C17.4961 4.60651 17.483 4.56911 17.4629 4.53711C17.3822 4.56131 17.297 4.59541 17.1992 4.5957C17.0381 4.59615 16.8395 4.55344 16.666 4.41406C16.5605 4.32904 16.4963 4.22596 16.4492 4.13281C16.2567 4.08642 16.11 3.98853 16.0039 3.86328C15.7867 3.83247 15.6081 3.72556 15.4766 3.57617C15.407 3.56132 15.3277 3.55624 15.2539 3.51758C15.2167 3.49794 15.1914 3.46423 15.1602 3.44141C15.0319 3.48183 14.8684 3.51129 14.6797 3.45312C14.423 3.37383 14.2843 3.19546 14.2109 3.06641C14.1956 3.06185 14.1795 3.06006 14.1641 3.05469C14.0792 3.09056 13.9776 3.12268 13.8594 3.125C13.5645 3.13008 13.3484 2.98191 13.2266 2.84375L13.2207 2.83789C13.1366 2.85771 13.0478 2.87577 12.9512 2.86719L12.7168 2.81445C12.7025 2.80901 12.69 2.80936 12.6816 2.80859C12.5821 2.79939 12.4889 2.76512 12.3945 2.73828L12.2832 2.87305ZM15.7754 20.8613L15.7637 20.8496C15.7588 20.8461 15.7488 20.8432 15.7402 20.8379C15.7512 20.8472 15.7651 20.8524 15.7754 20.8613ZM5.29297 18.3652C5.29361 18.3246 5.29112 18.2575 5.26367 18.1777C5.27601 18.2455 5.29439 18.3063 5.29297 18.3652ZM20.6562 18.0781C20.6966 18.0675 20.7511 18.0408 20.8145 18.002C20.7556 18.0293 20.7066 18.0649 20.6562 18.0781ZM20.2871 17.1758L20.3047 17.2051C20.2935 17.1884 20.2863 17.1691 20.2754 17.1523C20.2791 17.1608 20.2843 17.1701 20.2871 17.1758ZM2.82617 15.8867L3.23047 15.8516L3.27734 15.7578L2.9082 15.6992L2.82617 15.8867ZM3.27734 15.7578L3.23047 15.8516L2.82617 15.8867L2.9082 15.6992L3.27734 15.7578ZM2.49219 14.1582C2.49629 14.1553 2.50701 14.1479 2.52148 14.1348L2.52734 14.123C2.51377 14.1328 2.50538 14.1491 2.49219 14.1582ZM2.41016 13.4551C2.41419 13.4525 2.42598 13.4485 2.43945 13.4375C2.44873 13.4299 2.45857 13.4129 2.47461 13.3965C2.44873 13.4153 2.4318 13.4415 2.41016 13.4551ZM1.6543 13.2441L1.68945 13.2617C1.66911 13.2527 1.6489 13.2329 1.625 13.2207C1.63749 13.2298 1.64625 13.2392 1.6543 13.2441ZM2.39258 12.4004C2.36754 12.3823 2.34619 12.3717 2.33398 12.3652L2.30469 12.3535C2.33348 12.3644 2.36087 12.3864 2.39258 12.4004ZM2.3457 11.9199C2.33444 11.9121 2.32305 11.9063 2.31641 11.9023L2.29297 11.8906L2.3457 11.9199ZM17.3281 4.00977C17.3287 4.01485 17.333 4.02093 17.334 4.02734L17.3281 3.96289C17.328 3.97194 17.326 3.98978 17.3281 4.00977ZM13.5781 1.68945C13.5269 1.71209 13.4875 1.73439 13.4609 1.75391C13.4927 1.72861 13.5372 1.71549 13.5781 1.68945Z" fill="#4F4F4F"/>
<path d="M15.6243 9.98414L15.9173 10.0779L15.929 10.113C16.0155 10.168 16.0974 10.2387 16.1575 10.3298C16.3138 10.5689 16.3028 10.8568 16.1751 11.0916C16.1779 11.1796 16.1727 11.2883 16.1341 11.4021C16.0822 11.5536 15.9743 11.6638 15.8528 11.7595C15.8007 11.896 15.7204 12.035 15.5774 12.1345C15.4777 12.2035 15.3729 12.2327 15.2845 12.2517C15.2632 12.3294 15.2402 12.4156 15.1848 12.4978C15.0667 12.6729 14.9011 12.7542 14.7513 12.8025C14.7002 12.9281 14.6228 13.0576 14.4876 13.1541C14.3313 13.2655 14.1704 13.2947 14.0598 13.3005C14.0406 13.3015 14.0198 13.295 14.0013 13.2947C13.9722 13.3595 13.937 13.4205 13.9016 13.4822C13.9033 13.6238 13.8839 13.8501 13.7024 14.0505C13.4741 14.3012 13.1815 14.322 13.0403 14.3142C13.033 14.3138 13.0242 14.309 13.0169 14.3084C12.9937 14.3291 12.9731 14.3598 12.9466 14.3787V14.3904C12.8422 14.5881 12.6722 14.7236 12.4837 14.7888C12.3406 14.8382 12.2022 14.8421 12.0852 14.8298C12.0164 14.867 11.9555 14.9065 11.8919 14.9236L11.6516 14.9587C11.5298 14.9639 11.3243 14.9456 11.1243 14.8064C10.9043 14.6529 10.8066 14.4342 10.7786 14.2556C10.7523 14.0869 10.7776 13.927 10.8138 13.8045C10.79 13.7644 10.7564 13.7307 10.7376 13.6873L10.7317 13.6931L10.3743 13.6755C10.2046 13.6439 10.0104 13.5671 9.85281 13.4002C9.69783 13.2355 9.6311 13.0411 9.60672 12.8787C9.55107 12.7846 9.51217 12.6913 9.48953 12.5974C9.43535 12.5622 9.3867 12.5175 9.33719 12.4685C9.12725 12.4807 8.78607 12.4616 8.56375 12.1111C8.51497 12.034 8.48971 11.9551 8.47 11.8826C8.31142 11.8622 8.1134 11.8004 7.95438 11.6248C7.78594 11.4384 7.74454 11.2245 7.73758 11.0916C7.73486 11.0372 7.74953 10.985 7.75516 10.9334C7.70129 10.7339 7.72114 10.5162 7.84305 10.3298C8.0137 10.0712 8.31803 9.94951 8.60477 10.0017L8.88016 10.113L8.96805 10.1716L9.41336 10.4705C9.42806 10.4763 9.44555 10.4755 9.46024 10.4822L9.67703 10.617L9.83524 10.7869C9.89964 10.8783 9.92779 10.9774 9.95242 11.0681L10.0696 11.1267L10.2805 11.3142C10.4599 11.3584 10.6649 11.4476 10.8079 11.6599C10.9229 11.8311 10.9441 12.0114 10.9485 12.1521C11.0293 12.1481 11.1203 12.1509 11.2122 12.1697C11.3828 12.2052 11.5617 12.2884 11.6985 12.4392L11.8216 12.615L11.8802 12.7087L11.9739 12.867C12.1054 12.7284 12.2636 12.6596 12.3958 12.6326C12.4923 12.6131 12.582 12.6183 12.6595 12.6267C12.6768 12.5833 12.6968 12.5393 12.7122 12.492L12.8177 12.24C12.8611 12.1609 12.9144 12.0831 12.9759 12.0115L13.1751 11.8416H13.1692C13.174 11.8208 13.1742 11.7984 13.1809 11.7771C13.2327 11.6151 13.3412 11.4524 13.5149 11.3435C13.5445 11.3251 13.5795 11.3159 13.6087 11.3025C13.6195 11.1624 13.6663 11 13.7845 10.8455L14.0657 10.6111C14.166 10.561 14.267 10.5387 14.3528 10.5291C14.4503 10.5183 14.5372 10.5405 14.6106 10.5525C14.6474 10.3964 14.729 10.187 14.968 10.0486C15.1165 9.9627 15.2602 9.93477 15.3782 9.93727L15.6243 9.98414ZM12.4309 13.0369C12.392 13.0381 12.3304 13.0436 12.261 13.0662C12.3223 13.0535 12.3799 13.0385 12.4309 13.0369ZM14.1419 11.8181H14.1477L14.136 11.8123L14.1419 11.8181ZM9.91727 11.7712C9.91735 11.7713 9.93155 11.7381 9.93484 11.6834C9.93519 11.6772 9.93471 11.6682 9.93484 11.6599C9.92464 11.6974 9.92814 11.739 9.91727 11.7712Z" fill="#4F4F4F"/>
</svg>
