<svg width="80" height="80" viewBox="0 0 80 80" fill="none" xmlns="http://www.w3.org/2000/svg">
<path d="M54.9166 29.6293C54.9166 26.4595 54.1541 23.4725 52.776 20.7806C52.7722 20.7731 52.768 20.7658 52.7643 20.7582C49.1758 13.4881 41.1059 8.33435 31.6666 8.33435C18.6954 8.33435 8.41683 17.9875 8.41663 29.6293C8.41663 36.5317 12.0146 42.7036 17.6647 46.6283C17.9213 46.8066 18.1259 47.0505 18.2565 47.3344L22.7184 57.0355L22.8209 57.222C23.3887 58.1068 24.7048 58.2199 25.4 57.4017L27.2291 55.2338L30.3268 51.5492L30.4586 51.4086C30.7823 51.0997 31.2144 50.9252 31.6666 50.9252C44.638 50.9252 54.9166 41.2712 54.9166 29.6293ZM58.4166 29.6293C58.4166 43.2078 46.7483 54.0087 32.4918 54.4115L29.9059 57.4886L29.9039 57.4906L28.0709 59.6635L28.067 59.6683C25.6752 62.483 21.1222 61.8791 19.5485 58.5199L19.5436 58.5092L15.2701 49.2181C9.0118 44.6997 4.91663 37.6357 4.91663 29.6293C4.91683 15.7898 17.0381 4.83435 31.6666 4.83435C42.3511 4.83435 51.6743 10.666 55.8912 19.1859L56.1871 19.7845C57.6227 22.7965 58.4166 26.1198 58.4166 29.6293Z" fill="#4F4F4F"/>
<path d="M54.9164 29.631C54.9164 26.4613 54.1538 23.4743 52.7758 20.7824C52.4662 20.1776 52.5349 19.448 52.9516 18.9113C53.3682 18.3748 54.0576 18.1275 54.7202 18.2775C66.306 20.902 75.0833 30.6133 75.0834 42.3381C75.0834 50.3448 70.9877 57.4085 64.7289 61.9269L60.4565 71.218L60.4516 71.2287C58.8911 74.5597 54.3395 75.2514 51.9282 72.3713L47.5092 67.1213C39.268 66.8898 31.9004 63.1996 27.2123 57.4719C26.6791 56.8204 26.6853 55.8809 27.227 55.2365L30.3276 51.55L30.4594 51.4094C30.783 51.1009 31.2145 50.9261 31.6664 50.926C44.6378 50.926 54.9162 41.2727 54.9164 29.631ZM58.4164 29.631C58.4162 43.2094 46.7482 54.0097 32.4916 54.4123L30.8735 56.3381C34.9205 60.6462 40.9058 63.4407 47.6274 63.6242L48.3334 63.634L48.5258 63.6447C48.97 63.6938 49.3814 63.9115 49.6723 64.257L54.6059 70.1164L54.6108 70.1223C55.3318 70.9855 56.7674 70.8232 57.2768 69.7541L61.7436 60.0432C61.8742 59.7593 62.0787 59.5154 62.3354 59.3371C67.9855 55.4124 71.5834 49.2406 71.5834 42.3381C71.5833 33.5997 65.7671 25.9671 57.3471 22.7248C58.0426 24.9129 58.4164 27.2282 58.4164 29.631Z" fill="#4F4F4F"/>
<path d="M54.5761 49.9452C55.2614 50.6268 55.2614 51.7318 54.5761 52.4133C53.8909 53.0949 52.7798 53.0949 52.0945 52.4133L8.76115 9.31567C8.07587 8.63412 8.07587 7.5291 8.76115 6.84755C9.44643 6.166 10.5575 6.166 11.2428 6.84755L54.5761 49.9452Z" fill="#4F4F4F"/>
</svg>
