<svg width="80" height="80" viewBox="0 0 80 80" fill="none" xmlns="http://www.w3.org/2000/svg">
<path d="M80 41.1931V47.8377C79.1911 49.0638 77.6401 48.878 77.4963 47.3051C77.2524 44.6547 78.4531 40.7555 75.8389 39.0567C74.3775 38.1092 68.7342 37.5725 66.8205 37.4796C65.4987 37.4156 63.3286 37.7108 62.1653 37.4528C60.9312 37.1803 60.8227 35.1657 62.5927 35.0067C65.6822 34.7281 74.488 35.3514 77.0856 36.8955C78.2259 37.5725 79.0535 38.65 79.5601 39.8534L80 41.1931Z" fill="#4F4F4F"/>
<path d="M62.8032 14.045C67.8066 13.5537 72.1469 17.1433 72.5159 22.1056C72.7244 24.8984 72.5534 27.7635 70.9232 30.1208C70.2623 31.0765 67.5147 33.9643 66.439 32.2944C65.5092 30.8474 67.9254 29.9743 68.7363 28.8844C70.4562 26.5745 70.5417 21.7753 69.0449 19.3623C65.9741 14.4124 58.1523 16.2309 57.5477 21.9776C57.1599 25.6642 57.752 29.7245 61.8109 31.0063C62.895 31.349 64.8442 31.0084 65.0151 32.3254C65.2549 34.1893 63.0326 33.8281 61.863 33.5824C52.1545 31.5389 52.6403 15.0461 62.8012 14.047L62.8032 14.045Z" fill="#4F4F4F"/>
<path d="M15.3656 14.045C20.2668 13.564 24.6676 17.0711 25.07 21.959C25.416 26.1617 24.7281 30.2798 20.8067 32.5669C19.6685 33.2315 15.1718 34.9221 15.0738 32.6143C15.0133 31.1674 16.1682 31.4543 17.0167 31.285C21.9512 30.3066 22.9415 26.8099 22.5808 22.2583C22.1785 17.1887 16.26 14.6642 12.274 17.9359C9.4388 20.2643 9.29287 26.3145 11.4985 29.0598C12.2198 29.9577 15.0508 31.2251 13.4248 32.5173C12.0801 33.5845 9.67854 30.9155 8.99476 29.8401C5.46117 24.2689 7.86693 14.7819 15.3656 14.045Z" fill="#4F4F4F"/>
<path d="M27.8489 31.349C32.7501 30.868 37.1509 34.3751 37.5532 39.2631C37.8993 43.4657 37.2113 47.5838 33.29 49.8709C32.1517 50.5356 27.655 52.2261 27.557 49.9184C27.4966 48.4714 28.6515 48.7583 29.5 48.589C34.4345 47.6106 35.4247 44.1139 35.0641 39.5624C34.6617 34.4927 28.7432 31.9683 24.7573 35.24C21.9221 37.5684 21.7761 43.6185 23.9818 46.3639C24.7031 47.2618 27.5341 48.5292 25.908 49.8214C24.5634 50.8885 22.1618 48.2196 21.478 47.1441C17.9444 41.5729 20.3502 32.0859 27.8468 31.349H27.8489Z" fill="#4F4F4F"/>
<path d="M50.32 31.349C55.3233 30.8577 59.6637 34.4473 60.0327 39.4096C60.2432 42.2293 60.0827 45.0448 58.4399 47.4248C57.7687 48.3971 55.39 51.0372 54.3456 49.2145C53.6222 47.9533 55.2524 47.3547 55.9737 46.529C58.0105 44.1985 58.1439 39.1145 56.5032 36.5714C53.3741 31.7226 45.6648 33.5907 45.0665 39.2817C44.6788 42.9683 45.2708 47.0285 49.3298 48.3104C50.4138 48.653 52.363 48.3124 52.534 49.6294C52.7737 51.4933 50.5514 51.1321 49.3819 50.8865C39.6734 48.8429 40.1591 32.3501 50.32 31.3511V31.349Z" fill="#4F4F4F"/>
<path d="M39.0834 14.045C44.0867 13.5537 48.4271 17.1433 48.7961 22.1056C49.0066 24.9253 48.8461 27.7408 47.2033 30.1208C46.5738 31.0332 43.9762 33.8281 43.134 31.8857C42.5252 30.482 43.9679 30.1043 44.7371 29.2229C46.7739 26.8904 46.9073 21.8084 45.2666 19.2653C42.1375 14.4165 34.4282 16.2846 33.8299 21.9756C33.4422 25.6622 34.0342 29.7224 38.0931 31.0043C39.1772 31.3469 41.1264 31.0063 41.2973 32.3233C41.5371 34.1872 39.3148 33.826 38.1453 33.5804C28.4368 31.5348 28.9225 15.044 39.0834 14.045Z" fill="#4F4F4F"/>
<path d="M47.6662 52.3644C51.6042 52.1601 61.2981 52.2364 64.6024 54.2016C65.8386 54.9364 66.8997 56.3462 67.2854 57.7251C67.6711 59.104 67.6877 63.3356 67.521 64.7619C67.3375 66.3183 65.1798 66.4215 65.013 64.6112C64.6878 61.0835 66.4306 56.9325 61.7713 55.7683C56.1843 54.3708 47.2138 54.4245 41.5809 55.6093C35.948 56.7942 38.0619 60.6232 37.4865 65.152C36.9028 66.3575 35.2204 66.1449 35.0558 64.7619C34.866 63.1622 34.9202 58.7077 35.4519 57.2669C37.0821 52.8433 43.5739 52.5791 47.6683 52.3665L47.6662 52.3644Z" fill="#4F4F4F"/>
<path d="M34.6971 52.8309C35.3747 53.4461 35.0828 54.7093 34.1676 54.9116C29.1205 54.7548 23.938 54.5649 18.9805 55.6341C13.4706 56.8231 15.4803 60.4044 15.0925 64.6092C14.9258 66.4194 12.7681 66.3162 12.5846 64.7598C12.4158 63.3356 12.4512 59.0379 12.8202 57.7231C13.2184 56.305 14.3149 54.8765 15.6012 54.1417C18.8867 52.2674 30.042 51.9599 33.8779 52.4821C34.0947 52.511 34.5408 52.6885 34.6971 52.8309Z" fill="#4F4F4F"/>
<path d="M12.7118 35.0583C13.8125 35.0005 17.1918 34.8127 18.057 35.081C19.1848 35.4299 19.1473 37.3166 17.663 37.4879C16.3288 37.6406 14.6735 37.4115 13.283 37.4776C11.3859 37.5704 5.69883 38.1195 4.26455 39.0546C1.47313 40.8752 3.04291 45.0799 2.53007 47.8439C1.96095 49.039 0.263994 48.8471 0.099302 47.4537C-0.0883219 45.8499 -0.0382888 41.4036 0.495397 39.9587C2.12564 35.5352 8.61743 35.2709 12.7118 35.0583Z" fill="#4F4F4F"/>
</svg>
