<svg width="24" height="24" viewBox="0 0 24 24" fill="none" xmlns="http://www.w3.org/2000/svg">
<path d="M8 1.25C8.41421 1.25 8.75 1.58579 8.75 2V2.28125C8.8412 2.4102 8.91843 2.56961 8.9375 2.76758C8.95721 2.97885 8.88679 3.14868 8.80859 3.2832C8.823 3.32342 8.84617 3.36177 8.85547 3.40625C8.87464 3.49855 8.86549 3.59357 8.86719 3.6875C8.96303 3.84556 9.04507 4.05116 8.99609 4.30273C8.94665 4.55301 8.7971 4.71858 8.68555 4.81836C8.6776 4.84223 8.6713 4.86573 8.66211 4.88867L8.75 4.90039V5C8.75 5.08951 8.72603 5.17236 8.69727 5.25195L8.61523 5.75H7.98242C7.90556 5.74992 7.84271 5.71741 7.78906 5.70312C7.76197 5.69501 7.73274 5.69655 7.70703 5.68555C7.68502 5.67701 7.66455 5.68167 7.66016 5.67969C7.61709 5.66013 7.58111 5.63938 7.56055 5.62695C7.51743 5.60083 7.47702 5.56942 7.44336 5.54492C7.24488 5.40039 7.08521 5.15195 7.09766 4.83594C7.10807 4.58946 7.218 4.40508 7.28516 4.31445C7.31359 4.20415 7.35493 4.10628 7.4082 4.02148C7.39624 3.96131 7.39086 3.89985 7.39062 3.83398C7.23382 3.69435 7.00701 3.44215 7.09766 3.03711C7.1179 2.94725 7.1594 2.87422 7.19727 2.80859C7.10367 2.68871 7.00792 2.5187 7.00977 2.29297C7.01258 2.04726 7.11947 1.86132 7.20898 1.75391C7.25637 1.69717 7.31925 1.66123 7.37305 1.61914C7.50466 1.40296 7.72841 1.25 8 1.25ZM7.98242 4.83594L8.58594 4.88281C8.58815 4.77872 8.5714 4.66744 8.51562 4.56055C8.45883 4.45226 8.38289 4.37614 8.32227 4.33203H8.31641C8.30716 4.32707 8.29535 4.32089 8.28125 4.31445C8.2646 4.30694 8.23277 4.29111 8.19336 4.2793C8.15952 4.26917 8.08229 4.25 7.98242 4.25V4.83594Z" fill="#4F4F4F"/>
<path d="M16 1.25C16.4142 1.25 16.75 1.58579 16.75 2V2.28125C16.8412 2.4102 16.9184 2.56961 16.9375 2.76758C16.9572 2.97885 16.8868 3.14868 16.8086 3.2832C16.823 3.32342 16.8462 3.36177 16.8555 3.40625C16.8746 3.49855 16.8655 3.59357 16.8672 3.6875C16.963 3.84556 17.0451 4.05116 16.9961 4.30273C16.9466 4.55301 16.7971 4.71858 16.6855 4.81836C16.6776 4.84223 16.6713 4.86573 16.6621 4.88867L16.75 4.90039V5C16.75 5.08951 16.726 5.17236 16.6973 5.25195L16.6152 5.75H15.9824C15.9056 5.74992 15.8427 5.71741 15.7891 5.70312C15.762 5.69501 15.7327 5.69655 15.707 5.68555C15.685 5.67701 15.6646 5.68167 15.6602 5.67969C15.6171 5.66013 15.5811 5.63938 15.5605 5.62695C15.5174 5.60083 15.477 5.56942 15.4434 5.54492C15.2449 5.40039 15.0852 5.15195 15.0977 4.83594C15.1081 4.58946 15.218 4.40508 15.2852 4.31445C15.3136 4.20415 15.3549 4.10628 15.4082 4.02148C15.3962 3.96131 15.3909 3.89985 15.3906 3.83398C15.2338 3.69435 15.007 3.44215 15.0977 3.03711C15.1179 2.94725 15.1594 2.87422 15.1973 2.80859C15.1037 2.68871 15.0079 2.5187 15.0098 2.29297C15.0126 2.04726 15.1195 1.86132 15.209 1.75391C15.2564 1.69717 15.3193 1.66123 15.373 1.61914C15.5047 1.40296 15.7284 1.25 16 1.25ZM15.9824 4.83594L16.5859 4.88281C16.5881 4.77872 16.5714 4.66744 16.5156 4.56055C16.4588 4.45226 16.3829 4.37614 16.3223 4.33203H16.3164C16.3072 4.32707 16.2953 4.32089 16.2812 4.31445C16.2646 4.30694 16.2328 4.29111 16.1934 4.2793C16.1595 4.26917 16.0823 4.25 15.9824 4.25V4.83594Z" fill="#4F4F4F"/>
<path d="M14.2695 7.92984C14.535 7.95008 14.7359 8.0976 14.8438 8.21109V8.21695C14.9618 8.22311 15.0646 8.24496 15.1543 8.28726C15.1964 8.28257 15.2382 8.26243 15.2832 8.26382C15.3244 8.26512 15.3621 8.28688 15.4004 8.29312C15.5617 8.22705 15.7605 8.19691 15.9863 8.27554C16.0869 8.31071 16.1682 8.36664 16.2383 8.42203C16.3346 8.30285 16.5472 8.08854 16.8887 8.06461C17.0891 8.05084 17.2479 8.11937 17.375 8.19351C17.4207 8.19528 17.468 8.18337 17.5156 8.19351C17.6093 8.21368 17.688 8.25403 17.7559 8.29312C17.8476 8.24416 17.9551 8.20338 18.084 8.19351C18.2428 8.18154 18.371 8.22476 18.4824 8.27554C18.5585 8.24419 18.644 8.21879 18.7402 8.21109C18.7972 8.20653 18.8514 8.2167 18.9043 8.22281C19.0365 8.12804 19.2331 8.04699 19.4727 8.07047C19.559 8.0313 19.6568 7.9958 19.7715 7.98843C19.9482 7.97748 20.0969 8.02662 20.2168 8.08804C20.2915 8.08756 20.3701 8.09336 20.4512 8.11734C20.6913 8.18867 20.831 8.35073 20.8965 8.43961C20.9068 8.45368 20.9104 8.47199 20.9199 8.48648C21.1143 8.622 21.248 8.83506 21.248 9.09C21.248 9.10198 21.2369 9.1133 21.2363 9.12515L21.248 9.14273V9.41812C21.2457 9.445 21.2376 9.53417 21.2012 9.63492C21.1841 9.68186 21.1328 9.803 21.0195 9.91617C20.8795 10.0559 20.6435 10.1726 20.3633 10.1271C20.1396 10.09 20.0026 9.9652 19.9531 9.91617C19.8935 9.85707 19.8542 9.79924 19.8359 9.76968C19.8025 9.71541 19.7834 9.65677 19.7656 9.61148C19.7479 9.61572 19.7315 9.62585 19.7129 9.62906C19.6409 9.71431 19.5263 9.83524 19.3438 9.89859C19.111 9.97872 18.8962 9.92669 18.7227 9.84C18.5917 9.8862 18.4538 9.90678 18.3125 9.88687C18.2278 9.97627 18.0848 10.1079 17.8613 10.1505C17.5828 10.2032 17.3508 10.0984 17.2051 9.98648C17.1389 9.93563 17.1003 9.86901 17.0586 9.81656C16.9145 9.98438 16.699 10.1848 16.3555 10.1916C16.1343 10.1953 15.9286 10.1378 15.752 10.0451C15.6434 9.98799 15.5603 9.90695 15.4824 9.82828C15.3919 9.82869 15.3083 9.8337 15.2305 9.8107C15.121 9.83422 15.0003 9.84749 14.873 9.82242C14.8585 9.81952 14.8461 9.80834 14.832 9.80484C14.6883 9.85462 14.5454 9.85508 14.3984 9.82242C14.2903 9.9637 14.0132 10.2686 13.5547 10.1798C13.4203 10.1535 13.3157 10.0892 13.2266 10.0275C13.1448 10.0441 13.0688 10.0539 12.9863 10.0451C12.8517 10.1064 12.6916 10.1408 12.5176 10.1095C12.3943 10.0873 12.2958 10.0373 12.2188 9.98648C12.1503 10.0247 12.0784 10.0735 11.9844 10.0919C11.7744 10.1331 11.5979 10.0714 11.457 9.9982C11.3333 10.0499 11.1908 10.0891 11.0293 10.0627C10.8387 10.031 10.7014 9.93759 10.6191 9.86343C10.6044 9.85016 10.5972 9.83027 10.584 9.81656C10.519 9.84149 10.4519 9.85668 10.3848 9.87515C10.287 9.9773 10.1104 10.1314 9.83398 10.1447C9.49677 10.1601 9.27806 9.96853 9.18359 9.86343C9.17757 9.85669 9.17181 9.84689 9.16602 9.84C9.13741 9.83831 9.10761 9.85074 9.07812 9.84586L9.07227 9.84L9.06055 9.85172C8.93072 9.89183 8.80253 9.89025 8.67969 9.86929C8.59011 9.95391 8.45331 10.0618 8.25195 10.0978C7.98751 10.1445 7.7651 10.0523 7.61914 9.94547C7.48307 9.84578 7.39302 9.71703 7.33203 9.60562C7.28555 9.59409 7.23677 9.59415 7.19141 9.57632C7.11487 9.66573 7.02557 9.75115 6.92188 9.82242C6.77895 9.92036 6.58416 9.99965 6.35352 9.99234C6.13374 9.98471 5.95691 9.89968 5.82617 9.80484C5.71128 9.77662 5.60911 9.73685 5.52148 9.68179C5.46131 9.69375 5.39985 9.69914 5.33398 9.69937C5.19435 9.85617 4.94215 10.083 4.53711 9.99234C4.44725 9.9721 4.37422 9.93059 4.30859 9.89273C4.18871 9.98632 4.0187 10.0821 3.79297 10.0802C3.54726 10.0774 3.36132 9.97053 3.25391 9.88101C3.19717 9.83362 3.16123 9.77075 3.11914 9.71695C2.90296 9.58534 2.75 9.36159 2.75 9.09C2.75 8.67578 3.08579 8.34 3.5 8.34H3.78711C3.91542 8.25005 4.07163 8.17137 4.26758 8.1525C4.47885 8.13279 4.64868 8.20321 4.7832 8.2814C4.82342 8.267 4.86177 8.24383 4.90625 8.23453C4.99855 8.21536 5.09357 8.22451 5.1875 8.22281C5.34556 8.12697 5.55116 8.04492 5.80273 8.0939C6.00366 8.1336 6.14564 8.24404 6.24805 8.34C6.30281 8.27943 6.36796 8.21641 6.44727 8.16422C6.5936 8.0681 6.78179 8.00735 6.98633 8.01773L7.19727 8.05289L7.30273 8.07632C7.40608 8.08804 7.5043 8.12229 7.60156 8.1525C7.73609 8.13097 7.87338 8.12993 8.00586 8.17593C8.04459 8.18954 8.07795 8.21734 8.11133 8.23453C8.23272 8.15944 8.39335 8.08441 8.59766 8.09976C8.76289 8.11244 8.88592 8.18599 8.98438 8.25211L8.99609 8.24039C9.09744 8.1659 9.24956 8.08987 9.44141 8.08218C9.63568 8.07476 9.79584 8.14194 9.91016 8.21695C9.99429 8.27234 10.0539 8.34257 10.1035 8.40445C10.1478 8.38548 10.1925 8.36344 10.2383 8.34L10.4902 8.24039C10.5766 8.21501 10.666 8.19511 10.7598 8.18765C10.8556 8.18018 10.9441 8.19227 11.0234 8.21109C11.0422 8.19925 11.0555 8.17492 11.0762 8.16422C11.2275 8.08623 11.421 8.04772 11.6211 8.0939C11.6564 8.10213 11.6837 8.12908 11.7148 8.14078C11.8218 8.04807 11.9651 7.95601 12.1602 7.92984L12.5293 7.965C12.6332 8.00018 12.7206 8.05281 12.7871 8.10562C12.8743 8.17534 12.9296 8.26205 12.9746 8.32828C13.0683 8.27943 13.1826 8.2385 13.3203 8.23453C13.3978 8.23246 13.4667 8.248 13.5312 8.26382C13.625 8.15151 13.7682 8.01838 13.9824 7.95914L14.2695 7.92984ZM15.0254 9.71109C15.0384 9.71696 15.0515 9.72342 15.0664 9.72867C15.053 9.72156 15.0382 9.71863 15.0254 9.71109ZM17.457 9.65836C17.5464 9.64295 17.6283 9.61467 17.6914 9.57632C17.623 9.61787 17.5391 9.63467 17.457 9.65836ZM19.0859 9.48843H19.1035C19.0945 9.48274 19.0828 9.48254 19.0742 9.47672L19.0859 9.48843ZM9.05469 9.35367C9.05832 9.34885 9.06379 9.34568 9.06641 9.34195C9.07799 9.3254 9.08151 9.31145 9.08398 9.30679C9.07551 9.3231 9.06343 9.33746 9.05469 9.35367ZM10.0156 9.31265L10.0273 9.30679C10.0478 9.27746 10.054 9.25379 10.0566 9.2482C10.0477 9.26732 10.0293 9.28659 10.0156 9.31265ZM11.7031 8.8439C11.7162 8.87167 11.7392 8.89436 11.75 8.92007C11.7497 8.91934 11.7472 8.91453 11.7441 8.90836C11.7412 8.90243 11.7397 8.89104 11.7324 8.87906C11.7274 8.87078 11.7147 8.85958 11.7031 8.8439ZM18.8574 8.57437C18.8519 8.56824 18.8478 8.55861 18.8398 8.55093C18.8357 8.54695 18.8276 8.5439 18.8223 8.53922C18.8337 8.55345 18.8487 8.5625 18.8574 8.57437ZM9.65234 8.5275C9.62168 8.49879 9.56739 8.46261 9.49414 8.42789C9.55248 8.46468 9.61177 8.4895 9.65234 8.5275ZM15.4062 8.46304C15.3896 8.44958 15.3676 8.43711 15.3418 8.42203C15.3626 8.43911 15.389 8.44648 15.4062 8.46304Z" fill="#4F4F4F"/>
<path d="M14.2441 2.49219C14.3415 2.53094 14.4286 2.58322 14.5078 2.63867C14.639 2.59441 14.7903 2.57418 14.959 2.60938C15.069 2.63233 15.1705 2.66859 15.2637 2.71484C15.2815 2.70152 15.2986 2.68716 15.3164 2.67383L15.5215 2.55664C15.6017 2.52509 15.6942 2.50202 15.7969 2.49805C16.0067 2.49021 16.1824 2.56628 16.3066 2.65039C16.3584 2.68553 16.3894 2.73874 16.4297 2.7793C16.4906 2.76077 16.5469 2.72546 16.6113 2.71484C16.7193 2.69713 16.8191 2.7031 16.9102 2.7207C16.9856 2.65518 17.0926 2.57592 17.2383 2.5332C17.4872 2.46034 17.7456 2.51144 17.9473 2.65625C17.9945 2.69027 18.0416 2.71767 18.082 2.73828C18.322 2.86143 18.43 3.0673 18.4922 3.21289C18.5808 3.16812 18.6723 3.1196 18.7734 3.0957L19.1074 3.07227C19.2349 3.08699 19.3728 3.13232 19.5059 3.22461C19.634 3.31409 19.7172 3.42847 19.7754 3.53516C19.8176 3.55733 19.8637 3.57534 19.9043 3.60547C19.9852 3.66563 20.0501 3.73791 20.1035 3.81055L20.2324 4.0332L20.291 4.22656C20.3517 4.27671 20.4127 4.33507 20.4609 4.4082C20.5455 4.53694 20.5768 4.67023 20.5898 4.7832C20.7718 4.81299 21.1433 4.91853 21.2871 5.33984C21.3572 5.54648 21.3217 5.7296 21.2871 5.84961C21.3245 5.93666 21.3471 6.02907 21.3574 6.13086C21.3665 6.14676 21.3774 6.16175 21.3867 6.17773C21.476 6.21515 21.6145 6.29016 21.7324 6.42969C21.8996 6.62879 21.9682 6.90216 21.8965 7.16797C21.8681 7.27269 21.8202 7.35722 21.7734 7.42578C21.7742 7.43366 21.7788 7.44118 21.7793 7.44922C21.7829 7.50738 21.7628 7.56152 21.7559 7.61328C21.7847 7.67241 21.8177 7.73638 21.832 7.8125C21.8631 7.97731 21.8379 8.1339 21.7852 8.26367C21.7517 8.34531 21.6956 8.40665 21.6504 8.46289C21.6574 8.53838 21.6502 8.60486 21.6387 8.66797C21.7265 8.76301 21.8293 8.86999 21.8848 9.01953L21.9375 9.27148L21.9316 9.5C21.9119 9.61325 21.8572 9.70418 21.8086 9.78711C21.8226 9.82665 21.8464 9.86652 21.8555 9.91016C21.8746 10.0029 21.8657 10.097 21.8672 10.1914C21.9624 10.3497 22.0457 10.5555 21.9961 10.8066C21.9564 11.0062 21.8455 11.1439 21.75 11.2461C21.8107 11.3009 21.8734 11.3659 21.9258 11.4453C22.0542 11.6404 22.1226 11.9104 22.0371 12.1953C22.0255 12.2338 22.0175 12.2731 22.0137 12.3066C22.002 12.4086 21.9672 12.5036 21.9375 12.5996C21.9596 12.7357 21.9611 12.8758 21.9141 13.0098C21.9007 13.0477 21.8723 13.0766 21.8555 13.1094C21.9309 13.2308 22.0055 13.3909 21.9902 13.5957C21.9778 13.7608 21.9038 13.8839 21.8379 13.9824L21.8496 13.9941C21.9243 14.0954 22 14.247 22.0078 14.4395C22.0156 14.635 21.9485 14.7994 21.873 14.9141C21.8182 14.9969 21.7467 15.0524 21.6855 15.1016C21.7045 15.1459 21.7266 15.1905 21.75 15.2363C21.7904 15.3152 21.8238 15.4008 21.8496 15.4883L21.9023 15.7637L21.8789 16.0215C21.891 16.0406 21.9149 16.0531 21.9258 16.0742C22.0042 16.2257 22.0423 16.4186 21.9961 16.6191C21.9875 16.6564 21.9616 16.6862 21.9492 16.7188C22.0004 16.7783 22.0515 16.8498 22.0898 16.9355L22.1602 17.1992L22.1133 17.5625C22.0126 17.8382 21.7765 17.9833 21.6797 18.0371C21.7274 18.1505 21.758 18.295 21.7324 18.4648C21.7157 18.5749 21.6721 18.6628 21.627 18.7402C21.7191 18.8715 21.8295 19.0725 21.8086 19.3379C21.7755 19.7452 21.4891 19.9765 21.2754 20.0703C21.2606 20.0767 21.2433 20.0764 21.2285 20.082C21.159 20.2343 21.0653 20.3413 20.959 20.416C20.9355 20.4708 20.9202 20.5325 20.8828 20.5859C20.8485 20.6348 20.799 20.665 20.7598 20.7031C20.7138 20.8854 20.6096 21.0839 20.373 21.2188C20.228 21.3012 20.0816 21.3263 19.957 21.3301C19.9544 21.3748 19.9682 21.4204 19.9629 21.4648C19.9448 21.6156 19.8781 21.9179 19.5938 22.1211C19.4133 22.2495 19.2233 22.2715 19.0664 22.2676C19.0106 22.2964 18.9582 22.3393 18.8906 22.3555C18.7642 22.3857 18.6483 22.3726 18.5508 22.3555C18.4711 22.4477 18.3707 22.5397 18.2227 22.5957C18.0463 22.6624 17.8895 22.6499 17.7539 22.6191C17.6774 22.6725 17.5891 22.7258 17.4785 22.7539C17.4065 22.7722 17.3358 22.7717 17.2676 22.7715L17.2617 22.7832C17.1357 22.8962 16.9376 22.9987 16.6875 22.9941C16.6795 22.994 16.6719 22.9887 16.6641 22.9883C16.5719 23.0376 16.4647 23.0821 16.3359 23.0938C16.1384 23.1115 15.9783 23.0521 15.8496 22.9824C15.78 22.9819 15.7069 22.9976 15.6328 22.9766C15.5693 22.9585 15.519 22.9219 15.4688 22.8945C15.3801 22.9468 15.2787 22.9956 15.1523 23.0117C14.7257 23.0659 14.4673 22.7949 14.3613 22.6602C14.3567 22.6667 14.3542 22.6771 14.3496 22.6836C14.27 22.7961 14.053 23.0605 13.6699 23.0879C13.5795 23.0942 13.499 23.0759 13.4238 23.0586C13.3312 23.1041 13.2312 23.149 13.1133 23.1641C12.7286 23.2131 12.4807 22.9928 12.3574 22.8535C12.2538 22.9121 12.1291 22.9629 11.9766 22.9707C11.6338 22.9875 11.3998 22.7992 11.2793 22.6719C11.1714 22.7024 11.0699 22.7126 10.9688 22.707C10.7918 22.8229 10.5421 22.8938 10.2773 22.8125C10.2541 22.8053 10.2342 22.786 10.2129 22.7773C10.0848 22.8889 9.90176 23.0121 9.63867 23.0059C9.47136 23.0017 9.32658 22.9513 9.19922 22.8887C9.03219 22.9763 8.81076 23.0318 8.55469 22.9355C8.36107 22.8627 8.24318 22.7314 8.17383 22.6367L8.16797 22.6426C7.99543 22.7203 7.81146 22.719 7.63477 22.6836C7.50484 22.7126 7.37561 22.7088 7.24805 22.6777C7.1296 22.7372 6.97501 22.7859 6.78516 22.7598C6.74027 22.7535 6.70145 22.7307 6.66211 22.7188C6.51631 22.8205 6.17261 23.0009 5.77734 22.8125C5.54656 22.7019 5.42841 22.5153 5.36133 22.373C5.10751 22.4017 4.80904 22.3472 4.56445 22.1035C4.53672 22.0758 4.51951 22.0391 4.49414 22.0098C4.30863 21.9823 4.09618 21.9039 3.9375 21.6758C3.91264 21.6399 3.89679 21.6008 3.87891 21.5645C3.77427 21.5103 3.66957 21.4279 3.58594 21.3066C3.52804 21.2226 3.5021 21.1341 3.48047 21.0547C3.44787 21.0295 3.40595 21.0114 3.375 20.9785C3.25384 20.8494 3.20112 20.7037 3.17578 20.5742C3.08567 20.5335 2.98702 20.4731 2.90039 20.375C2.72171 20.1717 2.70886 19.9448 2.72461 19.7715C2.63751 19.6961 2.54522 19.595 2.49023 19.4492C2.44882 19.3386 2.43992 19.2335 2.44336 19.1387C2.40851 19.0869 2.36233 19.0368 2.33789 18.9688C2.24154 18.6994 2.3044 18.4583 2.37891 18.3125C2.39808 18.275 2.43344 18.2501 2.45508 18.2188C2.45506 18.1788 2.43784 18.1367 2.44336 18.0957C2.44942 18.0511 2.47304 18.0128 2.48438 17.9727C2.41183 17.8575 2.35927 17.7229 2.34961 17.5566C2.23549 17.426 2.09431 17.2016 2.14453 16.8945C2.18908 16.6266 2.35403 16.463 2.44922 16.3848C2.45172 16.2293 2.48355 16.0856 2.53711 15.9512C2.53303 15.9135 2.52574 15.8775 2.52539 15.8398C2.44843 15.8075 2.31408 15.7549 2.19727 15.6465C2.0741 15.5318 1.8659 15.2566 1.95117 14.873C1.96684 14.8029 1.99356 14.7408 2.02148 14.6855C1.97512 14.5489 1.94077 14.3971 1.97461 14.2285C2.00212 14.093 2.0592 13.9795 2.12109 13.8887C2.12206 13.7889 2.13717 13.688 2.16211 13.5898L2.16797 13.5664C2.16479 13.4902 2.18455 13.4221 2.19727 13.3555C2.07554 13.2445 1.89315 13.0388 1.88086 12.7227C1.87237 12.4888 1.96805 12.3139 2.0625 12.1836C2.08739 12.0255 2.1646 11.9031 2.23828 11.8027C2.21443 11.7644 2.17604 11.7341 2.15625 11.6914C2.07914 11.5241 2.04332 11.3269 2.08008 11.123C2.10383 10.9931 2.15806 10.8823 2.21484 10.7891C2.21299 10.76 2.21078 10.7302 2.20898 10.7012C2.2036 10.6141 2.20007 10.5246 2.19727 10.4375C2.19238 10.2778 2.20706 10.1196 2.25 9.96875C2.25644 9.94616 2.27198 9.92648 2.2793 9.9043C2.18751 9.83594 2.07929 9.74563 1.99805 9.61719C1.82392 9.34126 1.78124 8.992 1.93359 8.66211L2.15625 8.36328C2.22791 8.29766 2.29682 8.24845 2.34961 8.2168C2.25915 8.04511 2.19739 7.83253 2.26172 7.58984C2.17961 7.45257 2.11053 7.26633 2.14453 7.0332C2.15792 6.94177 2.18681 6.8634 2.2207 6.79297C2.18528 6.65953 2.16611 6.50798 2.20312 6.3418C2.22028 6.26471 2.23415 6.1862 2.25 6.10742C2.27408 5.98779 2.30843 5.87073 2.34961 5.75586L2.50195 5.49219C2.64055 5.3293 2.82042 5.26015 2.94727 5.22266C2.94399 5.20338 2.92585 5.18437 2.92383 5.16406C2.90325 4.95275 2.96517 4.61741 3.28125 4.4082C3.37922 4.34371 3.47987 4.31523 3.56836 4.29688C3.61213 4.23605 3.66295 4.17731 3.72656 4.12695C3.85159 4.02803 3.98401 3.97958 4.0957 3.95703C4.12314 3.75905 4.18773 3.52508 4.38281 3.33594L4.58789 3.18945C4.79542 3.08127 5.01884 3.07921 5.19727 3.11914C5.28612 3.13923 5.36531 3.1772 5.4375 3.21289C5.46145 3.18176 5.47802 3.14295 5.50781 3.11328C5.66807 2.9543 5.87586 2.87014 6.08789 2.86133L6.30469 2.87891L6.48633 2.9082C6.50769 2.91029 6.52277 2.90387 6.5332 2.90234H6.55078C6.5829 2.84952 6.60703 2.78879 6.65039 2.73828C6.76869 2.60121 6.97305 2.43834 7.26562 2.41016C7.68386 2.3701 7.94611 2.63494 8.04492 2.75586C8.05194 2.76448 8.04989 2.78222 8.05664 2.79102C8.09447 2.79089 8.13364 2.77457 8.17383 2.7793L8.26758 2.79688C8.36575 2.7497 8.48173 2.71023 8.61914 2.70898C8.70221 2.70849 8.77809 2.73047 8.84766 2.75C8.92299 2.70272 9.00773 2.65192 9.11133 2.62695L9.3457 2.60352C9.51365 2.60966 9.65042 2.68386 9.76758 2.75586C9.80386 2.75067 9.83927 2.73281 9.87891 2.73242C10.1004 2.73027 10.2649 2.81367 10.3887 2.9082C10.4816 2.89451 10.5684 2.89179 10.6523 2.90234C10.7298 2.85337 10.8199 2.80856 10.9277 2.78516C11.1298 2.74143 11.2987 2.78207 11.4375 2.84375C11.5501 2.76959 11.6855 2.70069 11.8594 2.69141C12.0108 2.61658 12.1846 2.57483 12.3691 2.60352C12.5084 2.51064 12.6898 2.43921 12.8965 2.45117L13.166 2.50977L13.2891 2.59766C13.4496 2.49276 13.6466 2.39252 13.8984 2.41016L14.2441 2.49219ZM10.9336 22.2031C10.9362 22.2068 10.9414 22.2098 10.9453 22.2148C10.9385 22.2029 10.9286 22.1917 10.9219 22.1797C10.9227 22.1812 10.9253 22.1913 10.9336 22.2031ZM9.66211 21.8633L9.67969 21.8398L9.66211 21.834V21.8633ZM9.67969 21.8398L9.66211 21.8633V21.834L9.67969 21.8398ZM17.0918 21.623C17.058 21.5978 17.004 21.5672 16.9336 21.541C16.9908 21.5702 17.0484 21.5898 17.0918 21.623ZM13.7754 4.29102C13.614 4.42036 13.3467 4.52793 13.0371 4.4375C12.9104 4.4002 12.8074 4.34241 12.7324 4.2793C12.7252 4.28136 12.7164 4.28912 12.709 4.29102C12.5166 4.33942 12.3443 4.29908 12.1992 4.23828C12.1391 4.3149 12.0693 4.39761 11.9707 4.46094C11.8329 4.54896 11.6402 4.62062 11.4199 4.5957C11.2697 4.57841 11.1503 4.51613 11.0566 4.45508C10.8356 4.52406 10.6335 4.50001 10.4648 4.42578C10.243 4.49923 10.0211 4.48139 9.82617 4.39062C9.74676 4.40747 9.65922 4.42459 9.5625 4.41406C9.50608 4.40773 9.45847 4.3825 9.41016 4.36719C9.2987 4.4519 9.14458 4.54786 8.92969 4.54883C8.64226 4.54985 8.44768 4.40075 8.34375 4.29688C8.31476 4.29631 8.28573 4.30004 8.25586 4.29688C8.17882 4.35258 8.08299 4.40917 7.96289 4.4375C7.67845 4.50417 7.43759 4.40467 7.28906 4.29688L7.2832 4.29102C7.20948 4.3271 7.13385 4.37093 7.04297 4.38477H6.7793C6.69727 4.39826 6.61501 4.38952 6.5332 4.39062C6.51472 4.43054 6.50786 4.47561 6.48633 4.51367C6.38427 4.6937 6.1934 4.89045 5.89453 4.95312C5.68641 4.9961 5.50539 4.95098 5.37305 4.90039C5.29049 5.01226 5.18039 5.11882 5.02148 5.1875C4.98052 5.20511 4.93821 5.22498 4.89844 5.24609C4.83495 5.46379 4.68937 5.64104 4.48242 5.74414C4.48693 5.77839 4.5058 5.81213 4.50586 5.84961C4.50602 6.15093 4.3454 6.40187 4.125 6.54102C4.01311 6.61141 3.89811 6.63524 3.80859 6.65234C3.84993 6.77881 3.87691 6.9312 3.83789 7.10352C3.8268 7.15189 3.79646 7.19059 3.7793 7.23242C3.81679 7.35242 3.84738 7.48226 3.82031 7.63086C3.90559 7.73956 3.98313 7.8833 4.00195 8.07031C4.01317 8.18383 3.99751 8.28538 3.97266 8.375C4.03676 8.61366 3.98821 8.85004 3.86719 9.03125C3.84742 9.06073 3.81829 9.08256 3.79688 9.10742C3.8792 9.20748 3.96936 9.35693 3.99023 9.55859C4.01388 9.79383 3.93773 9.99282 3.84375 10.127C3.80087 10.188 3.75895 10.2455 3.72656 10.3027C3.70845 10.3348 3.7024 10.3617 3.69727 10.3789L3.69141 10.3906C3.69372 10.4625 3.6987 10.5355 3.70312 10.6074C3.70799 10.6861 3.71541 10.769 3.7207 10.8477C3.72842 10.9661 3.70668 11.0745 3.67969 11.1758C3.75743 11.2537 3.84344 11.3409 3.90234 11.457L3.98438 11.6973L4.00195 11.9492C3.9823 12.1874 3.86346 12.3737 3.75586 12.4883C3.72176 12.5245 3.68108 12.5524 3.64453 12.582C3.75333 12.6908 3.86535 12.8504 3.89648 13.0742C3.94376 13.4182 3.76992 13.646 3.63281 13.7832C3.62819 13.8166 3.62783 13.8498 3.62109 13.8828C3.663 14.0976 3.62655 14.2832 3.55664 14.4395C3.58612 14.5092 3.60438 14.5854 3.61523 14.6562C3.64567 14.6718 3.68024 14.6794 3.70898 14.6973C3.78593 14.7451 3.92469 14.8461 4.02539 15.0195C4.15102 15.2382 4.17684 15.5168 4.06055 15.7695C4.04202 15.8098 4.02206 15.8481 4.00781 15.8867C4.03048 16.0636 4.01315 16.2268 3.95508 16.3848C4.00942 16.5141 4.04663 16.6663 4.01953 16.8359C4.00053 16.9531 3.95578 17.0488 3.9082 17.1289C3.92732 17.2213 3.93029 17.3184 3.91406 17.4219L4.04297 17.7207C4.06666 17.8266 4.07196 17.9397 4.05469 18.0547C4.04211 18.1378 4.00691 18.2098 3.97852 18.2773C3.98792 18.3592 3.98526 18.4394 3.97266 18.5176C3.999 18.5649 4.0368 18.6118 4.05469 18.6699C4.06286 18.6967 4.05534 18.7259 4.06055 18.752C4.13097 18.8074 4.20726 18.8718 4.26562 18.9629L4.35938 19.168L4.37109 19.3027C4.40859 19.3279 4.45176 19.35 4.48828 19.3848C4.5666 19.4594 4.6275 19.5447 4.66992 19.6367L4.74609 19.918L4.74023 19.9824C4.7788 20.0215 4.82927 20.0534 4.86328 20.1055C4.90426 20.1684 4.91879 20.2377 4.93945 20.2988C4.96858 20.3203 5.00494 20.3362 5.0332 20.3633C5.12518 20.4516 5.18082 20.5493 5.2207 20.6445C5.30403 20.6903 5.37476 20.7429 5.4375 20.8086C5.44471 20.8066 5.45377 20.8047 5.46094 20.8027L5.76562 20.7676C5.877 20.7744 5.99457 20.8033 6.11133 20.8613C6.19159 20.9014 6.25279 20.9611 6.31055 21.0137C6.46505 20.9349 6.6962 20.8644 6.96094 20.9609C6.97559 20.9663 6.9881 20.9784 7.00195 20.9844C7.24156 20.9293 7.48028 20.9857 7.66406 21.1191C7.67017 21.1236 7.67575 21.1322 7.68164 21.1367C7.74948 21.0957 7.82023 21.0487 7.91016 21.0254C8.05969 20.9869 8.19817 20.9903 8.32031 21.0195C8.38747 21.0028 8.46244 20.9935 8.54297 20.9961C8.75574 21.0032 8.9096 21.0991 9.01758 21.1836C9.06293 21.1782 9.10859 21.1633 9.1582 21.166C9.25639 21.1716 9.34569 21.194 9.42188 21.2246C9.42732 21.2176 9.43381 21.2081 9.43945 21.2012C9.50421 21.1224 9.61528 21.0095 9.78516 20.9375C9.88197 20.8965 9.98555 20.8756 10.0898 20.873L10.4004 20.9258L10.6816 21.0898C10.6979 21.1035 10.7081 21.1229 10.7227 21.1367C10.791 21.132 10.8577 21.1317 10.9219 21.1426C11.0803 21.0162 11.3196 20.8861 11.6426 20.9668C11.8041 21.0077 11.9251 21.0918 12.0176 21.1777C12.1507 21.0982 12.3094 21.0301 12.498 21.0195L12.7852 21.0547C13.043 21.1327 13.2023 21.3191 13.2656 21.4062C13.2758 21.4203 13.2795 21.4387 13.2891 21.4531L13.4004 21.4414C13.4927 21.3235 13.6709 21.1374 13.9629 21.084C14.0458 21.0689 14.1244 21.0712 14.1973 21.0781C14.3145 21.0175 14.4558 20.9661 14.6309 20.9785C14.789 20.9901 14.9146 21.0533 15.0176 21.1191C15.0605 21.0867 15.1025 21.0457 15.1582 21.0195C15.4645 20.8765 15.7777 20.9542 15.9844 21.1074C16.1421 21.2245 16.2271 21.3723 16.2656 21.4473C16.2703 21.4564 16.2729 21.4674 16.2773 21.4766L16.2891 21.4707C16.3512 21.3774 16.4637 21.2507 16.6406 21.166C16.8492 21.0665 17.0593 21.0797 17.2383 21.1367C17.3195 21.0928 17.3991 21.0479 17.4902 21.0312C17.5438 20.9205 17.6377 20.7814 17.8008 20.6797C18.039 20.5318 18.2872 20.5452 18.457 20.5918C18.465 20.594 18.4726 20.6011 18.4805 20.6035C18.5114 20.4554 18.5895 20.2564 18.7734 20.0938L19.0195 19.9238C19.106 19.8799 19.1948 19.8471 19.2832 19.8242L19.5293 19.8008C19.5623 19.7628 19.5863 19.7199 19.623 19.6895C19.6577 19.5999 19.6999 19.5075 19.7695 19.4258L19.7754 19.4141C19.7912 19.304 19.8247 19.2027 19.8809 19.1094C19.7744 18.9478 19.619 18.6432 19.793 18.2773L19.9688 18.0547C19.9679 17.9889 19.9655 17.9255 19.9805 17.8613C19.943 17.7328 19.9243 17.5886 19.9629 17.4395C19.9891 17.3386 20.0342 17.2548 20.0801 17.1875C20.0497 17.1264 20.0134 17.0617 19.998 16.9824C19.9578 16.7742 20.0129 16.5961 20.0859 16.4551C20.0351 16.3317 20.0007 16.1879 20.0273 16.0273C20.059 15.8368 20.1524 15.6995 20.2266 15.6172C20.2389 15.6036 20.2549 15.5944 20.2676 15.582C20.2435 15.5189 20.227 15.4538 20.209 15.3887C20.1071 15.2908 19.9591 15.1123 19.9453 14.8379C19.929 14.4985 20.1215 14.2758 20.2266 14.1816C20.2325 14.1763 20.2381 14.1692 20.2441 14.1641C20.2459 14.1354 20.2392 14.1058 20.2441 14.0762H20.2383V14.0645C20.1978 13.934 20.1936 13.8012 20.2148 13.6777C20.1308 13.5877 20.0274 13.4492 19.9922 13.25C19.9456 12.9855 20.0376 12.7631 20.1445 12.6172C20.243 12.4832 20.3682 12.3909 20.4785 12.3301C20.49 12.2839 20.4901 12.2346 20.5078 12.1895C20.4204 12.1141 20.3375 12.0272 20.2676 11.9258C20.1694 11.783 20.0906 11.5882 20.0977 11.3574C20.1044 11.143 20.1818 10.9661 20.2734 10.8359C20.3008 10.7185 20.3469 10.6148 20.4023 10.5254C20.3903 10.4656 20.3853 10.4033 20.3848 10.3379C20.2279 10.1977 20.0065 9.93976 20.0977 9.53516C20.1178 9.44602 20.1539 9.3719 20.1914 9.30664C20.0938 9.18114 19.9984 9.00705 19.9922 8.79102C19.9457 8.71583 19.8942 8.63595 19.8691 8.5332C19.7696 8.1245 19.9972 7.84368 20.1328 7.71289C20.1348 7.64322 20.1334 7.57921 20.1504 7.51953C20.107 7.36582 20.0914 7.2085 20.1387 7.05664C20.141 7.04914 20.142 7.04051 20.1445 7.0332C20.1051 6.96746 20.0703 6.89941 20.0332 6.83398C19.9698 6.72193 19.9294 6.60355 19.9043 6.48242C19.8619 6.43224 19.8194 6.37776 19.7871 6.3125C19.7493 6.23594 19.7243 6.15839 19.7109 6.08398C19.5958 6.06516 19.4461 6.0206 19.3066 5.9082C19.1319 5.76672 19.0386 5.57947 19.0078 5.4043C18.9857 5.27836 18.9993 5.16038 19.0195 5.05859C18.9699 4.97497 18.9274 4.888 18.9023 4.79492C18.8876 4.78685 18.8758 4.77459 18.8613 4.76562C18.8177 4.79714 18.7795 4.83821 18.7324 4.86523C18.6264 4.92596 18.4265 5.01951 18.1758 5.00586C18.0398 4.99843 17.9042 4.97721 17.7715 4.93555C17.5065 4.8523 17.3716 4.66179 17.291 4.51367C17.1787 4.55312 17.0404 4.58178 16.8867 4.55469C16.7113 4.52304 16.5796 4.43882 16.4883 4.35547L16.4824 4.36133C16.1521 4.47197 15.8686 4.35352 15.6855 4.21484C15.5709 4.26049 15.4438 4.29331 15.3047 4.29688C15.1659 4.30034 15.0391 4.27309 14.9238 4.23242C14.8186 4.30915 14.6767 4.39805 14.4844 4.4082C14.2187 4.42176 14.0171 4.30459 13.8984 4.20312C13.887 4.19329 13.8798 4.17802 13.8691 4.16797C13.8373 4.20412 13.8181 4.25673 13.7754 4.29102ZM8.70703 21.2188C8.67588 21.1927 8.62409 21.1583 8.55469 21.1309C8.60916 21.1625 8.66589 21.1832 8.70703 21.2188ZM4.10156 20.1816C4.10348 20.1791 4.11478 20.1699 4.125 20.1523C4.12859 20.1461 4.12554 20.1337 4.13086 20.123C4.11783 20.1409 4.1144 20.165 4.10156 20.1816ZM19.9629 19.8359C19.9738 19.8382 19.9876 19.8395 19.998 19.8418C19.9973 19.8416 19.9866 19.8374 19.9746 19.8359H19.9629ZM3.79688 19.5723C3.79849 19.5706 3.80782 19.5591 3.82031 19.543C3.82998 19.5304 3.84479 19.5085 3.86133 19.4785C3.83441 19.5109 3.81971 19.5494 3.79688 19.5723ZM3 19.5254L3.03516 19.5312L2.95312 19.4961C2.97319 19.5058 2.98867 19.5214 3 19.5254ZM3.48047 18.5234C3.47134 18.5207 3.46278 18.5189 3.45703 18.5176L3.42773 18.5117C3.44437 18.5136 3.46275 18.521 3.48047 18.5234ZM20.3379 18.3418L20.3555 18.3535C20.34 18.3436 20.3219 18.3253 20.2969 18.3066C20.3129 18.323 20.3295 18.335 20.3379 18.3418ZM3.43359 18.0957C3.40805 18.0829 3.38696 18.0763 3.375 18.0723C3.35931 18.0669 3.34629 18.0665 3.3457 18.0664C3.37163 18.072 3.40185 18.0865 3.43359 18.0957ZM4.00781 15.8516L4.01367 15.8398C4.01476 15.804 4.00956 15.7687 4.00195 15.7402C4.01145 15.7758 4.00209 15.8162 4.00781 15.8516ZM21.5625 14.6504C21.5904 14.6204 21.6225 14.5676 21.6562 14.498C21.6207 14.5535 21.599 14.6113 21.5625 14.6504ZM2.32031 14.3516L2.31445 14.3574C2.30927 14.3616 2.29976 14.3666 2.29102 14.375C2.28757 14.3783 2.28356 14.3822 2.2793 14.3867C2.29637 14.374 2.30829 14.3595 2.32031 14.3516ZM20.4609 12.7402L20.502 12.9688C20.4716 12.8893 20.472 12.8043 20.4609 12.7227V12.7402ZM3.53906 12.3887C3.53976 12.3827 3.54439 12.3771 3.54492 12.3711L3.5332 12.1895C3.54713 12.259 3.53981 12.325 3.53906 12.3887ZM20.707 9.22461L20.7539 9.23047L20.6953 9.21875L20.707 9.22461ZM20.6367 8.52148L20.6953 8.55664C20.6732 8.54686 20.6506 8.5289 20.625 8.51562L20.6367 8.52148ZM20.3672 8.03516C20.3633 8.03866 20.3556 8.04089 20.3496 8.04688C20.3636 8.03556 20.3784 8.02668 20.3906 8.01758C20.3893 8.01855 20.3794 8.02405 20.3672 8.03516ZM17.5137 3.83984L17.7539 3.82812L17.5605 3.74609L17.5137 3.83984ZM11.7715 3.88086C11.7768 3.88803 11.787 3.90148 11.8008 3.91602C11.8049 3.92036 11.8127 3.92234 11.8184 3.92773C11.8014 3.90371 11.7774 3.88845 11.7656 3.86914C11.7667 3.87081 11.7676 3.87558 11.7715 3.88086ZM17.7539 3.82812L17.5137 3.83984L17.5605 3.74609L17.7539 3.82812ZM7.40625 3.07227C7.37621 3.09213 7.35116 3.11178 7.33008 3.13086H7.33594C7.35576 3.10922 7.38279 3.09436 7.40625 3.07227Z" fill="#4F4F4F"/>
</svg>
