<svg width="80" height="80" viewBox="0 0 80 80" fill="none" xmlns="http://www.w3.org/2000/svg">
<path d="M35.3342 21.2569C38.4895 22.3308 39.4545 26.3824 37.1891 28.8117C35.8615 30.2332 34.0317 30.3946 32.1831 30.2808C32.1956 34.1751 30.0261 37.7239 26.7104 39.7021L26.7041 42.9177C30.2804 43.9295 34.386 43.8509 37.5475 45.9843C38.4833 46.6154 39.1398 47.4803 40.0568 48.1177C41.5302 46.6382 43.185 45.1235 45.3149 44.7138C43.8123 43.0646 41.1551 41.7113 40.7695 39.3606C41.551 34.171 41.7178 28.8862 42.3472 23.6862C44.7793 3.55042 72.7371 3.54835 75.1692 23.6862C75.7965 28.8862 75.9653 34.1689 76.7469 39.3606C76.7886 41.2354 73.3644 43.4081 72.2015 44.7138C76.428 45.7442 79.552 50.0069 79.8667 54.253C80.294 60.0178 79.527 66.2938 79.8667 72.1146C79.8521 72.843 79.4833 73.4451 78.7684 73.6624H1.23047C0.513552 73.4451 0.146755 72.8409 0.132166 72.1146C0.473954 66.2938 -0.292985 60.0199 0.132166 54.253C0.346826 51.3643 1.88696 48.4115 4.12733 46.5802C7.41392 43.8943 11.8384 43.9875 15.7773 42.9177L15.7711 39.7021C12.4678 37.7259 10.2649 34.1731 10.2983 30.2808C4.19403 31.3237 1.46389 23.802 7.17842 21.1762C6.45733 15.3844 10.2399 8.96148 16.4671 8.54763C17.0152 8.51038 18.0948 8.70075 18.447 8.62833C18.7242 8.57039 19.9663 7.81305 20.5352 7.62061C29.3425 4.62849 36.2137 12.9903 35.3342 21.2548V21.2569ZM32.1831 20.9713V18.2565C32.1831 17.6461 31.5121 15.6472 31.2224 15.0202C29.5072 11.2976 25.3828 9.06701 21.3564 10.6127C20.679 10.8714 19.7204 11.6784 19.2535 11.7839C18.422 11.9722 17.3258 11.5687 16.3317 11.6784C13.3952 12.0053 10.2983 15.5003 10.2983 18.4117V20.9734C12.9972 20.9837 16.0191 19.9036 18.4303 18.7283C19.4036 18.2544 22.1296 16.2762 22.8777 16.3073C23.2174 16.3218 23.4113 16.4707 23.6905 16.6011C25.4516 17.4288 29.453 20.7127 31.0181 20.9651C31.3912 21.0251 31.8017 20.9506 32.181 20.9755L32.1831 20.9713ZM64.2341 43.0025C65.322 42.9839 67.156 43.8509 68.1397 43.5612C68.5982 43.4267 70.701 41.8561 71.1761 41.4526C71.9952 40.7615 72.7142 39.8573 73.5186 39.1372C73.1644 35.0152 72.6538 30.9037 72.1973 26.79C72.0952 25.8713 72.1494 24.756 72.039 23.8434C70.082 7.77994 47.5428 7.52542 45.4691 23.8434C45.3607 24.698 45.4066 25.7616 45.3107 26.6348C44.8543 30.8002 44.3645 34.9656 43.9894 39.1372C44.7355 39.938 45.4837 40.7491 46.3319 41.4526C46.8321 41.8686 48.8828 43.4122 49.3684 43.5591C50.4104 43.8716 52.1402 42.9797 53.276 43.0025L53.251 39.4724C47.4886 36.0602 48.6056 29.4449 48.6306 23.7255L49.3642 22.7467C52.0173 22.0266 54.5848 21.0996 56.9836 19.7588C57.9027 19.2435 59.5595 17.7599 60.537 17.8737C61.1455 17.9461 65.4554 21.1907 66.4265 21.8135C67.3185 22.3846 68.7315 22.7323 68.9045 23.8538C69.1817 25.6561 69.0504 31.5907 68.6544 33.364C68.1105 35.8016 66.4036 38.1998 64.257 39.4724L64.232 43.0025H64.2341ZM13.4473 23.7855C13.6224 28.2778 12.3073 33.1281 16.3212 36.3313C21.1084 40.1532 28.3985 37.1797 29.0383 31.1168C29.2112 29.4738 29.2613 25.4388 29.0674 23.8331C29.0466 23.6613 29.0654 23.4937 28.9049 23.3737L22.884 19.7836C19.9413 21.5383 16.8068 22.9971 13.4473 23.7855ZM60.1222 21.4638C59.7888 21.5362 58.5383 22.4653 58.0777 22.7054C56.1 23.742 54.0513 24.6732 51.8735 25.236L51.7192 25.5485C51.8359 29.7511 50.7814 34.3158 54.9537 36.9293C59.397 39.7124 65.249 36.9169 65.7701 31.7396C65.8451 30.9968 65.8909 25.2919 65.7138 25.0043L60.587 21.5528C60.439 21.4597 60.2973 21.4286 60.1222 21.4659V21.4638ZM10.3004 24.0752C9.03741 23.9759 7.0888 23.949 7.16175 25.7016C7.2326 27.3549 9.07701 27.2473 10.3004 27.179V24.0752ZM32.1831 27.179C33.4461 27.2784 35.3947 27.3053 35.3217 25.5526C35.2509 23.8993 33.4065 24.0069 32.1831 24.0752V27.179ZM23.5863 40.836C22.0775 41.2788 20.4102 41.2788 18.8972 40.836V43.5509L21.0292 45.32L23.5863 43.3957V40.8339V40.836ZM61.0997 40.836C59.5908 41.2788 57.9235 41.2788 56.4105 40.836V43.5509L58.5425 45.32L61.0997 43.3957V40.8339V40.836ZM29.057 46.5802L25.5766 45.9822C24.3491 46.4726 22.2588 48.9681 21.0104 48.9164C19.8517 48.8688 18.0198 46.5099 16.9006 45.9843L13.4244 46.5781L21.0854 67.5271L29.0549 46.5781L29.057 46.5802ZM65.6325 46.425C64.976 46.3526 64.1278 45.9967 63.4963 45.9677C62.4668 45.9201 60.5828 48.0183 59.5845 48.5688C57.5109 49.7089 56.1187 46.8099 54.4139 45.9863L51.8714 46.5078C53.6178 53.8329 63.9632 53.7667 65.6304 46.425H65.6325ZM76.7302 70.633V54.104C76.7302 52.641 75.1963 50.0917 74.0751 49.1357C73.0226 48.2397 70.3363 47.0189 68.9774 47.0499C68.5627 47.0603 68.3772 48.3453 68.2084 48.7467C64.6905 57.1023 53.0739 57.2658 49.3976 48.9598C49.2329 48.5853 48.8557 47.1099 48.6619 47.0603C45.3441 47.4824 42.5847 48.9619 41.3301 52.1651C41.1988 52.5003 40.7799 53.6839 40.7799 53.9467V70.6289H76.7302V70.633ZM18.8972 70.633L10.3087 47.2651C7.35348 47.5962 4.89636 49.4109 3.81681 52.1672C3.68551 52.5024 3.26661 53.686 3.26661 53.9488V70.631H18.8972V70.633ZM37.6538 70.633V53.7936C37.6538 53.2018 38.2707 51.952 38.2624 51.4636C38.2374 49.7937 33.8942 47.0686 32.1769 47.261L23.5863 70.633H37.6538Z" fill="#4F4F4F"/>
<path d="M58.2466 58.2509C60.4766 57.8267 60.835 61.0857 58.8176 61.3175C56.7586 61.5554 56.4064 58.6006 58.2466 58.2509Z" fill="#4F4F4F"/>
<path d="M58.2466 64.4586C60.4766 64.0344 60.835 67.2934 58.8176 67.5252C56.7586 67.7631 56.4064 64.8083 58.2466 64.4586Z" fill="#4F4F4F"/>
</svg>
