<svg width="80" height="80" viewBox="0 0 80 80" fill="none" xmlns="http://www.w3.org/2000/svg">
<path d="M46.0387 25.2542C46.0387 22.0538 43.455 19.47 40.2545 19.47C37.0541 19.47 34.4703 22.0537 34.4703 25.2542C34.4703 28.4547 37.0541 31.0384 40.2545 31.0384C43.455 31.0384 46.0387 28.4547 46.0387 25.2542ZM49.5387 25.2542C49.5387 30.3877 45.388 34.5384 40.2545 34.5384C35.121 34.5384 30.9703 30.3877 30.9703 25.2542C30.9703 20.1208 35.121 15.97 40.2545 15.97C45.388 15.97 49.5387 20.1207 49.5387 25.2542Z" fill="#4F4F4F"/>
<path d="M40.2543 6.08035C48.4256 6.08035 55.8488 10.8985 60.9037 18.845H60.9027C62.0714 20.6772 62.597 23.0142 62.597 25.2454C62.597 27.4763 62.0711 29.8127 60.9027 31.6448L60.9037 31.6458C55.8488 39.5923 48.4256 44.4104 40.2543 44.4104C32.0837 44.4104 24.6626 39.5928 19.6078 31.6477C18.4381 29.8152 17.9115 27.4774 17.9115 25.2454C17.9115 23.0135 18.4373 20.6755 19.6068 18.843C24.6616 10.8977 32.0836 6.08043 40.2543 6.08035ZM40.2543 9.58035C33.5677 9.58043 27.1428 13.5172 22.559 20.7229L22.557 20.7259C21.8327 21.8608 21.4115 23.4999 21.4115 25.2454C21.4115 26.9908 21.8327 28.63 22.557 29.7649L22.559 29.7679C27.1428 36.9736 33.5677 40.9104 40.2543 40.9104C46.9409 40.9104 53.3667 36.9739 57.9506 29.7679L57.9515 29.7649C58.6759 28.63 59.097 26.9909 59.097 25.2454C59.097 23.4999 58.6759 21.8608 57.9515 20.7259L57.9506 20.7229C53.3667 13.5169 46.9409 9.58035 40.2543 9.58035Z" fill="#4F4F4F"/>
<path d="M46.0387 54.7453C46.0387 51.5448 43.455 48.9611 40.2545 48.9611C37.0541 48.9611 34.4703 51.5448 34.4703 54.7453C34.4703 57.9458 37.0541 60.5295 40.2545 60.5295C43.455 60.5295 46.0387 57.9458 46.0387 54.7453ZM49.5387 54.7453C49.5387 59.8788 45.388 64.0295 40.2545 64.0295C35.121 64.0295 30.9703 59.8788 30.9703 54.7453C30.9703 49.6118 35.121 45.4611 40.2545 45.4611C45.388 45.4611 49.5387 49.6118 49.5387 54.7453Z" fill="#4F4F4F"/>
<path d="M40.2543 35.5714C48.4256 35.5714 55.8488 40.3896 60.9037 48.3361H60.9027C62.0714 50.1683 62.597 52.5053 62.597 54.7365C62.597 56.9674 62.0711 59.3038 60.9027 61.1359L60.9037 61.1369C55.8488 69.0834 48.4256 73.9015 40.2543 73.9015C32.0837 73.9014 24.6626 69.0839 19.6078 61.1388C18.4381 59.3063 17.9115 56.9685 17.9115 54.7365C17.9115 52.5046 18.4373 50.1666 19.6068 48.3341C24.6616 40.3888 32.0836 35.5715 40.2543 35.5714ZM40.2543 39.0714C33.5677 39.0715 27.1428 43.0083 22.559 50.214L22.557 50.2169C21.8327 51.3518 21.4115 52.991 21.4115 54.7365C21.4115 56.4819 21.8327 58.1211 22.557 59.256L22.559 59.2589C27.1428 66.4647 33.5677 70.4014 40.2543 70.4015C46.9409 70.4015 53.3667 66.465 57.9506 59.2589L57.9515 59.256C58.6759 58.1211 59.097 56.482 59.097 54.7365C59.097 52.991 58.6759 51.3519 57.9515 50.2169L57.9506 50.214C53.3667 43.008 46.9409 39.0714 40.2543 39.0714Z" fill="#4F4F4F"/>
</svg>
