<svg width="80" height="80" viewBox="0 0 80 80" fill="none" xmlns="http://www.w3.org/2000/svg">
<path d="M78 65.7219V67.0651C77.052 70.1793 74.6988 70.2987 71.8844 69.857C69.4382 69.4729 67.1126 68.4421 65.1671 66.9119C63.2394 65.3936 62.1113 62.5699 59.194 64.4941C57.7987 65.4135 56.532 66.5895 55.0457 67.485C41.3459 75.7392 23.6958 72.3643 13.8376 59.8875C12.6956 58.4428 11.7713 56.813 10.5601 55.4241C7.42906 51.8323 4.67209 50.6403 2.9522 45.6158L2.02595 41.5444C2.08533 40.5733 1.94481 39.5186 2.02595 38.5595C2.2971 35.3458 3.96157 31.5291 6.03573 29.0875C7.37365 27.5135 9.18458 26.2558 10.5601 24.6838C14.1562 20.5686 15.5792 17.3728 20.3787 13.9641C44.6789 -3.2925 77.1094 19.5637 69.3808 48.4753C68.7791 50.7239 67.5995 52.682 66.9761 54.7137C66.5129 56.224 66.9444 56.9523 67.6965 58.2498C69.8102 61.8893 71.8646 61.8177 75.3915 62.8962C76.7749 63.3201 77.5567 64.3867 77.996 65.7239L78 65.7219ZM75.2866 67.3218C75.4746 67.1328 75.6507 66.5398 75.625 66.2592C75.5023 64.9518 73.4618 65.0274 72.5078 64.7548C69.8914 64.0066 67.645 62.3928 66.0954 60.1601C62.6615 55.2112 65.3532 53.5854 66.796 48.8593C74.772 22.7038 46.468 0.639585 23.2584 14.9173C17.0379 18.7439 15.2784 23.456 10.4869 28.19C9.51114 29.1532 8.58291 29.7382 7.66854 30.8784C3.76168 35.7537 3.34012 42.2846 6.56417 47.6514C8.06635 50.1528 10.0317 51.295 11.896 53.3327C13.4774 55.0619 14.6451 57.1235 16.1275 58.9283C25.3484 70.1535 41.5122 72.8956 53.9492 65.3379C57.2683 63.3201 60.5972 59.1452 64.6506 62.9559C66.3764 64.5797 66.9721 65.7 69.3966 66.691C70.5306 67.1547 74.4019 68.2133 75.2885 67.3238L75.2866 67.3218Z" fill="#4F4F4F"/>
<path d="M36.8672 14.1267C58.1729 12.6143 72.2843 36.7421 60.0788 54.6355C50.7213 68.354 31.0306 69.9917 19.7573 57.6641C18.8687 56.6911 16.1533 53.2744 16.1513 52.0645C16.1513 51.169 17.703 49.3383 18.1799 48.3115C20.3491 43.6412 20.3491 36.4615 18.1799 31.7872C17.3606 30.0202 15.5655 28.9058 16.4878 26.9079C19.7257 19.8895 29.4236 14.652 36.8672 14.1247V14.1267ZM53.8128 36.0218L52.9815 30.7942C53.6643 29.2262 54.9468 29.4252 55.402 31.0669C56.5044 35.0467 56.445 41.4403 59.012 44.6003C59.5979 45.3207 60.3955 45.9495 61.1594 46.4669C61.488 46.4509 62.0896 42.4074 62.1213 41.9179C62.6834 33.5085 59.0575 25.6384 52.2275 20.8287C40.9443 12.883 25.7621 16.2081 18.6688 27.9168C23.3931 34.9293 23.3931 45.1774 18.6688 52.1899C26.1441 64.8199 43.7408 67.5162 54.5569 57.4413C54.6777 57.3278 55.1289 56.9537 55.0003 56.7707C54.0661 56.5199 51.038 53.8534 50.3631 53.9569C50.0583 54.0047 49.4368 54.4564 49.0648 54.6016C48.2751 54.9121 46.3375 55.4692 45.7536 55.8613C45.5616 55.9906 45.4726 56.6055 45.2727 56.908C44.9105 57.4552 43.2678 59.6481 42.7572 59.7496C41.8527 59.9306 41.0274 59.3297 41.2273 58.3706C41.4094 57.5029 43.5231 55.8414 43.4044 55.0852C42.967 53.742 39.7627 53.2147 40.0378 51.6546C40.111 51.2427 40.7186 50.6815 41.1362 50.6536C41.6409 50.6178 43.9664 52.1262 44.4533 52.5281C44.8056 52.8167 45.0669 53.0993 45.2945 53.4933C45.4924 53.5092 48.7659 52.16 48.9599 52.0008C49.1657 51.8317 49.3616 51.2964 49.3676 51.0277C49.4052 49.784 47.4656 44.5824 49.8683 44.8291C50.2819 44.8709 50.7945 45.3286 50.9271 45.7186L51.8099 51.8456L56.4925 55.0573C56.6628 55.1827 56.7301 55.0951 56.8627 54.9877C57.3535 54.5917 58.6023 52.5401 58.9784 51.8874C59.5345 50.9263 59.9838 49.9233 60.4726 48.9284C56.6153 46.6698 54.8776 42.9447 54.3788 38.5907L47.1311 37.2953C45.9575 36.7839 46.2148 35.0507 47.5111 34.9671L53.8128 36.0218Z" fill="#4F4F4F"/>
<path d="M12.373 31.8768C16.8004 30.9654 18.3857 37.2694 18.2076 40.5807C18.0433 43.6173 16.0384 48.8428 12.1593 47.6966C7.62305 46.3554 7.7517 32.8279 12.373 31.8768ZM12.8164 34.2587C11.3854 34.6885 11.14 39.6315 11.2212 40.8772C11.3181 42.3756 12.0485 47.0181 14.273 44.8291C16.2621 42.8731 16.2423 37.6177 14.7639 35.373C14.37 34.7741 13.6001 34.0219 12.8164 34.2567V34.2587Z" fill="#4F4F4F"/>
<path d="M36.8672 19.4995C37.7281 19.4378 38.6306 19.4079 39.4935 19.4577C40.018 19.4875 41.4153 19.6109 41.8289 19.794C42.4939 20.0885 42.6938 20.7252 42.4702 21.4058C42.104 22.5221 40.2891 21.8694 39.4935 21.8456C34.2804 21.6923 29.8926 23.2445 26.435 27.2144C25.7265 28.0263 25.6018 29.2023 24.2223 29.0013C21.5702 28.6133 25.6057 24.53 26.3598 23.8574C29.2137 21.3103 33.0612 19.7761 36.8672 19.5014V19.4995Z" fill="#4F4F4F"/>
<path d="M45.1639 20.6815C46.961 20.2715 47.3014 22.7589 45.6567 22.9719C44.2713 23.1529 43.8299 20.9839 45.1639 20.6815Z" fill="#4F4F4F"/>
</svg>
