<svg width="80" height="80" viewBox="0 0 80 80" fill="none" xmlns="http://www.w3.org/2000/svg">
<path d="M52.3124 23.1996C52.3124 18.4359 50.878 15.2325 48.7538 13.2123C46.6138 11.1771 43.584 10.1625 40.0624 10.1625C36.5408 10.1625 33.5111 11.1771 31.371 13.2123C29.2469 15.2325 27.8125 18.4359 27.8124 23.1996C27.8124 27.9826 29.2639 32.2542 31.539 35.2953C33.8137 38.3357 36.8417 40.0746 40.0624 40.0746C43.2832 40.0746 46.3112 38.3357 48.5859 35.2953C50.861 32.2542 52.3124 27.9826 52.3124 23.1996ZM55.3124 23.1996C55.3124 28.5666 53.6881 33.4833 50.9882 37.0922C48.2879 40.7016 44.4415 43.0746 40.0624 43.0746C35.6833 43.0746 31.8369 40.7016 29.1367 37.0922C26.4368 33.4833 24.8124 28.5666 24.8124 23.1996C24.8125 17.814 26.4532 13.7494 29.3036 11.0385C32.1386 8.34245 35.984 7.1625 40.0624 7.1625C44.1408 7.1625 47.9863 8.34245 50.8212 11.0385C53.6716 13.7494 55.3124 17.814 55.3124 23.1996Z" fill="#4F4F4F"/>
<path d="M33.5291 19.1567C34.7906 16.994 37.6159 16.5439 39.5164 18.0121L40.2283 18.5551C41.7515 19.6979 43.146 20.6054 44.4548 20.9223L44.7556 20.9848L45.2947 21.0746C47.9627 21.4989 50.6896 21.5817 53.5252 21.6762C54.353 21.7039 55.002 22.3971 54.9744 23.225C54.9468 24.053 54.2525 24.7018 53.4246 24.6742C50.4493 24.5751 47.3251 24.4869 44.2381 23.9399V23.9389C41.7853 23.5126 39.4823 21.7756 37.6834 20.3871H37.6824C37.1579 19.9816 36.434 20.1316 36.1209 20.6684C35.7024 21.3858 35.2124 22.1313 34.6677 22.7758C34.139 23.4015 33.4718 24.0371 32.6736 24.4018L32.6726 24.4028C30.7787 25.2662 28.717 25.6431 26.9177 25.9858C26.1041 26.1406 25.3189 25.607 25.1638 24.7934C25.0088 23.9796 25.5434 23.1935 26.3572 23.0385C28.2327 22.6813 29.9216 22.3588 31.4275 21.6723C31.6417 21.5741 31.9677 21.3222 32.3757 20.8393C32.7685 20.3745 33.1601 19.7891 33.5291 19.1567Z" fill="#4F4F4F"/>
<path d="M44.362 40.2627V39.875C44.362 39.0467 45.0338 38.3752 45.862 38.375C46.6905 38.375 47.362 39.0466 47.362 39.875V40.2627C47.3621 43.8786 49.6128 47.1145 52.9997 48.3105H52.9988C58.2365 50.1584 65.2395 54.1279 67.6277 62.4668L67.738 62.8672L67.739 62.8701C68.4496 65.5883 66.8308 68.327 64.2087 69.1436C58.0067 71.0793 49.2954 72.9781 38.8259 72.8125V72.8115C29.4908 72.6713 21.6718 70.9395 15.8923 69.1445H15.8904C13.1419 68.2867 11.6276 65.4146 12.3933 62.6826V62.6816C12.7602 61.3771 13.3149 59.9587 14.0964 58.5303L14.0984 58.5254C17.2419 52.8235 22.7836 49.8528 27.113 48.3232C30.6597 47.0701 32.7496 43.9077 32.7497 40.2754V39.8877C32.7497 39.0593 33.4214 38.3878 34.2497 38.3877C35.0782 38.3877 35.7497 39.0593 35.7497 39.8877V40.2754C35.7496 45.1177 32.9149 49.4545 28.112 51.1514C24.0915 52.5718 19.3577 55.2016 16.7263 59.9746L16.7253 59.9736C16.0586 61.193 15.5887 62.3976 15.281 63.4912L15.282 63.4922C14.9477 64.685 15.6078 65.9129 16.7839 66.2803H16.7829C22.353 68.0101 29.884 69.6776 38.8728 69.8125H38.8738C48.9539 69.9719 57.3422 68.1445 63.3152 66.2803H63.3171C64.4692 65.9214 65.1256 64.7362 64.8367 63.6299V63.6289C62.9956 56.6688 57.3243 53.1128 52.4685 51.3086L52.0007 51.1396C47.3878 49.5107 44.3621 45.1217 44.362 40.2627Z" fill="#4F4F4F"/>
<path d="M17.0553 40.79C16.8169 37.9945 19.8149 36.0226 22.2848 37.4512L22.2858 37.4502L25.1979 39.125C25.9158 39.538 26.1635 40.4548 25.7506 41.1728C25.3376 41.891 24.4199 42.1386 23.7018 41.7256L20.7897 40.0508L20.7848 40.0469C20.4564 39.8563 20.0103 40.1062 20.0446 40.5322L20.4069 44.6953V44.7002C20.6029 47.052 18.4659 48.9385 16.1442 48.4131H16.1422L12.6871 47.626V47.6269C12.3538 47.5529 12.036 47.8286 12.0768 48.1846L12.3024 50.0723V50.0771C12.6065 52.7057 10.015 54.7227 7.54359 53.7607L7.54164 53.7598L5.94203 53.1348V53.1338C5.60557 53.0064 5.26764 53.2504 5.25453 53.582L5.25648 53.6494V53.6523L5.54359 56.8271C5.6183 57.6522 5.01024 58.3813 4.18519 58.456C3.36015 58.5307 2.631 57.9227 2.55629 57.0976L2.2682 53.9228L2.26918 53.9219C2.03823 51.3966 4.45659 49.5244 6.80238 50.2598L7.02894 50.3389L7.03285 50.3398L8.63344 50.9648H8.63246C8.98415 51.1012 9.36469 50.8209 9.32289 50.4277L9.09828 48.54V48.5381C8.82457 46.2199 10.8396 44.2962 13.1168 44.6562L13.3375 44.6982L13.3453 44.7002L16.8073 45.4873H16.8063C17.1343 45.5615 17.4466 45.2972 17.4176 44.9492V44.9482L17.0553 40.793V40.79Z" fill="#4F4F4F"/>
<path d="M57.7091 37.4531C60.18 36.0191 63.183 37.9927 62.9445 40.79V40.793L62.5822 44.9551C62.5569 45.3 62.8666 45.5603 63.1925 45.4873L66.6544 44.7002L66.6623 44.6982C69.0281 44.1726 71.1849 46.1452 70.9025 48.5381L70.9015 48.54L70.6769 50.4219C70.6311 50.8175 71.0134 51.101 71.3664 50.9648L72.9669 50.3398L72.9709 50.3389C75.3845 49.404 77.969 51.3151 77.7306 53.9219L77.4435 57.0976C77.3688 57.9227 76.6397 58.5308 75.8146 58.456C74.9896 58.3813 74.3815 57.6522 74.4562 56.8271L74.7433 53.6523L74.7443 53.6494C74.778 53.2841 74.416 52.997 74.0568 53.1338L74.0578 53.1348L72.4582 53.7598L72.4572 53.7607C69.9856 54.7231 67.3933 52.7059 67.6974 50.0771L67.6984 50.0723L67.923 48.1846C67.9638 47.8286 67.646 47.5529 67.3127 47.6269L67.3117 47.626L63.8576 48.4131H63.8566C61.5347 48.9388 59.3969 47.0522 59.5929 44.7002V44.6953L59.9552 40.5322C59.9895 40.1062 59.5434 39.8563 59.215 40.0469L59.2101 40.0508L56.298 41.7256C55.5799 42.1386 54.6622 41.891 54.2492 41.1728C53.8364 40.4548 54.0841 39.538 54.8019 39.125L57.7091 37.4541V37.4531Z" fill="#4F4F4F"/>
</svg>
