<svg width="80" height="80" viewBox="0 0 80 80" fill="none" xmlns="http://www.w3.org/2000/svg">
<path d="M64.0495 20.6341C64.0493 18.0675 61.9335 15.9516 59.3669 15.9515H53.6999C52.7663 15.9515 51.7482 15.7147 50.859 15.3909C49.9703 15.0673 49.0485 14.5971 48.3464 14.012C48.3409 14.0074 48.3352 14.003 48.3298 13.9983L43.0631 9.49834L43.0534 9.48955C41.4541 8.10192 38.652 8.08058 36.9606 9.50616L36.9596 9.50518L31.6706 14.0306C31.665 14.0354 31.6596 14.0405 31.654 14.0452C30.9566 14.6264 30.0466 15.0968 29.1628 15.4222C28.2799 15.7472 27.269 15.9846 26.3337 15.9847H20.5671C18.0003 15.9847 15.8837 18.1006 15.8835 20.6673V26.3011C15.8835 27.212 15.658 28.2095 15.3424 29.0882C15.0272 29.9661 14.5648 30.8831 13.9772 31.5882C13.974 31.5921 13.9707 31.596 13.9674 31.5999L9.47233 36.8929C8.08807 38.5397 8.08693 41.3182 9.46744 42.9681L13.9674 48.2679H13.9665C14.568 48.9691 15.0312 49.8967 15.3434 50.7708C15.6588 51.654 15.8835 52.6588 15.8835 53.5677V59.2679C15.8836 61.8346 18.0003 63.9505 20.5671 63.9505H26.4001C27.3212 63.9505 28.3328 64.1892 29.2145 64.512C29.987 64.7949 30.7885 65.1901 31.4469 65.6761L31.7204 65.8899L31.737 65.9036L37.0036 70.4036L37.0133 70.4124C38.6127 71.8 41.4138 71.8214 43.1051 70.3958L48.363 65.9036C48.3684 65.899 48.374 65.8945 48.3796 65.8899C49.0769 65.3088 49.9869 64.8384 50.8708 64.513C51.7536 64.188 52.7645 63.9505 53.6999 63.9505H59.3669C61.9335 63.9503 64.0494 61.8345 64.0495 59.2679V53.6009C64.0495 52.6655 64.287 51.6547 64.612 50.7718C64.9373 49.8879 65.4078 48.978 65.9889 48.2806L66.0026 48.264L70.5026 42.9974L70.5114 42.9876C71.899 41.3883 71.9204 38.5872 70.4948 36.8958V36.8948L66.0026 31.638C65.9979 31.6325 65.9935 31.6269 65.9889 31.6214C65.4078 30.924 64.9373 30.014 64.612 29.1302C64.287 28.2473 64.0495 27.2364 64.0495 26.3011V20.6341ZM67.5495 26.3011C67.5495 26.6989 67.663 27.2876 67.8962 27.9212C68.1275 28.5496 68.4215 29.0708 68.6725 29.3743L73.1637 34.6312L73.1715 34.6399C75.6792 37.6153 75.7006 42.3476 73.1549 45.2815L68.6764 50.5208L68.6774 50.5218C68.4253 50.8245 68.129 51.3482 67.8962 51.9808C67.663 52.6143 67.5495 53.2031 67.5495 53.6009V59.2679C67.5494 63.7675 63.8665 67.4504 59.3669 67.4505H53.6999C53.3021 67.4505 52.7133 67.564 52.0798 67.7972C51.4509 68.0287 50.9291 68.3224 50.6256 68.5735L45.3698 73.0648L45.361 73.0726C42.3857 75.5802 37.6534 75.6016 34.7194 73.056V73.055L29.4792 68.5784C29.1809 68.33 28.6521 68.0331 28.0104 67.7981C27.3674 67.5628 26.7789 67.4505 26.4001 67.4505H20.5671C16.0673 67.4505 12.3836 63.7676 12.3835 59.2679V53.5677C12.3835 53.1766 12.2738 52.5811 12.0475 51.9476C11.8195 51.3091 11.5361 50.8076 11.3083 50.5433L11.2995 50.5335L6.79948 45.2337L6.79362 45.2269C4.31324 42.2759 4.31328 37.5928 6.79362 34.6419L6.79948 34.6351L11.2887 29.347C11.5345 29.0521 11.8221 28.5358 12.0485 27.9056C12.2746 27.276 12.3834 26.6902 12.3835 26.3011V20.6673C12.3837 16.1676 16.0674 12.4847 20.5671 12.4847H26.3337C26.7315 12.4846 27.3203 12.3712 27.9538 12.138C28.5075 11.9341 28.9781 11.6822 29.2897 11.4534L29.4128 11.3567L34.696 6.83819L34.7057 6.8294C37.6774 4.3249 42.4009 4.30089 45.3356 6.83721H45.3366L50.5924 11.3284C50.8912 11.5755 51.417 11.8697 52.0573 12.1028C52.7013 12.3373 53.3002 12.4515 53.6999 12.4515H59.3669C63.8665 12.4516 67.5493 16.1345 67.5495 20.6341V26.3011Z" fill="#4F4F4F"/>
<path d="M38.25 43.2034V27.1028C38.25 26.1363 39.0335 25.3528 40 25.3528C40.9665 25.3528 41.75 26.1363 41.75 27.1028V43.2034C41.7498 44.1697 40.9663 44.9534 40 44.9534C39.0337 44.9534 38.2502 44.1697 38.25 43.2034Z" fill="#4F4F4F"/>
<path d="M40.012 51.5833C40.9783 51.5835 41.762 52.3669 41.762 53.3333C41.762 54.2997 40.9783 55.0832 40.012 55.0833H39.9817C39.0152 55.0833 38.2317 54.2998 38.2317 53.3333C38.2317 52.3668 39.0152 51.5833 39.9817 51.5833H40.012Z" fill="#4F4F4F"/>
</svg>
