<svg width="80" height="80" viewBox="0 0 80 80" fill="none" xmlns="http://www.w3.org/2000/svg">
<path d="M31.4622 34.5875C31.4622 22.1586 41.5334 12.0876 53.9622 12.0875C60.2391 12.0875 65.5894 13.5886 69.6654 16.9928C73.7463 20.401 76.3246 25.5288 77.4271 32.3326C78.7981 40.7868 76.0467 46.8037 73.7093 52.5699C71.3832 58.3083 69.3567 63.9815 71.1966 72.3756C71.4034 73.3195 70.8064 74.2525 69.8626 74.4596C68.9185 74.6665 67.9846 74.0687 67.7777 73.1246C65.7051 63.6689 68.0673 57.1733 70.4661 51.2555C72.8537 45.3655 75.1643 40.2379 73.973 32.8922C72.9629 26.6587 70.6787 22.3991 67.4222 19.6793C64.1607 16.9554 59.6978 15.5875 53.9622 15.5875C43.4664 15.5876 34.9622 24.0916 34.9622 34.5875C34.9622 36.6482 35.2941 38.6304 35.891 40.4898C36.0141 40.8736 36.0009 41.2884 35.8538 41.6637L32.8802 49.2467L35.8119 49.3512L35.9603 49.3629C36.6943 49.4514 37.3009 49.9952 37.4603 50.7281L39.348 59.4156H39.347C39.6675 60.8831 41.0511 61.8705 42.5482 61.6988L53.512 60.4254C53.5368 60.4134 53.5682 60.4017 53.6019 60.3834C53.7765 60.2885 54.0714 60.1006 54.4281 59.7603C55.1336 59.0874 56.146 57.7569 56.9124 55.2193C57.1918 54.2942 58.168 53.7703 59.0931 54.0494C60.0183 54.3288 60.5425 55.3058 60.263 56.231C59.342 59.2806 58.0353 61.1562 56.8441 62.2926C56.2526 62.8568 55.7041 63.2242 55.2728 63.4586C55.0577 63.5755 54.873 63.6586 54.7279 63.7164C54.6554 63.7453 54.5928 63.7684 54.5413 63.7857C54.5157 63.7944 54.493 63.8021 54.473 63.8082C54.4629 63.8113 54.4532 63.8135 54.4447 63.816C54.4405 63.8172 54.4367 63.8188 54.4329 63.8199C54.4311 63.8204 54.4288 63.8204 54.4271 63.8209L54.4242 63.8219C54.4228 63.8222 54.4209 63.8226 53.9495 62.1373L54.4212 63.8228C54.3329 63.8475 54.2428 63.865 54.1517 63.8756L42.9515 65.1754L42.9505 65.1764C39.6737 65.5538 36.633 63.392 35.9281 60.1607L35.9271 60.1588L34.3285 52.8004L32.515 52.7359V52.7369C30.2261 52.658 28.6881 50.3384 29.5345 48.1949H29.5355L32.3734 40.9518C31.7873 38.9376 31.4622 36.8024 31.4622 34.5875Z" fill="#4F4F4F"/>
<path d="M47.6024 63.8434C46.9787 63.1071 47.0682 62.0049 47.8035 61.3795C48.5398 60.7534 49.6442 60.8426 50.2703 61.5787L49.0867 62.5856C50.2365 61.6079 50.2699 61.58 50.2713 61.5797L50.2723 61.5816C50.273 61.5824 50.2744 61.5827 50.2752 61.5836C50.2769 61.5856 50.2789 61.5888 50.2811 61.5914C50.2854 61.5965 50.2907 61.6027 50.2967 61.61C50.3094 61.6252 50.3258 61.6459 50.3455 61.6705C50.385 61.7196 50.4386 61.7868 50.5028 61.8717C50.6312 62.0415 50.8049 62.2826 51.0018 62.5856C51.3937 63.1885 51.8891 64.0549 52.3045 65.1149C53.1329 67.2287 53.6884 70.2467 52.2918 73.4498C51.9055 74.3356 50.874 74.7402 49.9881 74.3541C49.1022 73.9678 48.6966 72.9363 49.0828 72.0504C49.9861 69.9787 49.6673 67.9773 49.0457 66.3912C48.7362 65.6016 48.3628 64.9475 48.0672 64.4928C47.9204 64.2668 47.7949 64.0942 47.7108 63.983C47.6688 63.9275 47.6376 63.8871 47.619 63.8639C47.6097 63.8524 47.6029 63.8454 47.6004 63.8424C47.5996 63.8414 47.5994 63.8404 47.5994 63.8404C47.5997 63.8407 47.6007 63.8416 47.6014 63.8424L47.6024 63.8434Z" fill="#4F4F4F"/>
<path d="M45.0372 28C45.0372 17.504 36.5332 9 26.0372 9C20.3018 9.00005 15.8396 10.3679 12.5782 13.0918C9.32164 15.8116 7.03749 20.0711 6.02742 26.3047C4.83606 33.6504 7.14669 38.778 9.53425 44.668C11.9331 50.5858 14.2943 57.0814 12.2218 66.5371C12.0148 67.4812 11.0819 68.079 10.1378 67.8721C9.19381 67.6651 8.59608 66.7321 8.80281 65.7881C10.6427 57.394 8.61718 51.7207 6.29109 45.9824C3.95368 40.2162 1.20131 34.1992 2.57234 25.7451C3.67476 18.9414 6.2533 13.8136 10.3341 10.4053C14.41 7.00113 19.7604 5.50005 26.0372 5.5C38.4662 5.5 48.5372 15.571 48.5372 28C48.5372 30.215 48.2122 32.3501 47.626 34.3643L50.4669 41.6113H50.4659C51.3092 43.7538 49.773 46.0705 47.4854 46.1494L47.4844 46.1484L45.671 46.2129L44.0723 53.5713V53.5732C43.3675 56.8045 40.3267 58.9662 37.0499 58.5889L37.0479 58.5879L25.8487 57.2881C25.7578 57.2775 25.6674 57.26 25.5792 57.2354L26.0499 55.5498C25.6032 57.1472 25.5787 57.2304 25.5762 57.2344L25.5733 57.2334C25.5715 57.2329 25.5694 57.233 25.5675 57.2324C25.5637 57.2313 25.5599 57.2297 25.5557 57.2285C25.5472 57.226 25.5374 57.2238 25.5274 57.2207C25.5073 57.2145 25.4838 57.2069 25.4581 57.1982C25.4066 57.1809 25.3439 57.1578 25.2716 57.1289C25.1265 57.0711 24.9415 56.9879 24.7266 56.8711C24.2954 56.6366 23.7476 56.2691 23.1563 55.7051C21.965 54.5687 20.6584 52.6932 19.7374 49.6436C19.458 48.7184 19.9812 47.7414 20.9063 47.4619C21.8315 47.1825 22.8085 47.7066 23.088 48.6318C23.8544 51.1693 24.8668 52.4999 25.5723 53.1729C25.9292 53.5132 26.224 53.7011 26.3985 53.7959C26.432 53.8141 26.4627 53.8259 26.4874 53.8379L37.4522 55.1113H37.4512C38.9489 55.2833 40.3322 54.2953 40.6524 52.8271L42.5401 44.1406L42.5772 43.9971C42.7946 43.2904 43.438 42.7904 44.1876 42.7637L47.1182 42.6592L44.1456 35.0762C43.9985 34.7009 43.9853 34.2861 44.1085 33.9023C44.7053 32.0429 45.0372 30.0608 45.0372 28Z" fill="#4F4F4F"/>
<path d="M29.7297 54.9912C30.3559 54.2552 31.4604 54.166 32.1965 54.792C32.9315 55.4172 33.0207 56.5187 32.3977 57.2549C32.3985 57.254 32.3994 57.2533 32.3997 57.2529C32.4001 57.2524 32.3999 57.2534 32.3987 57.2549C32.3961 57.2581 32.3901 57.2652 32.3811 57.2764C32.3625 57.2996 32.3312 57.3401 32.2893 57.3955C32.2052 57.5067 32.0797 57.6793 31.9329 57.9053C31.6373 58.36 31.2639 59.014 30.9544 59.8037C30.3328 61.3897 30.0131 63.3913 30.9163 65.4629C31.3025 66.3488 30.8979 67.3803 30.012 67.7666C29.1261 68.1529 28.0946 67.7481 27.7083 66.8623C26.3116 63.6591 26.8672 60.6413 27.6956 58.5274C28.111 57.4673 28.6064 56.601 28.9983 55.9981C29.1952 55.6951 29.3689 55.454 29.4973 55.2842C29.5615 55.1993 29.6151 55.1321 29.6545 55.083C29.6743 55.0585 29.6898 55.0377 29.7024 55.0225C29.7086 55.015 29.7146 55.0091 29.719 55.0039C29.7212 55.0013 29.7231 54.9981 29.7249 54.9961L29.7288 54.9922C29.7321 54.9942 29.7899 55.0428 30.9133 55.9981L29.7297 54.9912ZM32.3987 57.2549L32.3977 57.2568L32.3967 57.2578L32.3977 57.2549H32.3987Z" fill="#4F4F4F"/>
</svg>
