<svg width="80" height="80" viewBox="0 0 80 80" fill="none" xmlns="http://www.w3.org/2000/svg">
<path d="M51.4004 45.875C51.4004 44.1166 49.9712 42.6877 48.2129 42.6875H18.125V57.3125H51.4004V45.875ZM54.9004 58.8643C54.9077 58.9294 54.9121 58.9954 54.9121 59.0625C54.9121 60.029 54.1286 60.8125 53.1621 60.8125H16.375C15.4085 60.8125 14.625 60.029 14.625 59.0625V40.9375C14.625 39.971 15.4085 39.1875 16.375 39.1875H48.2129C51.9042 39.1877 54.9004 42.1836 54.9004 45.875V58.8643Z" fill="#4F4F4F"/>
<path d="M24.1504 9.53751C27.3743 9.53772 29.9875 12.1414 29.9746 15.3754V40.9379C29.9744 41.9042 29.191 42.6879 28.2246 42.6879H16.3125C15.3461 42.6879 14.5627 41.9042 14.5625 40.9379V15.3754C14.5625 12.1429 17.1874 9.53751 20.4004 9.53751H24.1504ZM18.0625 39.1879H26.4746V15.3656C26.4817 14.0792 25.4481 13.0377 24.1504 13.0375H20.4004C19.1134 13.0375 18.0625 14.0829 18.0625 15.3754V39.1879Z" fill="#4F4F4F"/>
<path d="M56.6627 13.6996C56.6625 10.1288 53.758 7.22501 50.1871 7.22501C46.6147 7.22522 43.7127 10.1182 43.7125 13.6996C43.7125 17.2722 46.6055 20.175 50.1871 20.1752C53.7599 20.1752 56.6627 17.2814 56.6627 13.6996ZM60.1627 13.6996C60.1627 19.2178 55.6894 23.6752 50.1871 23.6752C44.6691 23.675 40.2125 19.2018 40.2125 13.6996C40.2127 8.1817 44.6852 3.72522 50.1871 3.72501C55.691 3.72501 60.1625 8.1958 60.1627 13.6996Z" fill="#4F4F4F"/>
<path d="M26.4875 40.9371C26.4877 32.4061 30.2873 25.8971 34.011 21.5719C35.8749 19.4069 37.7376 17.7677 39.137 16.6666C39.8376 16.1153 40.4257 15.6961 40.844 15.4117C41.053 15.2697 41.2203 15.1606 41.3381 15.0856C41.3967 15.0482 41.4433 15.0193 41.4768 14.9987C41.4936 14.9883 41.5077 14.9794 41.5178 14.9733C41.5227 14.9703 41.5272 14.9684 41.5305 14.9664C41.5321 14.9655 41.5332 14.9642 41.5344 14.9635L41.5364 14.9625C41.5371 14.9621 41.5377 14.9616 42.3918 16.3863L41.5374 14.9615C42.3663 14.4646 43.4418 14.7341 43.9387 15.5631C44.435 16.3914 44.1666 17.4652 43.3391 17.9625L43.3372 17.9635C43.3337 17.9656 43.3266 17.9701 43.3167 17.9762C43.2965 17.9886 43.263 18.009 43.218 18.0377C43.128 18.0951 42.9898 18.1846 42.8108 18.3063C42.4526 18.5498 41.9315 18.9215 41.301 19.4176C40.0379 20.4115 38.3493 21.8977 36.6633 23.8561C33.2873 27.7776 29.9877 33.5063 29.9875 40.9371C29.9875 41.9036 29.204 42.6871 28.2375 42.6871C27.2711 42.6871 26.4875 41.9036 26.4875 40.9371Z" fill="#4F4F4F"/>
<path d="M49.5408 20.1984C50.4944 20.0417 51.3946 20.6873 51.5515 21.6408L53.6746 34.5578L62.0418 39.8996L62.1453 39.9719C64.1386 41.4568 64.5616 44.2587 63.1218 46.2678L63.1228 46.2688C61.7344 48.2082 59.0886 48.7298 57.0632 47.4943L57.0623 47.4934L47.1003 41.4055C46.7933 41.2179 46.5515 40.9405 46.408 40.6105L43.283 33.423C42.8977 32.5369 43.3032 31.5058 44.1892 31.1203C45.0756 30.7349 46.1066 31.1412 46.4919 32.0275L49.3953 38.7072L58.8855 44.5061H58.8865C59.361 44.7954 59.9655 44.6669 60.2771 44.2316L60.2781 44.2297C60.6051 43.7732 60.5138 43.1447 60.0808 42.8L51.1336 37.0871C50.7147 36.8197 50.4291 36.3871 50.3484 35.8967L48.0984 22.2092C47.9416 21.2556 48.5873 20.3554 49.5408 20.1984Z" fill="#4F4F4F"/>
<path d="M22.2754 57.3125C23.2417 57.3127 24.0254 58.0961 24.0254 59.0625V74.5127C24.0253 75.479 23.2416 76.2625 22.2754 76.2627H16.375C15.4086 76.2627 14.6251 75.4791 14.625 74.5127V59.0625C14.625 58.096 15.4085 57.3125 16.375 57.3125H22.2754ZM18.125 72.7627H20.5254V60.8125H18.125V72.7627Z" fill="#4F4F4F"/>
<path d="M53.1254 57.3125C54.0917 57.3127 54.8754 58.0961 54.8754 59.0625V74.5127C54.8753 75.479 54.0916 76.2625 53.1254 76.2627H47.225C46.2585 76.2627 45.4751 75.4791 45.475 74.5127V59.0625C45.475 58.096 46.2585 57.3125 47.225 57.3125H53.1254ZM48.975 72.7627H51.3754V60.8125H48.975V72.7627Z" fill="#4F4F4F"/>
<path d="M51.6337 47.293C52.1277 46.4623 53.2014 46.1896 54.0321 46.6836L56.4071 48.0957L56.4061 48.0967C59.256 49.7898 61.2984 52.5475 62.0975 55.7588L62.1708 56.0713L62.1717 56.0762L65.3592 70.6387L65.3788 70.7422C65.7717 73.2566 64.1257 75.6588 61.618 76.1748L61.619 76.1758C59.2547 76.6681 56.8918 75.3257 56.1063 73.0283C56.095 72.9952 56.0853 72.9614 56.076 72.9277L51.4628 56.2158C51.2056 55.2842 51.7529 54.3207 52.6844 54.0635C53.616 53.8064 54.5795 54.3527 54.8368 55.2842L59.4266 71.917C59.648 72.5314 60.2777 72.8799 60.9061 72.749L60.912 72.748C61.5671 72.6137 62.0137 71.9846 61.9237 71.3115L58.7538 56.8291L58.6424 56.3818C58.0311 54.1683 56.5951 52.2784 54.619 51.1045H54.618L52.243 49.6914C51.4124 49.1973 51.1396 48.1236 51.6337 47.293Z" fill="#4F4F4F"/>
</svg>
