<svg width="80" height="80" viewBox="0 0 80 80" fill="none" xmlns="http://www.w3.org/2000/svg">
<path d="M14.5379 30.4379C14.5379 27.0186 15.1792 23.7268 16.3582 20.7123C16.7104 19.8125 17.7249 19.3683 18.6248 19.7201C19.525 20.0722 19.9691 21.0876 19.617 21.9877C18.5961 24.5981 18.0379 27.4573 18.0379 30.4379C18.038 32.9609 18.4441 35.3902 19.1883 37.6693C19.3145 38.0556 19.3026 38.4737 19.1541 38.852L15.4539 48.2748L15.4549 48.2758C15.4441 48.3035 15.4433 48.3221 15.4452 48.3373C15.4474 48.356 15.4552 48.3799 15.4715 48.4047C15.4879 48.4296 15.5078 48.4476 15.5262 48.4584C15.5417 48.4675 15.5615 48.4748 15.5926 48.476L19.4198 48.601L19.5682 48.6117C20.3037 48.6983 20.9119 49.2429 21.0721 49.977L23.3602 60.4643L23.3612 60.4682C23.7823 62.419 25.612 63.7333 27.6112 63.5111L40.911 61.974C40.9555 61.9538 41.0164 61.9284 41.0887 61.8891C41.3263 61.7597 41.7094 61.5135 42.1649 61.0785C43.0677 60.2164 44.321 58.551 45.2625 55.432C45.5418 54.5068 46.518 53.9829 47.4432 54.2621C48.3683 54.5414 48.8921 55.5176 48.6131 56.4428C47.5171 60.0737 45.9697 62.2844 44.5819 63.6098C43.8923 64.2682 43.2565 64.6933 42.7625 64.9623C42.5163 65.0964 42.3068 65.1913 42.1444 65.2562C42.0632 65.2887 41.9934 65.3135 41.9373 65.3324C41.9095 65.3418 41.8852 65.3503 41.8641 65.3568C41.8536 65.3601 41.8436 65.363 41.8348 65.3656C41.8305 65.3669 41.826 65.3684 41.8221 65.3695C41.8202 65.3701 41.818 65.37 41.8163 65.3705L41.8133 65.3715L41.3377 63.6879L41.8104 65.3725C41.7213 65.3975 41.6299 65.4156 41.5379 65.4262L28.0135 66.9887H28.0086C24.235 67.4134 20.7428 64.9288 19.9393 61.2064L17.9432 52.0541L15.4686 51.974H15.4579C12.965 51.8781 11.2781 49.3428 12.1961 46.9994L15.6707 38.1449C14.9369 35.7023 14.538 33.1154 14.5379 30.4379Z" fill="#4F4F4F"/>
<path d="M65.789 38.1078C65.9575 37.1562 66.8657 36.5205 67.8173 36.6889C68.7689 36.8574 69.4036 37.7656 69.2353 38.7172C68.6559 41.9892 67.633 44.9707 66.5214 47.8207C65.3856 50.733 64.2229 53.3594 63.2031 56.2446C61.221 61.8519 59.9859 67.9261 61.7841 76.1254C61.991 77.0693 61.394 78.0022 60.4501 78.2094C59.5061 78.4164 58.5722 77.8185 58.3652 76.8744C56.3886 67.8617 57.7729 61.1044 59.9033 55.0776C60.9396 52.1457 62.2059 49.2536 63.2607 46.5492C64.3397 43.7826 65.2684 41.0481 65.789 38.1078Z" fill="#4F4F4F"/>
<path d="M34.1413 63.0545C34.8776 62.4287 35.9821 62.5177 36.6081 63.2537L35.2751 64.3875C36.5188 63.3303 36.603 63.2599 36.6091 63.2557L36.611 63.2566C36.6117 63.2575 36.6122 63.2586 36.613 63.2596C36.6148 63.2617 36.6174 63.2645 36.6198 63.2674C36.6246 63.2731 36.6304 63.2805 36.6374 63.2889C36.6516 63.306 36.6704 63.329 36.693 63.3572C36.7385 63.4138 36.8006 63.4923 36.8757 63.5916C37.026 63.7905 37.2303 64.0739 37.4626 64.4314C37.9255 65.144 38.5112 66.1683 39.0016 67.4197C39.9798 69.9161 40.6262 73.4529 38.9919 77.2C38.6054 78.0857 37.5739 78.4905 36.6882 78.1043C35.8023 77.7179 35.3975 76.6865 35.7839 75.8006C36.9245 73.1854 36.5145 70.6653 35.7429 68.6961C35.3583 67.7148 34.8947 66.9031 34.528 66.3387C34.3456 66.0579 34.1898 65.8423 34.0837 65.702C34.0308 65.632 33.9902 65.5813 33.9655 65.5506C33.9543 65.5366 33.9475 65.5257 33.943 65.5203L33.9421 65.5213L33.9411 65.5203V65.5193L33.9382 65.5164C33.3164 64.7801 33.4067 63.6793 34.1413 63.0545Z" fill="#4F4F4F"/>
<path d="M16.333 20.7797C16.6479 19.8661 17.6439 19.3809 18.5576 19.6957L68.082 36.7582C68.9958 37.073 69.4818 38.069 69.167 38.9828C68.8521 39.8965 67.8561 40.3816 66.9424 40.0668L17.417 23.0043C16.5034 22.6894 16.0182 21.6934 16.333 20.7797Z" fill="#4F4F4F"/>
<path d="M29.4815 6.30332C30.018 5.4994 31.1053 5.28246 31.9093 5.81895L69.1466 30.6695C69.9503 31.206 70.1672 32.2924 69.6309 33.0963C69.0944 33.9002 68.0071 34.1172 67.2032 33.5807L29.9659 8.73106C29.162 8.19457 28.945 7.10725 29.4815 6.30332Z" fill="#4F4F4F"/>
<path d="M43.6249 1.75C50.6153 1.75 56.5495 3.42636 61.0624 7.19727C65.5802 10.9724 68.4501 16.6593 69.6777 24.2324H69.6767C70.1518 27.1495 70.1946 29.8219 69.914 32.3203C69.8061 33.2808 68.9399 33.9721 67.9794 33.8643C67.0191 33.7563 66.3276 32.8901 66.4355 31.9297C66.6799 29.7534 66.6473 27.4014 66.2226 24.7939V24.793C65.0876 17.7911 62.513 12.9712 58.8183 9.88379C55.1188 6.79242 50.0719 5.25 43.6249 5.25C39.3009 5.25 35.2696 6.53221 31.8954 8.73926C31.0867 9.26829 30.0017 9.0421 29.4726 8.2334C28.9435 7.42459 29.1706 6.33963 29.9794 5.81055C33.9052 3.24266 38.5991 1.75 43.6249 1.75Z" fill="#4F4F4F"/>
<path d="M20.9533 2.49786C21.6519 1.82999 22.7591 1.85491 23.4269 2.55352L32.3898 11.9285C33.0574 12.6271 33.0325 13.7343 32.3342 14.4022C31.6355 15.07 30.5274 15.0451 29.8596 14.3465L20.8976 4.97149C20.2298 4.27288 20.2547 3.16573 20.9533 2.49786Z" fill="#4F4F4F"/>
<path d="M11.4645 5.38321C11.9639 4.55582 13.0394 4.29004 13.8668 4.78946L23.6422 10.6889C24.4696 11.1883 24.7353 12.2648 24.2359 13.0922C23.7365 13.9194 22.6609 14.185 21.8336 13.6859L12.0582 7.78556C11.2308 7.2861 10.965 6.21064 11.4645 5.38321Z" fill="#4F4F4F"/>
<path d="M11.774 14.6039L20.4234 15.2172C21.3875 15.2854 22.1137 16.1222 22.0455 17.0863C21.9771 18.0503 21.1403 18.7767 20.1763 18.7084L11.5259 18.0961C10.562 18.0276 9.8356 17.1899 9.90386 16.226C9.97232 15.2621 10.81 14.5356 11.774 14.6039Z" fill="#4F4F4F"/>
</svg>
