<svg width="80" height="80" viewBox="0 0 80 80" fill="none" xmlns="http://www.w3.org/2000/svg">
<path d="M64.5622 53L64.7116 53.0059C65.4516 53.0687 66.0783 53.596 66.2604 54.3271L64.5622 54.75C66.2478 54.3302 66.2612 54.3275 66.2614 54.3281V54.3301C66.2616 54.331 66.2621 54.3319 66.2624 54.333C66.2631 54.3357 66.2634 54.3398 66.2643 54.3438C66.2662 54.3515 66.2692 54.3617 66.2722 54.374C66.2781 54.399 66.2859 54.4335 66.2956 54.4766C66.3151 54.563 66.3421 54.6851 66.3727 54.8389C66.434 55.1461 66.512 55.5818 66.5856 56.1152C66.7324 57.1779 66.8631 58.6529 66.7917 60.2871C66.6517 63.4878 65.71 67.7023 62.0934 70.3389C61.3124 70.9082 60.2175 70.7371 59.6481 69.9561C59.0788 69.1751 59.2509 68.0801 60.0319 67.5107C62.365 65.8098 63.173 62.937 63.2956 60.1348C63.3554 58.7677 63.2455 57.5121 63.1188 56.5947C63.1144 56.5628 63.1086 56.531 63.1042 56.5H43.779L23.6013 67.0225C22.672 67.5459 22.0315 68.4809 21.8835 69.542L21.8825 69.5488C21.5844 71.6285 23.2002 73.4873 25.3005 73.4873H65.7751C66.7415 73.4873 67.525 74.2709 67.5251 75.2373C67.5251 76.2038 66.7416 76.9873 65.7751 76.9873H25.3005C21.0759 76.9873 17.8161 73.2469 18.4177 69.0518C18.7206 66.8954 20.024 65.011 21.9108 63.959L21.9528 63.9355L42.5407 53.1982L42.7331 53.1123C42.9298 53.0382 43.139 53 43.3503 53H64.5622Z" fill="#4F4F4F"/>
<path d="M65.4799 67.3137C66.4458 67.3441 67.2045 68.1515 67.1742 69.1174C67.1438 70.0833 66.3363 70.8419 65.3705 70.8117L39.183 69.9865C38.2171 69.9561 37.4585 69.1487 37.4887 68.1828C37.5191 67.2169 38.3265 66.4583 39.2924 66.4885L65.4799 67.3137Z" fill="#4F4F4F"/>
<path d="M38.5623 15.9873C38.5622 10.7476 34.3147 6.5 29.075 6.5C23.8353 6.50011 19.5878 10.7477 19.5876 15.9873C19.5876 21.227 23.8352 25.4745 29.075 25.4746C34.3148 25.4746 38.5623 21.2271 38.5623 15.9873ZM42.0623 15.9873C42.0623 23.1601 36.2477 28.9746 29.075 28.9746C21.9022 28.9745 16.0876 23.16 16.0876 15.9873C16.0878 8.81466 21.9023 3.00011 29.075 3C36.2477 3 42.0622 8.8146 42.0623 15.9873Z" fill="#4F4F4F"/>
<path d="M19.1501 42.9252V37.6625C19.1501 36.696 19.9336 35.9125 20.9001 35.9125C21.8666 35.9125 22.6501 36.696 22.6501 37.6625V42.9252C22.65 43.8916 21.8666 44.6752 20.9001 44.6752C19.9337 44.6752 19.1503 43.8916 19.1501 42.9252Z" fill="#4F4F4F"/>
<path d="M13.7876 54.6627V49.4C13.7876 48.4335 14.5711 47.65 15.5376 47.65C16.5041 47.65 17.2876 48.4335 17.2876 49.4V54.6627C17.2875 55.6291 16.504 56.4127 15.5376 56.4127C14.5712 56.4127 13.7877 55.6291 13.7876 54.6627Z" fill="#4F4F4F"/>
<path d="M4.6001 40.2875V35.0375C4.6001 34.071 5.3836 33.2875 6.3501 33.2875C7.3166 33.2875 8.1001 34.071 8.1001 35.0375V40.2875L8.09131 40.4662C8.0018 41.3488 7.25627 42.0375 6.3501 42.0375C5.44392 42.0375 4.69839 41.3488 4.60889 40.4662L4.6001 40.2875Z" fill="#4F4F4F"/>
<path d="M10.5876 23.6127V18.35C10.5876 17.3835 11.3711 16.6 12.3376 16.6C13.3041 16.6 14.0876 17.3835 14.0876 18.35V23.6127C14.0875 24.5791 13.3041 25.3627 12.3376 25.3627C11.3712 25.3627 10.5878 24.5791 10.5876 23.6127Z" fill="#4F4F4F"/>
<path d="M49.7375 12.3502V7.08749C49.7375 6.121 50.5211 5.33749 51.4875 5.33749C52.454 5.33749 53.2375 6.121 53.2375 7.08749V12.3502L53.2288 12.5289C53.1392 13.4114 52.3937 14.1002 51.4875 14.1002C50.5814 14.1002 49.8359 13.4114 49.7463 12.5289L49.7375 12.3502Z" fill="#4F4F4F"/>
<path d="M60.375 27.4875V22.2375C60.375 21.271 61.1585 20.4875 62.125 20.4875C63.0915 20.4875 63.875 21.271 63.875 22.2375V27.4875L63.8662 27.6662C63.7767 28.5488 63.0312 29.2375 62.125 29.2375C61.2188 29.2375 60.4733 28.5488 60.3838 27.6662L60.375 27.4875Z" fill="#4F4F4F"/>
<path d="M68.8125 13.3127V8.04999C68.8125 7.08349 69.596 6.29999 70.5625 6.29999C71.529 6.29999 72.3125 7.08349 72.3125 8.04999V13.3127C72.3124 14.2791 71.5289 15.0627 70.5625 15.0627C69.5961 15.0627 68.8126 14.2791 68.8125 13.3127Z" fill="#4F4F4F"/>
<path d="M71.9001 39.5877V34.325C71.9001 33.3585 72.6836 32.575 73.6501 32.575C74.6166 32.575 75.4001 33.3585 75.4001 34.325V39.5877C75.4 40.5541 74.6166 41.3377 73.6501 41.3377C72.6837 41.3377 71.9003 40.5541 71.9001 39.5877Z" fill="#4F4F4F"/>
<path d="M70.3625 58.1752V52.9125C70.3625 51.946 71.1461 51.1625 72.1125 51.1625C73.079 51.1625 73.8625 51.946 73.8625 52.9125V58.1752C73.8624 59.1416 73.079 59.9252 72.1125 59.9252C71.1461 59.9252 70.3627 59.1416 70.3625 58.1752Z" fill="#4F4F4F"/>
<path d="M6.4502 68.6V63.35C6.4502 62.3835 7.2337 61.6 8.2002 61.6C9.16669 61.6 9.9502 62.3835 9.9502 63.35V68.6L9.94141 68.7787C9.8519 69.6613 9.10637 70.35 8.2002 70.35C7.29402 70.35 6.54849 69.6613 6.45898 68.7787L6.4502 68.6Z" fill="#4F4F4F"/>
<path d="M33.6478 24.6098C34.6086 24.712 35.3044 25.5737 35.2025 26.5346C35.0054 28.3876 35.3028 29.8694 35.8001 31.3715C36.0576 32.1491 36.3574 32.9011 36.6868 33.7592C37.009 34.5982 37.3484 35.5107 37.6331 36.5072H37.6321C38.4458 39.293 38.2378 42.2687 37.096 44.9281C37.0827 44.9592 37.0681 44.9897 37.053 45.0199L37.0482 45.0277L30.9153 59.2719L34.763 57.265L42.5599 43.2973C42.6 43.2248 42.6448 43.1361 42.7103 43.0053L42.7161 42.9926C43.4884 41.4771 43.635 39.6854 43.1819 37.9555L43.181 37.9516L41.1058 29.9516C40.8634 29.0162 41.4253 28.0614 42.3607 27.8188C43.2961 27.5761 44.2516 28.1373 44.4944 29.0727L46.5677 37.0688C47.2146 39.5387 47.0369 42.2229 45.8343 44.5824L45.8333 44.5814C45.7754 44.6974 45.699 44.8527 45.6175 44.9994L45.6155 45.0023L37.5657 59.4281C37.3994 59.726 37.1495 59.9686 36.847 60.1264L28.1722 64.6518C27.5157 64.9942 26.7148 64.886 26.1722 64.3822C25.6296 63.8785 25.4624 63.0877 25.7552 62.4076L33.8548 43.5951C33.8649 43.5717 33.8759 43.5487 33.887 43.5258C34.7107 41.5944 34.851 39.4586 34.2708 37.4799L34.2679 37.4682C34.0276 36.6272 33.7342 35.8345 33.4193 35.0141C33.1117 34.213 32.7688 33.3506 32.4778 32.4721C31.8784 30.6619 31.4566 28.662 31.722 26.1654C31.8242 25.2044 32.6867 24.5076 33.6478 24.6098Z" fill="#4F4F4F"/>
<path d="M41.357 46.1352C42.2352 45.7317 43.2737 46.1164 43.6773 46.9945C44.7983 49.4336 45.1731 51.4071 45.2457 52.8314C45.2818 53.5411 45.2426 54.107 45.1871 54.518C45.1594 54.7231 45.1283 54.8894 45.1002 55.015C45.0862 55.0776 45.0724 55.13 45.0611 55.1723C45.0554 55.1935 45.0501 55.2129 45.0455 55.2289C45.0433 55.2366 45.0416 55.2439 45.0396 55.2504C45.0386 55.2537 45.0376 55.2571 45.0367 55.2602C45.0363 55.2616 45.0352 55.2627 45.0347 55.2641V55.267L43.3629 54.7504L45.0338 55.2689C44.7472 56.1919 43.7663 56.7077 42.8433 56.4213C41.9781 56.1525 41.471 55.274 41.6471 54.4047L41.689 54.2387C41.6883 54.2409 41.6877 54.2435 41.6871 54.2455C41.6859 54.2496 41.6841 54.2532 41.6832 54.2562C41.6815 54.2621 41.6807 54.2663 41.6803 54.268C41.6808 54.2657 41.6819 54.2594 41.6842 54.2494C41.691 54.2187 41.7055 54.1517 41.7193 54.0492C41.747 53.8442 41.7753 53.4948 41.7506 53.0092C41.7013 52.0429 41.439 50.5036 40.4976 48.4555C40.0942 47.5773 40.4789 46.5387 41.357 46.1352Z" fill="#4F4F4F"/>
<path d="M39.6907 16.7245C40.8427 16.483 42.3646 16.5395 44.0735 17.4569C55.8187 23.7271 61.3966 33.135 64.0188 40.9462C65.327 44.8432 65.9031 48.3478 66.1526 50.8837C66.2774 52.1528 66.3204 53.184 66.3323 53.9052C66.3382 54.2659 66.3359 54.5502 66.3323 54.748C66.3305 54.8467 66.3283 54.9245 66.3264 54.9794C66.3255 55.0064 66.3251 55.0279 66.3245 55.0439C66.3241 55.0519 66.3237 55.0592 66.3235 55.0644C66.3234 55.0666 66.3236 55.0686 66.3235 55.0702L66.3225 55.0732L64.5754 54.9872L66.3225 55.0751C66.2741 56.0403 65.4528 56.7836 64.4875 56.7353C63.5825 56.6899 62.8727 55.9649 62.8274 55.079V54.8954C62.8277 54.8883 62.8278 54.8759 62.8284 54.8583C62.8296 54.8219 62.8318 54.7629 62.8333 54.6835C62.8362 54.5244 62.8385 54.2808 62.8333 53.9628C62.8228 53.3266 62.7838 52.3912 62.6692 51.2265C62.4397 48.8938 61.9076 45.6566 60.7004 42.0605C58.2914 34.8842 53.2057 26.2987 42.426 20.5439L42.4211 20.5409C41.4823 20.0361 40.8063 20.0671 40.4094 20.1503C39.4635 20.3486 38.5355 19.7426 38.3372 18.7968C38.1388 17.8509 38.7449 16.9229 39.6907 16.7245Z" fill="#4F4F4F"/>
</svg>
