<svg width="80" height="80" viewBox="0 0 80 80" fill="none" xmlns="http://www.w3.org/2000/svg">
<path d="M13.6995 29.4873C13.6996 14.6834 25.6963 2.6875 40.5002 2.6875C48.0216 2.68756 54.3844 4.48931 59.218 8.53125C64.0558 12.5769 67.1376 18.6786 68.4651 26.8311V26.832C70.1051 36.9241 66.8273 44.0947 63.9993 51.0674C61.1826 58.0118 58.7006 64.944 60.9465 75.1875C61.1535 76.1314 60.5564 77.0643 59.6125 77.2715C58.6685 77.4785 57.7346 76.8815 57.5276 75.9375C55.0487 64.6315 57.8666 56.876 60.7561 49.752C63.5443 42.8777 66.2922 36.7693 65.134 28.2275L65.01 27.3936C63.775 19.8089 60.9879 14.5733 56.9729 11.2158C52.9535 7.85475 47.4786 6.18756 40.5002 6.1875C27.6293 6.1875 17.1996 16.6164 17.1995 29.4873C17.1995 32.0104 17.6069 34.4424 18.3411 36.7266C18.4646 37.1108 18.4514 37.5267 18.3039 37.9023L14.6057 47.3193C14.5926 47.3531 14.5928 47.3775 14.595 47.3955C14.5975 47.4168 14.606 47.4415 14.6213 47.4648C14.6367 47.488 14.6545 47.5032 14.6692 47.5117L14.7258 47.5254L14.7317 47.5264L18.5696 47.6514L18.718 47.6621C19.4535 47.7487 20.0618 48.2932 20.2219 49.0273L22.51 59.5146L22.511 59.5186H22.51C22.9309 61.4682 24.7736 62.7843 26.762 62.5615L40.0608 61.0244C40.1055 61.0044 40.1682 60.9787 40.2424 60.9385C40.4792 60.8101 40.861 60.5654 41.3157 60.1318C42.2172 59.2721 43.4697 57.6077 44.4114 54.4824C44.6902 53.5572 45.6667 53.0329 46.592 53.3115C47.5174 53.5903 48.0417 54.5668 47.7629 55.4922C46.6671 59.1292 45.1198 61.3404 43.7307 62.665C43.0404 63.3232 42.4043 63.7484 41.9094 64.0166C41.6627 64.1503 41.4521 64.244 41.2893 64.3086C41.208 64.3408 41.1384 64.366 41.0823 64.3848C41.0542 64.3941 41.0293 64.4017 41.008 64.4082C40.9974 64.4114 40.9876 64.4144 40.9787 64.417C40.9743 64.4183 40.97 64.4198 40.9661 64.4209C40.9641 64.4215 40.962 64.4223 40.9602 64.4229H40.9573L40.4875 62.7373L40.9553 64.4238C40.8679 64.4481 40.7778 64.4652 40.6877 64.4756L27.1633 66.0381L27.1594 66.0391C23.3993 66.4641 19.893 63.9808 19.0891 60.2568V60.2559L17.093 51.1045L14.6184 51.0244V51.0234C12.0976 50.9467 10.4375 48.3899 11.343 46.0547L11.3459 46.0479L14.8225 37.1914C14.0997 34.7519 13.6995 32.166 13.6995 29.4873Z" fill="#4F4F4F"/>
<path d="M33.2912 62.1045C34.0275 61.4786 35.132 61.5677 35.758 62.3037L34.425 63.4375C35.6687 62.3803 35.7529 62.3099 35.759 62.3057L35.7609 62.3066C35.7616 62.3074 35.7621 62.3086 35.7629 62.3096C35.7647 62.3117 35.7673 62.3145 35.7697 62.3174C35.7745 62.323 35.7803 62.3305 35.7873 62.3389C35.8015 62.356 35.8203 62.379 35.843 62.4072C35.8884 62.4638 35.9505 62.5422 36.0256 62.6416C36.1759 62.8404 36.3802 63.1239 36.6125 63.4814C37.0754 64.1939 37.6611 65.2183 38.1515 66.4697C39.1297 68.9661 39.7761 72.5029 38.1418 76.25C37.7553 77.1356 36.7238 77.5404 35.8381 77.1543C34.9522 76.7679 34.5474 75.7365 34.9338 74.8506C36.0744 72.2354 35.6644 69.7153 34.8928 67.7461C34.5082 66.7648 34.0446 65.9531 33.6779 65.3887C33.4955 65.1079 33.3397 64.8923 33.2336 64.7519C33.1807 64.682 33.1401 64.6313 33.1154 64.6006C33.1042 64.5866 33.0974 64.5757 33.093 64.5703L33.092 64.5713L33.091 64.5703V64.5693L33.0881 64.5664C32.4663 63.8301 32.5566 62.7293 33.2912 62.1045Z" fill="#4F4F4F"/>
<path d="M43.3274 7.13824C45.4963 7.12381 47.2657 7.7214 48.554 9.05719C49.1475 9.67258 49.5847 10.3927 49.9144 11.1685C50.2827 11.0291 50.665 10.9167 51.0618 10.8355C53.7215 10.2917 56.0228 11.0551 57.7064 12.6636C59.332 14.2169 60.2837 16.4538 60.6263 18.7916C60.7751 19.8074 60.813 20.8769 60.7308 21.9615C62.0987 23.6311 63.1328 25.5153 63.6282 27.6099C64.3929 30.8439 64.1404 33.5241 62.7698 35.3589C61.3455 37.2656 59.0904 37.774 57.0032 37.4185C54.9732 37.0727 52.8876 35.905 51.2308 34.0904C50.0744 34.4132 48.924 34.5325 47.7825 34.4693C47.4249 34.4495 47.0719 34.4093 46.723 34.356C45.9338 35.4142 44.8323 36.2352 43.6126 36.8277C39.6197 38.767 33.5271 38.7725 28.2513 36.6207L28.2493 36.6197C21.7913 33.9736 19.3257 30.654 18.9935 27.4625C18.8358 25.9478 19.1909 24.6625 19.5667 23.7769C19.7559 23.3312 19.9566 22.9721 20.1146 22.7183C20.1937 22.5912 20.2629 22.4885 20.3167 22.4127L20.386 22.3189C20.399 22.3005 20.4144 22.2779 20.4329 22.2525C20.4784 22.1901 20.5413 22.1073 20.6204 22.0084C20.7784 21.8109 21.0053 21.5457 21.2991 21.2525C21.8804 20.6724 22.76 19.9427 23.9212 19.4166C24.3705 19.213 24.8615 19.0408 25.3899 18.9195C25.4951 18.1585 25.6951 17.4091 26.0062 16.688C26.8186 14.805 28.3223 13.253 30.5062 12.2281C32.0595 11.4989 34.1474 11.2398 36.4124 11.2994C36.6336 10.54 37.008 9.82587 37.5804 9.19879C38.8994 7.75383 40.9232 7.15245 43.3255 7.13824V7.13727L43.3265 7.13824H43.3274ZM25.3655 22.605C24.6959 22.9085 24.1535 23.3481 23.7708 23.73C23.5829 23.9176 23.4429 24.0825 23.3538 24.1939C23.3095 24.2493 23.278 24.2907 23.261 24.314C23.2575 24.3189 23.2536 24.3225 23.2513 24.3257C23.2269 24.3619 23.2011 24.3969 23.1741 24.4312C23.1753 24.432 23.175 24.4323 23.1751 24.4322L23.1761 24.4312C23.177 24.43 23.1782 24.4283 23.179 24.4273C23.1805 24.4254 23.182 24.4236 23.1829 24.4224L23.1722 24.438C23.1557 24.4613 23.1253 24.5052 23.0862 24.5679C23.0073 24.6948 22.8963 24.8922 22.7894 25.1441C22.573 25.6538 22.3951 26.3339 22.4749 27.1002C22.6177 28.471 23.7089 30.9759 29.5735 33.3795L30.0023 33.5484C34.447 35.23 39.2579 35.0515 42.0833 33.6793C42.4163 33.5175 42.709 33.3445 42.9651 33.1656C42.4525 32.9219 41.9521 32.6526 41.4642 32.3648C40.8317 31.9917 40.2126 31.5801 39.6048 31.1461C39.5929 31.1589 39.5825 31.1733 39.5706 31.1861C38.7974 32.0158 37.8387 32.7624 36.6575 33.066C35.4108 33.3864 34.1593 33.1524 32.9778 32.4605C29.1916 30.2432 26.3837 26.4187 25.553 22.5464C25.5517 22.5403 25.5504 22.5341 25.5491 22.5279C25.4871 22.5528 25.4254 22.5779 25.3655 22.605ZM59.595 26.6363C58.6404 28.8688 57.0824 30.9183 54.8284 32.4097L54.8274 32.4088C54.7682 32.448 54.7079 32.4849 54.6487 32.523C55.6081 33.3169 56.6539 33.8087 57.5911 33.9683C58.7692 34.1689 59.5372 33.8371 59.9651 33.2642C60.4468 32.6195 60.8759 31.1812 60.222 28.4156C60.079 27.811 59.8674 27.2178 59.595 26.6363ZM47.5169 17.7222C46.3721 19.3289 45.349 21.2596 44.3265 23.2574C44.7003 23.7655 45.0938 24.2791 45.5062 24.7964C47.1665 26.8792 48.0305 28.9756 47.9407 30.9722C47.9525 30.9729 47.9641 30.9745 47.9759 30.9752C48.3583 30.9963 48.7479 30.986 49.1458 30.942C48.5714 29.6979 48.173 28.3056 48.0208 26.7877L47.9358 25.858C47.7541 23.7018 47.6939 21.6444 47.6282 19.8062C47.6016 19.06 47.5731 18.3559 47.5374 17.6929C47.5305 17.7026 47.5238 17.7125 47.5169 17.7222ZM42.5481 26.6959C42.2535 27.2438 41.953 27.7837 41.6439 28.3023C42.1759 28.682 42.7076 29.0347 43.2425 29.3502C43.6173 29.5713 43.9891 29.7715 44.3577 29.9507C44.1838 29.1643 43.7248 28.1773 42.7689 26.9781C42.6943 26.8846 42.6219 26.7896 42.5481 26.6959ZM51.1263 19.6812C51.2028 21.821 51.2664 24.0807 51.5032 26.4371V26.438C51.6288 27.6905 51.9745 28.803 52.4603 29.7642C52.6037 29.6781 52.7492 29.5884 52.8948 29.4918L52.8968 29.4908C55.1916 27.9724 56.5457 25.5852 57.0491 23.1002C56.6521 22.6993 56.2243 22.3069 55.7669 21.9244C54.4021 20.783 52.8107 19.757 51.0931 18.8599C51.1038 19.1324 51.1164 19.4062 51.1263 19.6812ZM29.2337 22.7584C30.0731 25.3081 32.0764 27.8763 34.7464 29.44C35.2618 29.7419 35.5707 29.7318 35.7864 29.6763C36.0372 29.6119 36.387 29.4215 36.8401 28.9732C36.5796 28.7523 36.3213 28.531 36.0667 28.3091C34.3306 26.7966 32.8334 25.3839 31.2825 24.0972V24.0963C30.5313 23.4726 29.847 23.0454 29.2337 22.7584ZM36.2913 14.7974C34.5063 14.7532 33.1163 14.9473 32.22 15.2994L31.9935 15.397C30.5149 16.0909 29.665 17.0434 29.22 18.0748C29.0997 18.3536 29.0057 18.6484 28.9368 18.9566C30.4044 19.3105 31.9375 20.0919 33.5169 21.4029C35.0847 22.7037 36.7915 24.2991 38.3655 25.6705C38.5341 25.8174 38.7032 25.9621 38.8714 26.106C39.3125 25.3371 39.7698 24.4756 40.2513 23.5386C38.2085 20.4754 36.7329 17.4281 36.2913 14.7974ZM23.2523 24.3267L23.2513 24.3277L23.2474 24.3336L23.2464 24.3345C23.2473 24.3333 23.2483 24.3299 23.2513 24.3257C23.2522 24.3264 23.2523 24.3267 23.2523 24.3267ZM39.9544 15.1597C40.3369 16.5495 41.0746 18.1706 42.1136 19.9283C42.8041 18.6336 43.5404 17.3393 44.3382 16.1627C42.8417 15.7251 41.3612 15.3897 39.9544 15.1597ZM55.2884 15.1939C54.4286 14.3726 53.2906 13.9519 51.763 14.2642C51.4327 14.3318 51.1054 14.4473 50.7786 14.607C50.7885 14.6808 50.7966 14.7551 50.806 14.8297C53.0065 15.8249 55.1255 17.0278 56.9954 18.4341C56.6614 17.0461 56.0529 15.9244 55.2884 15.1939ZM43.348 10.6373C41.4324 10.6484 40.5565 11.1297 40.1653 11.5582C40.142 11.5837 40.1213 11.6122 40.0989 11.6402C42.227 11.9623 44.4922 12.5028 46.7425 13.2466C46.7936 13.1977 46.8459 13.1501 46.8978 13.1021C46.6638 12.3575 46.3753 11.8402 46.0345 11.4869C45.5841 11.02 44.8416 10.6271 43.3489 10.6373H43.348Z" fill="#4F4F4F"/>
</svg>
