<svg width="80" height="80" viewBox="0 0 80 80" fill="none" xmlns="http://www.w3.org/2000/svg">
<path d="M54.6486 14.7235C54.5792 9.31872 50.141 4.99345 44.7362 5.06264C39.3316 5.13203 35.0064 9.5694 35.0754 14.974C35.1446 20.3789 39.582 24.7049 44.9868 24.6359C50.3917 24.5667 54.7178 20.1284 54.6486 14.7235ZM58.1483 14.6787C58.2422 22.0164 52.3693 28.0416 45.0316 28.1355C37.694 28.2292 31.6696 22.3565 31.5757 15.0188C31.482 7.6814 37.354 1.65713 44.6914 1.56299C52.029 1.46906 58.0541 7.34111 58.1483 14.6787Z" fill="#4F4F4F"/>
<path d="M22.5751 59.6748V33.0371C22.5752 28.8933 24.4184 24.9455 27.6385 22.2978L33.0262 17.7832C33.767 17.1628 34.8704 17.2604 35.4911 18.001C36.1118 18.7418 36.0151 19.846 35.2743 20.4668L29.8739 24.9912C29.8697 24.9947 29.8654 24.9985 29.8612 25.0019C27.4567 26.9791 26.0752 29.9313 26.0751 33.0371V59.6748C26.0751 60.5163 26.7745 61.2127 27.6122 61.2129C28.0384 61.2129 28.4248 61.0379 28.7001 60.7627C28.9843 60.4785 29.1503 60.1059 29.1503 59.6748V35.7871C29.1505 34.8208 29.9339 34.0371 30.9003 34.0371C31.8665 34.0372 32.6501 34.8208 32.6503 35.7871V59.6748C32.6503 61.0687 32.0905 62.3215 31.1747 63.2373C30.2749 64.137 29.0108 64.7129 27.6122 64.7129C24.8502 64.7127 22.5751 62.458 22.5751 59.6748Z" fill="#4F4F4F"/>
<path d="M47.275 76.6875V34.5C47.275 33.5335 48.0585 32.75 49.025 32.75C49.9915 32.75 50.775 33.5335 50.775 34.5V76.6875C50.775 77.654 49.9915 78.4375 49.025 78.4375C48.0585 78.4375 47.275 77.654 47.275 76.6875Z" fill="#4F4F4F"/>
<path d="M27 76.6875V62.75C27 61.7835 27.7835 61 28.75 61C29.7165 61 30.5 61.7835 30.5 62.75V76.6875C30.5 77.654 29.7165 78.4375 28.75 78.4375C27.7835 78.4375 27 77.654 27 76.6875Z" fill="#4F4F4F"/>
<path d="M36.6 76.6871V64.525C36.6 63.5585 37.3835 62.775 38.35 62.775C39.3165 62.775 40.1 63.5585 40.1 64.525V76.6871C40.1 77.6536 39.3165 78.4371 38.35 78.4371C37.3835 78.4371 36.6 77.6536 36.6 76.6871Z" fill="#4F4F4F"/>
<path d="M48.9974 23.8865C49.6191 23.1466 50.7233 23.0511 51.4633 23.6726L51.7758 23.9353L51.8656 24.0164C55.9458 27.9569 56.7225 32.2752 56.725 35.3474L56.9125 57.8855V57.8894C56.9189 58.951 56.8341 60.339 56.1176 61.4803C55.2854 62.8056 53.879 63.4129 52.1498 63.4129C50.0934 63.4128 48.7936 62.2695 48.099 61.0379C47.4572 59.8999 47.2875 58.6471 47.2875 57.9246C47.2877 56.9583 48.0711 56.1746 49.0375 56.1746C50.0038 56.1746 50.7873 56.9583 50.7875 57.9246C50.7875 58.2271 50.8803 58.8437 51.1478 59.3181C51.2704 59.5355 51.402 59.6744 51.5306 59.7586C51.6452 59.8335 51.8271 59.9128 52.1498 59.9129C52.6139 59.9129 52.8562 59.8352 52.9681 59.782C53.0606 59.7381 53.1085 59.6917 53.1537 59.6199C53.2963 59.3928 53.4181 58.9005 53.4125 57.9148L53.225 35.3767C53.2249 35.372 53.225 35.3668 53.225 35.3621C53.2249 32.9432 52.6506 29.6583 49.4652 26.5642L49.2123 26.3523C48.4722 25.7307 48.3758 24.6266 48.9974 23.8865Z" fill="#4F4F4F"/>
<path d="M49.025 55.4875C49.9915 55.4875 50.775 56.271 50.775 57.2375C50.775 58.204 49.9915 58.9875 49.025 58.9875H30.9C29.9335 58.9875 29.15 58.204 29.15 57.2375C29.15 56.271 29.9335 55.4875 30.9 55.4875H49.025Z" fill="#4F4F4F"/>
<path d="M30.9003 50.7375C31.8667 50.7376 32.6503 51.5211 32.6503 52.4875C32.6503 53.4539 31.8667 54.2374 30.9003 54.2375H24.3251C23.3586 54.2375 22.5751 53.454 22.5751 52.4875C22.5751 51.521 23.3586 50.7375 24.3251 50.7375H30.9003Z" fill="#4F4F4F"/>
<path d="M55.1129 50.7375C56.0792 50.7377 56.8629 51.5211 56.8629 52.4875C56.8629 53.4539 56.0792 54.2373 55.1129 54.2375H49.025C48.0585 54.2375 47.275 53.454 47.275 52.4875C47.275 51.521 48.0585 50.7375 49.025 50.7375H55.1129Z" fill="#4F4F4F"/>
<path d="M6.21252 41.8125V33.375C6.21252 32.4085 6.99603 31.625 7.96252 31.625C8.92902 31.625 9.71252 32.4085 9.71252 33.375V41.8125C9.71252 42.779 8.92902 43.5625 7.96252 43.5625C6.99603 43.5625 6.21252 42.779 6.21252 41.8125Z" fill="#4F4F4F"/>
<path d="M16.6 24.2125V15.775C16.6 14.8085 17.3835 14.025 18.35 14.025C19.3165 14.025 20.1 14.8085 20.1 15.775V24.2125C20.1 25.179 19.3165 25.9625 18.35 25.9625C17.3835 25.9625 16.6 25.179 16.6 24.2125Z" fill="#4F4F4F"/>
<path d="M61.3625 33.375V24.9375C61.3625 23.971 62.1461 23.1875 63.1125 23.1875C64.079 23.1875 64.8625 23.971 64.8625 24.9375V33.375C64.8625 34.3415 64.079 35.125 63.1125 35.125C62.1461 35.125 61.3625 34.3415 61.3625 33.375Z" fill="#4F4F4F"/>
<path d="M70.2875 46.225V37.7875C70.2875 36.821 71.071 36.0375 72.0375 36.0375C73.004 36.0375 73.7875 36.821 73.7875 37.7875V46.225C73.7875 47.1915 73.004 47.975 72.0375 47.975C71.071 47.975 70.2875 47.1915 70.2875 46.225Z" fill="#4F4F4F"/>
<path d="M60.625 65.05V56.6125C60.625 55.646 61.4085 54.8625 62.375 54.8625C63.3415 54.8625 64.125 55.646 64.125 56.6125V65.05C64.125 66.0165 63.3415 66.8 62.375 66.8C61.4085 66.8 60.625 66.0165 60.625 65.05Z" fill="#4F4F4F"/>
<path d="M12.8125 62.9625V54.525C12.8125 53.5585 13.596 52.775 14.5625 52.775C15.529 52.775 16.3125 53.5585 16.3125 54.525V62.9625C16.3125 63.929 15.529 64.7125 14.5625 64.7125C13.596 64.7125 12.8125 63.929 12.8125 62.9625Z" fill="#4F4F4F"/>
</svg>
