<svg width="80" height="80" viewBox="0 0 80 80" fill="none" xmlns="http://www.w3.org/2000/svg">
<path d="M49.0378 33.3121C49.0376 28.3275 44.9943 24.275 39.9998 24.275C35.0041 24.2752 30.9629 28.3164 30.9626 33.3121C30.9626 38.308 35.0039 42.35 39.9998 42.3502C44.9958 42.3502 49.0378 38.3081 49.0378 33.3121ZM52.5378 33.3121C52.5378 40.2411 46.9288 45.8502 39.9998 45.8502C33.0709 45.85 27.4626 40.241 27.4626 33.3121C27.4629 26.3834 33.0711 20.7752 39.9998 20.775C46.9299 20.775 52.5376 26.3971 52.5378 33.3121Z" fill="#4F4F4F"/>
<path d="M51.088 75.7626V60.6747C51.0881 60.188 51.2908 59.7236 51.6476 59.3925L66.5724 45.5419L66.6895 45.4423C68.6525 43.9184 68.9707 41.0931 67.4083 39.1825L67.4054 39.1796L54.8683 23.7802C54.7978 23.6936 54.7354 23.6002 54.6827 23.5019C54.0129 22.2515 52.4571 21.7631 51.172 22.4208C49.9715 23.0358 49.4447 24.4487 49.9259 25.6972L60.295 38.2548L60.4425 38.4433C61.8792 40.382 61.3077 43.1277 59.2686 44.3759L50.9308 50.4521C50.6315 50.6701 50.2707 50.7879 49.9005 50.788H30.0753C29.7049 50.788 29.3434 50.6702 29.044 50.4521L20.7149 44.3817C18.5869 43.0987 18.0728 40.2056 19.6749 38.2616L19.6759 38.2607L30.0489 25.6962C30.5265 24.4527 29.9969 23.0348 28.7989 22.4179L28.7921 22.4149C27.5336 21.7596 25.9675 22.2429 25.2931 23.5019C25.2403 23.6003 25.178 23.6936 25.1075 23.7802L12.5694 39.1776L12.5704 39.1786C11.0641 41.0312 11.3166 43.7457 13.1104 45.2987L13.2892 45.4452L13.4015 45.5409L28.3517 59.3915C28.7091 59.7226 28.9121 60.1875 28.9122 60.6747V75.7753C28.912 76.7417 28.1286 77.5253 27.1622 77.5253C26.196 77.5251 25.4124 76.7415 25.4122 75.7753V61.4384L11.0567 48.1386C7.63318 45.3975 7.08128 40.3815 9.85458 36.9706H9.85556L22.3028 21.6796C23.9248 18.8671 27.493 17.7985 30.4005 19.3075C33.3213 20.8116 34.5476 24.3618 33.1476 27.3544C33.0851 27.4878 33.006 27.6128 32.9122 27.7265L22.3751 40.4872C22.1472 40.7637 22.2099 41.1631 22.4835 41.3603L22.5411 41.3974L22.7179 41.5107L30.6456 47.288H49.3292L57.2569 41.5107C57.3101 41.4719 57.3658 41.4367 57.4229 41.4042C57.7704 41.2066 57.8302 40.7646 57.6056 40.495L57.6007 40.4892L47.0636 27.7265C46.9697 27.6127 46.8898 27.488 46.8272 27.3544C45.43 24.3679 46.635 20.8112 49.5782 19.3046C52.4859 17.8167 56.0453 18.8585 57.672 21.6815L70.1173 36.9667C72.9073 40.3786 72.3552 45.3982 68.9181 48.1396L54.588 61.4384V75.7626C54.5879 76.7289 53.8043 77.5124 52.838 77.5126C51.8715 77.5126 51.088 76.7291 51.088 75.7626Z" fill="#4F4F4F"/>
<path d="M25.8674 11.5066C26.4228 10.7157 27.5149 10.5245 28.3059 11.0799L33.468 14.7049C34.259 15.2603 34.4502 16.3524 33.8948 17.1434C33.3394 17.9341 32.2482 18.1251 31.4573 17.5701L26.2942 13.9451C25.5032 13.3897 25.3121 12.2976 25.8674 11.5066Z" fill="#4F4F4F"/>
<path d="M31.3016 4.40038C32.1506 3.93873 33.2129 4.25255 33.6746 5.10155L37.2498 11.6767C37.7114 12.5258 37.3976 13.5881 36.5486 14.0498C35.6995 14.5115 34.6363 14.1977 34.1746 13.3486L30.6004 6.77343C30.1387 5.92437 30.4526 4.8621 31.3016 4.40038Z" fill="#4F4F4F"/>
<path d="M52.4661 12.0856C53.3302 11.6526 54.3817 12.0018 54.8147 12.8658C55.2477 13.7298 54.8983 14.7814 54.0345 15.2145L48.3968 18.0397C47.5328 18.4726 46.4812 18.1232 46.0481 17.2594C45.6152 16.3954 45.9645 15.3438 46.8284 14.9107L52.4661 12.0856Z" fill="#4F4F4F"/>
<path d="M47.0893 4.54961C47.5522 3.70119 48.6149 3.38845 49.4633 3.85137C50.3116 4.31425 50.6242 5.37706 50.1616 6.22539L46.5737 12.8006C46.1108 13.6489 45.048 13.9615 44.1997 13.4988C43.3512 13.0359 43.0385 11.9723 43.5014 11.1238L47.0893 4.54961Z" fill="#4F4F4F"/>
<path d="M38.25 9.82462V4.22501C38.25 3.25851 39.0335 2.47501 40 2.47501C40.9665 2.47501 41.75 3.25851 41.75 4.22501V9.82462C41.75 10.7911 40.9665 11.5746 40 11.5746C39.0335 11.5746 38.25 10.7911 38.25 9.82462Z" fill="#4F4F4F"/>
</svg>
