<svg width="80" height="80" viewBox="0 0 80 80" fill="none" xmlns="http://www.w3.org/2000/svg">
<path d="M41.5996 44.3373C41.5995 31.5842 33.1906 23.7875 22.9873 23.7875C12.796 23.7876 4.37509 31.585 4.375 44.3373C4.375 50.7887 6.53716 57.2035 10.0029 61.973C13.4787 66.7563 18.1004 69.6878 22.9873 69.6879C27.8742 69.6879 32.4958 66.7563 35.9717 61.973C39.4374 57.2035 41.5996 50.7887 41.5996 44.3373ZM45.0996 44.3373C45.0996 51.5234 42.7057 58.6595 38.8027 64.0306C34.9099 69.3877 29.3501 73.1879 22.9873 73.1879C16.6245 73.1878 11.0647 69.3877 7.17188 64.0306C3.26889 58.6595 0.875 51.5234 0.875 44.3373C0.87509 29.8149 10.7039 20.2876 22.9873 20.2875C35.2839 20.2875 45.0995 29.8156 45.0996 44.3373Z" fill="#4F4F4F"/>
<path d="M17.4246 41.075C18.3911 41.075 19.1746 41.8585 19.1746 42.825C19.1746 43.7915 18.3911 44.575 17.4246 44.575H10.7C9.73345 44.575 8.94995 43.7915 8.94995 42.825C8.94995 41.8585 9.73345 41.075 10.7 41.075H17.4246Z" fill="#4F4F4F"/>
<path d="M35.2871 41.075C36.2536 41.075 37.0371 41.8585 37.0371 42.825C37.0371 43.7915 36.2536 44.575 35.2871 44.575H28.5625C27.596 44.575 26.8125 43.7915 26.8125 42.825C26.8125 41.8585 27.596 41.075 28.5625 41.075H35.2871Z" fill="#4F4F4F"/>
<path d="M30.8035 55.4465C31.5511 54.834 32.6539 54.9431 33.2664 55.6906C33.8788 56.4383 33.7689 57.541 33.0212 58.1535C27.9974 62.269 22.8881 62.2847 19.0994 61.2492C17.2305 60.7384 15.6848 59.9757 14.6082 59.3449C14.0678 59.0283 13.639 58.7413 13.3396 58.5285C13.1898 58.422 13.0718 58.3331 12.988 58.2687C12.9462 58.2366 12.9121 58.2112 12.8875 58.1916C12.8752 58.1819 12.8651 58.1736 12.8572 58.1672C12.8532 58.164 12.8493 58.1607 12.8464 58.1584C12.8453 58.1574 12.8445 58.1563 12.8435 58.1555L12.8416 58.1545C12.8408 58.1539 12.84 58.153 13.95 56.8L12.8396 58.1525C12.0928 57.5395 11.9846 56.4367 12.5974 55.6896C13.2093 54.9443 14.3084 54.8347 15.0554 55.4435C15.0562 55.4442 15.0594 55.4466 15.0642 55.4504C15.074 55.4582 15.0921 55.4725 15.1179 55.4924C15.17 55.5323 15.2539 55.5956 15.3669 55.676C15.5935 55.837 15.9365 56.0669 16.3777 56.3254C17.2647 56.845 18.5241 57.4638 20.0222 57.8732C22.9679 58.6783 26.8398 58.6934 30.8035 55.4465Z" fill="#4F4F4F"/>
<path d="M75.6254 30.8625C75.6254 18.1079 67.2142 10.3 57.0122 10.3C47.6417 10.3002 39.8412 16.8558 38.5883 27.7258C38.4775 28.6856 37.6098 29.3744 36.6499 29.2639C35.6897 29.1532 35.0011 28.2845 35.1118 27.3244C36.5589 14.7698 45.783 6.80017 57.0122 6.79999C69.3101 6.79999 79.1254 16.342 79.1254 30.8625C79.1254 38.0484 76.7312 45.1866 72.8286 50.5607C68.936 55.9208 63.3758 59.7248 57.0122 59.7248C50.7916 59.7246 45.3374 56.0965 41.4731 50.9221C40.8948 50.1477 41.0534 49.0512 41.8276 48.4728C42.602 47.8945 43.6985 48.0539 44.2768 48.8283C47.7123 53.4285 52.2331 56.2246 57.0122 56.2248C61.8985 56.2248 66.5203 53.2909 69.9965 48.5041C73.4624 43.7314 75.6254 37.3139 75.6254 30.8625Z" fill="#4F4F4F"/>
<path d="M51.437 27.6C52.4035 27.6 53.187 28.3835 53.187 29.35C53.187 30.3165 52.4035 31.1 51.437 31.1H44.7124C43.7459 31.1 42.9624 30.3165 42.9624 29.35C42.9624 28.3835 43.7459 27.6 44.7124 27.6H51.437Z" fill="#4F4F4F"/>
<path d="M69.2996 27.6C70.2661 27.6 71.0496 28.3835 71.0496 29.35C71.0496 30.3165 70.2661 31.1 69.2996 31.1H62.575C61.6085 31.1 60.825 30.3165 60.825 29.35C60.825 28.3835 61.6085 27.6 62.575 27.6H69.2996Z" fill="#4F4F4F"/>
<path d="M46.8521 45.2348C51.9046 41.0895 57.0149 41.07 60.8033 42.1166C62.6704 42.6324 64.2122 43.4016 65.2848 44.0385C65.8233 44.3582 66.2504 44.6487 66.5484 44.8637C66.6975 44.9712 66.8146 45.0604 66.898 45.1254C66.9398 45.1579 66.9731 45.1847 66.9976 45.2045C67.0099 45.2144 67.02 45.2224 67.0279 45.2289C67.0319 45.2322 67.0358 45.2353 67.0387 45.2377C67.0399 45.2387 67.0415 45.2398 67.0426 45.2406L67.0435 45.2416C67.0443 45.2422 67.0451 45.2429 65.9283 46.5834L67.0455 45.2426C67.788 45.8612 67.8878 46.9649 67.2691 47.7074C66.6507 48.4497 65.5488 48.5499 64.8062 47.932V47.933C64.8049 47.9319 64.8027 47.9309 64.8004 47.9291C64.7907 47.9213 64.7734 47.9062 64.7476 47.8861C64.6961 47.846 64.6127 47.7834 64.5006 47.7025C64.2759 47.5405 63.9359 47.3085 63.4976 47.0482C62.6163 46.525 61.3639 45.9019 59.8717 45.4896C56.9414 44.6801 53.0703 44.6612 49.0728 47.9408C48.3257 48.5538 47.223 48.4446 46.6099 47.6977C45.997 46.9506 46.1052 45.8479 46.8521 45.2348Z" fill="#4F4F4F"/>
</svg>
