<svg width="24" height="24" viewBox="0 0 24 24" fill="none" xmlns="http://www.w3.org/2000/svg">
<path d="M14.5254 7.62109C14.5384 7.62696 14.5515 7.63342 14.5664 7.63867C14.553 7.63156 14.5382 7.62864 14.5254 7.62109ZM16.957 7.56836C17.0464 7.55295 17.1283 7.52467 17.1914 7.48633C17.123 7.52787 17.0391 7.54467 16.957 7.56836ZM18.5859 7.39844H18.6035C18.5945 7.39275 18.5828 7.39255 18.5742 7.38672L18.5859 7.39844ZM8.55469 7.26367C8.55832 7.25885 8.56379 7.25568 8.56641 7.25195C8.57799 7.2354 8.58151 7.22146 8.58398 7.2168C8.57551 7.2331 8.56343 7.24746 8.55469 7.26367ZM9.51562 7.22266L9.52734 7.2168C9.54775 7.18746 9.55401 7.16379 9.55664 7.1582C9.54768 7.17732 9.52929 7.1966 9.51562 7.22266ZM21.0586 6.52539C21.0401 6.52326 21.0185 6.53197 21 6.53125V6.94727L21.4395 6.70117C21.425 6.68832 21.4126 6.66876 21.3926 6.6543C21.3457 6.62043 21.2299 6.5458 21.0586 6.52539ZM11.2031 6.75391C11.2162 6.78168 11.2392 6.80436 11.25 6.83008C11.2497 6.82935 11.2472 6.82453 11.2441 6.81836C11.2412 6.81243 11.2397 6.80105 11.2324 6.78906C11.2274 6.78078 11.2147 6.76958 11.2031 6.75391ZM18.3574 6.48438C18.3519 6.47825 18.3478 6.46861 18.3398 6.46094C18.3357 6.45695 18.3276 6.45391 18.3223 6.44922C18.3337 6.46345 18.3487 6.47251 18.3574 6.48438ZM9.15234 6.4375C9.12168 6.40879 9.06739 6.37261 8.99414 6.33789C9.05249 6.37469 9.11177 6.39951 9.15234 6.4375ZM14.9062 6.37305C14.8896 6.35958 14.8676 6.34711 14.8418 6.33203C14.8626 6.34912 14.889 6.35648 14.9062 6.37305ZM21.7031 7.49219C21.6793 7.56162 21.623 7.70356 21.4863 7.82617C21.3229 7.97268 21.1011 8.03885 20.8828 8.01367C20.7243 7.99511 20.6098 7.92917 20.543 7.88477C20.5035 7.91337 20.4696 7.95514 20.4199 7.97852C20.1136 8.12163 19.8004 8.04399 19.5938 7.89062C19.436 7.77332 19.3508 7.62548 19.3125 7.55078C19.3065 7.53909 19.3005 7.52743 19.2949 7.51562C19.2681 7.52303 19.2418 7.53406 19.2129 7.53906C19.1409 7.62431 19.0263 7.74524 18.8438 7.80859C18.611 7.88872 18.3962 7.83669 18.2227 7.75C18.0917 7.79621 17.9538 7.81678 17.8125 7.79688C17.7278 7.88627 17.5848 8.01788 17.3613 8.06055C17.0828 8.11319 16.8508 8.00837 16.7051 7.89648C16.6389 7.84564 16.6003 7.77902 16.5586 7.72656C16.4145 7.89439 16.199 8.09476 15.8555 8.10156C15.6343 8.10528 15.4286 8.0478 15.252 7.95508C15.1434 7.89799 15.0603 7.81695 14.9824 7.73828C14.8919 7.7387 14.8083 7.7437 14.7305 7.7207C14.621 7.74423 14.5003 7.75749 14.373 7.73242C14.3585 7.72953 14.3461 7.71835 14.332 7.71484C14.1883 7.76463 14.0454 7.76509 13.8984 7.73242C13.7903 7.8737 13.5132 8.17861 13.0547 8.08984C12.9203 8.06346 12.8157 7.99919 12.7266 7.9375C12.6448 7.95414 12.5688 7.96389 12.4863 7.95508C12.3517 8.01643 12.1916 8.05084 12.0176 8.01953C11.8943 7.99726 11.7958 7.94732 11.7188 7.89648C11.6503 7.9347 11.5784 7.98353 11.4844 8.00195C11.2744 8.04307 11.0979 7.98142 10.957 7.9082C10.8333 7.95988 10.6908 7.99909 10.5293 7.97266C10.3387 7.94104 10.2014 7.84759 10.1191 7.77344C10.1044 7.76016 10.0972 7.74027 10.084 7.72656C10.019 7.75149 9.9519 7.76668 9.88477 7.78516C9.78696 7.8873 9.61044 8.04143 9.33398 8.05469C8.99677 8.07009 8.77806 7.87853 8.68359 7.77344C8.67757 7.7667 8.67181 7.75689 8.66602 7.75C8.63741 7.74831 8.60761 7.76074 8.57812 7.75586L8.57227 7.75L8.56055 7.76172C8.43072 7.80184 8.30253 7.80025 8.17969 7.7793C8.09011 7.86391 7.95331 7.97185 7.75195 8.00781C7.48751 8.0545 7.2651 7.96233 7.11914 7.85547C6.98307 7.75578 6.89302 7.62703 6.83203 7.51562C6.78555 7.50409 6.73677 7.50415 6.69141 7.48633C6.61487 7.57574 6.52557 7.66116 6.42188 7.73242C6.27895 7.83036 6.08416 7.90965 5.85352 7.90234C5.63374 7.89471 5.45691 7.80968 5.32617 7.71484C5.21128 7.68663 5.10911 7.64685 5.02148 7.5918C4.96131 7.60376 4.89985 7.60914 4.83398 7.60938C4.69435 7.76618 4.44215 7.99299 4.03711 7.90234C3.94725 7.8821 3.87422 7.8406 3.80859 7.80273C3.68871 7.89633 3.5187 7.99208 3.29297 7.99023C3.04726 7.98742 2.86132 7.88053 2.75391 7.79102C2.56753 7.63535 2.46758 7.4219 2.41406 7.29883L3 7.04102V6.57227C2.94484 6.60035 2.89736 6.62606 2.86523 6.6543C2.90505 6.6193 2.94824 6.56936 3 6.50781V6.25H3.28711C3.41542 6.16005 3.57163 6.08137 3.76758 6.0625C3.97885 6.04279 4.14868 6.11321 4.2832 6.19141C4.32342 6.177 4.36177 6.15383 4.40625 6.14453C4.49855 6.12536 4.59357 6.13451 4.6875 6.13281C4.84556 6.03697 5.05116 5.95493 5.30273 6.00391C5.50366 6.0436 5.64564 6.15404 5.74805 6.25C5.80281 6.18943 5.86796 6.12642 5.94727 6.07422C6.0936 5.9781 6.28179 5.91735 6.48633 5.92773L6.69727 5.96289L6.80273 5.98633C6.90608 5.99804 7.0043 6.0323 7.10156 6.0625C7.23609 6.04097 7.37338 6.03993 7.50586 6.08594C7.54459 6.09955 7.57795 6.12735 7.61133 6.14453C7.73272 6.06944 7.89335 5.99441 8.09766 6.00977C8.26289 6.02244 8.38592 6.09599 8.48438 6.16211L8.49609 6.15039C8.59744 6.0759 8.74956 5.99987 8.94141 5.99219C9.13568 5.98476 9.29584 6.05195 9.41016 6.12695C9.49429 6.18234 9.55392 6.25257 9.60352 6.31445C9.64778 6.29549 9.69252 6.27344 9.73828 6.25L9.99023 6.15039C10.0766 6.12502 10.166 6.10511 10.2598 6.09766C10.3556 6.09018 10.4441 6.10227 10.5234 6.12109C10.5422 6.10926 10.5555 6.08493 10.5762 6.07422C10.7275 5.99624 10.921 5.95772 11.1211 6.00391C11.1564 6.01213 11.1837 6.03909 11.2148 6.05078C11.3218 5.95808 11.4651 5.86601 11.6602 5.83984L12.0293 5.875C12.1332 5.91019 12.2206 5.96281 12.2871 6.01562C12.3743 6.08534 12.4296 6.17205 12.4746 6.23828C12.5683 6.18943 12.6826 6.1485 12.8203 6.14453C12.8978 6.14247 12.9667 6.158 13.0312 6.17383C13.125 6.06151 13.2682 5.92839 13.4824 5.86914L13.7695 5.83984C14.035 5.86008 14.2359 6.00761 14.3438 6.12109V6.12695C14.4618 6.13312 14.5646 6.15496 14.6543 6.19727C14.6964 6.19257 14.7382 6.17244 14.7832 6.17383C14.8244 6.17513 14.8621 6.19689 14.9004 6.20312C15.0617 6.13705 15.2605 6.10692 15.4863 6.18555C15.5869 6.22071 15.6682 6.27665 15.7383 6.33203C15.8346 6.21285 16.0472 5.99854 16.3887 5.97461C16.5891 5.96085 16.7479 6.02937 16.875 6.10352C16.9207 6.10529 16.968 6.09337 17.0156 6.10352C17.1093 6.12368 17.188 6.16403 17.2559 6.20312C17.3476 6.15417 17.4551 6.11339 17.584 6.10352C17.7428 6.09155 17.871 6.13477 17.9824 6.18555C18.0585 6.15419 18.144 6.12879 18.2402 6.12109C18.2972 6.11654 18.3514 6.1267 18.4043 6.13281C18.5365 6.03804 18.7331 5.95699 18.9727 5.98047C19.059 5.94131 19.1568 5.9058 19.2715 5.89844C19.4482 5.88749 19.5969 5.93662 19.7168 5.99805C19.7902 5.99753 19.8668 6.005 19.9453 6.02734C20.0052 6.04444 20.0496 6.0838 20.0977 6.10938C20.1883 6.05416 20.2944 6.00302 20.4258 5.98633C20.6589 5.95679 20.8453 6.02101 20.9824 6.10938L21.2461 6.36719L21.457 6.68945L21.5566 6.63672L21.6562 6.81836L21.75 6.98828V7.18164C21.75 7.23073 21.7496 7.35611 21.7031 7.49219Z" fill="#4F4F4F"/>
<path d="M14.5254 12.6211C14.5384 12.627 14.5515 12.6334 14.5664 12.6387C14.553 12.6316 14.5382 12.6286 14.5254 12.6211ZM16.957 12.5684C17.0464 12.553 17.1283 12.5247 17.1914 12.4863C17.123 12.5279 17.0391 12.5447 16.957 12.5684ZM18.5859 12.3984H18.6035C18.5945 12.3927 18.5828 12.3925 18.5742 12.3867L18.5859 12.3984ZM8.55469 12.2637C8.55832 12.2589 8.56379 12.2557 8.56641 12.252C8.57799 12.2354 8.58151 12.2215 8.58398 12.2168C8.57551 12.2331 8.56343 12.2475 8.55469 12.2637ZM9.51562 12.2227L9.52734 12.2168C9.54775 12.1875 9.55401 12.1638 9.55664 12.1582C9.54768 12.1773 9.52929 12.1966 9.51562 12.2227ZM21.0586 11.5254C21.0401 11.5233 21.0185 11.532 21 11.5312V11.9473L21.4395 11.7012C21.425 11.6883 21.4126 11.6688 21.3926 11.6543C21.3457 11.6204 21.2299 11.5458 21.0586 11.5254ZM11.2031 11.7539C11.2162 11.7817 11.2392 11.8044 11.25 11.8301C11.2497 11.8293 11.2472 11.8245 11.2441 11.8184C11.2412 11.8124 11.2397 11.801 11.2324 11.7891C11.2274 11.7808 11.2147 11.7696 11.2031 11.7539ZM18.3574 11.4844C18.3519 11.4782 18.3478 11.4686 18.3398 11.4609C18.3357 11.457 18.3276 11.4539 18.3223 11.4492C18.3337 11.4635 18.3487 11.4725 18.3574 11.4844ZM9.15234 11.4375C9.12168 11.4088 9.06739 11.3726 8.99414 11.3379C9.05249 11.3747 9.11177 11.3995 9.15234 11.4375ZM14.9062 11.373C14.8896 11.3596 14.8676 11.3471 14.8418 11.332C14.8626 11.3491 14.889 11.3565 14.9062 11.373ZM21.7031 12.4922C21.6793 12.5616 21.623 12.7036 21.4863 12.8262C21.3229 12.9727 21.1011 13.0388 20.8828 13.0137C20.7243 12.9951 20.6098 12.9292 20.543 12.8848C20.5035 12.9134 20.4696 12.9551 20.4199 12.9785C20.1136 13.1216 19.8004 13.044 19.5938 12.8906C19.436 12.7733 19.3508 12.6255 19.3125 12.5508C19.3065 12.5391 19.3005 12.5274 19.2949 12.5156C19.2681 12.523 19.2418 12.5341 19.2129 12.5391C19.1409 12.6243 19.0263 12.7452 18.8438 12.8086C18.611 12.8887 18.3962 12.8367 18.2227 12.75C18.0917 12.7962 17.9538 12.8168 17.8125 12.7969C17.7278 12.8863 17.5848 13.0179 17.3613 13.0605C17.0828 13.1132 16.8508 13.0084 16.7051 12.8965C16.6389 12.8456 16.6003 12.779 16.5586 12.7266C16.4145 12.8944 16.199 13.0948 15.8555 13.1016C15.6343 13.1053 15.4286 13.0478 15.252 12.9551C15.1434 12.898 15.0603 12.817 14.9824 12.7383C14.8919 12.7387 14.8083 12.7437 14.7305 12.7207C14.621 12.7442 14.5003 12.7575 14.373 12.7324C14.3585 12.7295 14.3461 12.7183 14.332 12.7148C14.1883 12.7646 14.0454 12.7651 13.8984 12.7324C13.7903 12.8737 13.5132 13.1786 13.0547 13.0898C12.9203 13.0635 12.8157 12.9992 12.7266 12.9375C12.6448 12.9541 12.5688 12.9639 12.4863 12.9551C12.3517 13.0164 12.1916 13.0508 12.0176 13.0195C11.8943 12.9973 11.7958 12.9473 11.7188 12.8965C11.6503 12.9347 11.5784 12.9835 11.4844 13.002C11.2744 13.0431 11.0979 12.9814 10.957 12.9082C10.8333 12.9599 10.6908 12.9991 10.5293 12.9727C10.3387 12.941 10.2014 12.8476 10.1191 12.7734C10.1044 12.7602 10.0972 12.7403 10.084 12.7266C10.019 12.7515 9.9519 12.7667 9.88477 12.7852C9.78696 12.8873 9.61044 13.0414 9.33398 13.0547C8.99677 13.0701 8.77806 12.8785 8.68359 12.7734C8.67757 12.7667 8.67181 12.7569 8.66602 12.75C8.63741 12.7483 8.60761 12.7607 8.57812 12.7559L8.57227 12.75L8.56055 12.7617C8.43072 12.8018 8.30253 12.8003 8.17969 12.7793C8.09011 12.8639 7.95331 12.9719 7.75195 13.0078C7.48751 13.0545 7.2651 12.9623 7.11914 12.8555C6.98307 12.7558 6.89302 12.627 6.83203 12.5156C6.78555 12.5041 6.73677 12.5042 6.69141 12.4863C6.61487 12.5757 6.52557 12.6612 6.42188 12.7324C6.27895 12.8304 6.08416 12.9097 5.85352 12.9023C5.63374 12.8947 5.45691 12.8097 5.32617 12.7148C5.21128 12.6866 5.10911 12.6468 5.02148 12.5918C4.96131 12.6038 4.89985 12.6091 4.83398 12.6094C4.69435 12.7662 4.44215 12.993 4.03711 12.9023C3.94725 12.8821 3.87422 12.8406 3.80859 12.8027C3.68871 12.8963 3.5187 12.9921 3.29297 12.9902C3.04726 12.9874 2.86132 12.8805 2.75391 12.791C2.56753 12.6354 2.46758 12.4219 2.41406 12.2988L3 12.041V11.5723C2.94484 11.6004 2.89736 11.6261 2.86523 11.6543C2.90505 11.6193 2.94824 11.5694 3 11.5078V11.25H3.28711C3.41542 11.1601 3.57163 11.0814 3.76758 11.0625C3.97885 11.0428 4.14868 11.1132 4.2832 11.1914C4.32342 11.177 4.36177 11.1538 4.40625 11.1445C4.49855 11.1254 4.59357 11.1345 4.6875 11.1328C4.84556 11.037 5.05116 10.9549 5.30273 11.0039C5.50366 11.0436 5.64564 11.154 5.74805 11.25C5.80281 11.1894 5.86796 11.1264 5.94727 11.0742C6.0936 10.9781 6.28179 10.9174 6.48633 10.9277L6.69727 10.9629L6.80273 10.9863C6.90608 10.998 7.0043 11.0323 7.10156 11.0625C7.23609 11.041 7.37338 11.0399 7.50586 11.0859C7.54459 11.0995 7.57795 11.1273 7.61133 11.1445C7.73272 11.0694 7.89335 10.9944 8.09766 11.0098C8.26289 11.0224 8.38592 11.096 8.48438 11.1621L8.49609 11.1504C8.59744 11.0759 8.74956 10.9999 8.94141 10.9922C9.13568 10.9848 9.29584 11.0519 9.41016 11.127C9.49429 11.1823 9.55392 11.2526 9.60352 11.3145C9.64778 11.2955 9.69252 11.2734 9.73828 11.25L9.99023 11.1504C10.0766 11.125 10.166 11.1051 10.2598 11.0977C10.3556 11.0902 10.4441 11.1023 10.5234 11.1211C10.5422 11.1093 10.5555 11.0849 10.5762 11.0742C10.7275 10.9962 10.921 10.9577 11.1211 11.0039C11.1564 11.0121 11.1837 11.0391 11.2148 11.0508C11.3218 10.9581 11.4651 10.866 11.6602 10.8398L12.0293 10.875C12.1332 10.9102 12.2206 10.9628 12.2871 11.0156C12.3743 11.0853 12.4296 11.1721 12.4746 11.2383C12.5683 11.1894 12.6826 11.1485 12.8203 11.1445C12.8978 11.1425 12.9667 11.158 13.0312 11.1738C13.125 11.0615 13.2682 10.9284 13.4824 10.8691L13.7695 10.8398C14.035 10.8601 14.2359 11.0076 14.3438 11.1211V11.127C14.4618 11.1331 14.5646 11.155 14.6543 11.1973C14.6964 11.1926 14.7382 11.1724 14.7832 11.1738C14.8244 11.1751 14.8621 11.1969 14.9004 11.2031C15.0617 11.1371 15.2605 11.1069 15.4863 11.1855C15.5869 11.2207 15.6682 11.2766 15.7383 11.332C15.8346 11.2129 16.0472 10.9985 16.3887 10.9746C16.5891 10.9608 16.7479 11.0294 16.875 11.1035C16.9207 11.1053 16.968 11.0934 17.0156 11.1035C17.1093 11.1237 17.188 11.164 17.2559 11.2031C17.3476 11.1542 17.4551 11.1134 17.584 11.1035C17.7428 11.0915 17.871 11.1348 17.9824 11.1855C18.0585 11.1542 18.144 11.1288 18.2402 11.1211C18.2972 11.1165 18.3514 11.1267 18.4043 11.1328C18.5365 11.038 18.7331 10.957 18.9727 10.9805C19.059 10.9413 19.1568 10.9058 19.2715 10.8984C19.4482 10.8875 19.5969 10.9366 19.7168 10.998C19.7902 10.9975 19.8668 11.005 19.9453 11.0273C20.0052 11.0444 20.0496 11.0838 20.0977 11.1094C20.1883 11.0542 20.2944 11.003 20.4258 10.9863C20.6589 10.9568 20.8453 11.021 20.9824 11.1094L21.2461 11.3672L21.457 11.6895L21.5566 11.6367L21.6562 11.8184L21.75 11.9883V12.1816C21.75 12.2307 21.7496 12.3561 21.7031 12.4922Z" fill="#4F4F4F"/>
<path d="M14.5254 17.6211C14.5384 17.627 14.5515 17.6334 14.5664 17.6387C14.553 17.6316 14.5382 17.6286 14.5254 17.6211ZM16.957 17.5684C17.0464 17.553 17.1283 17.5247 17.1914 17.4863C17.123 17.5279 17.0391 17.5447 16.957 17.5684ZM18.5859 17.3984H18.6035C18.5945 17.3927 18.5828 17.3925 18.5742 17.3867L18.5859 17.3984ZM8.55469 17.2637C8.55832 17.2589 8.56379 17.2557 8.56641 17.252C8.57799 17.2354 8.58151 17.2215 8.58398 17.2168C8.57551 17.2331 8.56343 17.2475 8.55469 17.2637ZM9.51562 17.2227L9.52734 17.2168C9.54775 17.1875 9.55401 17.1638 9.55664 17.1582C9.54768 17.1773 9.52929 17.1966 9.51562 17.2227ZM21.0586 16.5254C21.0401 16.5233 21.0185 16.532 21 16.5312V16.9473L21.4395 16.7012C21.425 16.6883 21.4126 16.6688 21.3926 16.6543C21.3457 16.6204 21.2299 16.5458 21.0586 16.5254ZM11.2031 16.7539C11.2162 16.7817 11.2392 16.8044 11.25 16.8301C11.2497 16.8293 11.2472 16.8245 11.2441 16.8184C11.2412 16.8124 11.2397 16.801 11.2324 16.7891C11.2274 16.7808 11.2147 16.7696 11.2031 16.7539ZM18.3574 16.4844C18.3519 16.4782 18.3478 16.4686 18.3398 16.4609C18.3357 16.457 18.3276 16.4539 18.3223 16.4492C18.3337 16.4635 18.3487 16.4725 18.3574 16.4844ZM9.15234 16.4375C9.12168 16.4088 9.06739 16.3726 8.99414 16.3379C9.05249 16.3747 9.11177 16.3995 9.15234 16.4375ZM14.9062 16.373C14.8896 16.3596 14.8676 16.3471 14.8418 16.332C14.8626 16.3491 14.889 16.3565 14.9062 16.373ZM21.7031 17.4922C21.6793 17.5616 21.623 17.7036 21.4863 17.8262C21.3229 17.9727 21.1011 18.0388 20.8828 18.0137C20.7243 17.9951 20.6098 17.9292 20.543 17.8848C20.5035 17.9134 20.4696 17.9551 20.4199 17.9785C20.1136 18.1216 19.8004 18.044 19.5938 17.8906C19.436 17.7733 19.3508 17.6255 19.3125 17.5508C19.3065 17.5391 19.3005 17.5274 19.2949 17.5156C19.2681 17.523 19.2418 17.5341 19.2129 17.5391C19.1409 17.6243 19.0263 17.7452 18.8438 17.8086C18.611 17.8887 18.3962 17.8367 18.2227 17.75C18.0917 17.7962 17.9538 17.8168 17.8125 17.7969C17.7278 17.8863 17.5848 18.0179 17.3613 18.0605C17.0828 18.1132 16.8508 18.0084 16.7051 17.8965C16.6389 17.8456 16.6003 17.779 16.5586 17.7266C16.4145 17.8944 16.199 18.0948 15.8555 18.1016C15.6343 18.1053 15.4286 18.0478 15.252 17.9551C15.1434 17.898 15.0603 17.817 14.9824 17.7383C14.8919 17.7387 14.8083 17.7437 14.7305 17.7207C14.621 17.7442 14.5003 17.7575 14.373 17.7324C14.3585 17.7295 14.3461 17.7183 14.332 17.7148C14.1883 17.7646 14.0454 17.7651 13.8984 17.7324C13.7903 17.8737 13.5132 18.1786 13.0547 18.0898C12.9203 18.0635 12.8157 17.9992 12.7266 17.9375C12.6448 17.9541 12.5688 17.9639 12.4863 17.9551C12.3517 18.0164 12.1916 18.0508 12.0176 18.0195C11.8943 17.9973 11.7958 17.9473 11.7188 17.8965C11.6503 17.9347 11.5784 17.9835 11.4844 18.002C11.2744 18.0431 11.0979 17.9814 10.957 17.9082C10.8333 17.9599 10.6908 17.9991 10.5293 17.9727C10.3387 17.941 10.2014 17.8476 10.1191 17.7734C10.1044 17.7602 10.0972 17.7403 10.084 17.7266C10.019 17.7515 9.9519 17.7667 9.88477 17.7852C9.78696 17.8873 9.61044 18.0414 9.33398 18.0547C8.99677 18.0701 8.77806 17.8785 8.68359 17.7734C8.67757 17.7667 8.67181 17.7569 8.66602 17.75C8.63741 17.7483 8.60761 17.7607 8.57812 17.7559L8.57227 17.75L8.56055 17.7617C8.43072 17.8018 8.30253 17.8003 8.17969 17.7793C8.09011 17.8639 7.95331 17.9719 7.75195 18.0078C7.48751 18.0545 7.2651 17.9623 7.11914 17.8555C6.98307 17.7558 6.89302 17.627 6.83203 17.5156C6.78555 17.5041 6.73677 17.5042 6.69141 17.4863C6.61487 17.5757 6.52557 17.6612 6.42188 17.7324C6.27895 17.8304 6.08416 17.9097 5.85352 17.9023C5.63374 17.8947 5.45691 17.8097 5.32617 17.7148C5.21128 17.6866 5.10911 17.6468 5.02148 17.5918C4.96131 17.6038 4.89985 17.6091 4.83398 17.6094C4.69435 17.7662 4.44215 17.993 4.03711 17.9023C3.94725 17.8821 3.87422 17.8406 3.80859 17.8027C3.68871 17.8963 3.5187 17.9921 3.29297 17.9902C3.04726 17.9874 2.86132 17.8805 2.75391 17.791C2.56753 17.6354 2.46758 17.4219 2.41406 17.2988L3 17.041V16.5723C2.94484 16.6004 2.89736 16.6261 2.86523 16.6543C2.90505 16.6193 2.94824 16.5694 3 16.5078V16.25H3.28711C3.41542 16.1601 3.57163 16.0814 3.76758 16.0625C3.97885 16.0428 4.14868 16.1132 4.2832 16.1914C4.32342 16.177 4.36177 16.1538 4.40625 16.1445C4.49855 16.1254 4.59357 16.1345 4.6875 16.1328C4.84556 16.037 5.05116 15.9549 5.30273 16.0039C5.50366 16.0436 5.64564 16.154 5.74805 16.25C5.80281 16.1894 5.86796 16.1264 5.94727 16.0742C6.0936 15.9781 6.28179 15.9174 6.48633 15.9277L6.69727 15.9629L6.80273 15.9863C6.90608 15.998 7.0043 16.0323 7.10156 16.0625C7.23609 16.041 7.37338 16.0399 7.50586 16.0859C7.54459 16.0995 7.57795 16.1273 7.61133 16.1445C7.73272 16.0694 7.89335 15.9944 8.09766 16.0098C8.26289 16.0224 8.38592 16.096 8.48438 16.1621L8.49609 16.1504C8.59744 16.0759 8.74956 15.9999 8.94141 15.9922C9.13568 15.9848 9.29584 16.0519 9.41016 16.127C9.49429 16.1823 9.55392 16.2526 9.60352 16.3145C9.64778 16.2955 9.69252 16.2734 9.73828 16.25L9.99023 16.1504C10.0766 16.125 10.166 16.1051 10.2598 16.0977C10.3556 16.0902 10.4441 16.1023 10.5234 16.1211C10.5422 16.1093 10.5555 16.0849 10.5762 16.0742C10.7275 15.9962 10.921 15.9577 11.1211 16.0039C11.1564 16.0121 11.1837 16.0391 11.2148 16.0508C11.3218 15.9581 11.4651 15.866 11.6602 15.8398L12.0293 15.875C12.1332 15.9102 12.2206 15.9628 12.2871 16.0156C12.3743 16.0853 12.4296 16.1721 12.4746 16.2383C12.5683 16.1894 12.6826 16.1485 12.8203 16.1445C12.8978 16.1425 12.9667 16.158 13.0312 16.1738C13.125 16.0615 13.2682 15.9284 13.4824 15.8691L13.7695 15.8398C14.035 15.8601 14.2359 16.0076 14.3438 16.1211V16.127C14.4618 16.1331 14.5646 16.155 14.6543 16.1973C14.6964 16.1926 14.7382 16.1724 14.7832 16.1738C14.8244 16.1751 14.8621 16.1969 14.9004 16.2031C15.0617 16.1371 15.2605 16.1069 15.4863 16.1855C15.5869 16.2207 15.6682 16.2766 15.7383 16.332C15.8346 16.2129 16.0472 15.9985 16.3887 15.9746C16.5891 15.9608 16.7479 16.0294 16.875 16.1035C16.9207 16.1053 16.968 16.0934 17.0156 16.1035C17.1093 16.1237 17.188 16.164 17.2559 16.2031C17.3476 16.1542 17.4551 16.1134 17.584 16.1035C17.7428 16.0915 17.871 16.1348 17.9824 16.1855C18.0585 16.1542 18.144 16.1288 18.2402 16.1211C18.2972 16.1165 18.3514 16.1267 18.4043 16.1328C18.5365 16.038 18.7331 15.957 18.9727 15.9805C19.059 15.9413 19.1568 15.9058 19.2715 15.8984C19.4482 15.8875 19.5969 15.9366 19.7168 15.998C19.7902 15.9975 19.8668 16.005 19.9453 16.0273C20.0052 16.0444 20.0496 16.0838 20.0977 16.1094C20.1883 16.0542 20.2944 16.003 20.4258 15.9863C20.6589 15.9568 20.8453 16.021 20.9824 16.1094L21.2461 16.3672L21.457 16.6895L21.5566 16.6367L21.6562 16.8184L21.75 16.9883V17.1816C21.75 17.2307 21.7496 17.3561 21.7031 17.4922Z" fill="#4F4F4F"/>
</svg>
