<svg width="80" height="80" viewBox="0 0 80 80" fill="none" xmlns="http://www.w3.org/2000/svg">
<path d="M13.2803 78C12.63 77.5947 12.1928 77.2805 12.0927 76.4438C11.9019 74.8504 11.9853 70.7711 12.5337 69.3079C13.3544 67.1177 15.8684 65.3421 18.212 65.3569L18.4565 65.158V62.3375L18.2342 62.1143H13.2062C13.0617 62.1143 12.4336 61.538 12.3317 61.3595C11.7852 60.3982 12.3076 59.4165 13.2766 59.067L35.8268 59.0094C37.0402 59.106 37.6868 60.3685 37.0773 61.4264C36.9735 61.6049 36.4326 62.1143 36.2844 62.1143H31.034V65.3811C37.3533 64.8661 45.1214 66.8611 50.6682 63.189C56.4447 59.3645 57.9786 51.457 54.1437 45.6784C52.8839 43.7782 51.2592 42.4507 49.2768 41.363C46.1218 43.4509 42.2091 43.8135 38.8873 41.8408C38.5353 41.6326 37.3422 40.5839 37.1069 40.7457C36.0954 42.6645 35.2543 45.0592 34.1112 46.8702C33.3479 48.0805 32.8644 48.0861 31.5268 47.5934C29.5945 46.8832 24.3571 44.2709 22.649 43.1423C22.021 42.7277 21.3818 42.1178 21.6004 41.2942L34.4039 15.3982C34.7819 14.7902 35.0672 14.3905 35.849 14.3217C36.1065 14.2994 36.4029 14.5541 36.6512 14.3979C36.7623 14.3273 37.7646 12.3211 37.8665 12.0441C38.137 11.3041 37.8443 11.6313 37.5608 11.2539C37.1903 10.7574 37.1477 10.2833 37.2755 9.66977C37.4033 9.05621 40.1582 3.60482 40.6158 2.92804C41.0475 2.28845 41.7329 1.78459 42.5407 2.09323C45.4271 3.80562 49.4028 5.04575 52.1373 6.86227C52.8858 7.35869 53.1877 7.77517 53.0358 8.71039C52.9321 9.35369 50.1291 14.9929 49.6437 15.6994C49.0638 16.5417 48.4469 16.7313 47.4576 16.3948L46.1274 19.3473C48.1875 20.5093 45.7291 22.8558 45.3771 24.4082C47.0611 24.6072 49.0471 25.6726 50.2624 26.8532C50.6608 27.2399 51.4741 28.573 51.6945 28.7199C52.0428 28.9523 53.1081 29.1959 53.612 29.4301C64.6092 34.519 70.897 45.5835 68.3533 57.786C67.7475 60.6976 66.5118 63.2652 65.1854 65.8868C66.7064 66.6287 67.8902 67.8298 68.4775 69.4362C68.9907 70.8418 69.1166 75.0754 68.8851 76.5776C68.7702 77.3232 68.2811 77.6281 67.7105 77.9981H13.2803V78ZM49.3732 8.97068L42.7185 5.70208L40.9345 9.49872C40.9104 9.71625 41.5755 9.98585 41.6737 10.5343C41.7867 11.1646 41.5718 11.5885 41.3624 12.137C41.053 12.9495 38.8873 17.3337 38.4297 17.7613C37.948 18.2113 37.3441 18.2522 36.7364 18.0458L25.2742 40.8126L31.6176 44.0905L31.9881 44.0031L35.1005 37.7764C32.4846 32.1038 35.8027 25.6168 41.8367 24.3041L43.304 21.359C42.6278 21.0374 42.3425 20.3587 42.4499 19.6169C42.5296 19.074 45.1344 13.8569 45.5475 13.3679C46.1181 12.6911 46.748 12.6018 47.5835 12.8157L49.3713 8.96697L49.3732 8.97068ZM42.5296 27.4128C35.1357 28.4801 35.975 40.3906 43.9709 39.9927C52.5041 39.5688 51.5241 26.1132 42.5296 27.4128ZM53.071 65.3811H61.5764C67.5326 57.4122 66.9509 46.0093 60.6112 38.4402C58.6104 36.051 55.9482 33.9352 53.071 32.7211V35.0228C53.071 35.2144 52.7246 36.3727 52.632 36.6609C52.3596 37.5068 51.8687 38.1929 51.5797 39.011C58.8086 43.2334 61.5783 52.5391 57.5859 60.0394C56.4521 62.1701 54.8255 63.7784 53.071 65.3811ZM21.5634 65.3811H27.703L27.9253 65.158V62.3375L27.703 62.1143H21.5634V65.3811ZM15.2033 71.5409C15.0903 72.5114 15.2867 73.6642 15.2033 74.6589L15.4256 74.882H65.5707L65.793 74.6589V71.5409C65.793 71.4237 65.5022 70.4569 65.4262 70.2766C65.039 69.373 63.8793 68.6069 62.9085 68.4972L18.3769 68.4917C16.6687 68.5196 15.3941 69.9047 15.2033 71.5409Z" fill="#4F4F4F"/>
<path d="M21.5637 65.3813V62.1146H27.7015L27.9238 62.3377V65.1582L27.7015 65.3813H21.5637Z" fill="#4F4F4F"/>
</svg>
