<svg width="80" height="80" viewBox="0 0 80 80" fill="none" xmlns="http://www.w3.org/2000/svg">
<path d="M8.97664 78.002H8.8282C8.66591 77.5487 7.19737 76.6344 7.40914 76.2227C7.62091 75.811 9.73664 73.9585 10.2433 73.5528C15.6068 69.2501 19.2782 69.8993 25.6749 69.539C35.6162 68.9809 46.5254 66.5347 54.5351 60.3993C55.5306 59.6373 56.4054 58.711 57.4227 57.9728L58.8417 59.3919C58.913 59.7996 55.7146 62.3012 55.1882 62.6832C46.7431 68.8285 35.8339 71.1679 25.5343 71.7715C23.6007 71.8844 21.5424 71.6944 19.5929 71.916C15.2565 72.4088 11.7 74.6869 8.97664 78V78.002Z" fill="#4F4F4F"/>
<path d="M77.9999 8.8301V8.97854C75.9377 10.7598 74.1623 12.7251 73.0758 15.2604C71.3598 19.2682 71.9358 23.6442 71.6152 27.9013C70.8176 38.5196 67.6489 49.7038 60.5576 57.8105L58.994 56.2549C65.6678 48.4075 68.6306 37.9179 69.3886 27.7529C69.9527 20.1727 68.7909 15.4267 74.3603 9.27146C74.6334 8.96864 76.003 7.51989 76.2187 7.40906C76.6304 7.19729 77.5467 8.66385 77.998 8.82812L77.9999 8.8301Z" fill="#4F4F4F"/>
<path d="M71.1719 2.00198C71.3342 2.45521 72.8027 3.36958 72.591 3.78125C72.4801 3.99896 71.0314 5.36656 70.7286 5.63969C63.7698 11.9354 56.6567 9.93646 48.1106 11.0765C44.9974 11.4921 41.9416 12.2244 38.9055 12.9962L38.2168 10.9082C43.4952 9.39021 48.9736 8.54906 54.4657 8.22844C56.3994 8.11562 58.4577 8.30562 60.4072 8.08396C64.7475 7.59114 68.3021 5.31114 71.0235 2H71.1719V2.00198Z" fill="#4F4F4F"/>
<path d="M2 71.0254C2.83719 70.2258 3.8525 69.3787 4.59865 68.5039C9.37041 62.9088 7.89594 55.9699 8.6975 49.1497C9.09927 45.7376 9.73656 42.3037 10.7499 39.0243L12.8379 39.6418C12.0839 42.4185 11.4584 45.2547 11.0745 48.1126C9.92458 56.6943 11.9414 63.7203 5.63771 70.7305C5.36854 71.0294 3.99302 72.4821 3.77927 72.5929C3.3676 72.8047 2.45125 71.3381 2 71.1738L2 71.0254Z" fill="#4F4F4F"/>
<path d="M66.402 13.5999C66.7167 15.0368 66.6514 16.5033 66.7207 17.956C67.5994 36.1782 62.4318 55.0575 44.3007 62.6318C34.8165 66.594 23.7668 67.5045 13.5999 66.4001C13.2852 64.9632 13.3505 63.4966 13.2812 62.0439C12.4005 43.802 17.5641 24.9583 35.7012 17.3682C45.1577 13.4099 56.2786 12.4916 66.402 13.5999ZM55.1406 15.5118C43.2834 16.1174 30.3773 19.7234 23.1949 29.8013C18.0233 37.057 15.9729 46.3432 15.5098 55.1426L18.2588 47.4298C24.0875 33.4984 33.4826 24.0756 47.4258 18.2608L55.1386 15.5118H55.1406ZM62.8593 17.1426C55.58 20.7051 48.8112 25.3106 42.5986 30.498L41.2152 28.792C43.6832 26.5436 46.4639 24.6397 49.1556 22.6605L57.5868 17.2871C46.1077 20.0975 34.9254 26.126 27.6203 35.5627C22.6862 41.9356 19.1396 49.8265 17.289 57.664L20.6398 52.1857C25.3403 45.1062 30.7038 38.2128 36.9521 32.4277C37.3103 32.0952 39.0064 30.5119 39.2637 30.4208C39.7585 30.2486 40.5185 31.6103 40.8807 31.9111C33.4014 38.4721 26.9553 46.2739 21.6788 54.7091C20.0322 57.3395 18.437 60.039 17.1406 62.8594C34.8997 54.056 49.4228 40.2652 59.564 23.2721C60.7495 21.287 61.9172 19.2504 62.8574 17.1406L62.8593 17.1426ZM64.3457 24.8613C61.0682 37.0253 54.1371 48.5658 43.61 55.7165C43.3388 55.7601 42.1988 54.1392 42.2899 53.9492C52.0036 47.3506 58.4537 36.8254 61.8599 25.7144C62.131 24.8336 62.5328 23.6996 62.6733 22.8169C62.699 22.6585 62.8316 22.3003 62.5644 22.3359C54.8021 36.4672 43.6515 48.6588 30.31 57.6957L22.3359 62.7089C28.7207 61.3077 34.7196 58.5487 40.3503 55.3088L41.4962 57.1297C36.3504 60.3003 30.7434 62.8574 24.8593 64.3457C24.8593 64.605 25.5105 64.51 25.6807 64.4981C37.2845 63.7341 49.7671 60.0173 56.8051 50.2006C61.6283 43.4714 64.1161 33.7537 64.4981 25.5343C64.506 25.372 64.597 24.8336 64.3437 24.8613H64.3457Z" fill="#4F4F4F"/>
<path d="M13.5781 37.4785L11.3516 36.8828C14.639 26.0785 21.7501 17.7502 32.0794 13.1546C32.5405 12.9487 35.818 11.599 35.9942 11.7118L36.673 13.7345C25.4749 17.3603 16.727 26.0746 13.5761 37.4785H13.5781Z" fill="#4F4F4F"/>
<path d="M43.509 34.965C43.6634 34.9373 45.1537 36.2653 44.9815 36.5859L36.291 44.9835C36.0654 44.6233 34.8225 43.798 35.0184 43.418L43.509 34.967V34.965Z" fill="#4F4F4F"/>
<path d="M50.3371 28.1369C50.5331 28.1032 51.8967 29.4807 51.865 29.6648L50.3173 31.2402L48.7617 29.6846L50.3371 28.1369Z" fill="#4F4F4F"/>
<path d="M47.0715 31.4025C47.2674 31.3689 48.6311 32.7463 48.5994 32.9304L47.0517 34.5058L45.4961 32.9502L47.0715 31.4025Z" fill="#4F4F4F"/>
<path d="M32.9502 45.4961L34.5058 47.0518L32.8215 48.5995C32.5761 48.3402 31.357 47.3249 31.4025 47.0715L32.9502 45.4961Z" fill="#4F4F4F"/>
<path d="M29.6846 48.7618L31.2402 50.3174L29.5559 51.8651C29.3105 51.6058 28.0913 50.5905 28.1369 50.3372L29.6846 48.7618Z" fill="#4F4F4F"/>
</svg>
