<svg width="80" height="80" viewBox="0 0 80 80" fill="none" xmlns="http://www.w3.org/2000/svg">
<path d="M35.9942 2C36.861 2.56406 36.6038 3.52792 36.8017 4.38292C36.9224 4.90542 37.0708 5.32896 37.3004 5.81385C37.5082 6.24927 39.6972 9.79594 39.9288 9.86917C40.1999 9.95427 40.1306 9.76031 40.192 9.68115C41.1895 8.37094 42.8401 5.94646 43.2003 4.3849C43.3982 3.52792 43.1429 2.56604 44.0078 2.00198H44.8984C45.698 2.51062 45.5733 3.68625 45.4546 4.56104C44.9974 7.89594 41.4488 10.2511 41.1835 13.3525C40.8016 17.7819 41.3062 22.2528 45.6881 24.4438C50.4421 26.8188 54.7013 24.4141 57.7413 20.7071C59.6868 18.336 59.2454 15.5355 60.2647 12.8399C60.6783 11.7474 62.1469 9.08146 63.5363 9.86323C64.9256 10.645 63.4967 11.6524 63.0929 12.2541C61.8005 14.1778 61.8084 16.5924 61.2285 18.7754C63.4116 18.1955 65.8262 18.2034 67.7499 16.911C68.3595 16.5014 68.6801 15.6068 69.6855 16.0343C71.1184 16.6399 69.8557 18.1045 69.0819 18.6903C66.1032 20.9386 62.1113 19.9352 59.2969 22.2647C55.6611 25.271 53.2466 29.3877 55.4573 34.1239C57.4939 38.4879 62.6634 39.6101 67.0532 38.7808C69.7805 38.2663 71.8309 35.4855 74.6216 34.771C75.6666 34.5039 77.3073 34.1041 78 35.1075V35.9981C77.4063 36.9046 76.4879 36.6176 75.6171 36.8056C75.0985 36.9184 74.6631 37.0768 74.1861 37.3044C73.7507 37.5122 70.2041 39.7011 70.1308 39.9327C70.0457 40.2039 70.2397 40.1346 70.3189 40.1959C71.5974 41.1677 74.0951 42.8757 75.6151 43.2043C76.4958 43.3963 77.4023 43.1073 77.998 44.0118V44.9024C77.2717 45.9335 75.5775 45.4902 74.5068 45.2013C71.6726 44.4393 69.5094 41.4329 66.6475 41.1855C62.1568 40.7996 57.5671 41.3538 55.4533 45.8841C53.2584 50.5866 55.6136 54.6676 59.2177 57.67C62.1291 60.0965 66.0716 59.0435 69.0799 61.3156C69.8538 61.8995 71.1145 63.3641 69.6835 63.9717C68.6781 64.3972 68.3575 63.5046 67.7479 63.0949C65.8242 61.8025 63.4096 61.8104 61.2266 61.2305C61.8065 63.4116 61.7985 65.8281 63.0909 67.7519C63.4947 68.3535 64.9039 69.3748 63.5343 70.1427C62.1647 70.9106 60.6764 68.2566 60.2627 67.166C59.2434 64.4704 59.6848 61.6699 57.7393 59.2989C54.6993 55.5919 50.4401 53.1872 45.6861 55.5622C41.3043 57.7531 40.7996 62.2241 41.1816 66.6534C41.4488 69.7528 44.9954 72.11 45.4526 75.4449C45.5733 76.3197 45.698 77.4953 44.8965 78.004H44.0058C43.139 77.4399 43.3962 76.476 43.1983 75.621C43.0776 75.0985 42.9292 74.675 42.6996 74.1901C42.4918 73.7547 40.3028 70.208 40.0713 70.1348C39.8001 70.0497 39.8694 70.2436 39.808 70.3228C38.8105 71.633 37.1599 74.0575 36.7997 75.6191C36.6018 76.476 36.8571 77.4379 35.9922 78.002H35.1016C34.296 77.4874 34.4326 76.3256 34.5454 75.4429C34.9709 72.1199 38.5493 69.7726 38.8184 66.6515C39.2004 62.2221 38.6957 57.7511 34.3139 55.5602C29.5401 53.1753 25.3205 55.5978 22.2607 59.2969C20.3132 61.6501 20.7566 64.4724 19.7373 67.1641C19.3236 68.2566 17.8551 70.9225 16.4657 70.1407C15.0764 69.359 16.5053 68.3516 16.9091 67.7499C18.2015 65.8261 18.1935 63.4116 18.7734 61.2285C16.5904 61.8084 14.1758 61.8005 12.2521 63.0929C11.6425 63.5026 11.3219 64.3972 10.3165 63.9697C8.88354 63.3641 10.1463 61.8995 10.9201 61.3136C13.9284 59.0416 17.869 60.0945 20.7823 57.668C24.3626 54.6854 26.6941 50.6736 24.5922 45.983C22.5279 41.3735 17.8709 40.7917 13.3505 41.1816C10.5223 41.425 8.29969 44.4412 5.49125 45.1973C4.42052 45.4843 2.72635 45.9276 2 44.8984V44.0078C2.59375 43.1014 3.51208 43.3883 4.38292 43.2003C4.90146 43.0875 5.33688 42.9292 5.81385 42.7016C6.24927 42.4937 9.79594 40.3048 9.86917 40.0732C9.95427 39.8021 9.76031 39.8714 9.68115 39.81C8.4026 38.8382 5.9049 37.1302 4.3849 36.8017C3.50417 36.6097 2.59771 36.8986 2.00198 35.9942V35.1035C2.64125 34.1535 4.15531 34.4761 5.15083 34.7018C8.08396 35.3628 10.1502 38.2484 12.9507 38.7769C17.8808 39.7071 23.7194 38.0881 25.0533 32.6969C26.1478 28.2655 24.0044 24.9643 20.7091 22.2627C18.338 20.3172 15.5375 20.7585 12.8419 19.7393C11.7494 19.3256 9.08344 17.8571 9.86521 16.4677C10.647 15.0783 11.6544 16.5073 12.256 16.911C14.1798 18.2034 16.5944 18.1955 18.7774 18.7754C18.1975 16.5924 18.2054 14.1778 16.913 12.2541C16.5033 11.6445 15.6088 11.3239 16.0363 10.3184C16.6419 8.88552 18.1065 10.1482 18.6923 10.9221C20.9644 13.9304 19.9115 17.8709 22.3379 20.7843C25.3205 24.3646 29.3323 26.696 34.0229 24.5942C38.6324 22.5299 39.2143 17.8729 38.8244 13.3525C38.5809 10.5243 35.5647 8.30167 34.8086 5.49323C34.5217 4.4225 34.0783 2.72833 35.1075 2.00198H35.9981L35.9942 2ZM40.1484 21.7422C39.7526 21.6472 39.7427 22.2093 39.527 22.5299C36.6631 26.7851 32.0992 28.509 27.0879 27.0859C28.3368 31.2936 27.1394 35.8457 23.7431 38.6581C23.3532 38.9807 21.7798 39.814 21.7422 39.9268C21.6531 40.192 21.8431 40.1267 21.9342 40.1841C22.5734 40.5779 23.1375 40.8372 23.7431 41.3399C27.1394 44.1563 28.3368 48.7024 27.0879 52.9121C31.2976 51.6533 35.8477 52.8626 38.6601 56.2569C38.9827 56.6468 39.8159 58.2202 39.9288 58.2578C40.194 58.3469 40.1286 58.1569 40.186 58.0658C40.5799 57.4266 40.8392 56.8625 41.3419 56.2569C44.1483 52.8725 48.7182 51.6514 52.9141 52.9121C51.6553 48.7024 52.8646 44.1523 56.2589 41.3399C56.6488 41.0173 58.2222 40.1841 58.2598 40.0713C58.3489 39.806 58.1589 39.8714 58.0678 39.814C57.4285 39.4201 56.8645 39.1608 56.2589 38.6581C52.8626 35.8418 51.6553 31.2976 52.9141 27.0859C48.0235 28.6158 42.2681 26.4863 40.1465 21.7422H40.1484Z" fill="#4F4F4F"/>
<path d="M47.8177 47.9642C38.8007 56.817 24.329 45.8207 30.029 35.0006C30.4763 34.1535 31.076 33.0749 32.1942 33.7815C33.2135 34.4267 31.8281 36.3385 31.5391 37.2529C28.8158 45.8781 39.1351 52.6489 45.8702 46.6856C53.2506 40.1484 46.2582 28.216 36.5919 31.7667C35.8438 32.0418 34.0032 33.4153 33.6528 31.8815C33.3916 30.7355 34.399 30.3021 35.2995 29.8825C46.4897 24.6496 56.6943 39.2519 47.8177 47.9681V47.9642Z" fill="#4F4F4F"/>
<path d="M39.2261 33.3619C48.2333 32.3743 49.3357 46.0167 40.5185 46.6777C31.8774 47.3249 30.7097 34.296 39.2261 33.3619ZM39.3725 35.5865C33.7517 36.3227 34.6483 45.0409 40.5066 44.4373C46.2858 43.8416 45.3951 34.7968 39.3725 35.5865Z" fill="#4F4F4F"/>
</svg>
