<svg width="80" height="80" viewBox="0 0 80 80" fill="none" xmlns="http://www.w3.org/2000/svg">
<path d="M37.5499 7.5335C41.539 6.15679 46.3606 6.34632 52.0694 7.69659L52.0684 7.69756L57.6309 8.99541L57.6319 8.99639C64.7837 10.6691 69.8975 13.3651 72.6661 17.8274C75.4347 22.2898 75.5762 28.0645 73.9034 35.1995L70.6368 49.1292L70.6377 49.1302C69.2023 55.2989 67.001 59.9515 63.5547 62.9007C60.0553 65.8954 55.5525 66.9004 50.0606 66.3773V66.3782C48.2875 66.2364 46.3958 65.9191 44.3897 65.4349V65.4339L38.795 64.1028V64.1019C31.6786 62.4122 26.5768 59.716 23.8096 55.261C21.0412 50.8037 20.8893 45.0377 22.5626 37.9007L25.8292 23.9349L25.8301 23.9329C26.5138 21.0272 27.3507 18.422 28.4297 16.2278C30.535 11.8785 33.4826 8.9372 37.5499 7.5335ZM51.2637 11.1028C45.8393 9.81984 41.7772 9.77716 38.6915 10.8421C35.6872 11.879 33.3696 14.0507 31.5752 17.762L31.5704 17.7728C30.6499 19.6445 29.8858 21.9714 29.2364 24.7308L29.2374 24.7317L25.9708 38.6985V38.6995C24.3774 45.4958 24.7424 50.1301 26.7823 53.4144C28.8234 56.7006 32.8216 59.0872 39.6045 60.6976H39.6055L45.2051 62.0306L45.211 62.0325C46.8385 62.4254 48.3498 62.6904 49.7471 62.8343L50.3399 62.889L50.3672 62.8909C55.2623 63.3616 58.7172 62.4331 61.2784 60.2415C63.8987 57.9991 65.864 54.2014 67.2286 48.3372L67.2295 48.3343L70.4961 34.4007C72.09 27.6023 71.7322 22.9598 69.6924 19.6722C67.6527 16.3847 63.6496 13.9975 56.835 12.4036V12.4046L51.2686 11.1038L51.2637 11.1028Z" fill="#4F4F4F"/>
<path d="M29.6746 15.2803C30.326 15.157 30.9909 15.4129 31.3924 15.9404C31.7938 16.4681 31.8627 17.1775 31.5701 17.7725C30.6492 19.6449 29.8867 21.9735 29.2371 24.7344L29.2361 24.7334L25.9705 38.6983V38.6992C24.3772 45.4953 24.7423 50.1298 26.782 53.4141C28.8231 56.7004 32.8213 59.0869 39.6043 60.6973H39.6053L45.2049 62.0313L45.2107 62.0322C47.0711 62.4813 48.7796 62.7639 50.3396 62.8887C51.0803 62.948 51.7029 63.4691 51.8924 64.1875C52.0816 64.9059 51.7965 65.6654 51.1814 66.082C48.932 67.6059 46.1661 68.8349 42.9099 69.8975L42.909 69.8965L37.6472 71.6289L37.6365 71.6318C30.8574 73.8175 25.2519 74.1478 20.7029 71.8203C16.1545 69.4931 13.1378 64.7527 10.9353 57.9746V57.9727L6.66873 44.8057L6.66776 44.8037C4.48255 38.0262 4.14347 32.4132 6.46072 27.8604C8.77832 23.3071 13.5097 20.2908 20.2859 18.1045L25.5525 16.3711C25.5586 16.3691 25.565 16.3672 25.5711 16.3652C26.9642 15.9235 28.3406 15.5327 29.6746 15.2803ZM26.6472 19.6953L21.3806 21.4287L21.3699 21.4326C14.9186 23.5127 11.2704 26.1289 9.58084 29.4483C7.89007 32.77 7.91712 37.2731 9.99783 43.7275L14.2644 56.8926L14.4627 57.4893C16.5261 63.5739 19.0824 67.0593 22.2967 68.7041C25.5106 70.3485 29.8292 70.3817 35.9637 68.4902L36.5633 68.3008L41.8191 66.5713L41.824 66.5693C42.8639 66.23 43.8298 65.8778 44.7263 65.5127C44.6145 65.4866 44.502 65.4617 44.3894 65.4346V65.4336L38.7947 64.1025V64.1016C31.6783 62.4119 26.5764 59.7159 23.8094 55.2607C21.041 50.8036 20.8892 45.0381 22.5623 37.9014L25.8289 23.9346L25.8299 23.9326C26.1938 22.386 26.603 20.9251 27.0672 19.5654C26.9286 19.6083 26.7884 19.6506 26.6472 19.6953Z" fill="#4F4F4F"/>
<path d="M40.4369 28.0027C40.6747 27.0661 41.6272 26.4995 42.5639 26.737L58.7299 30.8367C59.6667 31.0742 60.2341 32.0268 59.9965 32.9636C59.7589 33.9004 58.8064 34.4668 57.8696 34.2292L41.7026 30.1296C40.766 29.8918 40.1994 28.9394 40.4369 28.0027Z" fill="#4F4F4F"/>
<path d="M37.1715 40.9007C37.4104 39.9642 38.3629 39.3991 39.2994 39.638L48.9664 42.1048C49.9027 42.3439 50.468 43.2964 50.2291 44.2328C49.9901 45.1691 49.0375 45.7342 48.1012 45.4954L38.4342 43.0286C37.4977 42.7897 36.9325 41.8372 37.1715 40.9007Z" fill="#4F4F4F"/>
</svg>
