<svg width="80" height="80" viewBox="0 0 80 80" fill="none" xmlns="http://www.w3.org/2000/svg">
<g clip-path="url(#clip0_471_538)">
<path d="M23.75 36C23.75 35.0335 24.5335 34.25 25.5 34.25C26.4665 34.25 27.25 35.0335 27.25 36C27.25 42.7192 32.8885 48.25 40 48.25C47.1115 48.25 52.75 42.7191 52.75 36C52.75 35.0335 53.5335 34.25 54.5 34.25C55.4665 34.25 56.25 35.0335 56.25 36C56.25 44.7669 48.9277 51.75 40 51.75C31.0723 51.75 23.75 44.7669 23.75 36Z" fill="#4F4F4F"/>
<path d="M40.0004 10.6523C52.5086 10.6525 63.9735 18.0256 71.8422 30.3945L72.1537 30.9092C73.6613 33.5298 74.3665 36.8042 74.3666 39.9854C74.3666 43.3785 73.5647 46.8784 71.8422 49.5771C63.9735 61.946 52.5085 69.3192 40.0004 69.3193C27.4919 69.3193 16.0264 61.9461 8.15759 49.5771C6.43508 46.8784 5.63318 43.3785 5.63318 39.9854C5.63323 36.5924 6.43524 33.0932 8.15759 30.3945C16.0264 18.0254 27.4919 10.6523 40.0004 10.6523ZM40.0004 14.1523C28.9759 14.1523 18.5076 20.6456 11.1097 32.2754L11.1088 32.2773C9.83145 34.2785 9.13323 37.0787 9.13318 39.9854C9.13318 42.7104 9.74626 45.3423 10.8754 47.3096L11.1088 47.6943L11.1097 47.6963C18.5076 59.3261 28.9759 65.8193 40.0004 65.8193C51.0245 65.8192 61.4923 59.3259 68.89 47.6963L68.892 47.6943C70.1693 45.6931 70.8666 42.8921 70.8666 39.9854C70.8665 37.0788 70.1692 34.2785 68.892 32.2773L68.89 32.2754C61.4923 20.6457 51.0245 14.1525 40.0004 14.1523Z" fill="#4F4F4F"/>
<path d="M40 32.25C47.0753 32.25 55.3838 34.0515 61.8369 35.8115C65.0815 36.6965 67.8929 37.5814 69.8945 38.2451C70.8956 38.5771 71.6958 38.854 72.2471 39.0488C72.5225 39.1462 72.7362 39.2235 72.8818 39.2764C72.9544 39.3027 73.0107 39.3229 73.0488 39.3369C73.0678 39.3439 73.0826 39.3498 73.0928 39.3535C73.0976 39.3553 73.1017 39.3564 73.1045 39.3574C73.1059 39.3579 73.1076 39.3591 73.1084 39.3594H73.1094L71.8906 42.6406L71.8887 42.6396C71.887 42.639 71.8837 42.6381 71.8799 42.6367C71.8718 42.6337 71.8588 42.6283 71.8418 42.6221C71.8079 42.6096 71.7565 42.5911 71.6885 42.5664C71.5517 42.5168 71.3469 42.4436 71.0811 42.3496C70.5491 42.1616 69.7706 41.8916 68.793 41.5674C66.8369 40.9187 64.087 40.0534 60.916 39.1885C54.5366 37.4485 46.5944 35.75 40 35.75C33.4056 35.75 25.4634 37.4485 19.084 39.1885C15.913 40.0534 13.1631 40.9187 11.207 41.5674C10.2294 41.8916 9.45087 42.1616 8.91895 42.3496C8.65307 42.4436 8.44833 42.5168 8.31152 42.5664C8.24349 42.5911 8.19208 42.6096 8.1582 42.6221C8.14124 42.6283 8.12818 42.6337 8.12012 42.6367C8.11627 42.6381 8.11305 42.639 8.11133 42.6396L8.11035 42.6406H8.10938L6.89062 39.3594H6.8916C6.89243 39.3591 6.89411 39.3579 6.89551 39.3574C6.89828 39.3564 6.9024 39.3553 6.90723 39.3535C6.91736 39.3498 6.93221 39.3439 6.95117 39.3369C6.98932 39.3229 7.04557 39.3027 7.11816 39.2764C7.26383 39.2235 7.47751 39.1462 7.75293 39.0488C8.30417 38.854 9.10439 38.5771 10.1055 38.2451C12.1071 37.5814 14.9185 36.6965 18.1631 35.8115C24.6162 34.0515 32.9247 32.25 40 32.25Z" fill="#4F4F4F"/>
</g>
<defs>
<clipPath id="clip0_471_538">
<rect width="80" height="80" fill="white"/>
</clipPath>
</defs>
</svg>
