<svg width="81" height="81" viewBox="0 0 81 81" fill="none" xmlns="http://www.w3.org/2000/svg">
<path d="M49.7543 28.2882C50.4377 27.6049 51.5455 27.6048 52.2289 28.2882C52.9123 28.9717 52.9123 30.0794 52.2289 30.7629L30.4291 52.5627C29.7456 53.2461 28.6379 53.2461 27.9544 52.5627C27.271 51.8793 27.271 50.7715 27.9544 50.0881L49.7543 28.2882Z" fill="#4F4F4F"/>
<path d="M32.9084 30.8908C32.9082 29.5931 31.8556 28.5412 30.5579 28.5412C29.2603 28.5414 28.2085 29.5933 28.2083 30.8908C28.2083 32.1884 29.26 33.2412 30.5579 33.2414C31.8558 33.2414 32.9084 32.1886 32.9084 30.8908ZM36.4084 30.8908C36.4084 34.1218 33.7886 36.7414 30.5579 36.7414C27.3273 36.7412 24.7083 34.1217 24.7083 30.8908C24.7085 27.6603 27.3273 25.0414 30.5579 25.0412C33.7886 25.0412 36.4082 27.6602 36.4084 30.8908Z" fill="#4F4F4F"/>
<path d="M54.7083 49.9566C54.708 48.6589 53.6554 47.607 52.3577 47.607C51.0601 47.6072 50.0083 48.6591 50.0081 49.9566C50.0081 51.2543 51.06 52.307 52.3577 52.3072C53.6555 52.3072 54.7083 51.2544 54.7083 49.9566ZM58.2083 49.9566C58.2083 53.1874 55.5885 55.8072 52.3577 55.8072C49.127 55.807 46.5081 53.1873 46.5081 49.9566C46.5083 46.7261 49.1271 44.1072 52.3577 44.107C55.5884 44.107 58.208 46.726 58.2083 49.9566Z" fill="#4F4F4F"/>
<path d="M72.2085 40.4237C72.2083 22.9808 58.0672 8.84067 40.6245 8.84067C23.1818 8.84084 9.04168 22.9809 9.0415 40.4237C9.0415 57.8664 23.1817 72.0075 40.6245 72.0077C58.0673 72.0077 72.2085 57.8665 72.2085 40.4237ZM75.7085 40.4237C75.7085 59.7995 60.0003 75.5077 40.6245 75.5077C21.2487 75.5075 5.5415 59.7994 5.5415 40.4237C5.54168 21.0479 21.2488 5.34084 40.6245 5.34067C60.0002 5.34067 75.7083 21.0478 75.7085 40.4237Z" fill="#4F4F4F"/>
</svg>
