<svg width="24" height="24" viewBox="0 0 24 24" fill="none" xmlns="http://www.w3.org/2000/svg">
<path d="M6.41992 2.52794C6.78345 2.43717 7.07278 2.60271 7.21094 2.70958C7.22608 2.72135 7.23167 2.74407 7.24609 2.75645C7.25612 2.75404 7.26514 2.74687 7.27539 2.74473L7.63867 2.73301C7.75599 2.74738 7.86781 2.78021 7.97266 2.82676C7.98596 2.83269 8.00052 2.83858 8.01367 2.84434C8.05721 2.80508 8.09371 2.75377 8.14844 2.7213C8.28675 2.63929 8.49366 2.57455 8.73438 2.62169C8.74201 2.619 8.74996 2.61248 8.75781 2.60997C8.95582 2.54705 9.20173 2.54923 9.42578 2.68028C9.57784 2.76982 9.66226 2.8961 9.71875 2.99083C9.90375 2.94966 10.1158 2.94835 10.3223 3.0377L10.5801 3.20176L10.7969 3.40684L10.8027 3.41856C10.8594 3.41585 10.9159 3.40771 10.9727 3.40684L11.3301 3.45372L11.6758 3.6295L11.9688 3.90489C12.0256 3.96994 12.0585 4.04302 12.0918 4.10997C12.1364 4.10616 12.1829 4.09521 12.2324 4.09825L12.6016 4.20372L12.8418 4.38536C13.0354 4.59191 13.0952 4.85062 13.1172 5.01231C13.1194 5.02917 13.1211 5.04449 13.123 5.05333C13.1436 5.08595 13.1641 5.11038 13.1816 5.1295C13.2012 5.15083 13.2208 5.17242 13.2402 5.19395C13.3819 5.21954 13.5213 5.26703 13.6504 5.35801C13.722 5.32392 13.7925 5.28775 13.8672 5.26426C14.0161 5.21749 14.2614 5.17757 14.5234 5.2877C14.7581 5.38633 14.8891 5.56526 14.9688 5.72716C15.0557 5.75475 15.1437 5.7814 15.2266 5.82091C15.4169 5.91182 15.5249 6.06027 15.6016 6.19591C15.7499 6.23555 15.8929 6.30386 16.0117 6.43028C16.1135 6.47808 16.2067 6.53619 16.293 6.60606C16.4655 6.56575 16.7202 6.54642 16.9668 6.74083C17.0885 6.837 17.1529 6.95462 17.1953 7.05137C17.3955 7.02091 17.6376 7.02703 17.875 7.17442C17.9063 7.1939 17.9422 7.21189 17.9805 7.22716C18.4388 7.40953 18.5125 7.84941 18.5195 8.01817C18.5214 8.06384 18.4993 8.10815 18.4961 8.15294L18.5078 8.16466C18.5611 8.17874 18.617 8.19132 18.6719 8.21739C18.6907 8.22638 18.7067 8.24251 18.7246 8.25255C18.7936 8.24477 18.8745 8.23947 18.959 8.25255C19.0771 8.27113 19.2306 8.32291 19.3691 8.44591C19.512 8.57279 19.584 8.73004 19.6152 8.86778C19.6205 8.89101 19.6121 8.91566 19.6152 8.93809C19.6674 8.97986 19.7285 9.01784 19.7734 9.07872C19.8127 9.13202 19.8264 9.19517 19.8496 9.24864C19.968 9.28213 20.1269 9.34887 20.2598 9.50059C20.4373 9.70372 20.4753 9.94222 20.459 10.1217C20.4491 10.2285 20.401 10.3127 20.3711 10.3854C20.4933 10.4642 20.6334 10.5703 20.7109 10.7486L20.7812 11.0357L20.7637 11.276C20.7363 11.4286 20.662 11.5514 20.5938 11.6627C20.614 11.6849 20.6389 11.7031 20.6582 11.7272L20.8516 12.0494L20.9629 12.3834C21.0167 12.5718 21.0089 12.8035 20.8926 13.0162C20.8639 13.0683 20.821 13.1051 20.7871 13.1451C20.7994 13.2315 20.8099 13.3272 20.7871 13.4322C20.7404 13.6459 20.6093 13.7816 20.4941 13.8775C20.418 14.0363 20.3089 14.1472 20.1895 14.235C20.145 14.3576 20.0748 14.4815 19.9551 14.5865C19.893 14.6406 19.8141 14.6605 19.75 14.692C19.7192 14.7437 19.6958 14.7962 19.6562 14.8385C19.6488 14.9937 19.6009 15.1883 19.4277 15.36C19.3631 15.424 19.2904 15.4606 19.2227 15.4947C19.2217 15.603 19.2083 15.7552 19.123 15.9107C18.999 16.1367 18.7888 16.2741 18.5723 16.3209C18.3392 16.3708 18.1154 16.3398 17.9219 16.2916C17.8438 16.3652 17.7596 16.431 17.6523 16.4732C17.6402 16.4888 17.6296 16.5074 17.6172 16.526C17.5027 16.6982 17.3274 16.8423 17.1016 16.9068C16.9534 16.9487 16.8152 16.9412 16.6973 16.9244C16.6461 17.0178 16.578 17.1234 16.4629 17.2057C16.2837 17.3336 16.0929 17.3478 15.9414 17.3404V17.3463C15.9336 17.5381 15.8848 17.9918 15.4668 18.2428C15.2547 18.3698 15.0446 18.3858 14.8633 18.36C14.8305 18.3797 14.8017 18.4081 14.7637 18.4244C14.6366 18.479 14.5158 18.4917 14.4062 18.4889C14.3859 18.5054 14.3698 18.5262 14.3477 18.5416L14.2656 18.7994C14.2207 18.8969 14.154 19.0009 14.0547 19.0924C13.8325 19.2967 13.5609 19.3384 13.3457 19.315C13.2832 19.3082 13.2234 19.289 13.1641 19.274C13.1099 19.4119 13.0159 19.5888 12.8066 19.7018C12.7589 19.7275 12.7064 19.734 12.6602 19.7486C12.6288 19.8076 12.5986 19.8732 12.5488 19.9303C12.3336 20.1766 12.0398 20.2851 11.752 20.2818C11.6617 20.2805 11.5809 20.256 11.5059 20.235C11.3487 20.4346 11.1204 20.5524 10.873 20.5514C10.7946 20.551 10.7251 20.5269 10.6621 20.5104C10.6531 20.5192 10.6423 20.5252 10.6328 20.5338C10.5703 20.7274 10.4729 20.9586 10.2637 21.1315C10.0735 21.2886 9.83044 21.3449 9.60156 21.3072C9.40957 21.2754 9.2692 21.1852 9.19141 21.1256C9.15009 21.0939 9.1226 21.0448 9.08594 21.0084C8.9152 21.0784 8.73731 21.1074 8.56445 21.0729C8.45046 21.0499 8.34642 21.0084 8.24805 20.9615C8.21021 20.9965 8.16029 21.0538 8.0957 21.1315C7.95066 21.3054 7.71098 21.5219 7.36328 21.5768C7.07978 21.621 6.85038 21.5334 6.67188 21.4068C6.57662 21.4084 6.47428 21.4036 6.36719 21.3658C6.20093 21.3071 6.08004 21.209 5.99219 21.108C5.8427 21.0565 5.70753 20.9641 5.59961 20.8268C5.24778 20.761 5.03112 20.5132 4.94336 20.2643C4.89799 20.1346 4.85891 20.0005 4.83203 19.8658C4.8164 19.7875 4.81739 19.7086 4.81445 19.6315C4.69953 19.5501 4.60209 19.4469 4.5332 19.3092C4.51676 19.3046 4.49681 19.3082 4.48047 19.3033C4.31687 19.2541 4.15978 19.1809 4.01172 19.0865C3.9005 19.0156 3.77671 18.9058 3.69531 18.7408C3.62758 18.6029 3.61504 18.463 3.61914 18.3365C3.55882 18.2989 3.48803 18.2657 3.43164 18.2076C3.19986 17.9677 3.14069 17.647 3.2207 17.3639L3.30859 17.1119C3.23496 16.9951 3.16984 16.8533 3.17383 16.6666C3.17737 16.5178 3.22921 16.3995 3.2793 16.3033C3.16461 16.1935 2.98479 15.9722 3.01562 15.6412C3.02104 15.5833 3.04162 15.5323 3.05664 15.483C3.04602 15.4536 3.01737 15.4278 3.00977 15.3951C2.96188 15.1876 3.01882 15.0138 3.08594 14.8736C3.02872 14.7658 2.97812 14.635 2.98633 14.4693C3.00092 14.1899 3.15401 14.0115 3.26172 13.9127C3.18441 13.8596 3.07547 13.7723 2.99219 13.6373C2.87681 13.4491 2.82644 13.1971 2.91602 12.94L3.06836 12.6588C3.07354 12.6523 3.08071 12.6475 3.08594 12.6412C3.07336 12.5592 3.06754 12.4759 3.08008 12.3893C3.03808 12.2469 3.00589 12.0644 3.08008 11.8619C3.09865 11.8117 3.12575 11.7687 3.15039 11.7272C3.15499 11.6827 3.15135 11.639 3.16211 11.5982C3.01766 11.4001 2.92534 11.1097 3.0332 10.7955C3.05191 10.7413 3.08962 10.7002 3.11523 10.6549C3.10551 10.6349 3.08278 10.6177 3.07422 10.5963C2.98673 10.3756 3.01108 10.1498 3.0918 9.94591C3.03317 9.84483 2.98451 9.71709 2.98047 9.55919C2.97964 9.52627 3.00112 9.49613 3.00391 9.46544C2.99733 9.44946 2.98039 9.43558 2.97461 9.41856C2.89804 9.19163 2.92418 8.96143 3.02148 8.77403C3.03898 8.74034 3.06611 8.71477 3.08594 8.68614C3.0074 8.57851 2.9199 8.42775 2.91602 8.22325C2.91299 8.05587 2.96597 7.92089 3.02734 7.81309C3.01446 7.76178 2.99427 7.70885 2.99219 7.64903C2.98614 7.47373 3.03503 7.31794 3.10938 7.19786C3.13304 7.15965 3.17067 7.13503 3.19727 7.10411C3.20354 7.06791 3.21622 7.03742 3.22656 7.0045C3.1607 6.8892 3.08138 6.72423 3.10352 6.51231C3.13747 6.19422 3.34077 6.00306 3.47266 5.91466L3.48438 5.9088C3.54123 5.67105 3.67854 5.50193 3.83008 5.39903C3.83805 5.34069 3.83808 5.27871 3.85938 5.21739L3.9707 4.99473C4.00359 4.9492 4.04401 4.91311 4.08203 4.87755C4.08224 4.73895 4.10653 4.56746 4.22266 4.40294C4.34423 4.23108 4.50384 4.14854 4.63281 4.10411C4.66861 3.98393 4.72573 3.86063 4.82617 3.74669L5.04883 3.56505C5.10103 3.536 5.15471 3.51671 5.20703 3.50059C5.24596 3.42819 5.30344 3.3533 5.38281 3.2838C5.52009 3.16361 5.67446 3.12345 5.81055 3.10801C5.87569 2.92624 6.03752 2.62477 6.41992 2.52794ZM8.70508 4.33262C8.60823 4.40577 8.45032 4.49368 8.24219 4.50841C8.01865 4.52421 7.82718 4.44428 7.68555 4.33848C7.66173 4.32067 7.6401 4.31483 7.62695 4.30919C7.61419 4.30399 7.59876 4.29691 7.58594 4.29161C7.52374 4.3327 7.45938 4.38373 7.375 4.4088C7.26591 4.44092 7.16393 4.44082 7.07031 4.43223C7.04995 4.46928 7.03916 4.51313 7.01172 4.54942C6.86982 4.73664 6.66237 4.83728 6.44336 4.85997C6.36164 4.94414 6.2677 5.02241 6.15039 5.06505C6.08736 5.08782 6.02523 5.09354 5.96875 5.1002C5.90945 5.19547 5.83895 5.26567 5.76367 5.32286C5.76238 5.37818 5.77282 5.43711 5.75781 5.49864C5.70563 5.71249 5.57197 5.84573 5.43555 5.94395C5.42179 6.09102 5.38302 6.24612 5.27148 6.38341C5.17435 6.50282 5.05702 6.56771 4.96094 6.61192C5.00274 6.68559 5.04273 6.77157 5.06055 6.87559C5.09052 7.05456 5.05871 7.24143 4.9668 7.40294C4.92436 7.47742 4.87513 7.5372 4.82617 7.58458C4.87812 7.69167 4.9195 7.82334 4.9082 7.98301C4.8931 8.18728 4.80615 8.33417 4.71484 8.44005C4.77853 8.56824 4.82792 8.72454 4.80859 8.90294C4.7929 9.04427 4.73612 9.15643 4.67969 9.24864C4.75609 9.31683 4.83972 9.41358 4.89648 9.54747C4.95753 9.69226 4.98164 9.8625 4.94336 10.0338C4.90673 10.1958 4.82303 10.3143 4.75586 10.3912C4.75137 10.3964 4.74283 10.398 4.73828 10.4029C4.76701 10.4993 4.78069 10.6066 4.77344 10.7252C4.76774 10.8151 4.74072 10.8961 4.71484 10.9713C4.81867 11.093 4.93985 11.3027 4.91992 11.5748C4.90151 11.8212 4.77356 11.9917 4.67969 12.0904C4.67614 12.113 4.6795 12.1374 4.67383 12.1607C4.66206 12.2092 4.6331 12.2482 4.61523 12.2897C4.62786 12.3051 4.65004 12.3136 4.66211 12.3307C4.77434 12.4894 4.85468 12.729 4.79102 12.9986H4.78516C4.79017 13.0034 4.79776 13.0055 4.80273 13.0104C4.92961 13.1354 5.11243 13.4102 5.02539 13.7779C5.00158 13.8777 4.95918 13.9604 4.91406 14.0299C4.95248 14.2338 4.92027 14.4014 4.84961 14.5397C4.85548 14.5554 4.86795 14.5699 4.87305 14.5865C4.93658 14.7947 4.90955 15.0064 4.82617 15.1842C4.81284 15.2126 4.78892 15.2342 4.77344 15.2604C4.78847 15.3162 4.80636 15.3758 4.80859 15.442C4.81156 15.5309 4.79342 15.6102 4.77344 15.6822C4.81185 15.774 4.84306 15.879 4.84375 15.9986C4.84383 16.0243 4.82828 16.0504 4.82617 16.0748C4.83251 16.0907 4.84406 16.1048 4.84961 16.1217C4.90799 16.2992 4.90418 16.4788 4.85547 16.6373L4.84375 16.649C4.92412 16.8569 4.91056 17.0645 4.84375 17.2525L4.91406 17.2877L5.07812 17.4342C5.12937 17.4931 5.17621 17.5633 5.21289 17.6451C5.25833 17.7466 5.2717 17.8486 5.27734 17.944C5.42087 17.9832 5.59786 18.0632 5.74023 18.2369C5.80868 18.3207 5.85067 18.4087 5.88086 18.4947C6.06254 18.5959 6.20618 18.7607 6.2793 18.9635C6.32857 19.1016 6.33143 19.2344 6.32617 19.3443C6.36544 19.36 6.4094 19.3678 6.44922 19.3912C6.63558 19.5013 6.74102 19.654 6.80078 19.7955C6.81158 19.802 6.82528 19.8061 6.83594 19.8131C6.86553 19.8326 6.88622 19.862 6.91211 19.8834C6.96959 19.8872 7.03263 19.8785 7.09375 19.8951C7.11944 19.9022 7.14013 19.9215 7.16406 19.9303C7.20423 19.8903 7.24581 19.8489 7.28711 19.8131L7.55078 19.6315C7.65354 19.5788 7.77134 19.5384 7.90234 19.5201C8.14786 19.4019 8.38574 19.4121 8.58789 19.4732C8.62418 19.4426 8.65754 19.4066 8.69922 19.3795C8.92852 19.2304 9.18127 19.2256 9.37305 19.2799C9.45366 19.3028 9.51425 19.3514 9.57227 19.3854C9.622 19.2644 9.70027 19.1267 9.8418 19.0162C9.98677 18.9035 10.1412 18.8536 10.2812 18.8404C10.3295 18.7444 10.3997 18.6453 10.5039 18.5592L10.7793 18.4068C11.0547 18.3183 11.3113 18.4021 11.418 18.4479C11.4348 18.4551 11.4484 18.4691 11.4648 18.4772C11.5414 18.3724 11.6555 18.2721 11.8164 18.2076C11.8358 18.1999 11.8559 18.196 11.875 18.19C11.93 18.0979 11.9986 18.001 12.1035 17.9264L12.332 17.815C12.603 17.6084 12.8858 17.622 13.1055 17.6744L13.1172 17.6686L13.3047 17.4693C13.3469 17.4314 13.3917 17.3967 13.4395 17.3639C13.5558 17.169 13.7475 16.9912 14.0312 16.942C14.0564 16.9377 14.0831 16.9441 14.1074 16.942C14.1833 16.8798 14.2792 16.831 14.3945 16.7955C14.4258 16.7859 14.458 16.7837 14.4883 16.7779C14.5212 16.5623 14.6545 16.1885 15.0508 16.0162C15.1878 15.8719 15.3534 15.7821 15.5254 15.7525C15.6172 15.6397 15.7391 15.5377 15.9004 15.483C16.0693 15.4259 16.2249 15.4381 16.3398 15.4596C16.4295 15.4364 16.5134 15.4078 16.5977 15.4068L16.6094 15.3951L16.7793 15.2545C16.8281 15.0896 16.9296 14.8949 17.1543 14.7623C17.2836 14.6866 17.4125 14.6636 17.5293 14.6568C17.5409 14.5643 17.5655 14.4639 17.6172 14.3639L17.8574 14.0768C17.9544 14.0057 18.0582 13.9639 18.1562 13.942C18.1806 13.9065 18.2062 13.8698 18.2383 13.8365C18.3538 13.717 18.4919 13.6521 18.6074 13.6197L18.6484 13.5787C18.7224 13.5069 18.799 13.4523 18.877 13.4147C18.8886 13.3948 18.8926 13.3698 18.9062 13.3502C18.9471 13.2916 18.9996 13.2469 19.0469 13.2037C18.9855 13.0707 18.9302 12.8827 18.9883 12.6588C19.0253 12.5165 19.0951 12.4078 19.1699 12.3248C19.14 12.2831 19.1014 12.2429 19.0762 12.1959C18.9438 11.9477 18.9357 11.6846 19.0059 11.4518C18.9995 11.4463 18.9887 11.4458 18.9824 11.44C18.7998 11.2708 18.7016 11.0249 18.7246 10.7662C18.7341 10.6633 18.7569 10.5704 18.7891 10.4967C18.7143 10.437 18.646 10.3625 18.5898 10.2682C18.5118 10.2491 18.4199 10.2204 18.332 10.1627C18.1849 10.0654 18.0783 9.92783 18.0215 9.77598C18.0003 9.71913 18.0059 9.65892 17.998 9.60606C17.9011 9.58801 17.7958 9.55584 17.6934 9.49473C17.6279 9.45556 17.5842 9.39707 17.5352 9.34825C17.4765 9.3312 17.4085 9.33067 17.3477 9.29551C17.0937 9.14796 16.9905 8.912 16.9551 8.75645C16.9522 8.74355 16.9515 8.7283 16.9492 8.71544C16.7596 8.77983 16.5099 8.84183 16.2402 8.73887C15.9727 8.63636 15.8397 8.44323 15.7715 8.27012C15.696 8.2417 15.6167 8.20748 15.543 8.14708C15.3792 8.01279 15.3079 7.84822 15.2734 7.7252C15.2648 7.72058 15.2584 7.71243 15.25 7.70762C15.0637 7.7438 14.8192 7.75156 14.582 7.567C14.3925 7.41932 14.3154 7.22726 14.2832 7.10411C14.2794 7.08935 14.2804 7.0717 14.2773 7.05723C14.175 7.01028 14.0778 6.95556 13.9902 6.88145C13.8803 6.94416 13.7343 7.02049 13.5566 7.0338C13.4033 7.04506 13.2105 7.01757 13.0293 6.89903C12.9144 6.82366 12.8399 6.72641 12.7832 6.63536C12.5829 6.59274 12.3873 6.49617 12.2324 6.31895C12.1808 6.25993 12.1267 6.20033 12.0742 6.14317C11.982 6.04245 11.904 5.93098 11.834 5.81505C11.8286 5.80609 11.8215 5.79478 11.8164 5.78575C11.7158 5.80695 11.608 5.82118 11.4941 5.80919C11.3319 5.79187 11.1651 5.73121 11.0254 5.60997C10.8928 5.4947 10.8202 5.35697 10.7793 5.24669C10.7369 5.13138 10.7195 5.01409 10.7148 4.9127C10.4747 4.92309 10.217 4.87207 9.99414 4.69591C9.91853 4.63611 9.84745 4.57016 9.77734 4.50255C9.66589 4.51471 9.54984 4.5066 9.42578 4.47911C9.27717 4.50232 9.11557 4.49523 8.95703 4.42637C8.87154 4.38921 8.79952 4.34231 8.74023 4.29161C8.72682 4.30297 8.71936 4.32183 8.70508 4.33262ZM5.63477 19.3619C5.61408 19.3671 5.59691 19.376 5.58789 19.3795L5.59961 19.3736L5.63477 19.3619ZM14.2715 18.6061C14.2839 18.599 14.2985 18.59 14.3066 18.5826C14.3123 18.5775 14.3164 18.5733 14.3184 18.5709V18.5592C14.3012 18.5704 14.2896 18.5957 14.2715 18.6061ZM4.05859 18.524H4.06445L4.05859 18.5182V18.524ZM3.625 17.4225C3.65652 17.4479 3.67927 17.4613 3.68359 17.4635C3.66383 17.4537 3.64172 17.4261 3.60742 17.4049C3.61427 17.411 3.61925 17.4178 3.625 17.4225ZM13.8789 17.2936C13.855 17.3316 13.8501 17.3734 13.8379 17.4049C13.8477 17.3695 13.8624 17.3338 13.8789 17.2936ZM16.041 16.9244C16.0756 16.9324 16.1291 16.938 16.1934 16.9361C16.1412 16.9299 16.0881 16.9353 16.041 16.9244ZM15.0801 15.9986C15.0749 16.002 15.0673 16.0069 15.0625 16.0104C15.1097 15.9907 15.1539 15.9588 15.209 15.9459C15.168 15.9555 15.1229 15.9709 15.0801 15.9986ZM19.8789 14.4107C19.9068 14.4012 19.9526 14.3758 20.0078 14.3346C19.9607 14.3571 19.9239 14.3957 19.8789 14.4107ZM4.21094 12.7057H4.2168C4.24074 12.6912 4.27051 12.6769 4.29883 12.6529C4.26683 12.6735 4.23873 12.6918 4.21094 12.7057ZM4.58008 11.569V11.5572L4.50391 11.4283C4.5267 11.4583 4.54852 11.5094 4.58008 11.569ZM19.1113 8.6627C19.0847 8.60601 19.0457 8.55414 19 8.5045C19.0392 8.55731 19.0844 8.60424 19.1113 8.6627ZM6.08008 3.64708C6.09735 3.65692 6.11709 3.66102 6.13281 3.67051L6.12695 3.66466C6.12204 3.66209 6.10951 3.65796 6.09766 3.65294L6.08594 3.64708H6.08008ZM8.07227 3.86973C8.10321 3.907 8.16339 3.95597 8.24805 4.0045C8.18456 3.95703 8.11657 3.92321 8.07227 3.86973Z" fill="#4F4F4F"/>
</svg>
