<svg width="80" height="80" viewBox="0 0 80 80" fill="none" xmlns="http://www.w3.org/2000/svg">
<g clip-path="url(#clip0_471_560)">
<path d="M18.25 47.1676V32.8678C18.25 31.9013 19.0335 31.1178 20 31.1178C20.9665 31.1178 21.75 31.9013 21.75 32.8678V47.1676C21.75 48.1341 20.9665 48.9176 20 48.9176C19.0335 48.9176 18.25 48.1341 18.25 47.1676Z" fill="#4F4F4F"/>
<path d="M28.25 51.8988V28.099C28.25 27.1325 29.0335 26.349 30 26.349C30.9665 26.349 31.75 27.1325 31.75 28.099V51.8988C31.75 52.8653 30.9665 53.6488 30 53.6488C29.0335 53.6488 28.25 52.8653 28.25 51.8988Z" fill="#4F4F4F"/>
<path d="M38.25 56.6663V23.3333C38.25 22.3668 39.0335 21.5833 40 21.5833C40.9665 21.5833 41.75 22.3668 41.75 23.3333V56.6663C41.75 57.6328 40.9665 58.4163 40 58.4163C39.0335 58.4163 38.25 57.6328 38.25 56.6663Z" fill="#4F4F4F"/>
<path d="M48.25 51.8988V28.099C48.25 27.1325 49.0335 26.349 50 26.349C50.9665 26.349 51.75 27.1325 51.75 28.099V51.8988C51.75 52.8653 50.9665 53.6488 50 53.6488C49.0335 53.6488 48.25 52.8653 48.25 51.8988Z" fill="#4F4F4F"/>
<path d="M58.25 47.1676V32.8678C58.25 31.9013 59.0335 31.1178 60 31.1178C60.9665 31.1178 61.75 31.9013 61.75 32.8678V47.1676C61.75 48.1341 60.9665 48.9176 60 48.9176C59.0335 48.9176 58.25 48.1341 58.25 47.1676Z" fill="#4F4F4F"/>
<path d="M71.5837 39.9997C71.5836 22.5568 57.4425 8.41666 39.9998 8.41666C22.557 8.41683 8.41692 22.5569 8.41675 39.9997C8.41675 57.4424 22.5569 71.5835 39.9998 71.5836C57.4426 71.5836 71.5837 57.4425 71.5837 39.9997ZM75.0837 39.9997C75.0837 59.3755 59.3756 75.0836 39.9998 75.0836C20.6239 75.0835 4.91675 59.3754 4.91675 39.9997C4.91692 20.6239 20.624 4.91683 39.9998 4.91666C59.3755 4.91666 75.0836 20.6238 75.0837 39.9997Z" fill="#4F4F4F"/>
</g>
<defs>
<clipPath id="clip0_471_560">
<rect width="80" height="80" fill="white"/>
</clipPath>
</defs>
</svg>
