<svg width="630" height="589" viewBox="0 0 630 589" fill="none" xmlns="http://www.w3.org/2000/svg">
<g clip-path="url(#clip0_469_386)">
<path fill-rule="evenodd" clip-rule="evenodd" d="M610.343 8.5014L613 0.214447L528.485 -54.8369L502.486 -98.1695L474.288 -132.851L435.288 -178.335L417.955 -234.667L383.273 -265L298.742 -174.017H242.394L192.545 -91.6855L129.697 -76.519L17 0.214447L21.27 8.5014H610.343Z" fill="#D5E7F8"/>
<path fill-rule="evenodd" clip-rule="evenodd" d="M143.203 -27.2085L202.335 -66.018L243.137 -137.991L298.742 -173.954L339.814 -182.905L383.273 -265L417.955 -234.667L435.288 -178.303L458.916 -117.606L497.694 -43.561L528.485 -54.7579L613 0.309326L580.5 101.303H477.751L491.051 221.353L451.546 268.671L465.637 411.257L420.122 495.803L371.364 545.652L283.576 589L194.095 411.257L186.061 294.67L17 0.309326L143.203 -27.2085Z" fill="#6EE1FF"/>
<path fill-rule="evenodd" clip-rule="evenodd" d="M17 0.435852L173.061 305.108V417.805L283.576 589L371.364 545.652L420.122 495.819L465.637 411.289L472.137 279.109L511.136 227.094L517.652 133.913L580.5 101.398L613 0.435852H17Z" fill="#0082C6"/>
<path fill-rule="evenodd" clip-rule="evenodd" d="M383.225 -265L361.512 -171.787L383.225 -95.9238V-28.7108L420.122 -117.574L435.32 -178.272L417.955 -234.667L383.225 -265Z" fill="#5ACDF3"/>
<path fill-rule="evenodd" clip-rule="evenodd" d="M298.774 -173.828L261.973 -130.527V-28.7108L298.774 -101.269L315 -146.753L298.774 -173.828Z" fill="#5ACDF3"/>
<path fill-rule="evenodd" clip-rule="evenodd" d="M129.665 -76.4558V-28.6792L17 0.435852H172.176L185.998 -59.0911L129.665 -76.4558Z" fill="#23B2E8"/>
<path fill-rule="evenodd" clip-rule="evenodd" d="M420.169 -117.701L425.135 -52.955L491.13 0.435852H370.827L420.169 -117.701Z" fill="#23B2E8"/>
<path fill-rule="evenodd" clip-rule="evenodd" d="M315.032 -146.848L341.806 -101.301L339.054 -53.5717L344.147 -18.4787L339.735 0.435852H304.167L318.543 -32.9176L297.319 -72.5337L298.853 -101.301L315.032 -146.848Z" fill="#23B2E8"/>
<path fill-rule="evenodd" clip-rule="evenodd" d="M370.827 0.435852L378.37 86.6266L386.641 189.597L430.971 101.714L476.027 75.6195L491.13 0.435852H370.827Z" fill="#016BAB"/>
<path fill-rule="evenodd" clip-rule="evenodd" d="M541.991 0.435852V51.7866L563.057 69.1512L552.54 95.6094L580.516 101.224L613 0.435852H541.991Z" fill="#016BAB"/>
<path fill-rule="evenodd" clip-rule="evenodd" d="M517.81 133.881L477.798 129.754L491.13 215.075V239.841L511.294 227.173L517.81 133.881Z" fill="#016BAB"/>
<path fill-rule="evenodd" clip-rule="evenodd" d="M339.814 0.435852L315.079 73.7533L327.431 137.819L297.319 69.7996L304.167 0.435852H339.814Z" fill="#0082C6"/>
<path fill-rule="evenodd" clip-rule="evenodd" d="M171.559 0.435852L148.659 89.41L171.559 123.285L166.988 197.473L172.982 304.95L17 0.435852H171.559Z" fill="#0082C6"/>
<path fill-rule="evenodd" clip-rule="evenodd" d="M247.818 95.641L221.202 161.953L244.149 201.142L247.818 289.167L211.128 375.342L292.748 301.076L267.967 228.644L297.319 161.953L247.818 95.641Z" fill="#016BAB"/>
<path fill-rule="evenodd" clip-rule="evenodd" d="M370.763 323.248L330.198 446.872L365.94 512.82L371.364 545.588L420.122 495.787L361.591 446.872L370.763 323.248Z" fill="#016BAB"/>
<path fill-rule="evenodd" clip-rule="evenodd" d="M283.481 589L302.601 479.815L254.049 392.707L243.058 457.8L254.049 543.358L283.481 589Z" fill="#016BAB"/>
<path fill-rule="evenodd" clip-rule="evenodd" d="M211.017 375.342L201.844 283.221L185.998 231.538L214.322 239.682L221.123 162L244.039 201.173L247.708 289.183L211.017 375.342Z" fill="#025791"/>
<path fill-rule="evenodd" clip-rule="evenodd" d="M339.829 0.435852L361.638 81.2179L354.237 129.801L386.641 189.834L353.146 177.451L320.741 247.59L315 73.8799L339.829 0.435852Z" fill="#025791"/>
<path fill-rule="evenodd" clip-rule="evenodd" d="M330.293 446.983L283.687 589L371.443 545.683L366.035 512.915L330.293 446.983Z" fill="#06598C"/>
<path fill-rule="evenodd" clip-rule="evenodd" d="M217.011 0.435852H293.191L297.319 162L247.834 95.7359L217.011 0.435852Z" fill="#025791"/>
<path fill-rule="evenodd" clip-rule="evenodd" d="M430.955 101.84L447.102 213.161L411.36 283.252V218.664L386.641 189.802L430.955 101.84Z" fill="#025791"/>
<path fill-rule="evenodd" clip-rule="evenodd" d="M172.223 0.435852L177.932 58.5395L167.083 197.662L101.657 101.461L172.223 0.435852Z" fill="#025791"/>
<path fill-rule="evenodd" clip-rule="evenodd" d="M297.319 162L283.623 231.617L292.733 301.234L267.872 228.754L297.319 162Z" fill="#005C9B"/>
<path fill-rule="evenodd" clip-rule="evenodd" d="M320.82 239.841L370.827 323.216L283.687 589L302.807 479.894V392.833L320.82 247.606" fill="#025791"/>
<path fill-rule="evenodd" clip-rule="evenodd" d="M472.216 279.109L447.149 213.161L411.392 283.268L386.641 343.048L420.201 312.241L465.716 411.321L472.216 279.109Z" fill="#016BAB"/>
<path fill-rule="evenodd" clip-rule="evenodd" d="M262.02 -28.6318L217.011 0.435852H293.191L298.885 -101.269L262.02 -28.6318Z" fill="#92E8FF"/>
<path fill-rule="evenodd" clip-rule="evenodd" d="M383.225 -265L344.258 -211.245H356.767L339.814 -182.795L350.773 -134.132L361.575 -171.661L356.767 -191.05L383.225 -265Z" fill="#92E8FF"/>
<path fill-rule="evenodd" clip-rule="evenodd" d="M243.137 -137.865L217.011 -93.9312H234.012L230.09 -54.7579L247.708 -89.3607L243.137 -137.865Z" fill="#92E8FF"/>
<path fill-rule="evenodd" clip-rule="evenodd" d="M435.288 -173.828V-101.222H451.166L439.273 -58.5218L497.646 -43.4344L491.004 0.435852L425.056 -52.8443L420.122 -117.479L435.288 -173.828Z" fill="#92E8FF"/>
</g>
<defs>
<clipPath id="clip0_469_386">
<rect width="630" height="589" fill="white" transform="matrix(1 0 0 -1 0 589)"/>
</clipPath>
</defs>
</svg>
