<svg width="803" height="8" viewBox="0 0 803 8" fill="none" xmlns="http://www.w3.org/2000/svg">
<path d="M92.3125 1.96883C92.3853 1.88913 92.4388 1.77928 92.5312 1.7032C92.9219 1.38255 93.5843 1.07193 94.3906 1.25008C94.6082 1.29849 94.7734 1.42619 94.9375 1.5157C94.963 1.51605 94.9898 1.49885 95.0156 1.50008C95.203 1.50904 95.3707 1.56285 95.5312 1.60945C95.8719 1.44296 96.2839 1.3151 96.7656 1.37508C97.0831 1.41561 97.3579 1.51763 97.5781 1.6407C98.209 1.69332 98.696 2.02347 99 2.31258C99.0871 2.15943 99.1525 1.98798 99.2656 1.84383C99.5085 1.53477 100.046 0.97986 100.922 0.875075C101.745 0.779389 102.317 1.17043 102.687 1.50008C102.794 1.48938 102.901 1.44776 103.016 1.4532C103.264 1.46508 103.487 1.52017 103.687 1.59382L104.219 1.85945L104.312 1.92195C104.877 1.87459 105.381 2.00428 105.797 2.23445C105.824 2.20678 105.846 2.16751 105.875 2.1407C106.111 1.92147 106.494 1.66554 107.016 1.56257C107.528 1.46198 107.998 1.56477 108.391 1.75007C108.642 1.49892 109.107 1.1552 109.781 1.09382C110.143 1.06121 110.462 1.11701 110.734 1.21882L111.406 1.60945L111.672 1.90632C111.755 1.90691 111.838 1.89588 111.922 1.90632C112.074 1.79649 112.254 1.68843 112.469 1.60945C112.739 1.51023 113.02 1.461 113.297 1.46882L114.094 1.6407L114.281 1.75007C114.759 1.4387 115.366 1.17451 116.094 1.25007L116.812 1.43757C116.97 1.50353 117.102 1.60106 117.234 1.68757C117.595 1.53142 117.995 1.40825 118.437 1.40632L119.328 1.56257C119.387 1.58569 119.429 1.64513 119.484 1.67195C119.68 1.61169 119.864 1.57008 120.047 1.56257C120.139 1.4908 120.219 1.3906 120.328 1.3282C120.811 1.0524 121.378 0.953298 121.937 1.06257L122.484 1.23445L123.156 1.75007C123.175 1.74933 123.199 1.7347 123.219 1.73445C123.504 1.73134 123.752 1.79527 123.969 1.87507C124.102 1.81915 124.25 1.79781 124.406 1.7657C124.695 1.57524 125.071 1.38153 125.547 1.35945C126.082 1.33515 126.54 1.50588 126.875 1.71882C127.025 1.81463 127.119 1.96567 127.234 2.0782C127.3 2.08204 127.359 2.1006 127.422 2.10945C127.595 2.02672 127.768 1.91632 127.984 1.87507C128.398 1.79745 128.779 1.85021 129.109 1.9532C129.312 1.71679 129.672 1.37289 130.234 1.21882C131.009 1.00762 131.692 1.26795 132.125 1.59382C132.148 1.61129 132.15 1.65406 132.172 1.67195C132.51 1.58833 132.863 1.58417 133.234 1.67195C133.251 1.66381 133.264 1.64853 133.281 1.6407C133.697 1.44939 134.194 1.37403 134.703 1.48445C134.94 1.53634 135.152 1.62125 135.328 1.71882L135.781 2.04695L136.359 2.5782L136.375 2.5782C136.691 2.27012 137.166 1.9254 137.859 1.8907C137.879 1.88975 137.903 1.90679 137.922 1.90632C138.19 1.69491 138.555 1.46711 139.062 1.42195C139.404 1.39228 139.697 1.47163 139.953 1.56257C140.347 1.34592 140.833 1.17898 141.406 1.25007C141.485 1.25984 141.552 1.31182 141.625 1.3282C141.883 1.22918 142.175 1.14341 142.516 1.15632C143.01 1.1753 143.4 1.36015 143.703 1.56257C143.851 1.5674 144.003 1.54395 144.156 1.5782C144.24 1.59715 144.314 1.6617 144.391 1.68757C144.539 1.64007 144.697 1.6298 144.859 1.60945C145.124 1.40163 145.463 1.19341 145.906 1.10945C146.723 0.957208 147.409 1.26366 147.844 1.60945C147.904 1.65772 147.943 1.72971 148 1.78132C148.174 1.76719 148.353 1.71576 148.547 1.75007C148.622 1.76333 148.681 1.82438 148.75 1.84382C148.784 1.82343 148.809 1.78492 148.844 1.7657L149.422 1.53132C150.014 1.39028 150.634 1.4967 151.156 1.81257C151.224 1.85341 151.268 1.92395 151.328 1.96882C151.559 1.79461 151.847 1.63458 152.203 1.54695C152.46 1.48422 152.707 1.4814 152.937 1.50007C153.108 1.42269 153.296 1.34407 153.516 1.31257C154.212 1.21298 154.725 1.50561 155.078 1.7657C155.236 1.69972 155.397 1.60665 155.594 1.5782C156.019 1.51716 156.39 1.60922 156.703 1.73445C156.962 1.56339 157.314 1.40344 157.75 1.37507C158.213 1.3461 158.625 1.46592 158.937 1.6407C159.067 1.71332 159.149 1.83735 159.25 1.92195C159.287 1.88636 159.321 1.84662 159.359 1.81257L159.812 1.50007C159.99 1.40414 160.2 1.31477 160.437 1.26569C160.944 1.16182 161.435 1.24772 161.844 1.43757C161.978 1.49981 162.062 1.62543 162.172 1.70319C162.307 1.65408 162.438 1.57265 162.594 1.54694C162.931 1.49248 163.257 1.50844 163.547 1.57819L164.328 1.92194L164.719 2.23444C164.838 2.23047 164.966 2.21843 165.094 2.23444C165.347 1.87601 165.681 1.51141 166.141 1.26569L167.016 0.984444C167.328 0.948949 167.655 0.977258 167.984 1.07819C168.343 1.18905 168.632 1.37553 168.859 1.56257C169.071 1.39774 169.31 1.24463 169.594 1.14069L170.234 1.00007C170.86 0.958766 171.428 1.19186 171.828 1.50007C172.148 1.74813 172.37 2.05178 172.531 2.31257C172.562 2.31279 172.595 2.32681 172.625 2.32819C172.95 2.06956 173.354 1.83076 173.875 1.76569L174.453 1.76569C174.997 1.8341 175.421 2.10733 175.719 2.35944C175.918 2.21109 176.151 2.06805 176.437 1.98444C176.882 1.85452 177.271 1.90878 177.609 2.00007L177.641 1.98444C177.945 1.88271 178.261 1.84069 178.562 1.85944L179.437 2.07819L180.141 2.54694C180.156 2.52646 180.173 2.50481 180.187 2.48444L180.719 1.93757C180.962 1.74404 181.278 1.56044 181.672 1.46882C182.128 1.36366 182.538 1.4154 182.891 1.53132C182.906 1.52069 182.922 1.49479 182.937 1.48444C183.354 1.209 183.956 1.01311 184.625 1.15632C184.927 1.22169 185.174 1.3521 185.375 1.48444L185.844 1.87507L186.406 2.65632C186.429 2.69419 186.432 2.74302 186.453 2.78132C186.52 2.76025 186.588 2.75019 186.656 2.73444C186.724 2.60944 186.78 2.4774 186.859 2.35944C187.054 2.07157 187.391 1.66498 187.906 1.39069L188.797 1.12507C189.112 1.10545 189.435 1.16866 189.75 1.29694C189.791 1.3136 189.821 1.35675 189.859 1.37507C190.19 1.22868 190.583 1.11418 191.062 1.18757L191.672 1.37507C191.713 1.39388 191.743 1.4327 191.781 1.45319C191.937 1.4081 192.095 1.3355 192.281 1.32819C192.47 1.32115 192.637 1.38851 192.797 1.42194C192.977 1.33255 193.179 1.23987 193.422 1.20319C193.766 1.15167 194.084 1.22006 194.375 1.31257C194.804 1.22124 195.175 1.25792 195.5 1.37507C195.838 1.19731 196.247 1.06068 196.766 1.12507C196.796 1.12886 196.828 1.12931 196.859 1.12507C197.603 1.01406 198.147 1.29373 198.531 1.59382C198.709 1.54964 198.898 1.49693 199.109 1.50007L199.266 1.51569C199.439 1.39018 199.65 1.2706 199.906 1.18757C200.431 1.01758 200.974 1.04882 201.453 1.25007C201.63 1.325 201.784 1.42991 201.922 1.53132C202.25 1.53923 202.57 1.60371 202.859 1.75007C203.233 1.9387 203.478 2.20306 203.641 2.40632C203.691 2.41561 203.733 2.44109 203.781 2.45319C204.079 2.16388 204.554 1.82192 205.219 1.73444C205.829 1.65524 206.318 1.86471 206.703 2.09382C207.032 1.89399 207.41 1.78353 207.812 1.76569C208.159 1.55698 208.598 1.36349 209.156 1.40632C209.944 1.46772 210.443 1.9289 210.734 2.25007C210.781 2.24821 210.827 2.24899 210.875 2.25007C211.195 1.99791 211.65 1.74382 212.281 1.78132C212.304 1.76422 212.32 1.73537 212.344 1.71882C212.642 1.51159 213.073 1.31483 213.609 1.32819C214.144 1.34291 214.569 1.55952 214.844 1.76569C215.008 1.88941 215.126 2.03776 215.234 2.17194C215.492 1.94746 215.837 1.73272 216.281 1.64069C216.96 1.50202 217.493 1.70285 217.891 1.95319C217.972 1.95227 218.056 1.91434 218.141 1.92194C218.195 1.92687 218.244 1.96061 218.297 1.96881C218.572 1.70013 218.959 1.39991 219.516 1.29694C220.253 1.16095 220.812 1.44989 221.219 1.73444C221.308 1.70927 221.387 1.64052 221.484 1.62506C221.629 1.60203 221.77 1.65362 221.906 1.65631C221.979 1.61434 222.042 1.55161 222.125 1.51569C222.733 1.25494 223.406 1.28318 223.969 1.56256C224.14 1.64767 224.266 1.772 224.391 1.87506C224.489 1.81346 224.584 1.73775 224.703 1.68756C225.272 1.44925 225.902 1.45737 226.453 1.70319C226.777 1.84833 227.016 2.05481 227.187 2.23444C227.436 1.95785 228.021 1.458 228.906 1.48444C229.598 1.50708 230.051 1.87497 230.328 2.14069C230.648 2.08648 231.002 2.07454 231.391 2.20319C231.815 2.34448 232.128 2.58777 232.359 2.82819C232.576 2.86094 232.784 2.91708 232.984 3.00006C233.079 2.96362 233.171 2.93124 233.266 2.90631C233.295 2.84664 233.31 2.77802 233.344 2.71881C233.447 2.54102 233.85 1.86167 234.703 1.62506C235.261 1.47055 235.737 1.56835 236.109 1.73444C236.171 1.72192 236.231 1.67941 236.297 1.67194C237.136 1.5777 237.75 1.98253 238.062 2.28131C238.096 2.31373 238.11 2.37327 238.141 2.40631C238.724 2.19395 239.363 2.19645 239.953 2.48444C240.321 2.32647 240.724 2.26161 241.141 2.31256C241.235 2.24834 241.322 2.16318 241.437 2.10944C241.626 2.02217 241.833 2.01536 242.031 1.98444C242.115 1.89048 242.178 1.77257 242.281 1.68756C242.582 1.43951 243.071 1.17714 243.703 1.17194C244.132 1.16915 244.481 1.31405 244.766 1.46881C245.001 1.38518 245.268 1.31294 245.578 1.32819C246.337 1.36627 246.825 1.78992 247.078 2.06256C247.287 2.09787 247.488 2.1587 247.656 2.23444C247.717 2.22491 247.78 2.23895 247.844 2.23444C247.915 2.15825 247.962 2.05412 248.047 1.98444C248.351 1.73545 248.85 1.46935 249.484 1.46881C249.929 1.46963 250.291 1.6167 250.578 1.78131C250.597 1.76499 250.605 1.73481 250.625 1.71881C251.098 1.34064 251.883 1.05981 252.734 1.37506L252.734 1.39069C253.363 1.29681 253.919 1.48725 254.312 1.76569C254.471 1.87825 254.564 2.03537 254.672 2.15631C254.819 1.95981 255.03 1.72819 255.328 1.54694C255.617 1.37247 255.999 1.2314 256.453 1.23444C256.91 1.23809 257.295 1.38588 257.578 1.56256C257.868 1.74361 258.059 1.97767 258.203 2.17194C258.251 2.16971 258.297 2.187 258.344 2.18756C258.643 1.99469 259.022 1.82684 259.5 1.81256C259.692 1.80689 259.866 1.85592 260.031 1.89069C260.181 1.74765 260.357 1.58502 260.594 1.46881C261.081 1.22995 261.617 1.24896 262.125 1.39069C262.237 1.33855 262.346 1.25856 262.469 1.21881L263.578 1.09381L264.625 1.40631L265.094 1.76569C265.459 1.71025 265.841 1.72411 266.219 1.87506C266.328 1.91875 266.408 2.00861 266.5 2.06256C266.739 1.85982 267.069 1.64504 267.516 1.56256C268.094 1.45593 268.562 1.6302 268.922 1.82819L268.937 1.81256L269.437 1.51569C269.799 1.34722 270.215 1.25172 270.656 1.26569L271.328 1.37506L272.031 1.67194C272.221 1.7748 272.398 1.89129 272.562 2.01569C272.637 1.95112 272.701 1.87149 272.781 1.81256L273.531 1.39069C273.806 1.27953 274.112 1.19925 274.437 1.17194L275.047 1.12506L275.875 1.18756C276.606 1.39725 277.046 1.94746 277.203 2.17193C277.228 2.20703 277.227 2.26093 277.25 2.29693C277.582 2.15743 277.979 2.06133 278.453 2.14068C278.885 2.21362 279.207 2.41786 279.469 2.62506L279.578 2.51568L280.047 2.15631C280.244 2.03694 280.482 1.93212 280.766 1.87506C281.1 1.80866 281.417 1.83814 281.703 1.90631C281.862 1.7007 282.106 1.44106 282.469 1.25006C283.055 0.943774 283.748 0.916332 284.359 1.18756C284.671 1.00437 285.061 0.844664 285.547 0.859434L286.172 0.968809C286.477 1.06653 286.707 1.24871 286.906 1.40631C287.381 1.38157 287.796 1.48438 288.109 1.67193C288.147 1.69462 288.168 1.74161 288.203 1.76568C288.528 1.63167 288.918 1.53089 289.391 1.62506C289.645 1.67649 289.863 1.78239 290.047 1.89068C290.064 1.87133 290.076 1.8472 290.094 1.82818C290.367 1.53644 290.885 1.13762 291.578 1.06256L292.328 1.10943L293.031 1.39068C293.354 1.57699 293.58 1.84398 293.781 2.07818C293.982 2.09955 294.178 2.12306 294.375 2.18756C294.69 1.96757 295.097 1.74377 295.625 1.71881L296.578 1.87506C296.631 1.89487 296.669 1.94591 296.719 1.96881C296.85 1.92142 296.986 1.89846 297.125 1.87506C297.495 1.55377 298.04 1.22929 298.812 1.31256C298.973 1.33029 299.113 1.40865 299.25 1.45318C299.466 1.39599 299.699 1.35547 299.953 1.37506C300.406 1.41012 300.775 1.57095 301.031 1.75006C301.096 1.79547 301.131 1.87334 301.187 1.92193C301.331 1.77803 301.465 1.61926 301.641 1.50006L302.5 1.07818C302.823 0.980611 303.185 0.939399 303.562 0.968807L304.187 1.09381C304.567 1.21904 304.851 1.45975 305.109 1.67193C305.547 1.57269 306.012 1.55728 306.469 1.76568C306.759 1.89855 306.974 2.08067 307.141 2.25006C307.445 2.10649 307.781 1.97447 308.172 1.98443C308.336 1.86331 308.54 1.73754 308.797 1.65631C309.268 1.5079 309.763 1.53236 310.203 1.70318C310.289 1.73668 310.346 1.8186 310.422 1.85943C310.489 1.84849 310.553 1.8174 310.625 1.81256C310.927 1.7927 311.191 1.84602 311.422 1.92193C311.513 1.87632 311.6 1.80174 311.703 1.76568L312.469 1.62506C313.211 1.60241 313.849 1.92653 314.297 2.31256C314.638 2.28274 315.006 2.31519 315.375 2.46881C315.405 2.48151 315.424 2.51767 315.453 2.53131C315.644 2.26016 315.82 1.98126 316.047 1.75006C316.296 1.49696 316.773 1.12191 317.469 1.06256C318.198 1.00203 318.765 1.31534 319.094 1.59381C319.307 1.77519 319.446 2.01227 319.578 2.21881C319.846 2.23141 320.079 2.25959 320.297 2.34381C320.444 2.12174 320.775 1.69354 321.359 1.45318C322.163 1.12295 322.951 1.33893 323.469 1.71881C323.579 1.80005 323.65 1.9126 323.734 2.00006C323.798 1.95979 323.852 1.89553 323.922 1.85943C324.2 1.71583 324.508 1.62155 324.828 1.59381L325.812 1.71881L326.031 1.76568C326.329 1.79976 326.63 1.86609 326.922 1.93756C327.138 1.99106 327.336 2.06358 327.516 2.15631C327.818 2.0511 328.157 1.97893 328.547 2.01568L328.891 2.01568C329.171 2.00006 329.434 2.05408 329.687 2.10943C329.934 1.84532 330.324 1.53663 330.906 1.43756C331.353 1.36163 331.721 1.45154 332.031 1.57818C332.317 1.39334 332.642 1.23112 333.016 1.14068L333.781 1.07818C334.484 1.15408 334.996 1.56698 335.266 1.85943C335.327 1.92619 335.353 2.02366 335.406 2.0938C335.734 2.06335 336.063 2.06631 336.391 2.12505C336.484 2.1418 336.579 2.15884 336.672 2.17193C336.773 2.04839 336.866 1.9084 337 1.79693C337.259 1.58138 337.655 1.3367 338.172 1.26568C338.442 1.22912 338.701 1.24635 338.937 1.29693L339.578 1.54693L339.781 1.7188C339.999 1.59089 340.257 1.44985 340.578 1.4063C341.042 1.34487 341.431 1.46256 341.75 1.60943C342.249 1.54244 342.75 1.6454 343.172 1.9063L343.187 1.93755C343.312 1.88027 343.443 1.81609 343.594 1.7813C343.794 1.73536 343.98 1.74344 344.156 1.75005C344.426 1.56826 344.772 1.39806 345.219 1.37505C345.718 1.34977 346.103 1.5179 346.406 1.70318C346.482 1.69655 346.559 1.67023 346.641 1.67193L346.656 1.68755C346.82 1.52305 347.007 1.35022 347.25 1.2188L348.141 0.953179C348.454 0.930983 348.777 0.98383 349.094 1.10943C349.63 1.3226 349.963 1.68913 350.125 1.9063L350.141 1.95318C350.253 1.97234 350.339 2.04554 350.437 2.07818C350.631 1.93631 350.85 1.78851 351.125 1.70318C351.652 1.54098 352.131 1.60989 352.531 1.75005C352.705 1.71595 352.881 1.64848 353.078 1.6563C353.411 1.67051 353.715 1.74684 353.969 1.85943L354.609 2.26568L354.844 2.56255C355.15 2.44929 355.479 2.36715 355.844 2.39068C355.866 2.3606 355.883 2.32643 355.906 2.29693C356.128 2.01589 356.492 1.64625 357.031 1.42193C357.601 1.18609 358.239 1.16876 358.828 1.39068C358.909 1.42118 358.974 1.47928 359.047 1.51568L359.094 1.50005C359.183 1.48623 359.272 1.50432 359.359 1.50005C359.51 1.38692 359.678 1.27396 359.875 1.18755C360.152 1.06643 360.449 0.997936 360.75 0.984427L361.672 1.12505L362.531 1.48443C362.83 1.63245 363.126 1.81064 363.406 2.00005C363.458 2.0354 363.497 2.08738 363.547 2.12505C363.771 2.09572 364.012 2.05396 364.281 2.10943C364.415 2.13723 364.527 2.2201 364.641 2.26568C364.802 2.12232 364.953 1.95529 365.156 1.8438L365.797 1.60943C366.035 1.56031 366.292 1.55501 366.562 1.5938C367.023 1.66023 367.371 1.86788 367.625 2.06255C367.753 1.9442 367.88 1.80062 368.062 1.70318C368.404 1.52099 368.844 1.39431 369.328 1.45318C369.793 1.51104 370.152 1.7206 370.391 1.9063C370.502 1.99328 370.572 2.10996 370.656 2.20318C370.728 2.195 370.799 2.15796 370.875 2.1563C371.11 2.15186 371.329 2.21325 371.531 2.26568C371.639 2.23044 371.745 2.19401 371.859 2.17193C372.15 1.86753 372.578 1.5085 373.219 1.42193C373.723 1.35526 374.131 1.4902 374.469 1.6563C374.675 1.52721 374.882 1.37491 375.141 1.29693L376.187 1.0938C376.38 1.07706 376.573 1.06955 376.766 1.04693C377.644 0.94356 378.263 1.34065 378.703 1.73443C379.006 1.49302 379.445 1.2117 380.062 1.2188C380.328 1.22239 380.56 1.29988 380.766 1.37505C381.046 1.33514 381.35 1.32118 381.672 1.4063C381.927 1.47381 382.124 1.61542 382.312 1.73443C382.344 1.73275 382.374 1.71932 382.406 1.7188C382.85 1.71262 383.244 1.83595 383.578 2.00005C383.635 1.95397 383.684 1.88648 383.75 1.8438C384.017 1.67085 384.386 1.52078 384.828 1.50005C385.274 1.47952 385.666 1.59813 385.969 1.76568C385.998 1.78219 386.019 1.82644 386.047 1.8438C386.313 1.74234 386.616 1.69187 386.953 1.70318C387.007 1.66103 387.049 1.60148 387.109 1.56255C387.406 1.37145 387.809 1.20614 388.281 1.18755C388.52 1.17834 388.748 1.19569 388.953 1.25005L389.5 1.48442L390.328 2.1563L390.344 2.14067C390.439 2.03142 390.523 1.88532 390.656 1.7813C391.046 1.47935 391.669 1.21218 392.422 1.35942C392.466 1.36816 392.505 1.41097 392.547 1.42192C392.67 1.34952 392.795 1.2725 392.937 1.2188L393.672 1.06255C393.923 1.05654 394.175 1.10652 394.422 1.18755C394.869 1.33575 395.191 1.59105 395.391 1.79692C395.523 1.79403 395.654 1.79103 395.797 1.81255C396.237 1.4775 396.873 1.14882 397.734 1.4063C398.279 1.56939 398.634 1.90215 398.828 2.12505C398.97 2.28748 399.053 2.47244 399.141 2.62505C399.203 2.59838 399.262 2.56979 399.328 2.54692L399.328 2.5313C399.605 2.27859 400.004 2.00411 400.516 1.87505C400.55 1.86635 400.59 1.8822 400.625 1.87505C400.876 1.59401 401.231 1.28334 401.75 1.14067C402.376 0.96847 402.905 1.07797 403.312 1.2813L404.156 1.9688L404.594 2.73442C404.904 2.47704 405.336 2.19863 405.922 2.14067C406.274 2.10702 406.594 2.1745 406.875 2.26567C407.022 2.22145 407.172 2.19742 407.328 2.17192C408.081 1.71524 408.972 1.66094 409.797 2.04692C410.063 1.90446 410.362 1.78597 410.719 1.75005C411.047 1.71767 411.343 1.78059 411.609 1.85942C411.818 1.65215 412.09 1.44744 412.437 1.31255C412.896 1.13499 413.413 1.11558 413.906 1.26567C414.169 1.34634 414.384 1.46787 414.562 1.5938C414.931 1.34574 415.389 1.13512 415.953 1.10942L416.516 1.14067C416.821 1.20177 417.061 1.36448 417.281 1.50005C417.392 1.48107 417.502 1.4074 417.625 1.4063C417.779 1.40512 417.911 1.48927 418.047 1.51567C418.266 1.41498 418.512 1.29839 418.812 1.2813C419.602 1.23848 420.173 1.62354 420.469 1.9063L420.484 1.95317C420.711 1.78863 420.987 1.63014 421.328 1.54692L422.016 1.43755L422.703 1.4688L423.484 1.7188C423.639 1.79582 423.763 1.90349 423.891 2.00005C423.987 1.9232 424.081 1.83238 424.203 1.76567C424.769 1.45765 425.464 1.39393 426.109 1.67192C426.263 1.58113 426.444 1.49308 426.656 1.43755C427.145 1.31007 427.633 1.36463 428.047 1.54692C428.618 1.79983 428.914 2.25405 429.062 2.50005C429.147 2.51862 429.233 2.52034 429.312 2.54692C429.43 2.51302 429.549 2.49107 429.672 2.4688C429.972 2.27574 430.381 2.1251 430.859 2.10942C431.206 2.09877 431.511 2.18666 431.781 2.29692C431.839 2.28014 431.892 2.24697 431.953 2.23442C431.985 2.18632 431.997 2.12466 432.031 2.07817C432.221 1.82289 432.743 1.24205 433.547 1.10942L434.453 1.1563L435.078 1.4688C435.187 1.43414 435.299 1.37829 435.422 1.35942C435.666 1.32256 435.902 1.32279 436.125 1.35942L436.75 1.56255L436.812 1.62505C437.458 1.24453 438.274 1.14539 439.031 1.5313C439.13 1.58174 439.196 1.67548 439.281 1.73442C439.565 1.58793 439.91 1.4637 440.312 1.45317L440.984 1.5313C441.063 1.54987 441.129 1.60036 441.203 1.62505L441.234 1.5938C441.551 1.29762 442.069 0.975126 442.719 0.937545L443.422 1.00005L443.953 1.2188C444.049 1.27085 444.122 1.34722 444.203 1.4063C444.443 1.35426 444.699 1.29991 444.984 1.3438C445.328 1.39678 445.604 1.52984 445.828 1.67192C446.19 1.56962 446.62 1.55029 447.078 1.70317C447.199 1.74387 447.289 1.83616 447.391 1.89067C447.646 1.71409 447.965 1.58545 448.359 1.53129C448.667 1.34482 449.036 1.16114 449.484 1.12504C449.766 1.10295 450.035 1.12666 450.281 1.18754L450.953 1.46879L451.078 1.57817C451.157 1.5264 451.223 1.45081 451.312 1.40629C451.669 1.2305 452.106 1.12019 452.578 1.17192C452.811 1.19745 453.018 1.26683 453.203 1.34379C453.371 1.32645 453.534 1.33391 453.703 1.34379C454.054 1.1885 454.479 1.06597 454.969 1.15629C455.457 1.24768 455.793 1.50627 456.031 1.71879C456.475 1.55588 456.943 1.51579 457.391 1.62504L457.891 1.81254L458.312 1.98442C458.711 2.12597 459.024 2.3708 459.297 2.60942C459.455 2.60842 459.606 2.63021 459.766 2.65629C459.888 2.44696 460.129 2.07319 460.562 1.79692C461.145 1.42632 461.93 1.32943 462.656 1.67192C462.718 1.70116 462.757 1.76416 462.812 1.79692C463.015 1.76302 463.213 1.77235 463.422 1.79692C463.955 1.56025 464.569 1.49598 465.156 1.75004C465.497 1.89805 465.73 2.1244 465.906 2.31254C466.015 2.25037 466.126 2.18838 466.234 2.12504L466.906 1.85942C467.152 1.80728 467.421 1.80073 467.703 1.84379C468.152 1.91264 468.485 2.12193 468.734 2.31254C468.795 2.287 468.858 2.27087 468.922 2.25004L468.937 2.21879C469.079 2.00813 469.376 1.62307 469.891 1.37504C470.533 1.06698 471.259 1.1013 471.859 1.42192C472.076 1.53756 472.235 1.69071 472.375 1.82817C472.605 1.7055 472.856 1.60364 473.125 1.53129L474.125 1.46879C474.334 1.50213 474.511 1.59335 474.687 1.67192C474.905 1.49619 475.197 1.30989 475.578 1.21879C475.916 1.13846 476.24 1.14157 476.531 1.20317L477.297 1.51567L477.359 1.56254C477.606 1.62866 477.832 1.7425 478.062 1.84379C478.255 1.76087 478.471 1.68125 478.719 1.65629C478.963 1.63217 479.195 1.673 479.406 1.71879C479.537 1.59674 479.699 1.47917 479.891 1.37504C480.41 1.09312 481.056 1.00268 481.687 1.23442C481.974 1.34048 482.198 1.50506 482.375 1.65629C482.406 1.64752 482.436 1.6326 482.469 1.62504C482.927 1.52004 483.326 1.58274 483.656 1.70317L483.672 1.68754C483.97 1.47354 484.395 1.27054 484.922 1.25004C484.963 1.2485 485.007 1.265 485.047 1.26567C485.333 1.11774 485.684 1.00525 486.094 1.00004C486.699 0.99349 487.158 1.25303 487.5 1.50004C487.656 1.4354 487.814 1.35371 488 1.32817L488.922 1.40629L489.453 1.71879C489.477 1.70248 489.491 1.67205 489.516 1.65629C489.78 1.48695 490.146 1.35017 490.578 1.32817C491.018 1.30698 491.415 1.41336 491.719 1.57817C491.999 1.73052 492.205 1.93072 492.359 2.10942C492.371 2.09673 492.378 2.07504 492.391 2.06254C492.63 1.82317 493.051 1.4969 493.672 1.40629C493.913 1.3713 494.134 1.41747 494.344 1.45317C494.481 1.3913 494.606 1.2993 494.75 1.25004L495.312 1.14067C495.862 1.09307 496.385 1.2395 496.797 1.50004C496.934 1.5872 497.031 1.7126 497.141 1.81254C497.592 1.76844 497.977 1.83841 498.297 1.98442C498.694 1.84393 499.104 1.77424 499.516 1.87504C499.831 1.74224 500.179 1.69992 500.594 1.73442C500.519 1.74678 500.456 1.761 500.406 1.78129C500.485 1.74906 500.575 1.75753 500.656 1.73442C500.76 1.74579 500.874 1.70824 500.984 1.73442C500.903 1.71498 500.812 1.71546 500.719 1.71879C501.115 1.61914 501.527 1.58542 501.937 1.71879C502.354 1.85437 502.642 2.0992 502.844 2.29692C502.962 2.21064 503.057 2.08337 503.203 2.01567C503.43 1.91048 503.678 1.85241 503.937 1.82816C504.336 1.51408 504.983 1.20142 505.781 1.39066C506.002 1.443 506.164 1.57816 506.328 1.67191C506.571 1.51704 506.865 1.37447 507.219 1.31254L507.953 1.29691C508.132 1.32485 508.286 1.40679 508.437 1.46879C508.679 1.36206 508.967 1.28506 509.297 1.28129C509.677 1.27745 509.999 1.38736 510.266 1.51566C510.495 1.51158 510.711 1.5433 510.922 1.59379C511.357 1.21426 511.967 0.818373 512.812 0.875039C513.661 0.933506 514.184 1.44443 514.469 1.79691C514.817 1.59971 515.266 1.43088 515.812 1.50004C516.196 1.54889 516.495 1.70237 516.734 1.85941C516.824 1.85645 516.92 1.82001 517.016 1.82816C517.282 1.85158 517.513 1.92532 517.719 2.01566C517.93 1.89895 518.184 1.79169 518.484 1.75004C518.792 1.70802 519.068 1.75243 519.312 1.81254C519.471 1.68491 519.644 1.54977 519.859 1.45316C520.377 1.22043 520.926 1.24346 521.453 1.39066C521.625 1.3669 521.796 1.34332 521.969 1.34379L522.656 1.40629L523.281 1.60941C523.679 1.79451 523.963 2.08887 524.203 2.34379C524.55 2.33284 524.895 2.33851 525.234 2.40629C525.47 2.45366 525.672 2.56528 525.875 2.65629C525.895 2.63512 525.917 2.6154 525.937 2.59379L526.391 2.21879C526.581 2.09544 526.816 1.98848 527.094 1.92191C527.257 1.88329 527.423 1.90831 527.578 1.90629C527.606 1.8784 527.626 1.83979 527.656 1.81254C528.07 1.4396 528.853 1.05553 529.781 1.35941L529.812 1.39066C529.904 1.3703 529.993 1.3219 530.094 1.31254C530.878 1.24023 531.442 1.60776 531.812 1.92191C532.34 1.80313 532.834 1.86163 533.25 2.04691L533.703 2.31254L533.812 2.39066C534.361 2.19997 534.897 2.27941 535.391 2.46879C535.485 2.42082 535.568 2.33539 535.672 2.29691L536.687 2.15629C536.82 2.16758 536.935 2.2486 537.062 2.28129C537.084 2.256 537.102 2.22785 537.125 2.20316C537.325 1.98505 537.677 1.68571 538.187 1.53129C538.467 1.44749 538.746 1.41363 539.016 1.43754L539.797 1.65629L540.234 1.98441C540.249 1.97413 540.266 1.96481 540.281 1.95316L541.047 1.56254C541.342 1.47032 541.682 1.42474 542.047 1.46879C542.42 1.51486 542.726 1.65929 542.984 1.81254C543.016 1.80824 543.047 1.80084 543.078 1.79691C543.347 1.63992 543.621 1.49381 543.906 1.37504C544.305 1.20895 544.738 1.1072 545.187 1.07816C545.72 1.04477 546.166 1.19259 546.531 1.39066C546.938 1.30191 547.318 1.34762 547.687 1.45316C547.846 1.42424 547.996 1.36305 548.156 1.35941L549.078 1.46879L549.672 1.71879C549.76 1.76936 549.827 1.84938 549.906 1.90629C550.121 1.80958 550.365 1.71848 550.656 1.70316C551.092 1.68052 551.433 1.81969 551.719 1.96879C551.736 1.95031 551.747 1.92449 551.766 1.90629C551.953 1.72406 552.262 1.482 552.703 1.35941C553.183 1.22768 553.675 1.27718 554.094 1.45316L554.125 1.50004C554.307 1.45858 554.498 1.39311 554.719 1.40629C555.144 1.43278 555.471 1.60736 555.734 1.78129C556.059 1.51384 556.59 1.22456 557.281 1.26566C557.951 1.30629 558.42 1.63807 558.687 1.89066C558.776 1.97456 558.822 2.08645 558.891 2.17191L558.906 2.17191C558.991 2.10204 559.092 2.01254 559.203 1.89066L559.781 1.40629C560.03 1.25106 560.34 1.11802 560.703 1.06253C561.096 1.0034 561.453 1.05577 561.766 1.15628L562.562 1.57816L562.891 1.85941C563.34 1.531 564.017 1.25619 564.812 1.51566C565.051 1.30952 565.414 1.0794 565.891 0.98441C566.149 0.933252 566.402 0.934854 566.641 0.968784L567.312 1.17191L567.625 1.37503C567.881 1.29878 568.155 1.27118 568.453 1.29691C568.773 1.19303 569.136 1.12954 569.531 1.20316C569.743 1.24325 569.914 1.34169 570.078 1.42191C570.724 1.23882 571.272 1.42173 571.703 1.67191C572.289 1.50865 572.875 1.54719 573.391 1.79691C573.444 1.82288 573.481 1.87773 573.531 1.90628C573.986 1.87174 574.413 1.93202 574.766 2.12503C574.835 2.16305 574.876 2.23851 574.937 2.28128C575.189 2.08483 575.5 1.87564 575.906 1.78128C576.053 1.74721 576.203 1.78766 576.344 1.78128C576.684 1.5056 577.106 1.24053 577.656 1.15628C578.333 1.05388 578.852 1.28778 579.234 1.54691C579.403 1.49675 579.582 1.44731 579.781 1.43753L580.484 1.53128C580.648 1.43232 580.846 1.33885 581.078 1.28128C581.549 1.16527 582.021 1.22041 582.422 1.39066C582.609 1.47017 582.738 1.61287 582.875 1.71878C583.273 1.46299 583.811 1.2497 584.5 1.42191C584.961 1.19315 585.543 1.02481 586.187 1.26566C586.252 1.29004 586.301 1.34644 586.359 1.37503C586.838 1.2067 587.371 1.12816 587.922 1.32816C588.027 1.36649 588.111 1.45175 588.203 1.50003C588.702 1.32258 589.251 1.28896 589.766 1.50003L589.781 1.51566C590.106 1.3968 590.485 1.31565 590.891 1.39066C591.2 1.44871 591.442 1.59093 591.641 1.71878C591.83 1.64887 592.039 1.57247 592.281 1.56253C592.616 1.54927 592.896 1.6358 593.141 1.73441C593.251 1.70693 593.359 1.65044 593.484 1.64066C593.778 1.61863 594.039 1.66451 594.266 1.73441C594.479 1.5981 594.741 1.46212 595.062 1.40628C595.78 1.28339 596.334 1.57183 596.703 1.84378C597.046 1.58519 597.512 1.30568 598.141 1.31253C598.294 1.31468 598.442 1.36277 598.578 1.39066C598.93 1.25301 599.345 1.16743 599.844 1.28128C600.34 1.39452 600.707 1.64563 600.969 1.90628C601.14 1.90052 601.299 1.92534 601.453 1.95316C601.749 1.7592 602.138 1.58527 602.641 1.59378C603.23 1.60552 603.642 1.86478 603.937 2.10941C604.266 1.90917 604.684 1.73949 605.203 1.75003L605.25 1.76566C605.496 1.60412 605.806 1.43771 606.203 1.39066C607.031 1.29498 607.598 1.68535 607.969 2.03128C608.101 2.00994 608.231 1.95207 608.375 1.95316C608.49 1.95404 608.596 2.00027 608.703 2.01566C608.726 1.98621 608.741 1.95059 608.766 1.92191C608.954 1.70217 609.287 1.36023 609.812 1.18753C610.383 1.00066 610.958 1.08674 611.437 1.31253C611.765 1.33841 612.09 1.38222 612.406 1.46878C612.597 1.5214 612.738 1.66541 612.891 1.75003C612.958 1.72363 613.02 1.67714 613.094 1.65628C613.364 1.58071 613.636 1.58626 613.891 1.60941C614.096 1.5385 614.322 1.45647 614.578 1.45316C614.846 1.45017 615.082 1.5219 615.297 1.59378C615.578 1.40394 615.955 1.20932 616.437 1.18753C616.814 1.17182 617.134 1.27055 617.406 1.39066C617.84 1.22407 618.368 1.15129 618.953 1.3594C618.989 1.37192 619.012 1.37487 619.016 1.37503C619.895 1.41655 620.465 1.92539 620.844 2.3594C620.871 2.35526 620.894 2.33144 620.922 2.32815L620.937 2.32815C621.261 2.03179 621.857 1.65437 622.672 1.75003C622.856 1.77224 623.005 1.88087 623.156 1.93753C623.476 1.55233 624.321 0.781382 625.547 1.12503C625.896 1.22382 626.153 1.42403 626.375 1.6094C626.953 1.6766 627.389 1.90747 627.641 2.14065C627.926 2.40618 628.111 2.73038 628.25 3.01565C628.282 3.01463 628.312 3.00027 628.344 3.00003C628.478 2.74967 628.609 2.50737 628.75 2.28128L629.094 1.82815C629.265 1.65405 629.496 1.4756 629.797 1.34378C630.606 0.992824 631.422 1.20261 631.953 1.59378C632.004 1.63196 632.033 1.69429 632.078 1.7344C632.193 1.70453 632.308 1.65117 632.437 1.64065C632.886 1.60513 633.292 1.72392 633.609 1.89065C633.691 1.93345 633.742 2.01403 633.812 2.06253C633.933 2.02462 634.049 1.95519 634.187 1.93753C634.771 1.86365 635.282 2.0325 635.656 2.26565C635.72 2.30527 635.755 2.37839 635.812 2.4219C635.843 2.4211 635.875 2.40585 635.906 2.40628C635.986 2.40753 636.066 2.44443 636.141 2.45315C636.519 2.21581 636.995 2.057 637.547 2.09378C637.843 1.85967 638.282 1.5914 638.875 1.57815C639.351 1.56803 639.731 1.7453 640.031 1.9219C640.498 1.84727 640.906 1.95045 641.234 2.09378C641.42 1.85956 641.735 1.51036 642.25 1.32815C643.049 1.04658 643.802 1.29956 644.281 1.65628C644.522 1.83709 644.657 2.07118 644.781 2.25003C644.972 2.32172 645.139 2.41571 645.297 2.51565C645.364 2.51091 645.43 2.48369 645.5 2.4844C645.602 2.48554 645.7 2.51875 645.797 2.53128C645.954 2.30374 646.128 2.0844 646.328 1.89065C646.667 1.56361 647.272 1.15141 648.094 1.1719C648.263 1.17638 648.415 1.23083 648.562 1.26565C648.837 1.16912 649.153 1.09053 649.516 1.12503C649.941 1.16661 650.274 1.33529 650.547 1.51565C650.831 1.32911 651.205 1.14912 651.687 1.14065C652.551 1.12649 653.111 1.61582 653.359 1.89065L653.375 1.93753C653.762 1.68466 654.248 1.49785 654.797 1.53128L655.406 1.64065L656.031 2.00003C656.128 1.8837 656.205 1.73245 656.328 1.62503C656.706 1.29737 657.326 0.949908 658.125 1.01565L658.891 1.20315C659.175 1.32217 659.392 1.51439 659.594 1.68753C659.68 1.65265 659.761 1.58787 659.859 1.56253C660.428 1.41586 660.976 1.52311 661.422 1.75003C661.637 1.50915 661.929 1.25543 662.328 1.09378C662.775 0.914468 663.274 0.814363 663.781 0.828151L664.562 0.984401C664.861 1.10733 665.081 1.30877 665.266 1.4844C665.496 1.38324 665.762 1.28783 666.078 1.28128C666.609 1.27053 667.01 1.48549 667.312 1.68753C667.463 1.63092 667.613 1.53817 667.797 1.51565C668.036 1.48644 668.249 1.55508 668.453 1.59378C668.96 1.26508 669.649 1.03061 670.437 1.2969C671.015 1.49209 671.378 1.87886 671.609 2.1719C671.768 2.14827 671.931 2.1438 672.109 2.15628C672.424 2.04019 672.746 1.98864 673.094 1.9844C673.373 1.83612 673.711 1.68711 674.125 1.68753C674.55 1.68852 674.891 1.84558 675.172 2.00002C675.235 1.96209 675.288 1.8927 675.359 1.8594C676.061 1.53395 676.825 1.62967 677.406 1.9844L677.422 2.01565C677.482 2.0148 677.547 1.9961 677.609 2.00002C677.989 2.02454 678.311 2.13779 678.578 2.28127C678.628 2.23871 678.677 2.18085 678.734 2.14065C679.243 1.78443 679.995 1.59408 680.766 1.89065C680.876 1.93369 680.954 2.02419 681.047 2.07815L681.062 2.0469C681.266 1.80263 681.723 1.34393 682.469 1.2344C682.881 1.17392 683.245 1.24388 683.547 1.3594L684.266 1.7969L684.578 2.03127L685.125 2.4844C685.24 2.25811 685.356 2.0116 685.531 1.7969C685.799 1.46967 686.429 0.866404 687.422 0.875024L688.187 0.968774L688.891 1.20315L689.797 1.87502L689.797 1.89065C689.927 1.88796 690.067 1.84327 690.203 1.8594L690.641 1.9219C690.885 1.68287 691.229 1.45091 691.672 1.32815C692.33 1.14753 692.862 1.32325 693.281 1.5469L694.234 1.57815L694.469 1.6094C695.304 1.62215 695.847 2.09203 696.156 2.4219C696.263 2.42236 696.366 2.42278 696.469 2.43752C696.557 2.39803 696.639 2.34326 696.734 2.31252C696.825 2.17639 696.907 2.01155 697.047 1.87502C697.399 1.53269 698.127 1.07922 699.078 1.31252C699.253 1.35559 699.377 1.47565 699.516 1.5469C699.826 1.49639 700.172 1.47718 700.547 1.6094C700.869 1.72334 701.092 1.93351 701.281 2.1094C701.615 1.99864 701.979 1.96927 702.359 2.03127C702.412 1.97674 702.475 1.92407 702.531 1.8594L703.062 1.39065C703.287 1.2346 703.562 1.09556 703.891 1.01565C704.627 0.83725 705.295 1.0378 705.781 1.3594C705.903 1.43958 706.015 1.48989 706.109 1.53127C706.342 1.63226 706.52 1.81059 706.703 1.95315C706.809 1.94396 706.916 1.8998 707.031 1.90627C707.276 1.92077 707.492 2.00484 707.687 2.07815C707.878 1.84776 708.162 1.54461 708.609 1.37502C709.505 1.03597 710.305 1.37675 710.766 1.76565C710.887 1.8684 710.944 2.01748 711.031 2.12502C711.101 2.07083 711.161 2.00306 711.234 1.95315L712.187 1.57815C712.545 1.51714 712.931 1.5357 713.328 1.6719C713.498 1.73008 713.629 1.83969 713.766 1.9219C713.999 1.74115 714.311 1.55903 714.719 1.4844C715.193 1.398 715.599 1.51264 715.937 1.65627C716.065 1.61909 716.195 1.55997 716.344 1.5469C716.481 1.53503 716.611 1.58248 716.734 1.59377C716.989 1.41537 717.316 1.2334 717.75 1.18752C718.453 1.11388 718.987 1.40349 719.328 1.6719C719.631 1.61838 719.974 1.59855 720.344 1.71877C720.584 1.79739 720.755 1.95561 720.922 2.07815C721.28 1.74362 721.889 1.40406 722.656 1.45315C722.976 1.34362 723.338 1.26173 723.734 1.32815C723.887 1.35387 724.012 1.43556 724.141 1.4844C724.302 1.41196 724.468 1.31506 724.672 1.28127C725.227 1.19102 725.714 1.3533 726.094 1.56252C726.395 1.3833 726.781 1.21707 727.25 1.21877C727.661 1.22076 727.999 1.3659 728.281 1.51565C728.605 1.45892 728.961 1.45831 729.344 1.59377C729.681 1.71293 729.934 1.89728 730.125 2.07815C730.363 1.93437 730.666 1.80467 731.031 1.76565C731.667 1.6989 732.167 1.94321 732.516 2.18752C732.662 2.14153 732.812 2.07763 732.984 2.06252C733.399 2.0273 733.752 2.12213 734.047 2.25002C734.25 2.04538 734.537 1.80456 734.953 1.67189C735.695 1.4381 736.391 1.62904 736.859 1.95314C737.12 2.13424 737.274 2.38087 737.406 2.56252L737.453 2.56252C737.723 2.32681 738.155 2.07787 738.719 2.03127C738.923 1.79592 739.29 1.44648 739.859 1.29689C740.599 1.10534 741.241 1.34789 741.672 1.65627C742.218 1.29679 742.98 1.13254 743.734 1.46877C743.859 1.52448 743.946 1.63473 744.047 1.70314C744.401 1.72796 744.699 1.81492 744.953 1.95314C745.416 1.71338 746.002 1.54036 746.672 1.79689C746.926 1.89423 747.115 2.04797 747.281 2.18752C747.322 2.1693 747.364 2.15699 747.406 2.14064C747.67 1.8574 748.091 1.50279 748.703 1.35939C749.075 1.27262 749.43 1.28794 749.75 1.35939L750.594 1.71877L750.969 2.09377C751.107 1.96758 751.265 1.8214 751.469 1.71877C752.15 1.37908 752.907 1.44329 753.516 1.79689C753.552 1.78933 753.587 1.772 753.625 1.76564C754.414 1.63257 755.014 1.92322 755.469 2.25002C755.526 2.20689 755.575 2.14913 755.641 2.10939C756.232 1.75282 757.005 1.66746 757.703 2.00002C758.066 2.17335 758.299 2.43593 758.469 2.64064C758.561 2.62246 758.653 2.58603 758.75 2.57814L759.484 2.62502L759.828 2.76564C760.153 2.62674 760.509 2.53407 760.906 2.54689C761.231 2.18276 761.774 1.72344 762.625 1.73439C763.292 1.74402 763.764 2.04488 764.094 2.34377C764.125 2.3373 764.156 2.3179 764.187 2.31252C764.298 2.29382 764.409 2.33171 764.516 2.32814C764.929 2.04288 765.501 1.79419 766.25 1.96877C766.301 1.91378 766.346 1.84958 766.406 1.79689C766.622 1.60884 766.969 1.38456 767.437 1.29689C767.876 1.21581 768.275 1.30782 768.625 1.45314C769.066 1.23824 769.566 1.07355 770.141 1.12502L770.781 1.26564C770.979 1.33526 771.165 1.41498 771.328 1.51564C771.578 1.40773 771.878 1.34041 772.219 1.34377C772.558 1.34828 772.864 1.41942 773.109 1.53127C773.496 1.47526 773.903 1.48054 774.297 1.65627C774.474 1.73569 774.604 1.86779 774.734 1.96877C774.788 1.91416 774.852 1.86921 774.906 1.81252C775.167 1.53792 775.574 1.20572 776.141 1.04689C776.762 0.873846 777.378 0.963689 777.891 1.21877C778.077 1.31171 778.245 1.43526 778.422 1.54689C779.12 1.35628 779.785 1.50739 780.297 1.82814C780.451 1.63653 780.671 1.40964 780.984 1.23439C781.507 0.942694 782.135 0.889975 782.734 1.09377C782.919 1.08179 783.1 1.06002 783.281 1.07814L784.047 1.25002L784.984 1.76564C785.06 1.82722 785.104 1.92008 785.172 1.98439C785.506 1.80821 785.914 1.65717 786.406 1.68752C786.618 1.70085 786.792 1.8016 786.969 1.85939C787.428 1.75369 787.884 1.77346 788.297 1.93752C788.332 1.9516 788.357 2.00025 788.391 2.01564C788.546 1.97676 788.695 1.95929 788.844 1.95314C788.903 1.91318 788.949 1.8486 789.016 1.81252C789.551 1.52418 790.152 1.49095 790.703 1.67189C790.721 1.65917 790.732 1.63744 790.75 1.62501C791.297 1.25412 792.038 1.13941 792.75 1.42189C793.148 1.28637 793.603 1.20226 794.094 1.35939C794.357 1.44407 794.559 1.58724 794.734 1.71876C794.882 1.73678 795.026 1.75087 795.172 1.79689C795.393 1.57861 795.719 1.32184 796.187 1.20314C796.874 1.03023 797.447 1.25607 797.859 1.51564C798.318 1.41302 798.733 1.49452 799.109 1.64064C799.173 1.62028 799.227 1.56196 799.297 1.54689C799.627 1.47646 799.932 1.50304 800.203 1.56251C800.524 1.43497 800.992 1.29768 801.547 1.46876C802.313 1.70499 802.669 2.29223 802.797 2.56251C803.015 3.02721 803 3.47944 803 3.56251L803 3.79689L802.953 4.01564L802.844 4.45314L801 4.03126L801 4.98439C801.061 4.92385 801.118 4.88771 801.141 4.85939L801 5.07814L801 5.39064C801.444 5.37793 801.789 5.2075 801.953 5.10939C802.191 4.96591 802.329 4.80309 802.375 4.75001C802.435 4.68107 802.474 4.62456 802.484 4.60939C802.501 4.58409 802.504 4.60247 802.469 4.67189C802.367 4.87152 802.185 5.14534 801.922 5.40626C801.734 5.59206 801.422 5.80395 801 5.93751L801 6.00001L800.719 6.00001C800.617 6.01737 800.518 6.07555 800.406 6.07814C800.295 6.08071 800.195 6.01256 800.094 6.00001C799.837 6.14081 799.528 6.26933 799.141 6.28126C798.496 6.30091 798.028 6.03102 797.719 5.78126C797.671 5.78106 797.624 5.78428 797.578 5.78126C797.505 5.89173 797.447 6.03038 797.344 6.14064C797.059 6.44457 796.403 6.95597 795.453 6.82814C794.606 6.71382 794.127 6.15474 793.953 5.92189C793.937 5.90089 793.922 5.88007 793.906 5.85939C793.586 6.08669 793.138 6.30414 792.547 6.26564C792.429 6.25783 792.324 6.21112 792.219 6.18751C792.06 6.31483 791.876 6.45551 791.641 6.54689C790.898 6.83385 790.159 6.6752 789.641 6.32814C789.541 6.26129 789.471 6.1667 789.391 6.09377C789.019 6.32795 788.532 6.51497 787.906 6.42189C787.514 6.36335 787.207 6.19491 786.953 6.01564C786.917 6.0159 786.881 6.03268 786.844 6.03127C786.791 6.02919 786.738 6.00536 786.688 6.00002C786.361 6.36194 785.805 6.85974 784.922 6.82814C783.757 6.78327 783.151 5.9045 782.984 5.64064C782.973 5.62227 782.949 5.61182 782.937 5.59377C782.858 5.73306 782.796 5.90271 782.672 6.04689C782.428 6.32888 781.807 6.90223 780.844 6.82814C780.268 6.78321 779.868 6.50622 779.594 6.26564C779.105 6.14917 778.74 5.88466 778.453 5.60939L778.422 5.60939C777.907 5.6449 777.447 5.50943 777.047 5.32814C776.841 5.52148 776.628 5.70384 776.422 5.89064C776 6.27301 775.401 6.63983 774.641 6.71877C773.662 6.81824 773.015 6.27766 772.687 5.92189C772.558 5.91201 772.443 5.85684 772.328 5.82814C771.737 6.0964 771.038 6.14588 770.375 5.82814C770.153 5.72173 769.951 5.59311 769.766 5.45314C769.528 5.61552 769.226 5.7812 768.844 5.84377C768.825 5.84675 768.8 5.84127 768.781 5.84377C768.767 5.86751 768.765 5.89863 768.75 5.92189C768.615 6.13035 768.333 6.52338 767.828 6.78127C767.191 7.10434 766.45 7.09293 765.828 6.76564C765.636 6.66437 765.498 6.50618 765.344 6.37502C765.18 6.39737 765.019 6.38687 764.859 6.37502C764.32 6.64132 763.649 6.78654 762.906 6.53127C762.77 6.4842 762.651 6.40775 762.531 6.34377C762.392 6.40537 762.254 6.4936 762.094 6.53127C761.776 6.60538 761.457 6.6165 761.141 6.59377C760.913 6.71443 760.645 6.8275 760.344 6.87502C759.906 6.94253 759.504 6.84921 759.141 6.71877C758.801 6.90949 758.412 7.07325 757.953 7.10939C757.11 7.17466 756.538 6.75989 756.188 6.42189C755.947 6.44438 755.699 6.43818 755.438 6.37502C754.723 6.47717 754.152 6.28854 753.719 5.98439C753.507 6.04136 753.289 6.05364 753.063 6.04689C752.686 6.42112 752.013 6.91433 751.047 6.71877C750.22 6.84654 749.549 6.52025 749.141 6.17189C749.073 6.11437 749.012 6.04545 748.953 5.98439C748.825 6.14998 748.712 6.34819 748.531 6.50002C748.166 6.8062 747.589 7.11573 746.859 7.09377C746.292 7.07658 745.864 6.8533 745.547 6.60939C744.64 6.88499 743.865 6.54874 743.391 6.14064C743.218 6.29801 742.993 6.46118 742.703 6.57814C742.124 6.81116 741.495 6.79861 740.953 6.54689C740.832 6.49073 740.747 6.38157 740.641 6.31252C740.572 6.35674 740.516 6.43027 740.438 6.46877C740.057 6.65506 739.589 6.73858 739.094 6.64064C739.062 6.6343 739.031 6.61694 739 6.60939C738.628 6.78914 738.179 6.93061 737.641 6.84377C737.423 6.80847 737.226 6.72908 737.031 6.65627C736.93 6.68218 736.832 6.75409 736.719 6.76564C736.159 6.8217 735.713 6.62818 735.375 6.42189C734.978 6.62973 734.503 6.80022 733.938 6.75002C733.631 6.72223 733.366 6.62509 733.125 6.51564C732.609 6.70851 732.036 6.79578 731.453 6.56252C731.418 6.54859 731.393 6.51516 731.359 6.50002C731.252 6.56371 731.153 6.65361 731.031 6.70315C730.5 6.91807 729.912 6.98955 729.313 6.89065C728.625 6.77642 728.18 6.37704 727.906 6.06252C727.801 6.05594 727.704 6.03519 727.609 6.01565C727.321 6.29388 726.844 6.6758 726.109 6.6719C725.543 6.66885 725.125 6.44388 724.828 6.21877C724.667 6.26879 724.492 6.31878 724.297 6.32815C723.78 6.35142 723.368 6.17686 723.062 5.9844L722.188 6.56252C721.96 6.65044 721.704 6.68349 721.422 6.68752C721.069 6.84392 720.647 6.96568 720.156 6.87502C719.685 6.78783 719.348 6.54993 719.109 6.34377C718.759 6.35542 718.457 6.25885 718.188 6.14065C717.957 6.27251 717.682 6.40542 717.344 6.43752C717.114 6.45874 716.909 6.41425 716.719 6.37502C716.525 6.45943 716.301 6.52537 716.047 6.5469C715.587 6.58543 715.221 6.45191 714.922 6.2969C714.77 6.37427 714.624 6.50038 714.438 6.5469C713.701 6.72823 713.073 6.48773 712.609 6.18752C712.511 6.28111 712.434 6.39918 712.328 6.4844C711.744 6.95361 710.874 7.2924 709.891 7.01565C709.399 6.87509 709.044 6.59772 708.797 6.32815C708.622 6.39798 708.449 6.49394 708.25 6.53127C707.609 6.65118 707.092 6.48027 706.672 6.25002C706.47 6.28304 706.255 6.31347 706.016 6.28127C705.295 6.18281 704.829 5.76917 704.547 5.43752C704.135 5.75494 703.614 6.04174 702.969 6.1094C702.885 6.11815 702.801 6.09163 702.719 6.09377C702.639 6.18637 702.596 6.31977 702.5 6.40627C702.132 6.73783 701.506 7.10776 700.688 7.0469C699.86 6.98393 699.349 6.49071 699.063 6.14065C699.017 6.13612 698.969 6.14828 698.922 6.14065C698.78 6.11727 698.652 6.05992 698.531 6.01565C698.345 6.0908 698.147 6.16528 697.922 6.18752C697.64 6.36152 697.296 6.52046 696.875 6.56252C696.784 6.57148 696.696 6.53234 696.609 6.53127C696.545 6.57069 696.495 6.63711 696.422 6.6719C695.81 6.96341 695.113 6.95196 694.516 6.65627C694.031 6.41549 693.739 6.05579 693.594 5.84377C693.536 5.75928 693.484 5.66247 693.437 5.57815C693.191 5.62751 692.945 5.6409 692.687 5.6094C692.208 5.94204 691.523 6.17924 690.75 5.9844C690.621 5.95196 690.497 5.92059 690.375 5.90627C690.262 5.89323 690.144 5.88825 690.031 5.87502C689.435 6.12302 688.746 6.13003 688.109 5.81252C688.03 5.77306 687.961 5.71697 687.891 5.6719C687.751 5.86072 687.618 6.06062 687.438 6.21877C686.887 6.70112 686.026 7.08731 685.016 6.82815L685.063 6.82815C684.253 6.91924 683.654 6.59119 683.219 6.2344C683.206 6.24523 683.201 6.27061 683.188 6.28127C682.957 6.46102 682.616 6.65285 682.172 6.71877C681.82 6.77076 681.497 6.70601 681.203 6.6094C680.764 6.7072 680.297 6.73941 679.844 6.53127C679.748 6.48736 679.675 6.41114 679.594 6.3594C679.492 6.37579 679.391 6.40403 679.281 6.40627C679.047 6.41082 678.826 6.38393 678.625 6.32815C678.295 6.38225 677.944 6.39108 677.594 6.2969C677.484 6.26704 677.395 6.19731 677.297 6.15627C677.184 6.1755 677.073 6.20223 676.953 6.20315C676.661 6.52416 676.177 6.96202 675.422 7.03127C674.374 7.12686 673.683 6.50077 673.391 6.15628C673.339 6.09526 673.312 6.01675 673.266 5.95315L673.25 5.95315C673.063 6.02177 672.872 6.07811 672.672 6.1094C672.311 6.47661 671.743 6.91547 670.875 6.82815C670.238 6.76272 669.786 6.4475 669.531 6.20315C669.348 6.02651 669.228 5.82074 669.125 5.65628L669.094 5.6719C668.962 5.88512 668.581 6.43642 667.844 6.6719C667.25 6.8603 666.747 6.73135 666.344 6.5469C666.264 6.60413 666.189 6.68402 666.094 6.7344C665.576 7.00673 664.932 7.08516 664.313 6.8594C663.898 6.70815 663.599 6.44537 663.375 6.20315C663.341 6.23099 663.318 6.28582 663.281 6.31253C662.715 6.71666 661.888 6.89558 661.094 6.51565C660.95 6.44698 660.846 6.33431 660.734 6.25003C660.635 6.32111 660.546 6.42516 660.422 6.4844C659.749 6.80547 659.002 6.74701 658.406 6.40628C658.208 6.2925 658.052 6.14743 657.922 6.01565C657.542 6.36398 657.042 6.72891 656.375 6.84378C655.476 6.99686 654.774 6.59668 654.375 6.2344C654.124 6.31226 653.894 6.34857 653.672 6.34378C653.648 6.35775 653.635 6.39296 653.609 6.40628C653.266 6.58532 652.822 6.68588 652.344 6.62503C651.885 6.56567 651.534 6.37138 651.297 6.18753C651.243 6.14574 651.204 6.09083 651.156 6.0469C651.068 6.07103 650.988 6.14207 650.891 6.15628C650.062 6.27719 649.391 5.93695 648.984 5.59378C648.945 5.56064 648.913 5.5188 648.875 5.4844L648.703 5.4844C648.555 5.73693 648.365 6.0238 648.094 6.26565C647.643 6.66729 646.845 7.06799 645.891 6.7969C645.718 6.7479 645.568 6.64648 645.406 6.57815C645.081 6.64447 644.725 6.66744 644.359 6.57815C643.942 6.47546 643.627 6.25199 643.375 6.0469C643.174 6.21563 642.93 6.39126 642.625 6.50003C642.255 6.63145 641.869 6.72063 641.469 6.75003C641.01 6.78342 640.621 6.65462 640.297 6.50003C640.043 6.57031 639.761 6.62438 639.438 6.57815C638.903 6.50171 638.535 6.23256 638.281 6.00003C638.249 6.00584 638.22 6.02651 638.188 6.03128C637.904 6.34844 637.477 6.71135 636.828 6.81253C636.426 6.87393 636.079 6.80644 635.781 6.70315C635.387 6.79301 634.963 6.82394 634.547 6.6719C634.484 6.64874 634.432 6.60516 634.375 6.57815C634.268 6.63139 634.175 6.72786 634.047 6.76565C633.361 6.96593 632.764 6.76329 632.328 6.50003C631.843 6.66564 631.317 6.7033 630.813 6.50003L630.797 6.4844C630.339 6.88759 629.544 7.28056 628.594 7.00003C628.509 6.97487 628.428 6.9586 628.359 6.95315C628.027 7.03919 627.689 7.10719 627.344 7.12503C626.165 7.18585 625.492 6.34625 625.281 6.0469C625.27 6.03152 625.26 6.0156 625.25 6.00003C625.202 6.05566 625.179 6.13433 625.125 6.18753C624.753 6.55261 624.043 7.02276 623.094 6.87503C622.67 6.8078 622.327 6.62924 622.063 6.43753C621.856 6.47551 621.64 6.51204 621.406 6.4844L621.375 6.46878C621.23 6.53106 621.094 6.63681 620.922 6.6719C620.198 6.81868 619.542 6.6083 619.078 6.2969C618.867 6.15519 618.699 5.97018 618.531 5.7969C618.188 6.0316 617.711 6.26492 617.078 6.18753C616.882 6.16326 616.705 6.10972 616.547 6.04691C616.153 6.28869 615.621 6.51719 614.969 6.37503C614.717 6.31955 614.525 6.18574 614.344 6.07816C614.065 6.35534 613.611 6.72004 612.922 6.75003C611.898 6.79221 611.291 6.12935 611.094 5.87503L611.078 5.87503C610.84 6.12029 610.392 6.4774 609.734 6.56253C609.06 6.64892 608.518 6.38968 608.156 6.12503C607.772 6.21021 607.357 6.23234 606.922 6.12503C606.734 6.07853 606.565 5.99978 606.406 5.92191C605.993 6.05741 605.618 6.05509 605.281 5.98441C605.136 6.04555 604.977 6.07409 604.813 6.10941C604.6 6.29913 604.314 6.50298 603.922 6.60941C603.395 6.75233 602.934 6.64559 602.547 6.48441C601.966 6.67645 601.335 6.63948 600.797 6.32816C600.65 6.24297 600.546 6.11415 600.438 6.01566C599.861 6.05909 599.358 5.8824 598.969 5.62503C598.894 5.63331 598.821 5.62386 598.75 5.62503C598.61 5.86127 598.466 6.13369 598.234 6.35941C597.891 6.69361 597.273 7.12038 596.422 7.07816C595.797 7.04536 595.347 6.75095 595.031 6.46878C594.558 6.62635 594.069 6.62605 593.609 6.45316C593.381 6.52153 593.123 6.5722 592.828 6.54691C592.773 6.54216 592.724 6.5084 592.672 6.50003C592.404 6.66372 592.07 6.82654 591.641 6.84378C591.131 6.86381 590.727 6.68853 590.422 6.50003C590.369 6.51747 590.323 6.56439 590.266 6.57816C589.063 6.86159 588.307 6.07936 588.062 5.76566C587.789 5.77404 587.506 5.74142 587.219 5.64066C587.118 5.60495 587.027 5.54515 586.937 5.50003C586.69 5.59426 586.434 5.64951 586.172 5.65628C585.897 5.93387 585.48 6.26037 584.844 6.31253C584.564 6.33461 584.313 6.29692 584.094 6.23441C584.018 6.2773 583.959 6.35417 583.875 6.39066C583.325 6.62614 582.7 6.65733 582.109 6.45316C582.024 6.42348 581.953 6.36456 581.875 6.32816C581.807 6.36933 581.749 6.43351 581.672 6.46878C581.206 6.67958 580.651 6.72315 580.125 6.54691C579.94 6.48481 579.791 6.38428 579.656 6.29691C579.292 6.42686 578.851 6.50105 578.359 6.35941C577.939 6.2373 577.634 6.00666 577.422 5.79691C577.225 5.84299 577.032 5.86326 576.844 5.85941C576.704 5.96861 576.577 6.11018 576.422 6.20316C576.18 6.34833 575.933 6.48092 575.688 6.60941C575.302 6.81092 574.82 6.92419 574.297 6.84378C573.797 6.76685 573.41 6.53924 573.156 6.32816C573.069 6.25516 573.011 6.15731 572.938 6.07816L572.922 6.09378C572.636 6.0594 572.386 5.98186 572.172 5.87503C572.016 5.93487 571.846 5.99125 571.656 6.01566C571.415 6.04631 571.182 6.02389 570.969 5.98441C570.717 6.12169 570.407 6.23657 570.031 6.25003C569.371 6.27355 568.905 5.97918 568.594 5.71878C568.285 5.92358 567.869 6.14268 567.328 6.12503C567.023 6.11421 566.771 6.00521 566.547 5.90628C566.49 5.95834 566.452 6.03012 566.391 6.07816C566.049 6.34593 565.509 6.62134 564.828 6.56253C564.396 6.52437 564.057 6.34525 563.797 6.17191C563.419 6.25187 562.992 6.24131 562.547 6.07816C562.403 6.02557 562.262 5.98657 562.125 5.95316C561.745 5.86035 561.406 5.70376 561.109 5.51566C560.812 5.72005 560.459 5.86912 560.062 5.96879C559.742 6.27499 559.234 6.64872 558.5 6.67191C557.821 6.69247 557.332 6.38791 556.984 6.10941C556.945 6.139 556.904 6.18056 556.859 6.21879C556.501 6.5266 555.868 6.86985 555.063 6.73441C554.683 6.66953 554.386 6.50893 554.156 6.34379C554.07 6.35125 553.984 6.39393 553.891 6.39066C553.623 6.38107 553.392 6.31568 553.188 6.23441C553.121 6.26395 553.072 6.33495 553 6.35941C553.021 6.35214 552.993 6.36784 552.922 6.42191C552.55 6.7014 551.967 6.94686 551.266 6.84379C551.095 6.81841 550.953 6.74189 550.813 6.68754C550.518 6.81253 550.163 6.90291 549.75 6.85941C549.003 6.78065 548.52 6.34568 548.297 6.09379C548.107 5.8797 547.929 5.64696 547.75 5.40629C547.618 5.41244 547.489 5.45004 547.359 5.43754C547.015 5.61719 546.582 5.74475 546.062 5.68754C545.631 5.6388 545.273 5.48357 545 5.29691C544.595 5.52883 544.136 5.70785 543.625 5.76566C543.481 5.78191 543.334 5.79615 543.187 5.82816C542.635 5.94886 542.136 5.8972 541.719 5.73441C541.698 5.74419 541.678 5.75617 541.656 5.76566C541.632 5.7763 541.567 5.80995 541.469 5.89066C540.956 6.3104 540.131 6.62017 539.219 6.29691C538.876 6.6229 538.34 7.01855 537.547 6.98441C537.107 6.96423 536.749 6.81699 536.438 6.64066C536.1 6.81902 535.689 6.98011 535.172 6.92191C534.703 6.86841 534.343 6.66641 534.063 6.45316C533.465 6.55424 532.932 6.42978 532.453 6.20316C532.24 6.29851 531.998 6.3837 531.719 6.40629C530.916 6.47031 530.357 6.09303 530 5.76566C529.845 5.962 529.642 6.19124 529.344 6.35941C528.99 6.558 528.518 6.68145 528 6.60941C527.831 6.58549 527.686 6.52191 527.547 6.46879C527.228 6.66631 526.868 6.85271 526.438 6.92191C525.545 7.06515 524.822 6.71284 524.313 6.31254C523.995 6.33079 523.676 6.3284 523.359 6.29691C522.547 6.21526 521.986 5.76073 521.609 5.35941C521.562 5.36187 521.516 5.35924 521.469 5.35941C521.286 5.54675 521.082 5.72054 520.859 5.87504C520.363 6.21933 519.705 6.37784 519.016 6.21879C518.63 6.44351 518.146 6.65386 517.547 6.57816C517.14 6.52647 516.804 6.36812 516.516 6.18754C516.262 6.21649 515.99 6.1629 515.688 6.07816C515.63 6.11417 515.593 6.18636 515.531 6.21879C515.243 6.37039 514.944 6.49934 514.641 6.60941C514.051 6.82294 513.436 6.76738 512.922 6.51566C512.475 6.29624 512.187 5.97469 512.031 5.76566C512.006 5.732 511.992 5.69087 511.969 5.65629C511.314 5.87014 510.676 5.8146 510.125 5.57816C509.884 5.85033 509.448 6.26062 508.75 6.34379C508.281 6.39826 507.889 6.29242 507.578 6.14066C507.202 6.38561 506.709 6.62656 506.078 6.56254C505.529 6.50634 505.126 6.24529 504.828 6.00004C504.788 6.04036 504.778 6.11755 504.734 6.15629C504.397 6.4568 503.85 6.75745 503.156 6.76567C502.796 6.91433 502.371 7.00916 501.906 6.92192C501.353 6.81683 500.968 6.52312 500.734 6.29692C500.642 6.20726 500.575 6.09685 500.5 6.00004C500.26 6.11256 499.995 6.19114 499.672 6.20317C499.431 6.41314 499.103 6.64996 498.641 6.73442C497.708 6.90241 497.022 6.42925 496.703 6.10942C496.659 6.06495 496.632 5.99859 496.594 5.95317C496.129 5.96035 495.683 5.83538 495.312 5.60942C495.244 5.56754 495.186 5.51458 495.125 5.46879C495.091 5.47808 495.05 5.46082 495.016 5.46879C494.889 5.68452 494.739 5.91413 494.531 6.10942C494.259 6.36481 493.773 6.70264 493.094 6.73442C492.949 6.74115 492.818 6.67496 492.688 6.65629C492.316 6.78577 491.879 6.85701 491.391 6.73442C491.22 6.69147 491.094 6.56965 490.953 6.50004C490.768 6.64445 490.561 6.79814 490.297 6.89067C489.375 7.21212 488.637 6.8772 488.172 6.51567C488.054 6.56377 487.936 6.62807 487.797 6.65629C486.692 6.87566 485.956 6.20833 485.703 5.90629C485.653 5.84679 485.636 5.76352 485.594 5.70317C485.368 5.94759 485.057 6.23198 484.625 6.40629C484.17 6.58877 483.656 6.6159 483.156 6.46879C483.134 6.46219 483.116 6.44468 483.094 6.43754C482.746 6.61072 482.316 6.75629 481.797 6.67192C481.352 6.59902 481.024 6.39702 480.781 6.20317C480.379 6.41906 479.87 6.58572 479.281 6.45317C478.852 6.35564 478.538 6.13298 478.312 5.93754C478.172 5.94318 478.024 5.95567 477.875 5.93754C477.515 5.89339 477.177 5.79067 476.859 5.65629C476.784 5.75607 476.734 5.87733 476.641 5.96879C476.371 6.23391 475.861 6.60872 475.125 6.62504C474.377 6.63964 473.836 6.27273 473.547 6.00004C473.499 5.95459 473.453 5.9067 473.406 5.85942C473.256 5.92885 473.102 5.99732 472.938 6.04692C472.279 6.24359 471.646 6.15304 471.094 5.92192C470.908 6.03387 470.682 6.09877 470.422 6.15629C470.352 6.2407 470.316 6.35781 470.234 6.43754C469.913 6.74938 469.357 7.12543 468.594 7.15629C467.743 7.1883 467.159 6.75502 466.828 6.42192C466.322 6.72551 465.697 6.96634 464.953 6.82817C464.317 6.70973 463.898 6.33843 463.625 6.04692C463.199 6.32366 462.609 6.59123 461.875 6.37504C461.804 6.35423 461.752 6.2917 461.688 6.26567C461.249 6.52222 460.728 6.73011 460.109 6.70317C459.838 6.6911 459.575 6.63621 459.313 6.57817C458.83 6.69856 458.327 6.71309 457.844 6.51567C457.536 6.38972 457.293 6.21005 457.094 6.03129C457.027 6.08808 456.978 6.16621 456.906 6.21879C456.507 6.5124 455.893 6.75255 455.172 6.60942C454.53 6.48199 454.117 6.1127 453.906 5.87504C453.753 5.7017 453.634 5.50131 453.531 5.31254C453.323 5.35932 453.12 5.39379 452.922 5.39067C452.87 5.43632 452.823 5.48825 452.766 5.53129C452.319 5.86762 451.645 6.13586 450.859 5.98442C450.396 5.89457 450.005 5.69762 449.672 5.46879C449.555 5.71472 449.445 6.00071 449.25 6.23442C448.916 6.63145 448.041 7.37864 446.813 7.00004C446.331 6.8504 445.991 6.55679 445.75 6.29692C445.448 6.30101 445.144 6.26096 444.859 6.14067C444.826 6.12646 444.797 6.09348 444.766 6.07817C444.499 6.20193 444.182 6.31295 443.797 6.29692C443.314 6.27633 442.934 6.10089 442.656 5.9063C442.277 6.08629 441.817 6.23007 441.266 6.12505C441.061 6.0859 440.88 5.99581 440.703 5.92192C440.601 6.0056 440.515 6.11647 440.391 6.18755C440.045 6.38533 439.601 6.52173 439.094 6.48442C438.596 6.4474 438.19 6.2518 437.906 6.04692C437.809 5.97676 437.728 5.89073 437.641 5.81255C437.391 5.90243 437.113 5.97582 436.797 5.9688C436.543 5.96245 436.317 5.88218 436.109 5.81255C435.807 6.01128 435.4 6.19907 434.875 6.18755C434.641 6.1823 434.437 6.12465 434.25 6.06255C434.209 6.09596 434.186 6.15579 434.141 6.18755C433.753 6.45604 433.243 6.61269 432.703 6.56255C432.455 6.68913 432.155 6.79884 431.797 6.81255C431.198 6.8346 430.739 6.59039 430.422 6.35942C430.407 6.36422 430.389 6.38701 430.359 6.39067L430.438 6.37505C430.007 6.60944 429.473 6.7357 428.891 6.6563C428.836 6.64886 428.787 6.62002 428.734 6.60942C428.566 6.66812 428.381 6.72069 428.172 6.73442C427.677 6.76571 427.276 6.61376 426.969 6.43755C426.545 6.59858 426.073 6.66182 425.594 6.5313C425.318 6.45615 425.093 6.33035 424.906 6.20317C424.645 6.29676 424.383 6.39871 424.109 6.45317C423.393 6.59507 422.778 6.36021 422.328 6.06255C422.124 6.26155 421.842 6.49854 421.438 6.62505C420.713 6.85065 420.033 6.66077 419.563 6.3438C419.446 6.26522 419.387 6.13267 419.297 6.04692C419.104 6.00433 418.916 5.95707 418.75 5.87505C418.679 5.89185 418.609 5.94317 418.531 5.95317C418.193 5.99617 417.89 5.95689 417.625 5.87505C417.423 5.93638 417.203 6.00568 416.953 6.00005C416.569 5.9911 416.244 5.88668 415.984 5.75005C415.591 6.09619 414.961 6.50542 414.078 6.3438C413.784 6.28984 413.54 6.17349 413.328 6.04692C412.88 6.39996 412.2 6.77572 411.297 6.50005C411.138 6.45155 411.006 6.36885 410.875 6.29692C410.717 6.3723 410.554 6.46025 410.359 6.50005C409.503 6.67456 408.876 6.30442 408.469 5.9688C408.327 6.00865 408.183 6.04122 408.031 6.06255L408.047 6.06255C407.623 6.29764 407.097 6.44614 406.516 6.37505L406.5 6.35942C406.487 6.3709 406.482 6.39489 406.469 6.4063C406.129 6.70199 405.602 7.02432 404.906 7.04692C404.535 7.05801 404.205 6.96051 403.922 6.8438C403.795 6.85431 403.667 6.9036 403.531 6.89067C402.99 6.83874 402.57 6.59672 402.297 6.37505C402.098 6.21311 401.943 6.02543 401.812 5.8438C401.721 5.85911 401.626 5.85538 401.531 5.85942C401.331 5.99187 401.101 6.07917 400.859 6.17192C400.43 6.63624 399.658 7.22385 398.578 7.12505C397.601 7.03533 396.945 6.42822 396.578 5.98442C396.545 5.94437 396.516 5.90077 396.484 5.85942C396.297 5.87493 396.102 5.89351 395.891 5.85942C395.764 5.94346 395.634 6.04644 395.469 6.10942C394.818 6.35719 394.153 6.26515 393.625 5.9688C393.586 5.94668 393.552 5.91415 393.516 5.89067C393.195 6.02173 392.803 6.10197 392.359 6.0313C392.2 6.00546 392.07 5.92634 391.937 5.87505C391.9 5.88848 391.867 5.91022 391.828 5.92192C391.533 6.27038 391.066 6.70835 390.313 6.7813C389.251 6.88347 388.603 6.24483 388.297 5.85943L388.281 5.85943C387.982 5.97457 387.662 6.0191 387.344 6.00005C387.155 6.20054 386.891 6.43467 386.516 6.57818C385.715 6.88227 384.95 6.64808 384.453 6.2813L384.422 6.25005C384.325 6.26685 384.23 6.32354 384.125 6.32818C383.506 6.35494 382.939 6.1996 382.453 5.93755C382.397 5.90722 382.337 5.87489 382.281 5.8438C381.92 5.90236 381.534 5.88769 381.141 5.75005C381.096 5.73452 381.058 5.70505 381.016 5.68755C380.976 5.76014 380.967 5.85284 380.922 5.92193C380.788 6.12762 380.524 6.45258 380.109 6.70318C379.621 6.99744 378.967 7.14006 378.297 6.92193C377.426 6.63762 376.904 5.95451 376.609 5.50005C376.54 5.39268 376.46 5.29284 376.391 5.18755C375.943 5.653 375.196 6.22895 374.109 6.04693C373.907 6.01289 373.719 5.96139 373.547 5.89068C373.26 6.0172 372.948 6.1266 372.594 6.12505C372.292 6.26498 371.949 6.39334 371.547 6.39068C371.339 6.38925 371.151 6.32734 370.969 6.2813C370.535 6.43222 370.051 6.52903 369.516 6.4063C369.123 6.75078 368.534 7.13345 367.688 6.98443C367.484 6.9486 367.282 6.90833 367.078 6.87505C366.707 6.81434 366.404 6.66308 366.156 6.50005C365.941 6.65189 365.707 6.8036 365.422 6.89068C364.619 7.13516 363.949 6.85782 363.469 6.5313C363.442 6.53421 363.418 6.56052 363.391 6.56255C362.157 6.65177 361.464 5.75969 361.266 5.4688C361.217 5.39787 361.182 5.34217 361.156 5.31255C361.117 5.28585 361.07 5.27398 361.031 5.25005C360.939 5.29934 360.854 5.36659 360.75 5.4063C360.395 5.54083 360.028 5.58112 359.672 5.54693C359.325 5.68382 358.923 5.77344 358.469 5.70318C358.377 5.81738 358.289 5.94176 358.172 6.04693C357.701 6.46762 356.875 6.86302 355.906 6.54693C355.661 6.68973 355.398 6.82934 355.094 6.9063C353.723 7.25045 352.832 6.36228 352.437 5.8438L352.391 5.85943C352.311 5.94843 352.256 6.05769 352.172 6.14068C351.935 6.37479 351.515 6.68453 350.922 6.7813C350.292 6.88251 349.748 6.69051 349.359 6.43755C348.901 6.4655 348.512 6.34293 348.203 6.17193C347.989 6.28384 347.739 6.39095 347.438 6.42193C347.082 6.45752 346.779 6.3922 346.516 6.29693C346.386 6.33129 346.255 6.38306 346.109 6.39068L345.375 6.29693C345.343 6.30875 345.315 6.33324 345.281 6.3438C345.08 6.40671 344.884 6.40007 344.703 6.4063C344.353 6.76145 343.779 7.21468 342.906 7.14068C341.891 7.05253 341.336 6.34043 341.125 6.0313C340.732 6.28022 340.224 6.52866 339.563 6.42193C339.2 6.36218 338.891 6.20973 338.625 6.04693C338.416 6.17598 338.165 6.30038 337.859 6.35943C337.343 6.45741 336.84 6.36828 336.438 6.17193C336.217 6.14729 336 6.10011 335.781 6.06255C335.392 6.29484 334.877 6.44904 334.297 6.35943C333.854 6.28983 333.512 6.09493 333.266 5.9063C333.122 6.01279 332.965 6.14048 332.766 6.2188C332.369 6.37327 331.975 6.37748 331.609 6.31256C331.392 6.45523 331.117 6.59699 330.781 6.65631C330.049 6.78332 329.444 6.51179 329.063 6.21881C328.987 6.16011 328.901 6.1128 328.828 6.06256C328.489 6.3368 328.013 6.62128 327.359 6.60943C326.505 6.59239 325.959 6.10615 325.656 5.76568C325.63 5.76192 325.604 5.75308 325.578 5.75006L325.547 5.75006C325.232 6.02635 324.838 6.28939 324.328 6.40631C324.328 6.40628 324.291 6.42041 324.234 6.45318C323.747 6.73252 323.112 6.84744 322.469 6.64068C322.203 6.55451 321.988 6.41358 321.813 6.28131C321.441 6.59098 320.906 6.94266 320.141 6.85943C319.654 6.80598 319.285 6.5955 319 6.37506C318.722 6.42071 318.418 6.42101 318.109 6.34381C317.876 6.28484 317.685 6.17998 317.516 6.07818C317.296 6.22308 317.059 6.34996 316.766 6.42193C316.292 6.7962 315.531 7.13619 314.625 6.84381C314.351 6.7555 314.129 6.6128 313.938 6.46881L313.922 6.48443C313.492 6.47651 313.133 6.33262 312.828 6.17193C312.401 6.52994 311.671 6.88609 310.797 6.60943C310.775 6.60241 310.756 6.57012 310.734 6.56256C310.449 6.64971 310.118 6.7146 309.734 6.64068C309.451 6.58499 309.213 6.48316 309.016 6.35943C308.69 6.40091 308.354 6.3713 308.016 6.25006C307.984 6.26271 307.954 6.30068 307.922 6.31256C307.8 6.3575 307.667 6.41246 307.531 6.48443C307.09 6.71731 306.531 6.83066 305.953 6.68756C305.477 6.56855 305.143 6.304 304.922 6.09381C304.291 6.09636 303.769 5.83616 303.422 5.54693C303.113 5.93629 302.695 6.37103 302.063 6.56256C301.945 6.59805 301.819 6.64225 301.688 6.70318C301.112 6.97042 300.446 6.98133 299.859 6.71881C299.365 6.49707 299.063 6.13518 298.906 5.92193C298.875 5.87863 298.857 5.82612 298.828 5.78131C298.736 5.76355 298.646 5.7618 298.562 5.73443C298.453 5.77292 298.348 5.82186 298.234 5.84381C297.902 6.16579 297.404 6.51176 296.688 6.51568C296.395 6.51686 296.148 6.42756 295.922 6.34381C295.779 6.43982 295.63 6.55593 295.438 6.62506C294.881 6.82274 294.287 6.78897 293.781 6.56256C293.488 6.43001 293.261 6.24322 293.094 6.07818C292.768 6.08567 292.472 6.00445 292.187 5.89068C291.94 6.12961 291.603 6.38574 291.141 6.51568C291.164 6.50879 291.18 6.50342 291.188 6.50006C291.182 6.50337 291.172 6.51929 291.156 6.53131C290.738 6.84225 290.081 7.08759 289.328 6.90631C289.191 6.87303 289.084 6.78589 288.969 6.73443C288.892 6.77399 288.835 6.85816 288.75 6.89068C288.085 7.14371 287.402 7.03926 286.875 6.73443C286.463 6.49473 286.203 6.17767 286.062 5.96881C285.954 5.94921 285.846 5.9391 285.75 5.90631C285.552 6.05114 285.303 6.18988 285 6.26568C284.617 6.36059 284.281 6.31052 283.984 6.23443C283.882 6.35496 283.807 6.52562 283.656 6.64068C283.274 6.9329 282.667 7.18973 281.938 7.06256C281.4 6.96817 281.014 6.68963 280.734 6.43756C280.267 6.73006 279.7 6.96159 279.047 6.95318C278.675 6.94735 278.357 6.84788 278.078 6.71881C277.473 7.0678 276.715 7.24508 275.906 6.98443C275.155 6.74133 274.727 6.18169 274.531 5.87506C274.231 6.20576 273.833 6.54353 273.297 6.71881C272.545 6.96271 271.819 6.79655 271.281 6.45319C270.947 6.23946 270.711 5.96065 270.531 5.71881C270.221 5.97447 269.859 6.22494 269.406 6.35944C268.895 6.51066 268.437 6.46084 268.047 6.32819C267.788 6.45645 267.48 6.57278 267.109 6.57819C266.606 6.58519 266.21 6.39468 265.906 6.20319L265.875 6.20319C265.555 6.42272 265.126 6.64736 264.547 6.60944C263.624 6.54795 263.102 5.9437 262.922 5.70319C262.896 5.6688 262.867 5.62847 262.844 5.59381C262.666 5.65061 262.475 5.69547 262.266 5.70319C261.918 6.07072 261.219 6.61686 260.203 6.45319C259.924 6.40782 259.676 6.31333 259.453 6.20319C259.077 6.31198 258.724 6.32941 258.391 6.26569C258.172 6.34011 257.94 6.43298 257.672 6.43756C257.298 6.44359 256.97 6.35553 256.688 6.23444C256.411 6.40575 256.06 6.56687 255.609 6.57819C255.572 6.57911 255.536 6.56345 255.5 6.56256C255.432 6.60391 255.373 6.68246 255.297 6.71881C254.72 6.99288 254.042 7.03757 253.406 6.79694C253.001 6.64249 252.705 6.39027 252.484 6.15631C252.07 6.54929 251.388 7.03985 250.391 6.76569C250.054 6.67191 249.776 6.48972 249.531 6.31256C249.052 6.54692 248.488 6.63008 247.906 6.43756C247.678 6.48662 247.431 6.5184 247.156 6.48444C246.839 6.4445 246.573 6.32834 246.344 6.20319C245.944 6.22103 245.607 6.1411 245.312 6.00006C244.83 6.12854 244.359 6.12318 243.922 5.93756C243.884 5.95949 243.853 5.99531 243.813 6.01569C243.592 6.12567 243.348 6.14096 243.109 6.17194C242.934 6.34299 242.716 6.54388 242.406 6.67194C241.87 6.89309 241.327 6.83259 240.844 6.65631C240.374 6.89469 239.769 7.02041 239.094 6.79694C239.026 6.77419 238.969 6.715 238.906 6.68756C238.664 6.82412 238.388 6.95762 238.047 7.00006C237.214 7.10314 236.564 6.74721 236.172 6.40631C236.153 6.38982 236.144 6.3607 236.125 6.34381C236.043 6.35229 235.962 6.34542 235.875 6.34381C235.676 6.52581 235.412 6.7274 235.047 6.84381C234.633 6.97468 234.235 6.9484 233.875 6.85944C233.673 6.92056 233.481 7.01845 233.266 7.04694C232.751 7.11407 232.28 7.00742 231.859 6.84381C231.308 6.90876 230.777 6.77179 230.344 6.50006C230.223 6.52778 230.1 6.56715 229.969 6.57819C229.606 6.60808 229.291 6.52169 229.016 6.42194C228.584 6.72647 228.06 6.98565 227.438 7.04694C226.665 7.12207 225.986 6.8701 225.469 6.51569L225.438 6.48444C225.315 6.5601 225.212 6.69363 225.063 6.75006C224.167 7.08624 223.33 6.7952 222.797 6.37506C222.575 6.19888 222.398 5.98291 222.234 5.76569C222.181 5.76317 222.13 5.75612 222.078 5.75006C221.925 5.82078 221.764 5.913 221.578 5.95319C221.017 6.07335 220.498 5.96598 220.062 5.76569C219.989 5.81273 219.924 5.88033 219.844 5.92194C219.415 6.14524 218.892 6.26515 218.328 6.18756C218.133 6.16055 217.963 6.07796 217.797 6.01569C217.554 6.05449 217.307 6.04477 217.047 6.00007C216.667 6.24687 216.168 6.47408 215.547 6.42194L215.609 6.42194C215.022 6.58268 214.446 6.51165 213.906 6.32819C213.773 6.4106 213.632 6.50487 213.453 6.56257C212.892 6.74355 212.426 6.65711 212.047 6.50007C211.649 6.6154 211.207 6.67142 210.75 6.51569C210.648 6.48069 210.572 6.40409 210.484 6.35944C210.388 6.36685 210.289 6.4109 210.188 6.40632C209.572 6.37797 209.08 6.12741 208.734 5.85944C208.716 5.84533 208.69 5.82694 208.672 5.81257C208.605 5.89386 208.562 6.00109 208.484 6.07819C208.193 6.36803 207.724 6.72761 207.063 6.82819C206.43 6.92252 205.912 6.70747 205.516 6.46882C205.068 6.75469 204.474 6.99628 203.75 6.82819C203.449 6.75755 203.179 6.63712 202.938 6.50007C202.922 6.50145 202.907 6.51464 202.891 6.51569C202.267 6.55569 201.761 6.32646 201.422 6.07819C201.304 5.99171 201.219 5.87927 201.125 5.78132C201.003 5.76525 200.865 5.77395 200.734 5.73444C200.516 5.66772 200.331 5.5711 200.172 5.46882C200.115 5.47826 200.059 5.4787 200 5.48444C199.915 5.62374 199.853 5.79725 199.719 5.93757C199.356 6.31734 198.522 6.8784 197.453 6.50007C197.2 6.41034 196.998 6.27667 196.828 6.14069C196.476 6.4112 195.974 6.67556 195.281 6.57819C194.72 6.49898 194.331 6.21025 194.109 6.00007C193.817 6.18681 193.453 6.367 192.969 6.35944C192.796 6.35672 192.647 6.2861 192.5 6.25007C192.446 6.27294 192.402 6.32463 192.344 6.34382C191.741 6.53996 191.226 6.43372 190.828 6.25007C190.508 6.43368 190.1 6.58783 189.578 6.53132C189.327 6.50331 189.112 6.43238 188.922 6.34382C188.725 6.4765 188.483 6.6155 188.188 6.68757C187.88 6.76148 187.58 6.75147 187.297 6.70319C186.951 6.81488 186.581 6.9077 186.188 6.89069C186.173 6.89054 186.153 6.88392 186.125 6.89069C185.08 7.15182 184.281 6.63121 183.891 6.23444C183.854 6.19705 183.831 6.14812 183.797 6.10944C183.559 6.17042 183.302 6.22012 183.016 6.18757C182.841 6.16731 182.692 6.0827 182.547 6.03132C182.349 6.25883 182.089 6.50873 181.734 6.68757C181.132 6.99004 180.455 7.01139 179.828 6.76569C179.14 6.77752 178.629 6.50477 178.234 6.18757C178.017 6.24499 177.781 6.28253 177.516 6.26569L177.484 6.31257C177.012 6.63349 176.412 6.79068 175.797 6.68757C175.599 6.73652 175.384 6.75968 175.156 6.75007C174.724 6.7311 174.364 6.5766 174.078 6.40632C173.942 6.47294 173.805 6.55302 173.641 6.59382C173.234 6.69421 172.877 6.6602 172.563 6.57819C172.361 6.6419 172.139 6.68627 171.891 6.68757C171.027 6.69165 170.453 6.22399 170.141 5.89069C169.826 6.0615 169.461 6.20008 169.016 6.20319C168.442 6.20566 167.954 6.01936 167.562 5.78132C167.333 6.03966 167 6.34611 166.531 6.53132C165.965 6.75418 165.34 6.76505 164.766 6.54694C164.685 6.51634 164.62 6.45838 164.547 6.42194C164.319 6.45144 164.075 6.47386 163.813 6.42194C163.371 6.33441 163.026 6.13304 162.766 5.92194C162.682 5.95402 162.604 6.00586 162.516 6.03132C162.017 6.17419 161.555 6.10119 161.156 5.96882C161.034 6.08501 160.926 6.23048 160.766 6.32819C160.431 6.53176 159.984 6.67988 159.469 6.65632C158.996 6.63465 158.618 6.45515 158.328 6.2657C158.029 6.50154 157.603 6.78139 157 6.78132C156.576 6.78089 156.228 6.65296 155.953 6.50007C155.604 6.7314 155.125 6.97123 154.5 6.8907C153.732 6.79015 153.266 6.32405 153.063 6.0782C152.997 5.999 152.961 5.89728 152.906 5.81257C152.613 5.95888 152.274 6.028 151.891 6.03132C151.717 6.11853 151.523 6.20693 151.297 6.25007C150.83 6.33891 150.384 6.25492 150 6.09382C149.591 6.34043 149.043 6.53132 148.406 6.3907C148.204 6.34579 148.047 6.23721 147.891 6.15632C147.793 6.17158 147.7 6.23268 147.594 6.23445C146.929 6.24385 146.416 5.96066 146.109 5.7032C146.042 5.64656 145.994 5.57432 145.937 5.5157C145.806 5.54388 145.675 5.57339 145.531 5.5782C145.182 5.77155 144.743 5.92637 144.219 5.8907C143.834 5.8636 143.504 5.75705 143.234 5.60945C142.97 5.61311 142.692 5.59328 142.422 5.50007C142.393 5.49011 142.371 5.46399 142.344 5.4532C142.234 5.48127 142.122 5.51907 142 5.53132C141.825 5.54873 141.656 5.54946 141.5 5.53132C141.351 5.67279 141.157 5.82113 140.922 5.93757C140.459 6.16488 139.931 6.18523 139.406 6.04695C139.045 6.20966 138.669 6.24668 138.281 6.2032C138.002 6.36664 137.676 6.47169 137.297 6.50007C136.964 6.71455 136.545 6.93294 136 6.92195C135.143 6.90385 134.552 6.43458 134.25 6.10945C134.212 6.06845 134.163 6.03924 134.125 6.00007C134.015 6.03589 133.907 6.09027 133.781 6.10945C133.407 6.16539 133.079 6.12047 132.797 6.03132C132.616 6.14093 132.41 6.27051 132.156 6.3282C131.507 6.47343 130.964 6.26104 130.563 6.0157C130.067 6.26401 129.452 6.40807 128.734 6.18757C128.63 6.15563 128.536 6.10263 128.438 6.06257C128.311 6.10824 128.193 6.20982 128.047 6.23445C127.699 6.29238 127.38 6.26103 127.094 6.18757C127.041 6.20058 126.993 6.24057 126.938 6.25007C126.387 6.344 125.88 6.21525 125.484 6.00007C125.448 6.03831 125.431 6.10351 125.391 6.1407C124.976 6.51903 124.179 6.91571 123.234 6.59382C123.217 6.58785 123.205 6.56888 123.188 6.56257C122.976 6.62311 122.737 6.67344 122.469 6.65632C121.559 6.59687 121.049 6.00096 120.844 5.71882C120.78 5.72648 120.719 5.74808 120.656 5.75007C120.351 5.96354 119.959 6.15755 119.453 6.17195C118.888 6.18712 118.455 5.98264 118.125 5.75007L118.109 5.7657C117.495 6.09662 116.743 6.15733 116.047 5.85945C115.979 5.83019 115.922 5.78361 115.859 5.75007C115.502 6.09807 114.943 6.50783 114.109 6.43757C113.905 6.42013 113.731 6.34111 113.563 6.28132C113.341 6.43803 113.071 6.59207 112.719 6.65632C112.02 6.78198 111.491 6.52339 111.125 6.2657C111.021 6.26546 110.91 6.31291 110.797 6.29695C110.55 6.26168 110.343 6.16826 110.156 6.0782C109.799 6.30007 109.322 6.50796 108.719 6.42195C108.386 6.37347 108.112 6.24532 107.891 6.10945C107.804 6.18066 107.732 6.27999 107.625 6.34382C107.143 6.62939 106.5 6.75299 105.844 6.54695C105.623 6.47743 105.44 6.37158 105.281 6.2657C104.847 6.23622 104.445 6.12129 104.109 5.92195C103.819 5.92209 103.541 5.88022 103.266 5.79695C102.788 6.0816 102.144 6.27197 101.438 6.0157C101.422 6.01019 101.405 5.9902 101.391 5.98445C101.277 6.09761 101.167 6.2176 101.031 6.31258C100.525 6.66753 99.8594 6.90617 99.0938 6.84383L99.0469 6.84383C98.0352 7.08626 97.2533 6.61415 96.8594 6.21883C96.7877 6.14684 96.7332 6.06067 96.6719 5.98445C96.489 6.07893 96.2932 6.19374 96.0469 6.23445C95.3898 6.3423 94.8681 6.10469 94.5 5.85945C94.4122 5.93721 94.3296 6.03976 94.2188 6.10945C93.6228 6.48185 92.8573 6.55149 92.1563 6.21883C91.9174 6.24213 91.6557 6.24466 91.375 6.17195L91.3594 6.15633C91.1823 6.25176 90.9965 6.35081 90.7813 6.40633C89.987 6.60968 89.3326 6.38692 88.8438 6.0782C88.7484 6.13496 88.6664 6.2175 88.5625 6.2657C88.052 6.50209 87.4543 6.5733 86.8594 6.40633C86.3142 6.25324 85.9195 5.94039 85.6562 5.67195C85.6172 5.6319 85.57 5.58796 85.5312 5.54695L85.3594 5.5782C85.3523 5.58008 85.3327 5.58523 85.3125 5.59383C84.8454 5.79489 84.3083 5.87086 83.7656 5.75008C83.7469 5.74585 83.7216 5.73905 83.7031 5.73445C83.6326 5.7752 83.5735 5.83811 83.5 5.87508C83.4004 5.92525 83.2869 5.99689 83.1563 6.09383C82.7804 6.37281 82.1965 6.62099 81.5 6.5157C81.4095 6.50199 81.3321 6.4447 81.25 6.42195C80.9009 6.6467 80.4445 6.83408 79.8594 6.78133C79.1744 6.71937 78.6782 6.37712 78.3125 6.03133C77.7195 6.45918 76.8721 6.68265 76.0156 6.29695C75.6212 6.11887 75.3116 5.85345 75.0625 5.5782C74.9108 5.74997 74.7085 5.94574 74.4375 6.09383C73.8648 6.40536 73.1971 6.41763 72.5938 6.17195C72.54 6.22363 72.4916 6.29345 72.4375 6.34383C72.0804 6.67355 71.3902 7.08165 70.5 6.8907C69.774 6.73374 69.3525 6.25478 69.1719 6.0157C69.0607 6.03228 68.9512 6.09452 68.8281 6.09383C68.2469 6.0904 67.8028 5.85354 67.5 5.62508C67.3257 5.88988 67.0902 6.20402 66.7344 6.43758C66.4153 6.64645 65.9749 6.81819 65.4531 6.81258C64.9375 6.8058 64.5116 6.62971 64.2031 6.42195C63.9885 6.27644 63.7792 6.10808 63.5781 5.93758C63.151 6.02787 62.7053 6.04269 62.25 5.92195C62.1345 5.8912 62.0193 5.85041 61.9062 5.81258C61.8035 5.85969 61.6979 5.9107 61.5937 5.9532C61.2452 6.09505 60.8783 6.19272 60.5 6.25008C59.5318 6.39678 58.8578 5.92841 58.4062 5.50008C58.126 5.58463 57.8157 5.63928 57.4687 5.60945C57.3885 5.60254 57.3118 5.57532 57.2344 5.56258L57.2187 5.59383C56.92 5.93292 56.5738 6.25642 56.1875 6.5157C55.8258 6.75661 55.3454 6.94627 54.7813 6.9532C54.2133 6.95944 53.7315 6.77153 53.3594 6.53133C53.2752 6.47688 53.1933 6.43904 53.125 6.40633C52.7867 6.62336 52.3552 6.83588 51.7969 6.81258C51.4558 6.79791 51.1704 6.68146 50.9219 6.56258C50.8436 6.59615 50.7755 6.66161 50.6875 6.68758C50.0943 6.86074 49.5008 6.76131 49.0313 6.5157C48.8336 6.4121 48.6648 6.26793 48.4844 6.1407C48.4081 6.18503 48.3471 6.25791 48.2656 6.29695C47.8411 6.50043 47.3262 6.58882 46.7969 6.46883C46.7184 6.45094 46.6497 6.39942 46.5781 6.37508C46.3529 6.50294 46.0939 6.62455 45.7813 6.67196C45.3527 6.73574 44.9099 6.73213 44.4844 6.65633C44.2497 6.61447 44.0154 6.56653 43.7813 6.51571C43.6949 6.49693 43.615 6.43051 43.5313 6.40633C43.1436 6.57409 42.6667 6.67154 42.1094 6.53133C41.8965 6.47742 41.7129 6.39084 41.5469 6.29696C41.3513 6.45919 41.1066 6.63592 40.7813 6.73446C40.0089 6.96832 39.3127 6.72318 38.8594 6.39071C38.8301 6.36916 38.8087 6.3348 38.7813 6.31258C38.5792 6.38341 38.3872 6.49109 38.1719 6.53133C37.4499 6.66499 36.8657 6.45418 36.4219 6.17196C36.072 6.32311 35.642 6.43421 35.1406 6.32821C34.8189 6.25929 34.5671 6.11385 34.3594 5.96883C34.0931 6.19093 33.7161 6.41604 33.2031 6.46883C32.4373 6.54714 31.906 6.19479 31.5781 5.90633C31.1424 6.04361 30.6658 6.04835 30.1875 5.89071C30.1183 5.93105 30.0613 5.99658 29.9844 6.03133C29.2671 6.3537 28.5559 6.25193 28 5.96883C27.5996 6.29625 26.9216 6.66096 26.0625 6.42196C25.8618 6.36588 25.7143 6.23141 25.5625 6.14071C25.43 6.2836 25.3099 6.45906 25.125 6.57821C24.7577 6.81459 24.2466 6.98867 23.6563 6.92196C23.3628 6.88779 23.1032 6.79614 22.8906 6.68758C22.5283 6.67911 22.178 6.61465 21.8594 6.45321C21.7465 6.39573 21.6586 6.30204 21.5625 6.23446C21.4457 6.30119 21.3415 6.40262 21.2031 6.45321C20.8057 6.5982 20.41 6.60681 20.0313 6.54696C19.9993 6.56845 19.9869 6.62043 19.9531 6.64071C19.5338 6.89249 18.9603 7.03512 18.3438 6.90633C17.7824 6.78703 17.3951 6.47739 17.1719 6.25008C17.123 6.20028 17.0791 6.14547 17.0313 6.09383L17.0156 6.12508C16.5046 6.5596 15.6426 6.90906 14.6875 6.54696C14.5224 6.48429 14.3652 6.40169 14.2031 6.32821C13.8957 6.35309 13.6147 6.33277 13.3594 6.25008C13.3407 6.26339 13.3316 6.29969 13.3125 6.31258C12.7973 6.65891 12.1332 6.89801 11.375 6.82821C11.0981 6.80265 10.8213 6.77086 10.5469 6.71883C10.305 6.67296 10.0968 6.56109 9.89063 6.46883C9.73369 6.52952 9.58023 6.6199 9.40625 6.65633C8.7554 6.79184 8.11349 6.70349 7.54688 6.45321C7.41045 6.39281 7.28827 6.30453 7.15625 6.23446C6.81982 6.37318 6.43313 6.4677 6 6.40633C5.47634 6.3321 5.08477 6.0929 4.82812 5.87508C4.80644 5.85663 4.7864 5.83153 4.76562 5.81258C4.7146 5.8662 4.67823 5.93338 4.625 5.98446C4.3675 6.23085 3.91139 6.56523 3.26563 6.62508C2.58594 6.68618 2.03165 6.42377 1.6875 6.15633C1.66743 6.1407 1.65995 6.10992 1.64063 6.09383C0.992916 6.13923 0.443347 5.93492 0.078125 5.71883L1 4.15633L1 2.21883C0.519908 2.37438 0.283369 2.68348 0.234375 2.76571C0.355889 2.56177 0.609893 2.18341 1.04687 1.90633C1.59117 1.56288 2.3316 1.43726 3.04687 1.73446C3.06562 1.74226 3.07554 1.77316 3.09375 1.78133C3.32163 1.6463 3.58446 1.51639 3.90625 1.46883C4.24584 1.41905 4.54668 1.47413 4.8125 1.54696C5.2697 1.41343 5.7566 1.38275 6.23437 1.57821C6.59841 1.72796 6.8497 1.96296 7.03125 2.15633C7.69396 2.10278 8.29231 2.28258 8.78125 2.59383C9.12365 2.4022 9.53685 2.22777 10.0469 2.25008C10.5096 2.27071 10.8831 2.44068 11.1875 2.62508C11.2744 2.46928 11.3527 2.27486 11.5 2.10946C11.7435 1.83656 12.3145 1.34713 13.1875 1.35946C14.0502 1.37387 14.5976 1.8751 14.8281 2.14071C14.8732 2.19277 14.8986 2.2599 14.9375 2.31258C15.0199 2.23283 15.0886 2.13434 15.1875 2.06258C15.4845 1.84786 15.9094 1.64678 16.4375 1.62508C16.7719 1.61218 17.0679 1.69639 17.3281 1.79696C17.7592 1.77454 18.1771 1.81206 18.5469 2.00008C18.651 2.05344 18.7383 2.14118 18.8281 2.20321L18.8594 2.18758C19.2234 2.05089 19.5881 2.04219 19.9375 2.09383C20.1154 1.91092 20.3621 1.69108 20.7031 1.54696C21.2413 1.3207 21.844 1.32485 22.3906 1.54696C22.6305 1.64468 22.8257 1.7758 22.9844 1.90633L23.3594 2.26571L23.4531 2.39071L23.4687 2.37508C23.7221 2.18319 24.0853 2.01845 24.5312 1.95321C24.6295 1.87448 24.719 1.77089 24.8437 1.70321C25.4585 1.3717 26.1686 1.38576 26.7812 1.67196C26.9329 1.61965 27.0904 1.56543 27.2656 1.54696L27.9687 1.57821L28.7656 1.85946C28.8402 1.81555 28.9007 1.74056 28.9844 1.70321C29.5033 1.47176 30.0146 1.47748 30.4687 1.59383C30.5116 1.56054 30.5474 1.51579 30.5937 1.48446C31.0778 1.15788 31.6959 1.01224 32.3125 1.12508L32.9375 1.32821L33.0469 1.42196C33.3762 1.27889 33.7594 1.22481 34.2187 1.29696C34.1669 1.30089 34.1198 1.30137 34.0781 1.31258C34.14 1.29579 34.2056 1.30835 34.2656 1.29696C34.3353 1.30935 34.412 1.29287 34.4844 1.31258C34.4345 1.299 34.3766 1.29954 34.3125 1.29696C34.9639 1.18687 35.4671 1.38828 35.8594 1.64071C35.93 1.62323 36.0021 1.58924 36.0781 1.57821C36.3232 1.5431 36.5591 1.53968 36.7812 1.57821L37.4062 1.78133L37.875 2.12508C38.0676 1.96371 38.3209 1.80366 38.6406 1.70321C39.2285 1.51876 39.7558 1.65751 40.1875 1.85946C40.3293 1.7679 40.4615 1.64302 40.6406 1.57821C41.3307 1.32864 41.9743 1.43596 42.4687 1.68758L42.9062 1.98446L43.2031 2.29696C43.7112 2.26744 44.1758 2.353 44.5625 2.57821L44.5781 2.59383C44.6355 2.50627 44.6758 2.39989 44.75 2.31258C44.9767 2.04657 45.5428 1.51657 46.4375 1.5157C46.9552 1.51626 47.3473 1.72091 47.6406 1.92195C47.7249 1.8911 47.7978 1.81927 47.8906 1.79695C48.5456 1.63978 49.1294 1.82063 49.5937 2.0782C49.8607 1.86311 50.2342 1.64206 50.7344 1.59383C51.2725 1.54349 51.6943 1.71252 52.0156 1.90633C52.0789 1.87781 52.1333 1.82062 52.2031 1.79695C52.8872 1.56594 53.5527 1.69657 54.0469 2.00008C54.2829 2.14637 54.4723 2.32487 54.6094 2.48445C54.6805 2.4012 54.7569 2.31912 54.8281 2.23445L55.3594 1.75008C55.5853 1.58801 55.8663 1.44306 56.2031 1.35945C56.6483 1.24964 57.0539 1.31216 57.4219 1.42195C57.6564 1.27696 57.9286 1.13543 58.2656 1.0782C58.6861 1.00685 59.0636 1.06157 59.3906 1.17195L60.2031 1.62508L60.5469 2.0157C61.2868 1.62136 62.152 1.5836 62.9531 1.9532C62.9783 1.96487 63.007 1.97429 63.0312 1.98445C63.1982 1.9372 63.357 1.86048 63.5312 1.84383L64.5937 1.93758L65.2031 2.21883C65.4354 2.05308 65.7141 1.89144 66.0625 1.81258C66.4403 1.49286 66.9616 1.17282 67.6094 1.1407L68.5 1.2657L68.7344 1.3907C69.2362 1.06708 69.936 0.876677 70.6719 1.15633C70.9979 1.28071 71.2537 1.46385 71.4375 1.6407C71.5375 1.5773 71.6281 1.48857 71.75 1.43758C72.4528 1.14422 73.1865 1.25671 73.7344 1.59383L73.7656 1.62508C73.8269 1.60877 73.9057 1.5797 74 1.53133C74.4576 1.29518 74.9813 1.14431 75.5469 1.1407C76.2525 1.13642 76.7762 1.45657 77.125 1.75008C77.532 1.59753 77.9972 1.5338 78.4687 1.65633C78.6542 1.70491 78.8079 1.79736 78.9531 1.87508C79.1521 1.88072 79.3289 1.96223 79.5156 2.0157C79.7922 1.74382 80.2239 1.42184 80.8594 1.37508C81.5219 1.32814 81.9867 1.61406 82.3125 1.87508C82.6297 1.67823 83.0208 1.49538 83.5156 1.48445C83.9124 1.47605 84.2557 1.5708 84.5469 1.7032C84.6467 1.68226 84.7414 1.63849 84.8437 1.62508C85.3536 1.33358 86.0059 1.16438 86.7031 1.37508C87.1193 1.50136 87.4177 1.75042 87.6562 1.96883C87.7432 1.92046 87.8237 1.85264 87.9219 1.81258C88.2062 1.69706 88.511 1.64505 88.8125 1.6407L89.7031 1.79695L90.0625 2.00008C90.3981 1.7884 90.8258 1.61901 91.375 1.65633C91.7524 1.68222 92.0531 1.81996 92.3125 1.96883ZM684.938 6.81252C684.963 6.81995 684.99 6.82158 685.016 6.82815L684.969 6.82815C684.941 6.82519 684.921 6.81682 684.906 6.81252L684.938 6.81252ZM179.891 6.78132C179.998 6.79798 180.113 6.79937 180.219 6.78132C180.097 6.80205 179.974 6.76225 179.859 6.76569L179.891 6.78132ZM750.984 6.71877L751.016 6.71877C750.961 6.70696 750.9 6.71947 750.844 6.70314C750.881 6.71359 750.93 6.71612 750.984 6.71877ZM23.25 6.64071C23.4382 6.64356 23.6184 6.62356 23.7813 6.56258C23.6074 6.62793 23.4254 6.61718 23.25 6.64071ZM459.375 6.54692L459.406 6.56254C459.552 6.54984 459.682 6.5074 459.766 6.46879C459.646 6.52422 459.5 6.51177 459.375 6.54692ZM493.125 6.40629C493.32 6.32685 493.459 6.23591 493.531 6.17192C493.424 6.26786 493.27 6.31858 493.125 6.40629ZM755.469 6.37502C755.489 6.3768 755.509 6.39031 755.531 6.39064C755.618 6.39184 755.698 6.37744 755.766 6.35939C755.667 6.38644 755.563 6.36031 755.469 6.37502ZM779.953 6.31252L780.516 6.32814L779.891 6.28127C779.912 6.28684 779.931 6.3078 779.953 6.31252ZM429.438 6.1563C429.596 6.05461 429.693 5.96722 429.719 5.93755C429.658 6.00905 429.544 6.06354 429.438 6.1563ZM165.375 6.10944C165.604 6.02376 165.77 5.90882 165.859 5.82819C165.735 5.94104 165.554 6.00826 165.375 6.10944ZM171.297 5.76569C171.325 5.80039 171.456 5.94508 171.688 6.07819C171.533 5.95044 171.379 5.86572 171.297 5.76569ZM257.469 5.89069C257.577 5.96526 257.739 6.02826 257.938 6.07819C257.776 6.01074 257.604 5.98399 257.469 5.89069ZM371.438 6.04693C371.601 5.98854 371.733 5.93508 371.812 5.87505C371.706 5.95615 371.56 5.97723 371.438 6.04693ZM468.531 5.75004C468.619 5.82123 468.754 5.89657 468.922 5.96879C468.778 5.8913 468.635 5.83475 468.531 5.75004ZM218.234 5.87506C218.419 5.836 218.574 5.7726 218.687 5.70319C218.551 5.78704 218.389 5.81793 218.234 5.87506ZM207.172 5.57819C207.307 5.64333 207.467 5.69142 207.641 5.71882C207.481 5.67797 207.319 5.64905 207.172 5.57819ZM794.437 5.65626C794.648 5.65771 794.857 5.61 795.047 5.53126C794.85 5.6129 794.641 5.62894 794.437 5.65626ZM574.578 5.59378C574.764 5.48551 574.892 5.37876 574.953 5.31253C574.864 5.40925 574.72 5.48571 574.578 5.59378ZM517.703 5.57816C517.733 5.56032 517.755 5.53384 517.781 5.51566L517.766 5.51566C517.744 5.53556 517.726 5.55809 517.703 5.57816ZM220.953 5.32819C221.071 5.41213 221.243 5.50815 221.453 5.56256C221.277 5.4889 221.097 5.43119 220.953 5.32819ZM789.984 5.54689L790.016 5.53126C790.109 5.44701 790.162 5.37417 790.172 5.35939C790.137 5.41043 790.053 5.46517 789.984 5.54689ZM143.844 5.50007C144.039 5.4726 144.217 5.42109 144.359 5.34382C144.202 5.42959 144.019 5.44994 143.844 5.50007ZM95.2031 5.46883C95.4267 5.43028 95.6169 5.35227 95.7656 5.2657C95.5944 5.36546 95.3992 5.41206 95.2031 5.46883ZM548.187 5.35941C548.207 5.36015 548.23 5.3599 548.25 5.35941C548.352 5.35678 548.443 5.33628 548.516 5.31254C548.409 5.34813 548.294 5.33699 548.187 5.35941ZM501.375 5.32817C501.391 5.31433 501.41 5.30792 501.422 5.29692C501.462 5.2584 501.48 5.22427 501.484 5.21879C501.458 5.25406 501.412 5.28286 501.375 5.32817ZM484.328 5.09379C484.401 5.12516 484.476 5.16484 484.562 5.18754C484.479 5.15601 484.405 5.11678 484.328 5.07817L484.328 5.09379ZM254.094 5.00006C254.271 4.87143 254.383 4.75312 254.422 4.70319C254.355 4.79033 254.225 4.87808 254.094 5.00006ZM135.437 4.93757L135.469 4.90632C135.532 4.83368 135.549 4.77813 135.547 4.78132C135.519 4.83188 135.473 4.88007 135.437 4.93757ZM730.016 4.82815C730.048 4.78893 730.077 4.75913 730.094 4.7344C730.136 4.67188 730.152 4.61832 730.156 4.6094C730.124 4.67681 730.064 4.74361 730.016 4.82815ZM59.5312 4.79695C59.6939 4.69232 59.7886 4.59079 59.8125 4.56258C59.7416 4.64634 59.6269 4.70535 59.5312 4.79695ZM527.656 4.51566C527.69 4.56548 527.766 4.66741 527.891 4.78129C527.799 4.67105 527.705 4.59096 527.656 4.51566ZM250.516 4.48444C250.531 4.50795 250.617 4.62866 250.766 4.76569C250.667 4.64753 250.563 4.55721 250.516 4.48444ZM137.75 4.59382C137.756 4.60483 137.767 4.63339 137.781 4.65632C137.791 4.67234 137.809 4.69237 137.828 4.71882C137.803 4.66898 137.771 4.62394 137.75 4.5782L137.75 4.59382ZM196.187 4.56257C196.159 4.60287 196.117 4.63886 196.078 4.68757L196.094 4.68757C196.139 4.64129 196.174 4.59894 196.203 4.56257L196.187 4.56257ZM414.5 4.62505C414.528 4.59193 414.55 4.56437 414.562 4.54692C414.578 4.5242 414.578 4.50038 414.578 4.50005C414.555 4.54154 414.524 4.58402 414.5 4.62505ZM700.016 4.51565C700.025 4.50193 700.04 4.49469 700.047 4.4844C700.075 4.44044 700.089 4.4002 700.094 4.39065C700.074 4.43318 700.038 4.46985 700.016 4.51565ZM623.609 4.4219C623.616 4.43162 623.63 4.43971 623.641 4.45315C623.62 4.41872 623.594 4.3869 623.578 4.3594C623.58 4.36328 623.588 4.39196 623.609 4.4219ZM309.984 3.43756C309.945 3.49549 309.927 3.53733 309.922 3.54693C309.946 3.49758 309.989 3.45663 310.016 3.40631L309.984 3.43756ZM740.937 3.37502C740.978 3.45216 741.034 3.51294 741.062 3.57814C741.056 3.56355 741.048 3.51999 741.016 3.46877C741.001 3.44553 740.969 3.4168 740.937 3.37502ZM668.75 3.65628L668.75 3.64065C668.744 3.62904 668.733 3.60282 668.719 3.57815C668.712 3.56715 668.699 3.54811 668.687 3.53128C668.707 3.57409 668.732 3.61383 668.75 3.65628ZM122.437 3.46882C122.403 3.522 122.395 3.56839 122.391 3.5782C122.425 3.50299 122.49 3.43921 122.531 3.35945C122.492 3.40776 122.455 3.44163 122.437 3.46882ZM499.75 3.56254L499.734 3.53129C499.719 3.50647 499.693 3.46867 499.656 3.42192C499.682 3.47374 499.727 3.51374 499.75 3.56254ZM529.859 3.53129C529.854 3.51887 529.838 3.4691 529.797 3.40629C529.79 3.39605 529.775 3.38875 529.766 3.37504C529.797 3.43858 529.839 3.48593 529.859 3.53129ZM436.391 2.9688C436.385 2.959 436.385 2.93846 436.375 2.92192C436.363 2.90272 436.339 2.87796 436.312 2.8438C436.335 2.88814 436.37 2.92546 436.391 2.9688ZM638.25 3.37503C638.236 3.39834 638.224 3.42664 638.219 3.43753L638.219 3.45315C638.244 3.39801 638.295 3.34533 638.328 3.28128C638.296 3.32402 638.264 3.35303 638.25 3.37503ZM782.359 3.43752C782.294 3.36323 782.185 3.26067 782.031 3.15627C782.147 3.26744 782.28 3.33921 782.359 3.43752ZM253.25 3.31256C253.228 3.33281 253.218 3.35965 253.203 3.37506C253.228 3.34278 253.266 3.31729 253.297 3.28131C253.281 3.29438 253.262 3.30152 253.25 3.31256ZM25.1406 3.26571C25.1251 3.2905 25.1172 3.31336 25.1094 3.32821C25.1369 3.26816 25.2011 3.22198 25.2344 3.15633C25.1957 3.20538 25.1568 3.24006 25.1406 3.26571ZM577.484 3.18753C577.447 3.24419 577.424 3.29179 577.422 3.29691C577.451 3.23472 577.513 3.17534 577.547 3.10941C577.521 3.14256 577.498 3.16719 577.484 3.18753ZM434.328 3.29692C434.292 3.24489 434.214 3.15515 434.094 3.04692C434.189 3.15775 434.284 3.23081 434.328 3.29692ZM347.781 3.17193C347.751 3.21417 347.735 3.25403 347.719 3.2813C347.75 3.22015 347.815 3.16813 347.859 3.0938C347.83 3.12803 347.798 3.14906 347.781 3.17193ZM798.937 2.76564C798.914 2.79981 798.912 2.8327 798.906 2.84376C798.928 2.80202 798.96 2.76362 798.984 2.71876C798.968 2.73962 798.947 2.75151 798.937 2.76564ZM602.328 3.03128C602.208 3.11583 602.123 3.19956 602.062 3.26566C602.13 3.18314 602.236 3.12321 602.328 3.03128ZM413.281 3.25005L413.266 3.2188C413.246 3.19114 413.208 3.14779 413.156 3.0938L413.141 3.0938C413.18 3.15485 413.248 3.19315 413.281 3.25005ZM234.406 3.17194C234.394 3.19257 234.38 3.20906 234.375 3.21881L234.375 3.23444C234.393 3.19303 234.43 3.15653 234.453 3.10944C234.436 3.13394 234.415 3.15751 234.406 3.17194ZM97.1094 2.9532L97.125 2.98445L97.125 2.96883L97.1094 2.9532ZM256.656 2.98444C256.566 2.91369 256.456 2.83229 256.312 2.76569C256.438 2.84303 256.56 2.90203 256.656 2.98444ZM160.547 2.96882C160.445 2.89742 160.307 2.82382 160.141 2.7657C160.272 2.84128 160.424 2.88284 160.547 2.96882ZM568.875 2.90628C568.871 2.89792 568.863 2.87421 568.844 2.84378C568.831 2.82479 568.807 2.79902 568.781 2.76566C568.809 2.8184 568.852 2.85914 568.875 2.90628ZM268.078 2.90631C267.981 2.83886 267.866 2.76011 267.719 2.70319C267.843 2.77465 267.971 2.82505 268.078 2.90631ZM726.594 2.81252C726.567 2.85476 726.563 2.88947 726.562 2.89065C726.581 2.85308 726.615 2.81355 726.641 2.76565L726.625 2.76565C726.612 2.78413 726.602 2.80026 726.594 2.81252ZM756.187 2.89064C756.183 2.88539 756.16 2.84355 756.109 2.79689C756.08 2.77061 756.037 2.73947 755.984 2.70314C756.052 2.77856 756.138 2.82613 756.187 2.89064ZM202.062 2.67194C201.904 2.73843 201.781 2.81905 201.687 2.89069C201.793 2.80578 201.927 2.7484 202.062 2.67194ZM801.812 2.84376C801.808 2.83557 801.794 2.80675 801.766 2.76564C801.734 2.72116 801.67 2.63442 801.578 2.54689L801.812 2.84376ZM520.719 2.84379C520.7 2.8195 520.681 2.77429 520.641 2.73441C520.627 2.72069 520.597 2.71988 520.578 2.70316C520.627 2.76564 520.69 2.80065 520.719 2.84379ZM678.234 2.84377L678.219 2.81252L678.187 2.7969C678.2 2.81641 678.224 2.82654 678.234 2.84377ZM697.484 2.82815C697.369 2.75168 697.202 2.68836 697 2.64065C697.166 2.70836 697.345 2.73231 697.484 2.82815ZM517.594 2.81254C517.578 2.79198 517.569 2.75932 517.547 2.73441L517.516 2.73441C517.535 2.76649 517.577 2.78238 517.594 2.81254ZM178.859 2.79694C178.812 2.74287 178.698 2.65096 178.531 2.54694C178.652 2.65412 178.789 2.71161 178.859 2.79694ZM622.609 2.7969C622.535 2.74799 622.448 2.70018 622.344 2.65628C622.436 2.70791 622.531 2.74006 622.609 2.7969ZM245.5 2.43756C245.285 2.53831 245.132 2.65172 245.047 2.73444C245.16 2.62391 245.328 2.54624 245.5 2.43756ZM788.109 2.67189C788.099 2.68619 788.096 2.69878 788.094 2.70314C788.109 2.67791 788.136 2.6558 788.156 2.62502C788.14 2.64363 788.118 2.66024 788.109 2.67189ZM572.687 2.67191C572.678 2.65812 572.674 2.63254 572.656 2.60941C572.648 2.5987 572.624 2.59473 572.609 2.57816C572.631 2.61676 572.671 2.64 572.687 2.67191ZM209.875 2.48444C209.721 2.52914 209.593 2.58107 209.5 2.64069C209.61 2.56724 209.748 2.54189 209.875 2.48444ZM371.109 2.4688C371.042 2.49005 370.977 2.50531 370.922 2.5313L370.937 2.54693C370.992 2.51434 371.052 2.49841 371.109 2.4688ZM118.078 2.50007C118.063 2.48376 118.053 2.45739 118.031 2.43757L118 2.43757C118.021 2.46406 118.059 2.47483 118.078 2.50007ZM373.562 2.42193C373.547 2.43641 373.541 2.45852 373.531 2.4688C373.558 2.4351 373.596 2.40963 373.625 2.37505C373.601 2.39392 373.578 2.40773 373.562 2.42193ZM627.062 2.40628C627.062 2.4053 627.048 2.38391 627.031 2.3594C627.025 2.34989 627.011 2.34205 627 2.32815C627.018 2.35832 627.049 2.38306 627.062 2.40628ZM353.391 2.25005C353.328 2.19239 353.192 2.11339 353 2.0313C353.136 2.11743 353.289 2.15686 353.391 2.25005ZM587.312 2.21878C587.312 2.21739 587.309 2.20324 587.297 2.18753C587.284 2.1712 587.265 2.14064 587.234 2.10941L587.219 2.09378C587.254 2.14254 587.29 2.18339 587.312 2.21878ZM547.422 2.14066C547.377 2.0981 547.321 2.0493 547.25 2.00004C547.304 2.05676 547.377 2.08741 547.422 2.14066ZM597.781 1.93753C597.671 2.01328 597.596 2.08768 597.547 2.14066C597.601 2.07331 597.696 2.02103 597.781 1.93753ZM140.906 1.78132C140.799 1.84809 140.723 1.9191 140.672 1.96882L140.672 1.98445C140.734 1.91649 140.819 1.85703 140.906 1.78132ZM614.687 1.82816C614.576 1.77462 614.447 1.72754 614.297 1.70316C614.432 1.74217 614.566 1.76716 614.687 1.82816ZM500.719 1.71879C500.697 1.72414 500.677 1.72845 500.656 1.73442C500.635 1.73209 500.615 1.73617 500.594 1.73442C500.618 1.73045 500.646 1.70545 500.672 1.70317L500.719 1.71879ZM521.531 1.40629C521.637 1.43965 521.758 1.43612 521.859 1.48441C521.803 1.45743 521.717 1.42242 521.609 1.40629C521.586 1.40287 521.555 1.40801 521.531 1.40629ZM34.3125 1.29696L34.2187 1.29696C34.2389 1.29543 34.2599 1.28133 34.2812 1.28133L34.3125 1.29696Z" fill="#F25C78"/>
</svg>
