<svg width="106" height="106" viewBox="0 0 106 106" fill="none" xmlns="http://www.w3.org/2000/svg">
<path fill-rule="evenodd" clip-rule="evenodd" d="M103.04 49.07C102.92 48.7 102.68 48.46 102.5 48.31C102.8 47.88 102.76 47.06 102.46 46.67C102.93 45.78 102.27 44.64 101.35 44.31C101.71 43.93 101.84 42.84 101.34 42.33C101.32 42.12 101.27 41.92 101.18 41.73C101.56 41.3 101.41 40 100.8 39.67C100.69 39.01 100.1 38.54 99.54 38.25C99.5 38.08 99.42 37.92 99.35 37.76C99.4 37.42 99.43 37.08 99.34 36.74C99.83 35.87 99.37 34.69 98.86 33.94C98.98 33.53 98.84 32.89 98.52 32.57C98.54 32.29 98.41 32.02 98.3 31.83C98.37 31.32 98.08 30.75 97.76 30.48C97.8 29.64 97.09 28.96 96.36 28.65C96.31 28.4 95.81 28 95.6 27.87C95.65 27.31 95.27 26.69 94.83 26.44C94.82 26.41 94.8 26.39 94.79 26.36C95.08 25.4 94.14 24.34 93.21 24.37C92.98 24.07 92.69 23.89 92.4 23.76C92.42 23.28 92.25 22.81 92.04 22.38C92.38 21.36 91.42 20.17 90.34 20.15C90.19 19.4 89.39 18.25 88.63 18.04C88.48 17.16 87.17 16.62 86.46 16.97C86.37 16.89 86.02 16.57 85.9 16.55C85.82 16.36 85.72 16.13 85.53 15.97C85.79 14.84 84.69 13.7 83.58 13.98C83.69 12.95 82.48 11.99 81.53 11.84C81.26 11.13 80.43 10.73 79.7 10.78C79.46 10.59 79.19 10.52 78.94 10.48C78.71 10 78.18 9.57 77.54 9.58C77.37 9.37 76.99 9.16 76.72 9.12C76.38 8.41 75.22 8.11 74.62 8.5C74.43 8.19 74.07 7.98 73.68 7.89C73.37 7.02 71.99 6.77 71.5 7.13C71.18 6.71 70.31 6.49 69.83 6.69C69.66 6.38 69.17 5.98 68.72 5.99C68.17 5.33 67.13 5.49 66.75 5.73C66.64 5.64 66.51 5.55 66.35 5.49C66.19 4.56 64.57 3.82 63.77 4.56C63.38 4.38 62.89 4.6 62.66 4.72C62.52 4.67 62.37 4.63 62.23 4.61C61.93 4.25 61.29 4.02 60.84 4.12C60.35 3.59 59.28 3.56 58.8 4.04C58.36 2.74 56.81 3.01 55.8 3.35C55.34 3.08 54.59 3.02 54.18 3.34C54.15 3.34 54.14 3.32 54.12 3.32C53.29 2.34 52.02 3.16 51.16 3.58C50.65 3.54 50.15 3.76 49.84 4.13C49.36 4.18 48.77 4.04 48.33 4.34H48.23C47.63 3.64 46.42 3.41 45.74 4.04C45.19 3.49 44.17 3.33 43.51 3.73C42.98 3.63 42.26 3.98 41.96 4.42C41.87 4.44 41.77 4.47 41.67 4.5C40.8 4.04 39.64 4.69 39.41 5.56C39 5.45 38.48 5.67 38.21 5.91C37.69 5.74 36.66 5.52 36.14 6.2C35.48 6.25 35.07 6.87 34.96 7.17C34.82 7.21 34.68 7.26 34.55 7.34C34.11 7.2 33.49 7.34 33.08 7.64C32.42 7.45 31.57 7.85 31.25 8.45C30.93 8.46 30.51 8.78 30.26 8.98C29.73 8.73 28.59 8.84 28.16 9.55C27.52 9.59 26.96 10.24 26.85 10.68C26.27 10.82 25.96 11.31 25.82 11.66C24.31 11.35 23.51 12.78 22.94 13.9C22.44 14.17 21.99 14.57 21.53 14.9C20.6 14.84 19.23 15.56 19.11 16.56C18.98 16.66 18.87 16.77 18.78 16.89C18.09 17.1 17.66 17.98 17.79 18.6C17.67 18.74 17.61 18.89 17.53 19.03C17.14 19 16.3 19.36 16.07 19.94C15.57 19.93 14.75 20.57 14.72 21.28C14.65 21.34 14.62 21.43 14.57 21.51C14.12 21.62 13.59 22.17 13.51 22.67C12.87 22.81 12.34 23.72 12.42 24.25C11.63 24.49 11.27 25.61 11.45 26.12C11.19 26.33 10.98 26.57 10.86 26.86C10.21 27.15 9.85 28.07 10.05 28.7C9.42 28.81 8.86999 29.35 8.77999 30C8.33999 30.29 8.12 31.1 8.26 31.54C7.76 31.86 7.48 32.48 7.42 33.08C6.18 33.54 6 35.53 6.98 36.26C5.67 36.38 4.98 37.96 5.59 39.19C5.19 39.41 4.62 40.18 4.82 40.9C4.37 41.78 3.51 42.95 4.32 43.82C3.48 44.42 3.67 45.8 4.35 46.36C2.89 46.87 2.57 48.94 3.67 49.99V49.97C3.67 49.97 3.69 50 3.69 50.01C2.54 50.85 2.62 52.75 3.92 53.42C3.61 53.78 3.48 54.39 3.69 54.88C2.72 55.77 2.98 57.66 4.34 57.89C4.36 58.38 4.66 58.7 4.69 59.16C4.52 59.54 4.46 60.11 4.57 60.51C4.18 60.8 3.88 61.5 4.07 62.08C3.75 62.57 3.95 63.52 4.38 63.86C4.56 64.52 4.88 64.85 5.38 65.01C5.01 65.81 5.23 66.87 5.91 67.44C5.66 69.35 6.16 71.21 7.41 72.67C7.33 73.16 7.53 73.68 7.89 74.05C7.75 74.84 8.34 75.59 9.02 75.74C9 76.05 9.12 76.48 9.37 76.74C9.04 77.51 9.76999 78.71 10.49 78.82C10.48 79.29 10.81 79.84 11.19 80.08C11.31 80.5 11.8 80.95 12.19 81.05C12.04 81.65 12.54 82.57 13.17 82.71C13.13 83.31 13.81 84.17 14.47 84.21C14.55 84.52 14.8 84.85 15.03 85.01C15.24 85.9 16.16 86.27 16.96 86.36C16.86 87.23 17.12 88.3 18.06 88.6C18.29 89.28 19.38 89.82 19.97 89.6C20.08 90.01 20.5 90.43 20.87 90.59C20.89 91.75 22 92.92 23.2 92.57C23.37 92.79 23.64 92.99 23.93 93.05C24.05 93.55 24.71 94.2 25.39 94.17C25.52 94.31 25.7 94.39 25.87 94.45C26.11 95.01 26.79 95.41 27.37 95.37C27.67 95.66 28.25 95.83 28.66 95.72C28.9 95.82 29.03 96.03 29.25 96.17C29.33 97.05 30.55 97.75 31.35 97.41C31.41 97.43 31.46 97.45 31.52 97.47C31.77 98.5 33.16 99.22 34.03 98.6C34.42 98.97 35.08 98.93 35.4 98.83C35.7 100.02 37.29 100.59 38.42 99.93C38.58 100.47 39.68 101.04 40.31 100.71C40.8 101.53 42.25 101.51 43.1 101.43C43.94 102.26 45.88 102.96 46.71 101.81C47.28 102.32 48.27 102.8 49.12 102.62C49.41 102.74 49.86 102.79 50.17 102.63C50.79 103.16 51.89 103.38 52.56 102.82C52.93 103.12 53.79 103.26 54.27 102.85C54.65 103 55.12 102.82 55.38 102.65C56.16 103.41 57.7 102.95 58 101.99C58.28 102.12 58.64 102.06 58.91 101.94C59.34 102.31 60.42 102.34 60.88 101.81C60.93 101.81 60.97 101.79 61.02 101.78C62.07 102.46 63.72 102.05 64.75 101.51C65.27 101.77 66.33 101.48 66.85 101.15C67.37 101.26 68.12 100.85 68.34 100.42C68.6 100.37 68.82 100.18 68.99 100.03C69.33 100.11 69.86 100.03 70.16 99.75C71.08 99.85 71.65 98.91 71.73 98.54C71.82 98.54 71.91 98.54 72 98.53H72.01C72.48 98.92 73.64 98.82 74.01 98.24C74.47 98.35 75.11 98.04 75.39 97.63C75.86 97.6 76.34 97.1 76.44 96.76C77.43 97.21 78.83 96.48 78.98 95.38C80.13 95.51 81.28 94.39 81.73 93.42C82.1 93.31 82.47 92.98 82.64 92.65C83.24 92.62 83.88 92.08 84.01 91.48C84.41 91.23 84.73 90.91 84.77 90.48C85.25 90.43 85.89 89.98 86.06 89.51C87.28 89.91 89.01 88.83 88.72 87.45C88.88 87.34 89.02 87.24 89.12 87.1C89.95 87.08 90.83 86.48 90.87 85.55C91.32 85.32 91.61 84.63 91.58 84.24C92.3 84.36 93.33 83.33 93.35 82.43C93.95 82.13 94.43 81.36 94.37 80.71C94.9 80.26 95.06 79.42 94.82 78.8C95.54 78.8 96.26 77.56 96 76.89C96.35 77.03 97.67 76.12 97.48 75.29C97.74 75 97.8 74.49 97.77 74.15C98.63 73.94 99.18 72.69 98.76 71.85C99.03 71.54 99.28 71.09 99.15 70.64C100.17 70.6 100.92 68.92 100.14 68.08C100.5 67.83 100.71 67.36 100.72 66.93C101.18 66.55 101.24 65.54 100.94 65.15C101.78 64.79 102.28 63.59 101.76 62.78C101.78 62.57 101.77 62.35 101.71 62.13L101.68 62.11C102.06 61.74 102.21 61.03 101.96 60.52C102.3 59.99 103.02 59.29 102.7 58.49C102.93 58.16 102.89 57.67 102.78 57.38C103.06 56.58 103 55.44 102.35 54.83C102.65 54.46 102.77 53.86 102.57 53.37C102.68 53.06 102.66 52.77 102.62 52.55C102.95 52.09 102.81 51.35 102.55 50.97C102.55 50.93 102.57 50.89 102.56 50.85C103.03 50.43 103.25 49.69 103.04 49.07Z" fill="#4F4F4F"/>
</svg>
