<svg width="630" height="265" viewBox="0 0 630 265" fill="none" xmlns="http://www.w3.org/2000/svg">
<g clip-path="url(#clip0_467_334)">
<path fill-rule="evenodd" clip-rule="evenodd" d="M610.343 273.501L613 265.214L528.485 210.163L502.486 166.83L474.288 132.149L435.288 86.6652L417.955 30.3328L383.273 0L298.742 90.9826H242.394L192.545 173.315L129.697 188.481L17 265.214L21.27 273.501H610.343Z" fill="#D5E7F8"/>
<path fill-rule="evenodd" clip-rule="evenodd" d="M143.203 237.792L202.335 198.982L243.137 127.009L298.742 91.0459L339.814 82.0947L383.273 0L417.955 30.3328L435.288 86.6968L458.916 147.394L497.694 221.439L528.485 210.242L613 265.309L580.5 366.303H477.751L491.051 486.353L451.546 533.671L465.637 676.257L420.122 760.803L371.364 810.652L283.576 854L194.095 676.257L186.061 559.67L17 265.309L143.203 237.792Z" fill="#6EE1FF"/>
<path fill-rule="evenodd" clip-rule="evenodd" d="M17 265.436L173.061 570.108V682.805L283.576 854L371.364 810.652L420.122 760.819L465.637 676.289L472.137 544.109L511.136 492.094L517.652 398.913L580.5 366.398L613 265.436H17Z" fill="#0082C6"/>
<path fill-rule="evenodd" clip-rule="evenodd" d="M383.225 0L361.512 93.2125L383.225 169.076V236.289L420.122 147.426L435.32 86.7284L417.955 30.3328L383.225 0Z" fill="#5ACDF3"/>
<path fill-rule="evenodd" clip-rule="evenodd" d="M298.774 91.1724L261.973 134.473V236.289L298.774 163.731L315 118.247L298.774 91.1724Z" fill="#5ACDF3"/>
<path fill-rule="evenodd" clip-rule="evenodd" d="M129.665 188.544V236.321L17 265.436H172.176L185.998 205.909L129.665 188.544Z" fill="#23B2E8"/>
<path fill-rule="evenodd" clip-rule="evenodd" d="M420.169 147.299L425.135 212.045L491.13 265.436H370.827L420.169 147.299Z" fill="#23B2E8"/>
<path fill-rule="evenodd" clip-rule="evenodd" d="M315.032 118.152L341.806 163.699L339.054 211.428L344.147 246.521L339.735 265.436H304.167L318.543 232.082L297.319 192.466L298.853 163.699L315.032 118.152Z" fill="#23B2E8"/>
<path fill-rule="evenodd" clip-rule="evenodd" d="M370.827 265.436L378.37 351.627L386.641 454.597L430.971 366.714L476.027 340.62L491.13 265.436H370.827Z" fill="#016BAB"/>
<path fill-rule="evenodd" clip-rule="evenodd" d="M541.991 265.436V316.787L563.057 334.151L552.54 360.609L580.516 366.224L613 265.436H541.991Z" fill="#016BAB"/>
<path fill-rule="evenodd" clip-rule="evenodd" d="M517.81 398.881L477.798 394.754L491.13 480.075V504.841L511.294 492.173L517.81 398.881Z" fill="#016BAB"/>
<path fill-rule="evenodd" clip-rule="evenodd" d="M339.814 265.436L315.079 338.753L327.431 402.819L297.319 334.8L304.167 265.436H339.814Z" fill="#0082C6"/>
<path fill-rule="evenodd" clip-rule="evenodd" d="M171.559 265.436L148.659 354.41L171.559 388.285L166.988 462.473L172.982 569.95L17 265.436H171.559Z" fill="#0082C6"/>
<path fill-rule="evenodd" clip-rule="evenodd" d="M247.818 360.641L221.202 426.953L244.149 466.142L247.818 554.167L211.128 640.342L292.748 566.076L267.967 493.644L297.319 426.953L247.818 360.641Z" fill="#016BAB"/>
<path fill-rule="evenodd" clip-rule="evenodd" d="M370.763 588.248L330.198 711.872L365.94 777.82L371.364 810.588L420.122 760.787L361.591 711.872L370.763 588.248Z" fill="#016BAB"/>
<path fill-rule="evenodd" clip-rule="evenodd" d="M283.481 854L302.601 744.815L254.049 657.707L243.058 722.8L254.049 808.358L283.481 854Z" fill="#016BAB"/>
<path fill-rule="evenodd" clip-rule="evenodd" d="M211.017 640.342L201.844 548.221L185.998 496.538L214.322 504.682L221.123 427L244.039 466.173L247.708 554.183L211.017 640.342Z" fill="#025791"/>
<path fill-rule="evenodd" clip-rule="evenodd" d="M339.829 265.436L361.638 346.218L354.237 394.801L386.641 454.834L353.146 442.451L320.741 512.59L315 338.88L339.829 265.436Z" fill="#025791"/>
<path fill-rule="evenodd" clip-rule="evenodd" d="M330.293 711.983L283.687 854L371.443 810.683L366.035 777.915L330.293 711.983Z" fill="#06598C"/>
<path fill-rule="evenodd" clip-rule="evenodd" d="M217.011 265.436H293.191L297.319 427L247.834 360.736L217.011 265.436Z" fill="#025791"/>
<path fill-rule="evenodd" clip-rule="evenodd" d="M430.955 366.84L447.102 478.161L411.36 548.252V483.664L386.641 454.802L430.955 366.84Z" fill="#025791"/>
<path fill-rule="evenodd" clip-rule="evenodd" d="M172.223 265.436L177.932 323.539L167.083 462.662L101.657 366.461L172.223 265.436Z" fill="#025791"/>
<path fill-rule="evenodd" clip-rule="evenodd" d="M297.319 427L283.623 496.617L292.733 566.234L267.872 493.754L297.319 427Z" fill="#005C9B"/>
<path fill-rule="evenodd" clip-rule="evenodd" d="M320.82 504.841L370.827 588.216L283.687 854L302.807 744.894V657.833L320.82 512.606" fill="#025791"/>
<path fill-rule="evenodd" clip-rule="evenodd" d="M472.216 544.109L447.149 478.161L411.392 548.268L386.641 608.048L420.201 577.241L465.716 676.321L472.216 544.109Z" fill="#016BAB"/>
<path fill-rule="evenodd" clip-rule="evenodd" d="M262.02 236.368L217.011 265.436H293.191L298.885 163.731L262.02 236.368Z" fill="#92E8FF"/>
<path fill-rule="evenodd" clip-rule="evenodd" d="M383.225 0L344.258 53.7546H356.767L339.814 82.2054L350.773 130.868L361.575 93.339L356.767 73.9501L383.225 0Z" fill="#92E8FF"/>
<path fill-rule="evenodd" clip-rule="evenodd" d="M243.137 127.135L217.011 171.069H234.012L230.09 210.242L247.708 175.639L243.137 127.135Z" fill="#92E8FF"/>
<path fill-rule="evenodd" clip-rule="evenodd" d="M435.288 91.1724V163.778H451.166L439.273 206.478L497.646 221.566L491.004 265.436L425.056 212.156L420.122 147.521L435.288 91.1724Z" fill="#92E8FF"/>
</g>
<defs>
<clipPath id="clip0_467_334">
<rect width="630" height="265" fill="white"/>
</clipPath>
</defs>
</svg>
